<?xml version="1.0" encoding="UTF-8"?>
<svg version="1.1" xmlns="http://www.w3.org/2000/svg" width="512" height="512">
<path d="M0 0 C0.9005864 -0.00701431 1.80117279 -0.01402863 2.72904968 -0.02125549 C5.61759506 -0.03865309 8.50593541 -0.04510727 11.39453125 -0.046875 C12.87509003 -0.04788712 12.87509003 -0.04788712 14.38555908 -0.04891968 C28.85671684 -0.03318728 42.97697736 0.33212486 57.20703125 3.203125 C58.1088916 3.38004883 59.01075195 3.55697266 59.93994141 3.73925781 C66.4130302 5.03813787 72.81591613 6.54969626 79.20703125 8.203125 C80.02703613 8.41275879 80.84704102 8.62239258 81.69189453 8.83837891 C132.60551099 22.15361703 182.57308376 54.88203309 214.20703125 97.203125 C215.06893541 98.32427641 215.93091992 99.44536606 216.79296875 100.56640625 C223.9725365 110.01988446 230.26466007 119.93328017 236.20703125 130.203125 C236.60132324 130.88036621 236.99561523 131.55760742 237.40185547 132.25537109 C252.30988496 158.17436309 261.86854944 187.66664138 266.20703125 217.203125 C266.38435791 218.40775391 266.56168457 219.61238281 266.74438477 220.85351562 C268.34335625 232.51079854 268.56543655 244.07498598 268.51953125 255.828125 C268.51679703 257.28295792 268.51679703 257.28295792 268.51400757 258.7671814 C268.46861434 273.11868555 267.96326595 287.08255418 265.20703125 301.203125 C265.04605957 302.10015137 264.88508789 302.99717773 264.71923828 303.92138672 C252.40584681 371.97032153 211.66818002 430.43956033 155.43212891 469.68554688 C149.8578208 473.48737913 144.08486342 476.89655778 138.20703125 480.203125 C137.58103027 480.56325684 136.9550293 480.92338867 136.31005859 481.29443359 C110.27546433 496.20043773 80.85446991 505.8483455 51.20703125 510.203125 C50.00240234 510.38045166 48.79777344 510.55777832 47.55664062 510.74047852 C35.89935771 512.33945 24.33517027 512.5615303 12.58203125 512.515625 C11.12719833 512.51289078 11.12719833 512.51289078 9.64297485 512.51010132 C-4.7085293 512.46470809 -18.67239793 511.9593597 -32.79296875 509.203125 C-33.68999512 509.04215332 -34.58702148 508.88118164 -35.51123047 508.71533203 C-95.32135779 497.89274511 -152.83542704 463.83498043 -189.79296875 415.203125 C-190.2096582 414.66284668 -190.62634766 414.12256836 -191.05566406 413.56591797 C-198.73895605 403.5709134 -205.48139843 393.11103464 -211.79296875 382.203125 C-212.18726074 381.52588379 -212.58155273 380.84864258 -212.98779297 380.15087891 C-227.89582246 354.23188691 -237.45448694 324.73960862 -241.79296875 295.203125 C-241.97029541 293.99849609 -242.14762207 292.79386719 -242.33032227 291.55273438 C-243.92929375 279.89545146 -244.15137405 268.33126402 -244.10546875 256.578125 C-244.10364594 255.60823639 -244.10182312 254.63834778 -244.09994507 253.6390686 C-244.05455184 239.28756445 -243.54920345 225.32369582 -240.79296875 211.203125 C-240.55151123 209.85758545 -240.55151123 209.85758545 -240.30517578 208.48486328 C-229.51048035 148.82887595 -195.47432693 90.94848907 -146.79296875 54.203125 C-146.16084473 53.72166016 -145.5287207 53.24019531 -144.87744141 52.74414062 C-128.93992148 40.67127438 -111.91564722 30.63499426 -93.79296875 22.203125 C-93.09864746 21.87747559 -92.40432617 21.55182617 -91.68896484 21.21630859 C-63.38521777 8.12702218 -31.25429286 0.16397727 0 0 Z " fill="#4E92FE" transform="translate(243.79296875,-0.203125)"/>
<path d="M0 0 C4.39553416 1.46246977 7.64307484 3.85875222 11.1875 6.75 C12.42139224 7.73758263 13.65579378 8.72452918 14.890625 9.7109375 C15.54869141 10.23913086 16.20675781 10.76732422 16.88476562 11.31152344 C20.71025227 14.36520137 24.57464718 17.36883307 28.4375 20.375 C29.18217529 20.95733398 29.92685059 21.53966797 30.6940918 22.13964844 C31.77170776 22.97931152 31.77170776 22.97931152 32.87109375 23.8359375 C33.56114502 24.38773682 34.25119629 24.93953613 34.9621582 25.50805664 C36.93333219 27.04181076 36.93333219 27.04181076 39.07495117 28.02124023 C41.29196251 29.16629004 42.52794713 29.96919748 44 32 C44.86629981 36.79438062 44.65746265 41.46123594 44.4375 46.3125 C44.40591797 47.62541016 44.37433594 48.93832031 44.34179688 50.29101562 C44.25935992 53.52961009 44.14432328 56.7636694 44 60 C45.24652344 60.13277344 46.49304688 60.26554687 47.77734375 60.40234375 C55.40169173 61.21445114 59.69023121 65.34367574 64.51953125 70.90234375 C68.52424766 76.57657254 68.74716747 82.26626851 68 89 C65.93111102 96.2690694 62.05572365 101.18302081 55.6875 105.25 C51.85909772 107.34128583 48.31917611 107.69689992 44 108 C44.04640625 108.87398438 44.0928125 109.74796875 44.140625 110.6484375 C44.79589408 132.9743912 37.44887398 154.33087882 22.625 171.25 C14.29848918 180.03120083 5.69272586 187.29617676 -5 193 C-5.66 193 -6.32 193 -7 193 C-6.7834375 193.51304687 -6.566875 194.02609375 -6.34375 194.5546875 C-2.39867199 205.40365202 -2.07498944 218.89455631 -6.7421875 229.55078125 C-7.15726563 230.35902344 -7.57234375 231.16726563 -8 232 C-8.65355469 233.28970703 -8.65355469 233.28970703 -9.3203125 234.60546875 C-16.11396855 246.87488583 -25.96779494 254.45828841 -39.375 258.375 C-52.96638556 261.79708331 -65.03325374 260.1323953 -77.3125 253.25 C-85.73838898 247.78751119 -91.47962953 240.92037604 -96 232 C-96.41507812 231.19175781 -96.83015625 230.38351562 -97.2578125 229.55078125 C-101.92501056 218.89455631 -101.60132801 205.40365202 -97.65625 194.5546875 C-97.33140625 193.78511719 -97.33140625 193.78511719 -97 193 C-97.721875 192.72929687 -98.44375 192.45859375 -99.1875 192.1796875 C-120.9233601 183.06270174 -135.26358783 162.57329487 -144.0234375 141.54296875 C-148.00280228 130.60956552 -148.2823454 119.48204638 -148 108 C-149.299375 107.95875 -150.59875 107.9175 -151.9375 107.875 C-157.73812952 107.17272253 -161.83475555 105.10284379 -166 101 C-170.49176431 94.65977301 -172.96180798 88.34605113 -172.4453125 80.53125 C-171.02591962 72.46312205 -166.46728517 67.7376624 -160 63 C-155.28798316 60.07854956 -153.8764253 60 -148 60 C-148 49.11 -148 38.22 -148 27 C-140 33 -140 33 -137.55859375 34.87109375 C-120.95275653 47.13433634 -102.22068592 52.16799825 -81.8125 52.25 C-80.54857422 52.270625 -79.28464844 52.29125 -77.98242188 52.3125 C-70.14319531 52.34494377 -63.4185255 51.53551455 -56 49 C-54.86949219 48.63519531 -53.73898438 48.27039063 -52.57421875 47.89453125 C-28.07936165 38.71310308 -11.39940633 23.3169675 0 0 Z " fill="#F9D2A0" transform="translate(308,188)"/>
<path d="M0 0 C8.57244303 1.51041616 16.9892083 1.80377553 25.6875 1.8125 C27.53214844 1.82023437 27.53214844 1.82023437 29.4140625 1.828125 C36.10611909 1.77681679 42.02298343 1.15858825 48.5 -0.5 C52.0625 -0.625 52.0625 -0.625 54.5 -0.5 C57.67025122 7.22748734 56.82065554 14.21737786 54.83984375 22.140625 C54.43209122 24.97145868 54.57520283 26.78667999 55.5 29.5 C57.36616693 31.45004071 57.36616693 31.45004071 59.8125 33.125 C80.99013002 49.24302456 96.56399612 69.39585002 100.87597656 96.11914062 C102.38686836 107.32372237 101.80326229 118.7855053 101.6875 130.0625 C101.67241963 132.63475775 101.65873718 135.2070241 101.64648438 137.77929688 C101.61375958 144.01972184 101.56382841 150.25981963 101.5 156.5 C99.67708333 155.5234375 97.85416667 154.546875 96.03125 153.5703125 C92.6633888 152.14624774 89.04738671 151.38684668 85.5 150.5 C85.5 141.26 85.5 132.02 85.5 122.5 C84.18 121.84 82.86 121.18 81.5 120.5 C79.59896464 119.11846679 77.727667 117.69575047 75.875 116.25 C75.32231445 115.82106445 74.76962891 115.39212891 74.20019531 114.95019531 C71.55384861 112.89417636 68.91644623 110.82685441 66.28027344 108.7578125 C64.71978114 107.53307244 63.15840396 106.30945909 61.59619141 105.08691406 C60.07260443 103.89404534 58.55130603 102.69824563 57.03271484 101.49902344 C52.01582554 97.56982189 46.84925055 93.96238969 41.5 90.5 C41.22929687 91.37527344 40.95859375 92.25054687 40.6796875 93.15234375 C33.37830748 113.87182281 15.25123682 127.32907338 -3.72363281 136.66308594 C-7.87175742 138.61742502 -12.09321427 140.23913496 -16.5 141.5 C-17.09997803 141.67587646 -17.69995605 141.85175293 -18.31811523 142.03295898 C-25.43392976 143.88671398 -32.49722421 143.83130534 -39.8125 143.8125 C-41.05451172 143.82861328 -42.29652344 143.84472656 -43.57617188 143.86132812 C-51.66275894 143.8655686 -58.76969665 142.83982362 -66.5 140.5 C-67.5098999 140.2100415 -68.5197998 139.92008301 -69.56030273 139.62133789 C-83.0320016 135.66216656 -95.56257862 128.43742138 -105.5 118.5 C-105.83 129.06 -106.16 139.62 -106.5 150.5 C-110.46 151.49 -110.46 151.49 -114.5 152.5 C-116.97035073 153.49898843 -116.97035073 153.49898843 -119 154.625 C-120.155 155.24375 -121.31 155.8625 -122.5 156.5 C-122.5937267 147.97937138 -122.66427462 139.45896713 -122.70724869 130.93794632 C-122.72790039 126.97895016 -122.75579279 123.02031304 -122.80175781 119.06152344 C-123.17225959 86.26108598 -120.32915357 58.28487461 -96.92529297 33.45874023 C-81.56985249 17.78484754 -62.67637123 6.30642437 -41.5 0.5 C-40.62859375 0.25507812 -39.7571875 0.01015625 -38.859375 -0.2421875 C-26.33696453 -3.1168289 -12.54163676 -2.2353227 0 0 Z " fill="#252647" transform="translate(266.5,97.5)"/>
<path d="M0 0 C-0.33 1.11375 -0.66 2.2275 -1 3.375 C-3.5026388 14.8363603 -3.42142518 27.45927241 2 38 C2.44730469 38.87140625 2.89460938 39.7428125 3.35546875 40.640625 C9.80429326 52.18972626 18.88076955 59.11560326 31.375 63.375 C43.9816194 66.88011147 56.27188479 65.17046823 68.08203125 59.52734375 C79.45187858 52.80084666 86.86313967 43.14642434 91.11328125 30.75390625 C92.13243417 26.43934256 92.3021328 22.5367378 92.25 18.125 C92.24613281 17.33432129 92.24226562 16.54364258 92.23828125 15.72900391 C92.15687659 10.24210368 91.5653743 5.28313826 90 0 C115.07427069 6.46879219 136.81172361 19.9180672 156 37 C156.70511719 37.62003906 157.41023438 38.24007812 158.13671875 38.87890625 C171.83079365 51.71171857 183.44315656 69.08649154 189 87 C156.46731485 107.35670942 122.26867005 122.37888643 84 128 C82.79537109 128.17732666 81.59074219 128.35465332 80.34960938 128.53735352 C68.69232646 130.136325 57.12813902 130.3584053 45.375 130.3125 C44.40511139 130.31067719 43.43522278 130.30885437 42.4359436 130.30697632 C28.08443945 130.26158309 14.12057082 129.7562347 0 127 C-0.89702637 126.83902832 -1.79405273 126.67805664 -2.71826172 126.51220703 C-37.12636135 120.2860934 -70.09006968 106.65328071 -99 87 C-87.48613446 52.68983785 -59.70171861 26.21493689 -28 10 C-6.85619561 0 -6.85619561 0 0 0 Z " fill="#316CFF" transform="translate(211,382)"/>
<path d="M0 0 C4.6004458 1.3322558 8.35204694 2.84925719 12 6 C13.17150407 10.71725638 12.99239723 15.16671018 12.93652344 19.99755859 C13.18333655 27.78356315 16.93841928 35.163889 21.87109375 41.0234375 C29.23027527 47.85599869 37.56487137 50.35644635 47.38671875 50.2109375 C55.91351809 49.52267567 64.18820561 45.40972292 69.79296875 38.92578125 C77.32348709 28.27149234 77.60478043 17.63339783 78 5 C79.40691607 4.27249212 80.82606022 3.56859647 82.25 2.875 C83.03890625 2.48054688 83.8278125 2.08609375 84.640625 1.6796875 C87 1 87 1 89.171875 1.4453125 C92.42287242 4.21004962 92.79133459 7.97051452 93.21386719 12.08007812 C93.75629187 21.65278885 93.45659721 30.32209176 89 39 C88.34644531 40.28970703 88.34644531 40.28970703 87.6796875 41.60546875 C80.88603145 53.87488583 71.03220506 61.45828841 57.625 65.375 C44.03361444 68.79708331 31.96674626 67.1323953 19.6875 60.25 C11.26161102 54.78751119 5.52037047 47.92037604 1 39 C0.58492187 38.19175781 0.16984375 37.38351562 -0.2578125 36.55078125 C-4.92501056 25.89455631 -4.60132801 12.40365202 -0.65625 1.5546875 C-0.4396875 1.04164063 -0.223125 0.52859375 0 0 Z " fill="#FBFCFE" transform="translate(211,381)"/>
<path d="M0 0 C1.60488281 0.433125 1.60488281 0.433125 3.2421875 0.875 C23.56809892 5.96553575 43.81885052 5.4464789 64 0 C64.9010285 23.80794531 64.9010285 23.80794531 57.375 33.75 C50.72349557 40.87300347 41.79838636 44.94044668 32.125 45.3125 C22.53541279 45.06586916 13.83620997 41.0890837 7.20703125 34.11328125 C1.03220138 26.35281606 -0.46219201 19.19169744 -0.1875 9.5 C-0.17396484 8.5821875 -0.16042969 7.664375 -0.14648438 6.71875 C-0.11148097 4.47853197 -0.06238869 2.23959406 0 0 Z " fill="#F7BE8F" transform="translate(224,387)"/>
<path d="M0 0 C0 15.84 0 31.68 0 48 C-12.27857143 46.63571429 -12.27857143 46.63571429 -18 41 C-22.49176431 34.65977301 -24.96180798 28.34605113 -24.4453125 20.53125 C-23.02591962 12.46312205 -18.46728517 7.7376624 -12 3 C-7.28798316 0.07854956 -5.8764253 0 0 0 Z " fill="#F4BC90" transform="translate(160,248)"/>
<path d="M0 0 C10.11208897 1.26401112 14.11527432 3.53085351 20.51953125 10.90234375 C24.52424766 16.57657254 24.74716747 22.26626851 24 29 C21.72013807 37.01032569 17.12833122 41.90601305 10.13671875 46.203125 C8 47 8 47 0 48 C0 32.16 0 16.32 0 0 Z " fill="#F4BD90" transform="translate(352,248)"/>
<path d="M0 0 C3.01938264 1.21767073 4.34641469 3.16463801 6.390625 5.67578125 C11.26950984 11.3114568 16.63303775 15.25685016 24.3046875 16.1015625 C34.00086779 16.39398699 40.37083555 13.13273196 47.41015625 6.61328125 C49.5073538 4.4924133 51.38642203 2.27531034 53.140625 -0.13671875 C57.015625 0.73828125 57.015625 0.73828125 58.140625 1.86328125 C58.24310254 6.88468062 57.15414559 9.32157187 53.703125 12.98828125 C46.32597592 19.81016105 36.47725692 24.3959101 26.30078125 24.04296875 C14.7730014 23.08405759 6.42342829 18.74225692 -1.58203125 10.37890625 C-4.19914685 7.27358254 -3.94537421 4.81924482 -3.859375 0.86328125 C-1.859375 -0.13671875 -1.859375 -0.13671875 0 0 Z " fill="#F4B28E" transform="translate(228.859375,332.13671875)"/>
<path d="M0 0 C3.78580423 2.03850997 7.05061257 4.10122513 9 8 C9.84236006 14.52829047 9.84236006 14.52829047 7.98046875 17.78125 C4.78043726 21.72569969 2.28131958 23.85296333 -2.8125 24.4375 C-7.68289567 24.32089753 -9.68980687 22.46782137 -13 19 C-15.55550471 15.51522085 -15.57216273 12.21970013 -15 8 C-10.93468377 1.70250093 -7.64234618 -0.63686218 0 0 Z " fill="#2A2A49" transform="translate(303,256)"/>
<path d="M0 0 C3.79259576 2.04216695 7.00344184 4.11780358 9 8 C9.5494224 12.23840134 9.29119754 14.43917511 7.3125 18.25 C3.97520532 22.21867475 1.71950578 23.74989007 -3.4375 24.5 C-8.19401989 23.83241826 -9.63057529 22.36942471 -13 19 C-15.10081332 15.84878002 -15.53041608 13.89550991 -15.4609375 10.13671875 C-14.61684071 6.22382939 -11.9177214 3.60780798 -9 1 C-5.89046621 -0.5547669 -3.43733239 -0.28644437 0 0 Z " fill="#292948" transform="translate(215,256)"/>
<path d="M0 0 C5.28 0 10.56 0 16 0 C14 6 14 6 12.3125 7.4375 C8.86041488 8.27719638 6.41477198 7.93130145 3 7 C1.07828158 4.58235424 0 3.11532786 0 0 Z " fill="#F7BE8F" transform="translate(248,312)"/>
<path d="M0 0 C-1.28519565 2.86697492 -2.57129254 4.97607712 -5 7 C-5.66 7 -6.32 7 -7 7 C-3.86206897 0 -3.86206897 0 0 0 Z " fill="#37344E" transform="translate(208,257)"/>
</svg>
