<?xml version="1.0" encoding="UTF-8"?>
<svg version="1.1" xmlns="http://www.w3.org/2000/svg" width="512" height="512">
<path d="M0 0 C1.01790619 0.00215515 2.03581238 0.0043103 3.08456421 0.00653076 C17.69363523 0.05620146 32.02575853 0.30709809 46.375 3.3125 C47.34985352 3.51117676 48.32470703 3.70985352 49.32910156 3.91455078 C97.7109774 14.03517194 141.69928269 35.9516877 177.375 70.3125 C178.3640332 71.26068604 178.3640332 71.26068604 179.37304688 72.22802734 C188.86130305 81.37247479 197.6012044 90.66984009 205.375 101.3125 C206.23306152 102.46355017 207.09113451 103.61459177 207.94921875 104.765625 C213.98677396 112.95525981 219.36957302 121.45788276 224.375 130.3125 C224.7771875 131.01971191 225.179375 131.72692383 225.59375 132.45556641 C238.6191741 155.59095836 247.36801461 180.76212409 252.6875 206.75 C252.83485596 207.46889404 252.98221191 208.18778809 253.1340332 208.9284668 C256.10789088 224.57475609 256.74800362 240.04818046 256.6875 255.9375 C256.68534485 256.95540619 256.6831897 257.97331238 256.68096924 259.02206421 C256.63129854 273.63113523 256.38040191 287.96325853 253.375 302.3125 C253.07698486 303.77478027 253.07698486 303.77478027 252.77294922 305.26660156 C242.65232806 353.6484774 220.7358123 397.63678269 186.375 433.3125 C185.74287598 433.97185547 185.11075195 434.63121094 184.45947266 435.31054688 C175.31502521 444.79880305 166.01765991 453.5387044 155.375 461.3125 C154.22394983 462.17056152 153.07290823 463.02863451 151.921875 463.88671875 C143.73224019 469.92427396 135.22961724 475.30707302 126.375 480.3125 C125.66778809 480.7146875 124.96057617 481.116875 124.23193359 481.53125 C101.09654164 494.5566741 75.92537591 503.30551461 49.9375 508.625 C49.21860596 508.77235596 48.49971191 508.91971191 47.7590332 509.0715332 C32.11274391 512.04539088 16.63931954 512.68550362 0.75 512.625 C-0.77685928 512.62176727 -0.77685928 512.62176727 -2.33456421 512.61846924 C-16.94363523 512.56879854 -31.27575853 512.31790191 -45.625 509.3125 C-47.08728027 509.01448486 -47.08728027 509.01448486 -48.57910156 508.71044922 C-96.9609774 498.58982806 -140.94928269 476.6733123 -176.625 442.3125 C-177.28435547 441.68037598 -177.94371094 441.04825195 -178.62304688 440.39697266 C-188.11130305 431.25252521 -196.8512044 421.95515991 -204.625 411.3125 C-205.48306152 410.16144983 -206.34113451 409.01040823 -207.19921875 407.859375 C-213.23677396 399.66974019 -218.61957302 391.16711724 -223.625 382.3125 C-224.0271875 381.60528809 -224.429375 380.89807617 -224.84375 380.16943359 C-237.8691741 357.03404164 -246.61801461 331.86287591 -251.9375 305.875 C-252.08485596 305.15610596 -252.23221191 304.43721191 -252.3840332 303.6965332 C-255.35789088 288.05024391 -255.99800362 272.57681954 -255.9375 256.6875 C-255.93534485 255.66959381 -255.9331897 254.65168762 -255.93096924 253.60293579 C-255.88129854 238.99386477 -255.63040191 224.66174147 -252.625 210.3125 C-252.42632324 209.33764648 -252.22764648 208.36279297 -252.02294922 207.35839844 C-241.90232806 158.9765226 -219.9858123 114.98821731 -185.625 79.3125 C-184.99287598 78.65314453 -184.36075195 77.99378906 -183.70947266 77.31445312 C-174.56502521 67.82619695 -165.26765991 59.0862956 -154.625 51.3125 C-153.47394983 50.45443848 -152.32290823 49.59636549 -151.171875 48.73828125 C-142.98224019 42.70072604 -134.47961724 37.31792698 -125.625 32.3125 C-124.91778809 31.9103125 -124.21057617 31.508125 -123.48193359 31.09375 C-100.34654164 18.0683259 -75.17537591 9.31948539 -49.1875 4 C-48.46860596 3.85264404 -47.74971191 3.70528809 -47.0090332 3.5534668 C-31.36274391 0.57960912 -15.88931954 -0.06050362 0 0 Z " fill="#FEC100" transform="translate(255.625,-0.3125)"/>
<path d="M0 0 C0.73232346 -0.00988449 1.46464691 -0.01976898 2.21916199 -0.029953 C33.10429606 -0.36074344 68.74016493 3.05451326 92.5 25.38671875 C99.2065613 32.77953284 102.74413869 40.1231562 102.56640625 50.171875 C101.73324698 56.77823894 98.82084844 62.82487623 95.95703125 68.78125 C93.46294729 73.97502341 92.44399352 77.44469118 93.1796875 83.23828125 C94.55068148 86.89649445 96.2816808 90.10948912 98.71484375 93.16796875 C105.49497773 102.75055811 103.91023372 118.0849791 104.1796875 129.23828125 C107.40904271 124.93464457 108.69243596 121.89227631 109.1796875 116.55078125 C110.32653801 107.10671665 112.44507036 99.15997109 119.1796875 92.23828125 C123.45697837 92.72500745 125.20027266 93.81624474 127.9296875 97.11328125 C128.52265625 97.81195313 129.115625 98.510625 129.7265625 99.23046875 C133.17835453 103.99988032 132.78251042 109.61429799 132.1796875 115.23828125 C128.56175359 128.80994554 119.10013616 139.19580566 107.1796875 146.23828125 C106.44339111 146.50809814 105.70709473 146.77791504 104.94848633 147.0559082 C100.36080876 148.65496318 100.36080876 148.65496318 96.99560547 151.96508789 C96.12743446 154.13656966 95.47820982 156.29348359 94.8671875 158.55078125 C92.29981874 166.62237298 89.01036437 173.99879417 85.0546875 181.48828125 C84.55155029 182.45161377 84.04841309 183.41494629 83.5300293 184.4074707 C81.38824827 188.42767302 79.42968982 192.01888103 76.34765625 195.37890625 C72.28524152 200.85264594 73.55336054 209.21811165 73.6171875 215.73828125 C73.77914221 237.14446928 69.05300293 256.28200684 55.1796875 273.23828125 C54.52484375 274.0684375 53.87 274.89859375 53.1953125 275.75390625 C43.44396981 287.41152645 30.30549934 295.24228254 16.9921875 302.23388672 C15.1490116 303.22248257 15.1490116 303.22248257 13.3671875 304.44970703 C10.38038567 306.40733948 8.7823667 307.33203135 5.19140625 306.7734375 C1.61629704 304.95110557 -1.69735144 302.93905127 -5.0078125 300.67578125 C-5.66418701 300.23105469 -6.32056152 299.78632813 -6.99682617 299.328125 C-28.38932974 284.64408111 -44.44282168 267.03296312 -50.30859375 241.2421875 C-50.8358066 238.01693531 -50.85017759 234.90566876 -50.80078125 231.640625 C-50.63531184 217.12675935 -52.63333228 210.14163383 -62.12548828 199.33300781 C-72.14533691 186.94892524 -79.8320636 170.23058688 -84.4987793 155.02807617 C-85.6663442 151.3562541 -86.21654289 149.66136722 -89.45703125 147.390625 C-90.46378906 146.98972656 -91.47054687 146.58882812 -92.5078125 146.17578125 C-104.65089936 140.71870728 -111.93616789 131.40004811 -117.09375 119.24609375 C-119.1092096 113.67649033 -120.13596713 107.77450417 -118.01953125 102.0859375 C-114.8721726 96.45097579 -110.3292241 93.40680557 -104.8203125 90.23828125 C-97.73008027 94.96510274 -96.85399808 109.14702052 -95.21508789 117.23242188 C-94.4795813 120.76285349 -93.8440254 123.2027119 -91.8203125 126.23828125 C-91.72234375 125.08972656 -91.624375 123.94117188 -91.5234375 122.7578125 C-89.99094098 106.2794701 -86.75931577 93.30986519 -75.2734375 81 C-72.76597 77.96003268 -72.31379334 74.56421468 -72.328125 70.6875 C-73.20249976 66.33644466 -75.71554931 62.85760522 -78.09375 59.16796875 C-82.25225154 52.11168785 -82.61605699 45.26449422 -81.8203125 37.23828125 C-80.91184165 34.20840819 -79.62519955 31.823499 -77.8203125 29.23828125 C-76.7684375 27.72234375 -76.7684375 27.72234375 -75.6953125 26.17578125 C-58.65203738 7.18176982 -24.35317874 0.26991226 0 0 Z " fill="#FEE7BD" transform="translate(249.8203125,119.76171875)"/>
<path d="M0 0 C17.5774729 8.07089263 28.79205059 28.96414946 35.19140625 46.2109375 C37.70521614 54.14651854 38.38099788 61.5246359 38.4375 69.8125 C38.4526062 71.24384277 38.4526062 71.24384277 38.46801758 72.70410156 C38.35232482 82.16629189 36.03488441 90.01363163 31 98 C31.83402344 98.2371875 32.66804688 98.474375 33.52734375 98.71875 C37.57119732 100.21074547 40.93935791 102.1940835 44.5625 104.5 C45.25923828 104.93997314 45.95597656 105.37994629 46.67382812 105.83325195 C53.4358833 110.16894982 59.7639502 114.94560832 66 120 C66.73605469 120.56976563 67.47210938 121.13953125 68.23046875 121.7265625 C78.6672703 130.18432982 85.78881813 141.7768303 91 154 C91.47953125 155.03253906 91.47953125 155.03253906 91.96875 156.0859375 C92 158 92 158 90.18359375 160.41015625 C82.84632678 167.49693331 75.17975491 173.90637202 67 180 C66.4234668 180.43199707 65.84693359 180.86399414 65.25292969 181.30908203 C56.51967169 187.81587702 47.47914607 193.64153309 38 199 C36.93918213 199.60328125 36.93918213 199.60328125 35.85693359 200.21875 C12.72154164 213.2441741 -12.44962409 221.99301461 -38.4375 227.3125 C-39.15639404 227.45985596 -39.87528809 227.60721191 -40.6159668 227.7590332 C-56.26225609 230.73289088 -71.73568046 231.37300362 -87.625 231.3125 C-88.64290619 231.31034485 -89.66081238 231.3081897 -90.70956421 231.30596924 C-105.31863523 231.25629854 -119.65075853 231.00540191 -134 228 C-135.46228027 227.70198486 -135.46228027 227.70198486 -136.95410156 227.39794922 C-185.43959228 217.25565368 -229.1708525 195.28064485 -265 161 C-266.43666016 159.75863281 -266.43666016 159.75863281 -267.90234375 158.4921875 C-270 156 -270 156 -270.00390625 153.57421875 C-258.78817041 124.81480273 -232.81207787 110.07255826 -206.65380859 96.71166992 C-205 96 -205 96 -203 96 C-203.28875 95.08863281 -203.5775 94.17726563 -203.875 93.23828125 C-210.20443655 71.79196534 -207.79906876 51.37660178 -197.20703125 31.734375 C-194.09975764 26.28729528 -190.25890746 21.58651573 -186 17 C-185.28328125 16.2265625 -184.5665625 15.453125 -183.828125 14.65625 C-180.42877881 11.12910884 -177.28609131 8.42385853 -173 6 C-172.5153125 6.99257813 -172.030625 7.98515625 -171.53125 9.0078125 C-165.02807696 22.23552226 -158.33655769 34.81448973 -149.1015625 46.35546875 C-146.07525624 50.16366455 -144.75899817 52.1497449 -144.7265625 56.98046875 C-144.70033813 58.46740234 -144.70033813 58.46740234 -144.67358398 59.984375 C-144.65755127 61.04140625 -144.64151855 62.0984375 -144.625 63.1875 C-143.9837286 83.98014568 -138.3068741 102.43236688 -124 118 C-123.34773437 118.7321875 -122.69546875 119.464375 -122.0234375 120.21875 C-113.28365627 129.5149967 -100.10169 140.55783887 -88 145 C-85.5272247 144.48571888 -85.5272247 144.48571888 -83 143 C-82.41927734 142.71680908 -81.83855469 142.43361816 -81.24023438 142.1418457 C-55.76585643 129.70686276 -34.80195421 112.7329113 -25.1875 85.1875 C-24.78639874 83.79317131 -24.39099643 82.39719595 -24 81 C-23.64679688 79.7728125 -23.29359375 78.545625 -22.9296875 77.28125 C-21.96474866 72.90473919 -21.87502572 68.63687757 -21.90234375 64.17578125 C-21.90324257 63.10549934 -21.90324257 63.10549934 -21.90415955 62.01359558 C-21.90961261 59.03735196 -21.91763573 56.06346818 -21.99633789 53.08813477 C-22.27170771 41.48802099 -19.97655589 34.9123448 -13.13040161 25.6312561 C-10.15602543 21.33900346 -8.15969638 16.42318207 -6 11.6875 C-5.06408781 9.66983564 -4.12667442 7.65286669 -3.1875 5.63671875 C-2.78917969 4.76748779 -2.39085937 3.89825684 -1.98046875 3.00268555 C-1 1 -1 1 0 0 Z " fill="#677078" transform="translate(344,281)"/>
<path d="M0 0 C-2.14949528 2.2226979 -4.41918897 4.17069869 -6.8125 6.125 C-13.46295797 11.93192562 -17.27781336 18.68220749 -20 27 C-19.34515625 26.74605469 -18.6903125 26.49210937 -18.015625 26.23046875 C12.35811132 14.77596649 45.92499268 14.46179554 76 27 C78.41241468 28.24005154 80.68804693 29.57581181 83 31 C80.55282086 32.63145276 78.58934753 33.66017765 75.90234375 34.734375 C75.09990234 35.06179687 74.29746094 35.38921875 73.47070312 35.7265625 C71.81083011 36.39716656 70.14941816 37.06397683 68.48632812 37.7265625 C62.28330784 40.2688647 56.66192358 43.41739886 51 47 C51.66306152 47.05945801 52.32612305 47.11891602 53.00927734 47.18017578 C73.8187877 49.13207838 94.99439272 52.29214466 111 67 C108.76106212 68.72225991 106.56647955 70.25445765 104.125 71.6875 C98.84495315 75.59473467 95.00474218 80.7098915 93 87 C92.17288897 94.89602503 92.76865727 102.1682074 94.875 109.8125 C100.76062658 131.19798403 103.16282219 157.95476978 92.5 178.125 C91.10020628 180.43658597 89.71759253 182.32519648 87.9375 184.375 C83.36075926 190.57574551 81.9073567 197.78303125 81 205.3125 C80.34082382 210.6800775 79.66055287 213.9962703 76 218 C75.34 218.33 74.68 218.66 74 219 C73.97812622 218.04915527 73.97812622 218.04915527 73.95581055 217.07910156 C73.91812109 195.77286391 73.91812109 195.77286391 65.3046875 176.83984375 C62.52384927 172.91836229 62.48061211 168.62896698 63 164 C63.86937907 161.15930725 65.07903838 158.54406381 66.375 155.875 C70.57366746 146.91442921 74.15118795 138.60249377 71.3125 128.5703125 C65.41915947 114.37718405 53.88086994 106.93372268 40.18017578 100.89257812 C35.91558328 99.14662626 31.5675442 97.67705157 27.1875 96.25 C26.33575195 95.96833984 25.48400391 95.68667969 24.60644531 95.39648438 C10.23394446 90.917438 -3.90556389 89.46601561 -18.875 89.625 C-20.05438644 89.63197906 -20.05438644 89.63197906 -21.25759888 89.63909912 C-33.05557534 89.72078122 -44.49732777 90.16445754 -56 93 C-56.83450684 93.19867676 -57.66901367 93.39735352 -58.52880859 93.60205078 C-75.60013928 97.76921598 -96.93410316 103.70620966 -107.0625 119.3125 C-110.66588975 125.63446138 -110.70425927 131.86350609 -110 139 C-108.34976534 144.59759595 -106.06934107 149.49714227 -102.6875 154.25 C-100.41613453 157.95148447 -100.31855048 160.76649489 -101 165 C-102.39761543 169.02842095 -104.30301554 171.36314827 -107.375 174.1875 C-116.72357432 183.12102133 -118.15484845 196.5931533 -119.2109375 208.81640625 C-119.79142509 214.79142509 -119.79142509 214.79142509 -122 217 C-123.55952285 212.07067695 -125.02328971 207.16373033 -126.0703125 202.09765625 C-128.19117821 191.87582841 -130.9706925 182.82135879 -135.87744141 173.56860352 C-149.12236911 148.18201694 -143.21546493 108.36816202 -135.33129883 82.10620117 C-133.27000478 75.56075504 -130.99125283 69.18485511 -128 63 C-127.49984375 61.95972656 -126.9996875 60.91945312 -126.484375 59.84765625 C-120.6262464 48.3367073 -110.06103796 30.35367932 -97 26 C-97.28746094 26.56976563 -97.57492188 27.13953125 -97.87109375 27.7265625 C-102.24973688 36.54445283 -103.71494981 44.10875827 -104 54 C-103.34 54 -102.68 54 -102 54 C-101.73058594 53.41347656 -101.46117187 52.82695313 -101.18359375 52.22265625 C-99.09262269 48.29604723 -96.01107491 45.24520912 -93 42 C-92.21496094 41.14921875 -91.42992187 40.2984375 -90.62109375 39.421875 C-72.55713102 20.57720449 -49.38438174 7.84712226 -24 2 C-23.03191406 1.773125 -22.06382812 1.54625 -21.06640625 1.3125 C-14.03218159 -0.15764274 -7.16607676 -0.20507056 0 0 Z " fill="#8A5C42" transform="translate(279,31)"/>
<path d="M0 0 C0.33 0 0.66 0 1 0 C1.10062959 4.42499286 1.172275 8.84933903 1.21972656 13.27514648 C1.23955498 14.77331168 1.26662655 16.27140263 1.30175781 17.76928711 C1.76871367 38.22607402 -3.87809667 56.96211815 -17 73 C-17.65484375 73.83015625 -18.3096875 74.6603125 -18.984375 75.515625 C-28.73571769 87.1732452 -41.87418816 95.00400129 -55.1875 101.99560547 C-57.0306759 102.98420132 -57.0306759 102.98420132 -58.8125 104.21142578 C-61.79930183 106.16905823 -63.3973208 107.0937501 -66.98828125 106.53515625 C-70.56339046 104.71282432 -73.87703894 102.70077002 -77.1875 100.4375 C-77.84387451 99.99277344 -78.50024902 99.54804688 -79.17651367 99.08984375 C-97.62344012 86.42767559 -112.73750895 71.53114994 -120 50 C-120.31839844 49.06671875 -120.63679687 48.1334375 -120.96484375 47.171875 C-124.03453328 36.3643045 -123.27811982 25.12907167 -123 14 C-119.24080682 17.18567863 -115.56193875 20.40639607 -112 23.8125 C-102.36400786 32.35051344 -91.5045052 37.9686048 -79 41 C-78.37738281 41.18691406 -77.75476563 41.37382812 -77.11328125 41.56640625 C-61.23756517 44.82371583 -45.07425818 39.66504897 -31.43359375 31.609375 C-19.6241846 23.79962127 -8.90549973 13.67858352 -1.20703125 1.765625 C-0.80871094 1.18296875 -0.41039062 0.6003125 0 0 Z " fill="#F8DBA3" transform="translate(322,320)"/>
<path d="M0 0 C0.33 0 0.66 0 1 0 C1.10062959 4.42499286 1.172275 8.84933903 1.21972656 13.27514648 C1.23955498 14.77331168 1.26662655 16.27140263 1.30175781 17.76928711 C1.604234 31.02041319 0.35300989 46.51092205 -7 58 C-8.71875 58.57421875 -8.71875 58.57421875 -11 59 C-13.17468264 59.96123214 -15.34040953 60.94282376 -17.5 61.9375 C-34.5123743 69.35078694 -55.67737779 69.67095931 -73 63 C-74.0209375 62.63777344 -75.041875 62.27554688 -76.09375 61.90234375 C-96.6618059 54.08330188 -110.86099382 39.04904191 -121 20 C-121.33 25.61 -121.66 31.22 -122 37 C-122.33 37 -122.66 37 -123 37 C-123 29.41 -123 21.82 -123 14 C-119.1935493 17.26267203 -115.58674768 20.38267253 -112 23.8125 C-102.36400786 32.35051344 -91.5045052 37.9686048 -79 41 C-78.37738281 41.18691406 -77.75476563 41.37382812 -77.11328125 41.56640625 C-61.23756517 44.82371583 -45.07425818 39.66504897 -31.43359375 31.609375 C-19.6241846 23.79962127 -8.90549973 13.67858352 -1.20703125 1.765625 C-0.80871094 1.18296875 -0.41039062 0.6003125 0 0 Z " fill="#DDC392" transform="translate(322,320)"/>
<path d="M0 0 C4.27729087 0.4867262 6.02058516 1.57796349 8.75 4.875 C9.63945312 5.92300781 9.63945312 5.92300781 10.546875 6.9921875 C13.99866703 11.76159907 13.60282292 17.37601674 13 23 C9.39283691 36.53126055 -0.06124528 47.03145647 -12 54 C-15.00554705 55.28747023 -17.82602292 56.16748142 -21 57 C-20.71125 56.23042969 -20.4225 55.46085937 -20.125 54.66796875 C-15.91506199 41.64347305 -16.61589753 28.55733999 -17 15 C-16.67 15 -16.34 15 -16 15 C-15.67 22.26 -15.34 29.52 -15 37 C-11.35161087 31.5274163 -10.54477072 30.28454907 -10 24.3125 C-8.85314949 14.8684354 -6.73461714 6.92168984 0 0 Z " fill="#F7D9A0" transform="translate(369,212)"/>
<path d="M0 0 C6.75675735 4.5045049 7.46809086 16.95205092 9.0625 24.625 C9.21259521 25.40681641 9.36269043 26.18863281 9.51733398 26.99414062 C10.34042002 31.02968952 11.0590603 33.19664812 14 36 C14.40625 38.05859375 14.40625 38.05859375 14.5 40.4375 C14.92058478 46.49571054 16.40382988 52.15741502 18 58 C12.27562606 57.15492546 8.6005008 54.33393309 4 51 C2.96875 50.2575 1.9375 49.515 0.875 48.75 C-7.20652986 41.019841 -13.84149741 30.15874771 -14.375 18.75 C-14.27918959 13.44558722 -12.57157943 9.88959678 -9 6 C-6.13174025 3.75047856 -3.15799931 1.81636561 0 0 Z " fill="#F8DAA1" transform="translate(145,210)"/>
<path d="M0 0 C1.63496399 1.06611633 1.63496399 1.06611633 3 3 C3.28040202 5.52295405 3.37942981 7.79600558 3.34057617 10.31713867 C3.34101425 11.05884811 3.34145233 11.80055756 3.34190369 12.56474304 C3.33981383 15.01608616 3.31647419 17.46674513 3.29296875 19.91796875 C3.28737348 21.61761603 3.28310306 23.31726815 3.28010559 25.016922 C3.26865134 29.49031941 3.23917927 33.96342459 3.20599365 38.43670654 C3.17530521 43.00138394 3.16160288 47.56610855 3.14648438 52.13085938 C3.11431005 61.08736797 3.06310675 70.04365969 3 79 C1.35369672 78.85957123 -0.29204179 78.71250671 -1.9375 78.5625 C-3.31228516 78.44068359 -3.31228516 78.44068359 -4.71484375 78.31640625 C-7 78 -7 78 -8 77 C-8.11026585 74.71573343 -8.14915205 72.42800829 -8.16113281 70.14111328 C-8.16609772 69.42402191 -8.17106262 68.70693054 -8.17617798 67.96810913 C-8.1908352 65.58550065 -8.19760764 63.20295874 -8.203125 60.8203125 C-8.20887375 59.16983029 -8.21463151 57.51934811 -8.22039795 55.86886597 C-8.23091823 52.40362231 -8.23675408 48.93840192 -8.24023438 45.47314453 C-8.24571976 41.02855813 -8.26974423 36.58427799 -8.29820633 32.13978767 C-8.31681293 28.72890317 -8.32203726 25.31809269 -8.32357025 21.90716171 C-8.32660206 20.26846518 -8.33464831 18.62977011 -8.34775543 16.9911232 C-8.36477434 14.69973597 -8.36294622 12.40910023 -8.35644531 10.11767578 C-8.36009094 8.81275177 -8.36373657 7.50782776 -8.36749268 6.1633606 C-8 3 -8 3 -6.63397217 1.07858276 C-4.28164535 -0.47418491 -2.75708012 -0.41356202 0 0 Z " fill="#DCDDDD" transform="translate(217,431)"/>
<path d="M0 0 C2.4375 0.75 2.4375 0.75 4.4375 2.75 C4.65455637 5.15679241 4.74884857 7.45219803 4.75634766 9.86181641 C4.77141609 10.95953117 4.77141609 10.95953117 4.78678894 12.079422 C4.81773236 14.50346068 4.83468674 16.92738838 4.8515625 19.3515625 C4.87026521 21.03023237 4.88983794 22.70889275 4.9102478 24.38754272 C4.96166995 28.80979835 5.00124152 33.23208449 5.03839111 37.65447998 C5.07836774 42.16556407 5.12948892 46.67652013 5.1796875 51.1875 C5.27656607 60.04157686 5.36093249 68.89572584 5.4375 77.75 C-0.0075 78.245 -0.0075 78.245 -5.5625 78.75 C-5.63191263 68.74503295 -5.68526667 58.74012288 -5.71793652 48.73496437 C-5.73361389 44.08949931 -5.75488972 39.44419859 -5.78881836 34.79882812 C-5.82133827 30.31845859 -5.83933739 25.83824743 -5.84713173 21.35776901 C-5.85268854 19.64566935 -5.86353921 17.93357867 -5.87969017 16.22154617 C-5.90136699 13.82930805 -5.90447109 11.43773017 -5.90307617 9.04541016 C-5.913862 8.33259384 -5.92464783 7.61977753 -5.9357605 6.88536072 C-5.92326355 4.91372681 -5.92326355 4.91372681 -5.5625 1.75 C-2.5625 -0.25 -2.5625 -0.25 0 0 Z " fill="#E5E5E4" transform="translate(296.5625,431.25)"/>
<path d="M0 0 C0.88300781 0.26554687 1.76601562 0.53109375 2.67578125 0.8046875 C4.47595703 1.33449219 4.47595703 1.33449219 6.3125 1.875 C8.07013672 2.39707031 8.07013672 2.39707031 9.86328125 2.9296875 C19.31934979 5.48430388 28.46479801 6.38610693 38.25 6.375 C40.02310547 6.37693359 40.02310547 6.37693359 41.83203125 6.37890625 C49.82270115 6.28242176 56.8081965 5.39726783 64.375 2.875 C67 2 67 2 70 2 C70 4.64 70 7.28 70 10 C66.62658906 10.98469803 63.25101218 11.96176103 59.875 12.9375 C58.92367187 13.21529297 57.97234375 13.49308594 56.9921875 13.77929688 C37.92527309 19.27427568 18.144064 18.29918524 0 10 C0 6.7 0 3.4 0 0 Z " fill="#444A56" transform="translate(220,449)"/>
<path d="M0 0 C0 8.88176261 -9.25887985 17.00439757 -15 23 C-15.54140625 23.60457031 -16.0828125 24.20914062 -16.640625 24.83203125 C-24.7812232 33.6098985 -36.14295415 41.05401245 -47 46 C-47.66 46 -48.32 46 -49 46 C-49.44921875 42.80078125 -49.44921875 42.80078125 -49 39 C-46.55861781 36.97857316 -44.56066872 35.65200918 -41.8125 34.1875 C-40.33150084 33.33091767 -38.85367127 32.46883405 -37.37890625 31.6015625 C-36.63785645 31.17004883 -35.89680664 30.73853516 -35.13330078 30.29394531 C-21.98539819 22.319136 -10.65795629 10.94007866 0 0 Z " fill="#444A56" transform="translate(350,407)"/>
<path d="M0 0 C0.639375 0.639375 1.27875 1.27875 1.9375 1.9375 C2.4015625 2.39769531 2.865625 2.85789062 3.34375 3.33203125 C4.52591913 4.52256478 5.69082528 5.73034283 6.84375 6.94921875 C17.2565473 17.76998013 29.29676854 26.11463805 42 34 C42.99 34.66 43.98 35.32 45 36 C45.29296875 38.3828125 45.29296875 38.3828125 45.1875 41.125 C45.14689453 42.49011719 45.14689453 42.49011719 45.10546875 43.8828125 C45.07066406 44.58148438 45.03585938 45.28015625 45 46 C26.40519149 37.97871005 10.87030932 21.35740292 1 4 C0.234375 1.56640625 0.234375 1.56640625 0 0 Z " fill="#444A56" transform="translate(164,408)"/>
<path d="M0 0 C0.99 0.99 1.98 1.98 3 3 C2.67 3.33 2.34 3.66 2 4 C1.84379445 5.41327947 1.74943827 6.8335459 1.68359375 8.25390625 C1.64169922 9.10791016 1.59980469 9.96191406 1.55664062 10.84179688 C1.51732422 11.73962891 1.47800781 12.63746094 1.4375 13.5625 C1.39431641 14.46419922 1.35113281 15.36589844 1.30664062 16.29492188 C1.20021858 18.52978485 1.09820012 20.76476308 1 23 C0.67 23 0.34 23 0 23 C0 15.41 0 7.82 0 0 Z " fill="#E1CA9C" transform="translate(199,334)"/>
</svg>
