<?xml version="1.0" encoding="UTF-8"?>
<svg version="1.1" xmlns="http://www.w3.org/2000/svg" width="512" height="512">
<path d="M0 0 C0.91942383 0.00215515 1.83884766 0.0043103 2.78613281 0.00653076 C17.16224508 0.06044742 31.22198153 0.58373081 45.375 3.3125 C46.39303711 3.50585938 47.41107422 3.69921875 48.45996094 3.8984375 C99.35019307 13.90052134 144.24752771 38.47941954 181.375 74.3125 C182.31601562 75.21226563 183.25703125 76.11203125 184.2265625 77.0390625 C190.10004639 82.76707311 195.31043947 88.86432242 200.375 95.3125 C201.16648437 96.29863281 201.95796875 97.28476563 202.7734375 98.30078125 C220.47751036 120.72407858 234.34563454 146.19757843 243.375 173.3125 C243.64747559 174.12170898 243.91995117 174.93091797 244.20068359 175.76464844 C247.43519772 185.52076871 249.97382613 195.3888 252.125 205.4375 C252.32375732 206.35378174 252.52251465 207.27006348 252.72729492 208.21411133 C255.95733827 224.05696859 256.75419007 239.87068563 256.6875 256 C256.68476578 257.38005722 256.68476578 257.38005722 256.68197632 258.78799438 C256.63521479 272.83701608 256.02988644 286.48474475 253.375 300.3125 C253.14151855 301.63846191 253.14151855 301.63846191 252.90332031 302.99121094 C248.18676549 329.51124077 238.87771099 354.52608101 226.375 378.3125 C225.81449951 379.38588623 225.81449951 379.38588623 225.24267578 380.48095703 C214.06195053 401.62746037 198.9119934 420.17814381 182.375 437.3125 C181.47523438 438.25351562 180.57546875 439.19453125 179.6484375 440.1640625 C173.92042689 446.03754639 167.82317758 451.24793947 161.375 456.3125 C160.38886719 457.10398437 159.40273438 457.89546875 158.38671875 458.7109375 C127.62283956 483.00022692 92.10124698 499.4312516 53.8125 507.75 C52.19311523 508.10227661 52.19311523 508.10227661 50.54101562 508.46166992 C33.97388548 511.84141452 17.55749073 512.69119096 0.6875 512.625 C-0.27989105 512.62317719 -1.2472821 512.62135437 -2.24398804 512.61947632 C-16.57690977 512.57404826 -30.52273917 512.06516072 -44.625 509.3125 C-45.52202637 509.15152832 -46.41905273 508.99055664 -47.34326172 508.82470703 C-106.64022647 498.0949764 -162.40354783 464.86241795 -199.625 417.3125 C-200.41519531 416.32765625 -201.20539063 415.3428125 -202.01953125 414.328125 C-219.78711234 391.99093204 -233.61029357 366.38340095 -242.625 339.3125 C-242.89747559 338.50329102 -243.16995117 337.69408203 -243.45068359 336.86035156 C-246.68519772 327.10423129 -249.22382613 317.2362 -251.375 307.1875 C-251.57375732 306.27121826 -251.77251465 305.35493652 -251.97729492 304.41088867 C-255.20292887 288.58965882 -256.00585755 272.79502368 -255.9375 256.6875 C-255.93534485 255.76807617 -255.9331897 254.84865234 -255.93096924 253.90136719 C-255.87705258 239.52525492 -255.35376919 225.46551847 -252.625 211.3125 C-252.43164062 210.29446289 -252.23828125 209.27642578 -252.0390625 208.22753906 C-242.03697866 157.33730693 -217.45808046 112.43997229 -181.625 75.3125 C-180.72523438 74.37148437 -179.82546875 73.43046875 -178.8984375 72.4609375 C-173.17042689 66.58745361 -167.07317758 61.37706053 -160.625 56.3125 C-159.63886719 55.52101562 -158.65273437 54.72953125 -157.63671875 53.9140625 C-135.21342142 36.20998964 -109.73992157 22.34186546 -82.625 13.3125 C-81.81579102 13.04002441 -81.00658203 12.76754883 -80.17285156 12.48681641 C-70.41673129 9.25230228 -60.5487 6.71367387 -50.5 4.5625 C-49.58371826 4.36374268 -48.66743652 4.16498535 -47.72338867 3.96020508 C-31.90215882 0.73457113 -16.10752368 -0.06835755 0 0 Z " fill="#8F8ECB" transform="translate(255.625,-0.3125)"/>
<path d="M0 0 C15.78479881 4.87153742 30.45637577 8.8845481 47.05712891 7.75537109 C47.83378906 7.71524902 48.61044922 7.67512695 49.41064453 7.63378906 C62.65528848 6.91650319 74.51751521 3.95098746 87.05712891 -0.24462891 C106.36100256 -6.52395822 125.73458016 -10.0956794 144.72900391 -0.95947266 C159.96925484 7.53625729 172.34492098 22.39313005 179.62744141 38.15380859 C180.09923828 39.01232422 180.57103516 39.87083984 181.05712891 40.75537109 C183.3845488 41.12775828 185.71948606 41.45373976 188.05712891 41.75537109 C197.30271638 46.05146563 203.23587075 54.50390398 207.05712891 63.75537109 C210.94968601 75.43304242 209.96372303 88.38578914 204.76806641 99.51708984 C200.67871783 106.83199412 195.14065777 112.95722649 187.05712891 115.75537109 C183.37517503 115.98485575 179.74036303 115.93232362 176.05712891 115.75537109 C175.83798828 116.79693359 175.61884766 117.83849609 175.39306641 118.91162109 C170.06253108 143.37851904 160.1434285 165.99099592 142.05712891 183.75537109 C141.49251953 184.37798828 140.92791016 185.00060547 140.34619141 185.64208984 C131.90813539 194.77341337 121.16815726 201.09235299 109.93212891 206.19287109 C109.24135254 206.510625 108.55057617 206.82837891 107.83886719 207.15576172 C101.463653 209.91020966 94.83615478 211.33354069 88.05712891 212.75537109 C88.06236572 213.69026367 88.06760254 214.62515625 88.07299805 215.58837891 C88.20934157 242.89843838 87.93207555 270.19844642 87.55712891 297.50537109 C87.54517109 298.3765004 87.53321327 299.2476297 87.5208931 300.14515686 C87.3712255 311.01529995 87.21651089 321.88536618 87.05712891 332.75537109 C78.96717896 334.03243853 71.06740135 335.06402747 62.87353516 335.05615234 C61.9777475 335.06157043 61.08195984 335.06698853 60.1590271 335.0725708 C57.31240343 335.08386558 54.46625237 335.07777705 51.61962891 335.06787109 C50.64889435 335.06737762 49.67815979 335.06688416 48.67800903 335.06637573 C15.83658158 335.01518865 15.83658158 335.01518865 3.05712891 330.75537109 C2.88305702 320.31798449 2.71684981 309.88048666 2.55712891 299.44287109 C2.54525166 298.66699772 2.5333744 297.89112434 2.52113724 297.09173965 C2.08330802 268.31090294 1.92977268 239.53983766 2.05712891 210.75537109 C0.95876709 210.60463135 -0.13959473 210.4538916 -1.27124023 210.29858398 C-21.0482978 207.37259468 -40.24293538 194.63427 -54.94287109 181.75537109 C-55.70341797 181.09150391 -56.46396484 180.42763672 -57.24755859 179.74365234 C-74.09973789 164.00095816 -86.06554359 139.39539836 -89.94287109 116.75537109 C-90.71630859 116.68060547 -91.48974609 116.60583984 -92.28662109 116.52880859 C-99.78875393 115.58175717 -104.49530584 114.01427608 -109.94287109 108.75537109 C-110.55904297 108.20107422 -111.17521484 107.64677734 -111.81005859 107.07568359 C-119.85432506 99.03141713 -122.39704293 88.53964709 -122.44287109 77.50537109 C-122.18425397 65.10338673 -118.81587931 54.4955092 -109.72021484 45.57568359 C-103.30995702 40.55170917 -96.94815248 39.37019678 -88.94287109 38.75537109 C-88.61287109 39.74537109 -88.28287109 40.73537109 -87.94287109 41.75537109 C-86.44832506 38.27440313 -85.51371335 34.96056009 -84.75537109 31.25537109 C-81.60525433 18.45014646 -74.34036851 6.7165587 -63.25537109 -0.61962891 C-43.60392588 -11.33859902 -20.11733876 -6.23948005 0 0 Z " fill="#FEC594" transform="translate(204.94287109375,177.24462890625)"/>
<path d="M0 0 C1.09441406 -0.02513672 1.09441406 -0.02513672 2.2109375 -0.05078125 C8.2191316 0.85336446 12.62233203 4.67695322 17.0625 8.5625 C17.96222534 9.34488037 17.96222534 9.34488037 18.88012695 10.14306641 C30.1090676 20.03872483 40.40203372 30.52883666 49.31884766 42.56201172 C50.63163852 44.32139686 51.97451419 46.05398179 53.32421875 47.78515625 C80.36693538 82.92860444 99.37493327 125.96668965 94.32617188 170.9765625 C93.66788398 175.15376109 92.7553005 179.23534463 91.625 183.3125 C88.97223495 180.00061235 87.02237824 176.47433853 85 172.75 C81.22188825 165.9837212 76.80357063 160.09476556 71.625 154.3125 C70.76455078 153.32830078 70.76455078 153.32830078 69.88671875 152.32421875 C62.43388191 144.30219151 53.01000197 139.44314889 42.625 136.3125 C42.02171875 136.11914062 41.4184375 135.92578125 40.796875 135.7265625 C24.20232188 132.56285273 7.63609291 137.89411825 -8.02563477 142.75073242 C-19.84309908 146.41315757 -30.94417013 148.85403947 -43.375 149.3125 C-44.67050781 149.38855469 -45.96601563 149.46460938 -47.30078125 149.54296875 C-65.23582964 150.32583082 -82.20128879 144.24557273 -99.13818359 138.9921875 C-115.28095619 134.04362332 -135.82578801 132.04599027 -151.40234375 139.82421875 C-164.56392932 147.68583698 -171.55573928 160.54592796 -175.35498047 175.14477539 C-176.08574967 178.19101941 -176.75433657 181.24184934 -177.375 184.3125 C-179.70599227 181.98150773 -179.82885807 180.95004938 -180.41015625 177.76953125 C-180.57966797 176.86009766 -180.74917969 175.95066406 -180.92382812 175.01367188 C-181.09333984 174.06041016 -181.26285156 173.10714844 -181.4375 172.125 C-181.61087891 171.19107422 -181.78425781 170.25714844 -181.96289062 169.29492188 C-187.04909315 141.60337481 -183.03317516 114.01750822 -167.375 90.3125 C-140.59866059 52.78688871 -97.29924273 37.03292209 -55.85546875 21.4921875 C-30.62591343 12.28038241 -30.62591343 12.28038241 -6.19311523 1.19287109 C-4.01328638 0.13735037 -2.41385076 0.01270448 0 0 Z " fill="#3A2C24" transform="translate(295.375,36.6875)"/>
<path d="M0 0 C0.1429645 5.56939954 -0.29495593 10.55830175 -1.4375 16 C-2.52416118 21.32411984 -3.37916726 26.59935789 -4 32 C-3.01 32.33 -2.02 32.66 -1 33 C0.578125 34.6015625 0.578125 34.6015625 2.25 36.625 C4.52837474 39.318058 6.83122111 41.86928911 9.375 44.3125 C19.51694197 54.3648884 27.68659552 66.44234011 36 78 C36.44263184 78.59474121 36.88526367 79.18948242 37.34130859 79.80224609 C38.48046875 81.38671875 38.48046875 81.38671875 40 84 C38.5307521 88.40774371 35.07892942 89.52749482 31.1875 91.625 C30.37853271 92.06448975 29.56956543 92.50397949 28.73608398 92.95678711 C3.4219486 106.50290222 -28.80723574 121 -58 121 C-58.03053762 109.25001084 -58.0509538 97.50002311 -58.0625 85.75 C-58.06335602 84.88499374 -58.06421204 84.01998749 -58.06509399 83.12876892 C-58.08905131 55.73964664 -57.88709387 28.3772268 -57 1 C-55.75863281 0.59007812 -54.51726562 0.18015625 -53.23828125 -0.2421875 C-51.5963275 -0.78637789 -49.9544019 -1.33065319 -48.3125 -1.875 C-47.49587891 -2.14441406 -46.67925781 -2.41382813 -45.83789062 -2.69140625 C-42.54329936 -3.7851572 -39.29236727 -4.87989963 -36.08007812 -6.19946289 C-26.74776429 -9.79108931 -9.38880365 -2.33022357 0 0 Z " fill="#4C3F38" transform="translate(350,389)"/>
<path d="M0 0 C5.28 1.65 10.56 3.3 16 5 C24.34948958 6.90498063 32.32103922 7.41981474 40.875 7.4375 C42.13844238 7.44064209 43.40188477 7.44378418 44.70361328 7.44702148 C55.1829832 7.31508459 64.74889089 5.67036477 74.73779297 2.57250977 C77.7736642 1.80420434 80.89989175 1.44287261 84 1 C84 33.67 84 66.34 84 100 C67.84054723 102.30849325 67.84054723 102.30849325 59.81640625 102.30078125 C58.92061859 102.30619934 58.02483093 102.31161743 57.10189819 102.31719971 C54.25527452 102.32849449 51.40912347 102.32240596 48.5625 102.3125 C47.10639816 102.3117598 47.10639816 102.3117598 45.62088013 102.31100464 C12.77945267 102.25981756 12.77945267 102.25981756 0 98 C0 65.66 0 33.32 0 0 Z " fill="#E0F6F8" transform="translate(208,410)"/>
<path d="M0 0 C5.59445622 1.98289842 5.59445622 1.98289842 11.3125 3.5625 C12.06920991 33.12852485 12.40762931 62.67560723 12.375 92.25 C12.37414398 93.03143246 12.37328796 93.81286491 12.37240601 94.61797714 C12.36104859 104.26617577 12.34102133 113.91433632 12.3125 123.5625 C10.43114451 123.26237088 8.55040444 122.95838281 6.66992188 122.65283203 C5.62251831 122.48397491 4.57511475 122.3151178 3.49597168 122.1411438 C-1.49636043 121.23371245 -6.32624244 119.87784259 -11.1875 118.4375 C-12.22285889 118.13183105 -13.25821777 117.82616211 -14.32495117 117.51123047 C-24.37855922 114.46888374 -34.07094398 110.77623233 -43.6875 106.5625 C-44.88366943 106.04067139 -44.88366943 106.04067139 -46.10400391 105.50830078 C-55.32717542 101.43459353 -64.17335039 96.89083996 -72.8125 91.6875 C-73.97773193 90.990802 -73.97773193 90.990802 -75.16650391 90.2800293 C-75.87726074 89.83957275 -76.58801758 89.39911621 -77.3203125 88.9453125 C-77.94824707 88.55746582 -78.57618164 88.16961914 -79.22314453 87.77001953 C-80.6875 86.5625 -80.6875 86.5625 -81.6875 83.5625 C-80.87402344 81.86767578 -80.87402344 81.86767578 -79.546875 80.0078125 C-79.05896484 79.31719727 -78.57105469 78.62658203 -78.06835938 77.91503906 C-77.53017578 77.17995117 -76.99199219 76.44486328 -76.4375 75.6875 C-75.88900391 74.92663086 -75.34050781 74.16576172 -74.77539062 73.38183594 C-66.11659531 61.50962119 -56.03135836 47.76084679 -44.33984375 38.75390625 C-41.68857327 35.23768228 -42.22480727 31.8104041 -42.6875 27.5625 C-43.23791022 24.2554134 -43.96690483 21.00901984 -44.75 17.75 C-45.14501726 16.09962046 -45.53205975 14.44730677 -45.91015625 12.79296875 C-46.08297119 12.07520264 -46.25578613 11.35743652 -46.43383789 10.61791992 C-46.71571515 8.33387312 -46.37644477 6.74216551 -45.6875 4.5625 C-41.4030316 3.55573981 -37.11634576 2.55921057 -32.82739258 1.57177734 C-31.3710247 1.23500942 -29.91527969 0.89553524 -28.46020508 0.55322266 C-26.3591968 0.05946052 -24.25608307 -0.42427422 -22.15234375 -0.90625 C-20.890271 -1.19951172 -19.62819824 -1.49277344 -18.32788086 -1.79492188 C-11.58805369 -2.98459561 -6.36588109 -2.33180105 0 0 Z " fill="#4C3F38" transform="translate(195.6875,384.4375)"/>
<path d="M0 0 C3.25042891 1.39506426 5.07371792 2.96783394 7.3125 5.6875 C9.56944258 8.36133006 11.85187189 10.88889203 14.375 13.3125 C24.51694197 23.3648884 32.68659552 35.44234011 41 47 C41.44263184 47.59474121 41.88526367 48.18948242 42.34130859 48.80224609 C43.48046875 50.38671875 43.48046875 50.38671875 45 53 C43.53067133 57.40798601 40.07885194 58.5270361 36.1875 60.625 C35.3828833 61.06303955 34.5782666 61.5010791 33.74926758 61.95239258 C18.06779577 70.35669319 1.97885901 76.73078769 -15 82 C-14.49984936 75.16807003 -13.6562915 68.61161955 -12.125 61.9375 C-10.73851726 55.64577148 -9.50860114 49.36324145 -8.5 43 C-7.35720386 35.83004167 -5.94627404 28.74315478 -4.41674805 21.64624023 C-3.30603048 16.48968405 -2.28754354 11.3284077 -1.39453125 6.12890625 C-1.01093937 4.05902925 -0.53332878 2.03592465 0 0 Z " fill="#3A2C24" transform="translate(345,420)"/>
<path d="M0 0 C2.69265692 2.69265692 2.72212292 4.7760495 3.42041016 8.51342773 C3.54749863 9.18189728 3.6745871 9.85036682 3.80552673 10.53909302 C4.22431178 12.7525715 4.63181529 14.96796587 5.0390625 17.18359375 C5.32706164 18.72065904 5.61567461 20.25760944 5.90487671 21.79444885 C6.50972589 25.01745011 7.10941381 28.24135324 7.70507812 31.46606445 C8.46902931 35.60134553 9.24213506 39.73484439 10.01865578 43.86778164 C10.61468612 47.04230146 11.20765467 50.21738639 11.79951096 53.39268684 C12.08366646 54.91703168 12.3683553 56.4412772 12.65358353 57.96542168 C13.0513587 60.09549179 13.44544461 62.22621003 13.83837891 64.35717773 C14.0632901 65.57026108 14.28820129 66.78334442 14.51992798 68.03318787 C15 71 15 71 15 74 C11.28063308 75.23978897 10.45991112 74.61905773 6.94140625 73.078125 C5.92481934 72.63484863 4.90823242 72.19157227 3.86083984 71.73486328 C2.22816162 70.99985596 2.22816162 70.99985596 0.5625 70.25 C-0.5517334 69.7535498 -1.6659668 69.25709961 -2.81396484 68.74560547 C-15.77361945 62.8783727 -28.54007153 56.48095502 -40 48 C-38.44049491 43.31257326 -35.86733621 39.78011797 -32.9375 35.875 C-32.44435303 35.21338867 -31.95120605 34.55177734 -31.44311523 33.87011719 C-29.97090901 31.90654224 -28.48767565 29.95187135 -27 28 C-26.23945312 26.99710937 -25.47890625 25.99421875 -24.6953125 24.9609375 C-19.87448725 18.83336841 -14.56155969 13.6215144 -8.75390625 8.4609375 C-5.71341552 5.74390323 -2.84228952 2.921242 0 0 Z " fill="#3A2C24" transform="translate(154,422)"/>
<path d="M0 0 C11.30063966 1.13006397 11.30063966 1.13006397 16.8125 2 C17.87082031 2.165 18.92914063 2.33 20.01953125 2.5 C21.83741576 2.80496621 23.65100647 3.13994566 25.453125 3.52734375 C31.22240076 4.59802223 37.14649414 4.71342364 43 5 C44.06089844 5.05542969 45.12179688 5.11085938 46.21484375 5.16796875 C57.39507084 5.45818478 68.41522932 3.75814357 79.47314453 2.27539062 C82 2 82 2 86 2 C86 16.19 86 30.38 86 45 C85.67 45 85.34 45 85 45 C85 37.41 85 29.82 85 22 C78.02910065 23.92621588 78.02910065 23.92621588 71.06005859 25.85913086 C70.18172363 26.10026611 69.30338867 26.34140137 68.3984375 26.58984375 C67.50817871 26.83597412 66.61791992 27.08210449 65.70068359 27.33569336 C44.65814807 32.51167773 21.99188618 29.49695732 2 22 C1.67 31.24 1.34 40.48 1 50 C0.67 50 0.34 50 0 50 C0 33.5 0 17 0 0 Z " fill="#EF9658" transform="translate(207,389)"/>
<path d="M0 0 C1.8871875 0.0309375 1.8871875 0.0309375 3.8125 0.0625 C3.668125 1.21878906 3.52375 2.37507812 3.375 3.56640625 C0.58384955 27.81344032 0.93450937 51.96601387 4.8125 76.0625 C-4.02600333 76.38429017 -8.80084192 74.8542355 -15.578125 68.99609375 C-24.38476836 60.14570878 -27.61410957 50.02188433 -27.6875 37.8125 C-27.45024357 26.31754557 -24.62012492 17.09472509 -17.1875 8.0625 C-11.99091239 3.5913844 -7.04708242 -0.11552594 0 0 Z " fill="#F19555" transform="translate(110.1875,216.9375)"/>
<path d="M0 0 C0.99 0.66 1.98 1.32 3 2 C4.299375 2.12375 4.299375 2.12375 5.625 2.25 C13.98907773 4.10868394 19.05309584 9.63354322 23.56640625 16.6171875 C30.37159235 27.92825977 31.68206163 39.28166042 28.875 52.1875 C25.85566653 62.86803942 20.25542242 69.73493926 11.25 75.875 C6.51078215 77.51549849 1.96628069 77.23859356 -3 77 C-2.91435791 76.410979 -2.82871582 75.82195801 -2.74047852 75.21508789 C-2.34628371 72.49777882 -1.95438023 69.7801438 -1.5625 67.0625 C-1.36043945 65.67321289 -1.36043945 65.67321289 -1.15429688 64.25585938 C0.13206155 55.3140996 1.17452016 46.60611878 1.125 37.5625 C1.12209961 36.24439331 1.12209961 36.24439331 1.11914062 34.8996582 C1.04641662 23.25876722 0.51981077 11.62800104 0 0 Z " fill="#FEB27F" transform="translate(384,216)"/>
<path d="M0 0 C3.42011964 0.48858852 4.55835486 1.12676444 7.0625 3.4375 C8.08203125 5.70703125 8.08203125 5.70703125 8.875 8.25 C11.13839659 14.35404198 14.55218685 17.68234342 20.328125 20.5703125 C26.91820993 22.66031086 36.23283788 22.76138328 42.625 19.875 C48.01901655 16.53305496 51.64937075 12.0912202 53.75 6.125 C55.0625 2.4375 55.0625 2.4375 58.0625 0.4375 C61.625 0.625 61.625 0.625 65.0625 1.4375 C67.56338623 5.18882935 67.80100722 8.09688612 67.0625 12.4375 C63.03474166 22.29052867 56.50933459 28.7623512 47.0625 33.4375 C36.95991697 37.61949949 26.51519168 37.41308376 16.0625 34.4375 C12.8638814 33.0340751 9.97303635 31.3621143 7.0625 29.4375 C5.7321875 28.57125 5.7321875 28.57125 4.375 27.6875 C-1.08188714 22.3780963 -5.5759777 15.55885419 -6.25 7.875 C-5.9375 4.4375 -5.9375 4.4375 -4.8125 2 C-2.9375 0.4375 -2.9375 0.4375 0 0 Z " fill="#F29656" transform="translate(219.9375,324.5625)"/>
<path d="M0 0 C1.23234375 -0.02449219 2.4646875 -0.04898437 3.734375 -0.07421875 C5.51714844 -0.08001953 5.51714844 -0.08001953 7.3359375 -0.0859375 C8.42181152 -0.09415527 9.50768555 -0.10237305 10.62646484 -0.11083984 C14.3123967 0.48637595 15.95584551 1.81999878 18.625 4.375 C21.00064339 8.11939157 21.90867895 12.09255098 21.5625 16.5 C20.44715497 21.11009277 18.9705416 24.85838271 14.85717773 27.51806641 C10.09402962 29.34664016 4.72380766 28.74451681 -0.3125 28.75 C-1.49263672 28.77449219 -2.67277344 28.79898437 -3.88867188 28.82421875 C-5.02755859 28.82808594 -6.16644531 28.83195312 -7.33984375 28.8359375 C-8.89626587 28.84826416 -8.89626587 28.84826416 -10.48413086 28.86083984 C-14.09516258 28.25396938 -15.74568905 26.86767419 -18.375 24.375 C-21.58765608 19.68257506 -20.97826987 13.81169714 -20.375 8.375 C-16.70517902 -1.09783839 -8.64615331 0.00898769 0 0 Z " fill="#F29555" transform="translate(250.375,281.625)"/>
<path d="M0 0 C4.30494817 2.59921399 6.38519631 5.3864102 8.3125 10 C9.25695321 15.981537 7.63660749 19.19851141 4.3125 24 C0.12688604 27.8051036 -3.92524476 28.36241486 -9.40625 28.2734375 C-13.66481809 27.7629927 -16.31612021 25.72597332 -18.94140625 22.421875 C-21.61263852 18.2893763 -22.47118096 14.96331272 -21.6875 10 C-19.88175296 5.99627399 -17.69816685 2.87409025 -14.375 0 C-9.26255487 -1.90230516 -5.11783561 -1.38788762 0 0 Z " fill="#373633" transform="translate(188.6875,250)"/>
<path d="M0 0 C4.05955804 2.64642075 6.39168706 5.42063291 7.9765625 10.08203125 C8.53794358 15.32158804 7.83288622 18.64980478 4.9765625 23.08203125 C0.0517129 27.52640772 -2.97505237 28.43837985 -9.48046875 28.36328125 C-14.20456459 27.8408006 -16.80922669 25.41766314 -19.8984375 22.01953125 C-21.98456789 16.57241301 -21.94226456 10.62231783 -19.9609375 5.14453125 C-14.60793613 -0.55382505 -7.46278385 -3.38562588 0 0 Z " fill="#363532" transform="translate(326.0234375,249.91796875)"/>
</svg>
