<?xml version="1.0" encoding="UTF-8"?>
<svg version="1.1" xmlns="http://www.w3.org/2000/svg" width="1024" height="1024">
<path d="M0 0 C3.45456646 0.01709073 6.90843879 0.00688357 10.3629818 -0.0103159 C36.26178426 -0.11942094 61.96184513 1.73343955 87.52050781 6.07861328 C88.2734613 6.2039444 89.02641479 6.32927551 89.80218506 6.45840454 C166.13875894 19.23911583 240.77507567 49.30253707 303.14550781 95.39111328 C304.73298828 96.55513672 304.73298828 96.55513672 306.35253906 97.74267578 C309.3046692 99.93259146 312.23063536 102.15187352 315.14550781 104.39111328 C315.68739746 104.80683594 316.22928711 105.22255859 316.78759766 105.65087891 C329.53538326 115.45966235 341.70698721 125.8742544 353.47509766 136.83837891 C355.35549053 138.5863033 357.24484185 140.32431353 359.13378906 142.06298828 C365.65200075 148.08729228 372.04830432 154.09722418 377.87597656 160.80517578 C380.17709324 163.42710219 382.5461745 165.96963205 384.9362793 168.51000977 C390.96298292 174.92236733 396.68519085 181.4842913 402.14550781 188.39111328 C402.99150938 189.4447819 403.83787979 190.49815445 404.68457031 191.55126953 C459.68806526 260.34824162 496.02911646 342.21607858 510.45800781 429.01611328 C510.63414612 430.05256485 510.63414612 430.05256485 510.81384277 431.10995483 C515.101175 456.67384195 516.66548155 482.36374988 516.53662109 508.24560547 C516.51953036 511.70017193 516.52973753 515.15404426 516.54693699 518.60858727 C516.65604203 544.50738973 514.80318155 570.2074506 510.45800781 595.76611328 C510.3326767 596.51906677 510.20734558 597.27202026 510.07821655 598.04779053 C497.29750527 674.38436441 467.23408402 749.02068114 421.14550781 811.39111328 C419.98148438 812.97859375 419.98148438 812.97859375 418.79394531 814.59814453 C416.60402964 817.55027467 414.38474757 820.47624083 412.14550781 823.39111328 C411.72978516 823.93300293 411.3140625 824.47489258 410.88574219 825.03320312 C401.07695874 837.78098873 390.66236669 849.95259268 379.69824219 861.72070312 C377.95031779 863.601096 376.21230757 865.49044732 374.47363281 867.37939453 C368.44932882 873.89760622 362.43939692 880.29390979 355.73144531 886.12158203 C353.10951891 888.42269871 350.56698905 890.79177997 348.02661133 893.18188477 C341.61425376 899.20858839 335.05232979 904.93079632 328.14550781 910.39111328 C327.09183919 911.23711485 326.03846664 912.08348525 324.98535156 912.93017578 C256.18837948 967.93367073 174.32054251 1004.27472193 87.52050781 1018.70361328 C86.8295401 1018.82103882 86.13857239 1018.93846436 85.42666626 1019.05944824 C59.86277915 1023.34678047 34.17287122 1024.91108702 8.29101562 1024.78222656 C4.83644917 1024.76513583 1.38257683 1024.775343 -2.07196617 1024.79254246 C-27.97076863 1024.9016475 -53.67082951 1023.04878702 -79.22949219 1018.70361328 C-79.98244568 1018.57828217 -80.73539917 1018.45295105 -81.51116943 1018.32382202 C-157.84774332 1005.54311074 -232.48406005 975.47968949 -294.85449219 929.39111328 C-296.44197266 928.22708984 -296.44197266 928.22708984 -298.06152344 927.03955078 C-301.01365358 924.84963511 -303.93961974 922.63035304 -306.85449219 920.39111328 C-307.39638184 919.97539063 -307.93827148 919.55966797 -308.49658203 919.13134766 C-321.24436763 909.32256421 -333.41597159 898.90797216 -345.18408203 887.94384766 C-347.06447491 886.19592326 -348.95382623 884.45791304 -350.84277344 882.71923828 C-357.36098513 876.69493428 -363.7572887 870.68500238 -369.58496094 863.97705078 C-371.88607762 861.35512438 -374.25515888 858.81259452 -376.64526367 856.2722168 C-382.6719673 849.85985923 -388.39417523 843.29793526 -393.85449219 836.39111328 C-394.70049376 835.33744466 -395.54686416 834.28407211 -396.39355469 833.23095703 C-451.39704964 764.43398495 -487.73810083 682.56614798 -502.16699219 595.76611328 C-502.28441772 595.07514557 -502.40184326 594.38417786 -502.52282715 593.67227173 C-506.81015938 568.10838462 -508.37446593 542.41847669 -508.24560547 516.53662109 C-508.22851473 513.08205464 -508.2387219 509.6281823 -508.25592136 506.1736393 C-508.36502641 480.27483684 -506.51216592 454.57477596 -502.16699219 429.01611328 C-502.04166107 428.26315979 -501.91632996 427.5102063 -501.78720093 426.73443604 C-489.00648964 350.39786215 -458.9430684 275.76154542 -412.85449219 213.39111328 C-412.07847656 212.33279297 -411.30246094 211.27447266 -410.50292969 210.18408203 C-408.31301401 207.23195189 -406.09373195 204.30598573 -403.85449219 201.39111328 C-403.43876953 200.84922363 -403.02304687 200.30733398 -402.59472656 199.74902344 C-392.78594311 187.00123784 -382.37135107 174.82963388 -371.40722656 163.06152344 C-369.65930217 161.18113056 -367.92129194 159.29177924 -366.18261719 157.40283203 C-360.15831319 150.88462034 -354.14838129 144.48831677 -347.44042969 138.66064453 C-344.81850328 136.35952785 -342.27597342 133.99044659 -339.7355957 131.6003418 C-333.32323814 125.57363817 -326.76131417 119.85143024 -319.85449219 114.39111328 C-318.80082357 113.54511171 -317.74745101 112.69874131 -316.69433594 111.85205078 C-247.89736385 56.84855583 -166.02952689 20.50750463 -79.22949219 6.07861328 C-78.53852448 5.96118774 -77.84755676 5.84376221 -77.13565063 5.72277832 C-51.57176352 1.43544609 -25.88185559 -0.12886046 0 0 Z " fill="#2F5A77" transform="translate(507.8544921875,-0.39111328125)"/>
<path d="M0 0 C2.5272581 3.21933801 4.59858834 6.60817104 6.6875 10.125 C10.34411246 16.15447554 14.40331451 21.64157806 19 27 C20.03060547 28.21429688 20.03060547 28.21429688 21.08203125 29.453125 C60.95152205 75.14140635 120.76853937 98.70128244 178 113 C179.89939331 113.47626831 179.89939331 113.47626831 181.8371582 113.9621582 C185.8906063 114.97811861 189.94507365 115.98995717 194 117 C195.26424805 117.31493408 196.52849609 117.62986816 197.83105469 117.9543457 C201.69826635 118.91367526 205.56692501 119.86684715 209.4375 120.8125 C210.12568817 120.98064209 210.81387634 121.14878418 211.5229187 121.32202148 C227.60634065 125.2375293 243.78790179 128.66374828 260 132 C260.08040527 133.13203857 260.16081055 134.26407715 260.24365234 135.43041992 C260.61768149 140.68300321 260.99545461 145.93531258 261.375 151.1875 C261.44313904 152.13071106 261.51127808 153.07392212 261.58148193 154.04571533 C262.3848288 165.12138963 263.23463524 176.18222823 264.36621094 187.22998047 C265.22394785 195.80182773 265.62631465 204.39540321 266 213 C271.44058016 199.05637474 274.91834941 186.66382218 275.17578125 171.55078125 C275.19373497 170.55181572 275.19373497 170.55181572 275.21205139 169.53266907 C275.2607995 166.75605183 275.30825203 163.97989449 275.32592773 161.20288086 C275.34146319 159.15148383 275.38164718 157.10173702 275.42578125 155.05078125 C275.44036377 153.84075439 275.45494629 152.63072754 275.4699707 151.3840332 C276.26821529 146.28754851 278.77004249 143.21579682 282.375 139.65234375 C288.71073743 135.66422331 297.77522727 137.7465626 304.8125 139 C312.39090865 140.96544977 316.34163956 144.84849223 320.48828125 151.32421875 C330.47362108 169.61594747 327.83997756 190.5520286 323 210 C317.70502913 227.71179362 308.97029001 245.73338499 293 256 C289.97563317 257.44643631 287.89294044 258.07168039 284.5456543 257.80297852 C281.30730339 257.67319457 279.05111874 257.86782386 276 259 C273.0996118 262.50065668 271.3346156 266.37835428 269.56100464 270.52392578 C268.3719346 273.29896258 267.08787753 276.02618659 265.80641174 278.75949097 C265.15265706 280.15493851 264.50345116 281.55252591 263.85874939 282.95217896 C260.90134967 289.34344132 257.53122526 295.44355164 253.9375 301.5 C253.36483398 302.46574951 252.79216797 303.43149902 252.20214844 304.42651367 C250.48420296 307.29451477 248.74753744 310.14994315 247 313 C246.12794922 314.4226416 246.12794922 314.4226416 245.23828125 315.87402344 C234.22134383 333.73094683 222.14273594 350.65385072 209 367 C208.24203125 367.95261719 207.4840625 368.90523437 206.703125 369.88671875 C200.82155668 377.1969659 194.64025977 384.35974023 188 391 C187.83989519 393.73701178 187.74053172 396.4516759 187.68359375 399.19140625 C187.6524221 400.42116432 187.6524221 400.42116432 187.62062073 401.67576599 C187.55503506 404.30458901 187.49619874 406.93351504 187.4375 409.5625 C187.39432333 411.34050561 187.35070933 413.11850065 187.30664062 414.89648438 C187.19934457 419.26421634 187.09810296 423.63205227 187 428 C187.67546875 428.18175781 188.3509375 428.36351562 189.046875 428.55078125 C189.93890625 428.80214844 190.8309375 429.05351563 191.75 429.3125 C192.63171875 429.55613281 193.5134375 429.79976562 194.421875 430.05078125 C197.22429174 431.08258014 198.86685384 431.90382638 201 434 C201.48101807 436.82841492 201.48101807 436.82841492 201.45410156 440.30737305 C201.45364838 442.25905647 201.45364838 442.25905647 201.45318604 444.25016785 C201.43275932 445.67069102 201.41189533 447.09120796 201.390625 448.51171875 C201.38316369 449.9647392 201.37747024 451.41776972 201.37347412 452.87080383 C201.35820878 456.69332715 201.3189202 460.51524153 201.2746582 464.33752441 C201.23372432 468.23860435 201.21546719 472.13978278 201.1953125 476.04101562 C201.15242596 483.69428789 201.08416485 491.34705859 201 499 C201.74803391 499.1404071 202.49606781 499.28081421 203.26676941 499.42547607 C206.98904675 500.20789721 210.52687203 501.45681899 214.11328125 502.703125 C214.90718765 502.97700043 215.70109406 503.25087585 216.51905823 503.53305054 C219.11880859 504.43324351 221.71601914 505.34042143 224.3125 506.25 C225.20414856 506.56201355 226.09579712 506.8740271 227.01446533 507.19549561 C273.72191712 523.5902487 323.97646379 542.51647837 362 575 C362.99515625 575.84304688 363.9903125 576.68609375 365.015625 577.5546875 C391.42474072 600.7167808 393.04746411 635.92686927 397.68774414 668.80529785 C397.98943249 670.92572586 398.30157049 673.0444014 398.61523438 675.16308594 C399.13134994 678.77136759 399.58538899 682.37881511 400 686 C400.1330957 686.97243652 400.26619141 687.94487305 400.40332031 688.94677734 C400.90676921 694.92273797 400.90676921 694.92273797 398.59765625 697.66601562 C396.48419763 699.26299509 394.33682597 700.50244317 392 701.75 C391.15421387 702.24040771 390.30842773 702.73081543 389.43701172 703.23608398 C387.60315004 704.2955636 385.76006995 705.33921028 383.90917969 706.36865234 C380.95243294 708.02667364 378.04087147 709.74642997 375.1328125 711.48828125 C319.67737914 744.60101119 259.03646035 766.72996627 195.375 777.3125 C194.33854843 777.48863831 194.33854843 777.48863831 193.28115845 777.66833496 C167.71727133 781.95566719 142.02736341 783.51997374 116.14550781 783.39111328 C112.69094136 783.37402255 109.23706902 783.38422971 105.78252602 783.40142918 C79.88372355 783.51053422 54.18366268 781.65767373 28.625 777.3125 C27.87204651 777.18716888 27.11909302 777.06183777 26.34332275 776.93270874 C-45.40599051 764.9200232 -117.80100163 737.79230085 -177 695 C-164.30544097 596.28021319 -164.30544097 596.28021319 -150 581 C-149.14535156 580.06671875 -148.29070312 579.1334375 -147.41015625 578.171875 C-112.72542739 541.34581894 -58.0322669 522.93708486 -11.0625 507.6875 C-9.73665894 507.2538916 -9.73665894 507.2538916 -8.3840332 506.81152344 C2.28311401 503.43459738 13.1651862 500.77804478 24 498 C24.00142502 497.22183426 24.00285004 496.44366852 24.00431824 495.641922 C24.02216553 488.2997849 24.06382893 480.95834853 24.13209057 473.61652088 C24.16634725 469.8421672 24.19146835 466.06821767 24.19555664 462.29370117 C24.19984267 458.64935296 24.22832826 455.00591624 24.27343178 451.36185265 C24.28639746 449.97328696 24.29071767 448.58461214 24.28615379 447.19599342 C24.28124244 445.24752738 24.31022604 443.29906592 24.34057617 441.35083008 C24.34723801 440.2427449 24.35389984 439.13465973 24.36076355 437.99299622 C25.20386652 434.0454679 26.93364239 432.53648884 30 430 C32.45703125 429.07421875 32.45703125 429.07421875 34.8125 428.6875 C35.60269531 428.54699219 36.39289063 428.40648437 37.20703125 428.26171875 C37.79871094 428.17535156 38.39039063 428.08898437 39 428 C38.85930243 424.04146699 38.71148952 420.08322891 38.5625 416.125 C38.52318359 415.01640625 38.48386719 413.9078125 38.44335938 412.765625 C38.31883513 409.50883717 38.16735492 406.25485147 38 403 C37.95681641 402.04077637 37.91363281 401.08155273 37.86914062 400.09326172 C37.55498301 395.03765726 37.55498301 395.03765726 35.3984375 390.5546875 C34.73070312 390.00039063 34.06296875 389.44609375 33.375 388.875 C29.1453882 385.2472302 25.60595941 381.23426317 22 377 C21.17653076 376.03537842 21.17653076 376.03537842 20.33642578 375.05126953 C-7.8689153 341.76235842 -38.05189203 300.84432392 -52 259 C-53.01707031 258.99613281 -53.01707031 258.99613281 -54.0546875 258.9921875 C-64.58590074 258.55460246 -71.92541913 253.9725377 -79.0625 246.375 C-96.00828907 225.60274243 -102.98845099 196.36858927 -101 170 C-99.6789116 160.5065973 -96.11590368 150.92798051 -88.91796875 144.28515625 C-82.09336676 139.71225593 -73.10583781 137.64902703 -65 139 C-59.69548819 140.71616559 -55.99985761 143.20022783 -53 148 C-51.74714175 151.67294963 -51.82565097 155.33405971 -51.75390625 159.1875 C-51.72092354 160.623703 -51.68771275 162.05990077 -51.65429688 163.49609375 C-51.60730157 165.73579755 -51.56293493 167.97548744 -51.52319336 170.21533203 C-51.30371484 182.03037344 -50.66954117 193.38863816 -46.5 204.5625 C-46.0771875 205.71878906 -45.654375 206.87507812 -45.21875 208.06640625 C-44.06313678 211.11441351 -44.06313678 211.11441351 -42 214 C-41.9498877 213.1248877 -41.89977539 212.24977539 -41.84814453 211.34814453 C-41.65433452 208.00415279 -41.45617975 204.6604707 -41.25537109 201.31689453 C-41.17037963 199.88795573 -41.08696943 198.45892173 -41.00537109 197.02978516 C-40.54956129 189.06718176 -39.94246477 181.16196478 -38.9921875 173.2421875 C-37.800945 163.18349074 -37.39347228 153.11628261 -37 143 C-36.59842297 132.67534201 -36.16146483 122.38545775 -35.04296875 112.109375 C-34.96566528 111.38838623 -34.88836182 110.66739746 -34.80871582 109.92456055 C-33.56821963 99.31483925 -30.00623983 90.37327041 -24.87890625 81.0703125 C-18.56830133 68.29708153 -15.99877856 53.93621452 -13.02319336 40.12109375 C-10.02532774 26.28354156 -6.6007308 12.62461565 0 0 Z " fill="#F0A35B" transform="translate(400,241)"/>
<path d="M0 0 C2.5272581 3.21933801 4.59858834 6.60817104 6.6875 10.125 C10.34411246 16.15447554 14.40331451 21.64157806 19 27 C20.03060547 28.21429688 20.03060547 28.21429688 21.08203125 29.453125 C60.95152205 75.14140635 120.76853937 98.70128244 178 113 C179.89939331 113.47626831 179.89939331 113.47626831 181.8371582 113.9621582 C185.8906063 114.97811861 189.94507365 115.98995717 194 117 C195.26424805 117.31493408 196.52849609 117.62986816 197.83105469 117.9543457 C201.69826635 118.91367526 205.56692501 119.86684715 209.4375 120.8125 C210.12568817 120.98064209 210.81387634 121.14878418 211.5229187 121.32202148 C227.60634065 125.2375293 243.78790179 128.66374828 260 132 C260.08040527 133.13203857 260.16081055 134.26407715 260.24365234 135.43041992 C260.61768149 140.68300321 260.99545461 145.93531258 261.375 151.1875 C261.44313904 152.13071106 261.51127808 153.07392212 261.58148193 154.04571533 C262.3848288 165.12138963 263.23463524 176.18222823 264.36621094 187.22998047 C265.22394785 195.80182773 265.62631465 204.39540321 266 213 C271.44058016 199.05637474 274.91834941 186.66382218 275.17578125 171.55078125 C275.19373497 170.55181572 275.19373497 170.55181572 275.21205139 169.53266907 C275.2607995 166.75605183 275.30825203 163.97989449 275.32592773 161.20288086 C275.34146319 159.15148383 275.38164718 157.10173702 275.42578125 155.05078125 C275.44036377 153.84075439 275.45494629 152.63072754 275.4699707 151.3840332 C276.26821529 146.28754851 278.77004249 143.21579682 282.375 139.65234375 C288.71073743 135.66422331 297.77522727 137.7465626 304.8125 139 C312.39090865 140.96544977 316.34163956 144.84849223 320.48828125 151.32421875 C330.47362108 169.61594747 327.83997756 190.5520286 323 210 C317.70502913 227.71179362 308.97029001 245.73338499 293 256 C289.97563317 257.44643631 287.89294044 258.07168039 284.5456543 257.80297852 C281.30730339 257.67319457 279.05111874 257.86782386 276 259 C273.0996118 262.50065668 271.3346156 266.37835428 269.56100464 270.52392578 C268.3719346 273.29896258 267.08787753 276.02618659 265.80641174 278.75949097 C265.15265706 280.15493851 264.50345116 281.55252591 263.85874939 282.95217896 C260.90134967 289.34344132 257.53122526 295.44355164 253.9375 301.5 C253.36483398 302.46574951 252.79216797 303.43149902 252.20214844 304.42651367 C250.48420296 307.29451477 248.74753744 310.14994315 247 313 C246.12794922 314.4226416 246.12794922 314.4226416 245.23828125 315.87402344 C234.22134383 333.73094683 222.14273594 350.65385072 209 367 C208.24203125 367.95261719 207.4840625 368.90523437 206.703125 369.88671875 C200.82155668 377.1969659 194.64025977 384.35974023 188 391 C187.96376642 393.05072484 187.99884438 395.10273019 188.06103516 397.15283203 C188.0966153 398.47155304 188.13219543 399.79027405 188.16885376 401.1489563 C188.189193 401.85876774 188.20953224 402.56857918 188.23048782 403.29990005 C188.35097124 407.84139914 188.41366634 412.38414399 188.48780251 416.92659187 C188.5563147 420.91944819 188.64442408 424.91002076 188.77490234 428.90136719 C188.89993429 432.76061794 188.97042863 436.61752021 189.00471115 440.47860336 C189.02746551 441.94695286 189.06980481 443.41513968 189.13246536 444.88232803 C189.319925 449.42288819 189.31680391 453.5993128 188 458 C184.73819735 461.34121023 181.27362561 463.19808356 177 465 C176.32078491 465.308237 175.64156982 465.616474 174.94177246 465.93405151 C173.28687022 466.62699525 171.58064745 467.19354764 169.875 467.75 C168.68132812 468.14445312 167.48765625 468.53890625 166.2578125 468.9453125 C165.18273437 469.29335938 164.10765625 469.64140625 163 470 C162.25492188 470.28617188 161.50984375 470.57234375 160.7421875 470.8671875 C129.08171483 482.91058298 84.49496976 480.08800348 53.81420898 467.07275391 C52.02202629 466.23754861 50.25953167 465.33946176 48.5 464.4375 C47.3553125 463.85871094 46.210625 463.27992188 45.03125 462.68359375 C40.04108262 459.91199305 40.04108262 459.91199305 38 458 C37.52571106 455.61851501 37.52571106 455.61851501 37.56176758 452.76928711 C37.5670623 451.16633034 37.5670623 451.16633034 37.57246399 449.5309906 C37.59624619 448.37478714 37.62002838 447.21858368 37.64453125 446.02734375 C37.65256271 444.83452286 37.66059418 443.64170197 37.66886902 442.41273499 C37.69792348 438.58720996 37.75411681 434.7626802 37.8125 430.9375 C37.85515938 427.13744059 37.89212347 423.33741158 37.92399597 419.5372467 C37.94549249 417.17196397 37.9740209 414.8067312 38.01069641 412.44163513 C38.69703672 401.03819195 38.69703672 401.03819195 35.3984375 390.5546875 C34.73070312 390.00039063 34.06296875 389.44609375 33.375 388.875 C29.1453882 385.2472302 25.60595941 381.23426317 22 377 C21.17653076 376.03537842 21.17653076 376.03537842 20.33642578 375.05126953 C-7.8689153 341.76235842 -38.05189203 300.84432392 -52 259 C-53.01707031 258.99613281 -53.01707031 258.99613281 -54.0546875 258.9921875 C-64.58590074 258.55460246 -71.92541913 253.9725377 -79.0625 246.375 C-96.00828907 225.60274243 -102.98845099 196.36858927 -101 170 C-99.6789116 160.5065973 -96.11590368 150.92798051 -88.91796875 144.28515625 C-82.09336676 139.71225593 -73.10583781 137.64902703 -65 139 C-59.69548819 140.71616559 -55.99985761 143.20022783 -53 148 C-51.74714175 151.67294963 -51.82565097 155.33405971 -51.75390625 159.1875 C-51.72092354 160.623703 -51.68771275 162.05990077 -51.65429688 163.49609375 C-51.60730157 165.73579755 -51.56293493 167.97548744 -51.52319336 170.21533203 C-51.30371484 182.03037344 -50.66954117 193.38863816 -46.5 204.5625 C-46.0771875 205.71878906 -45.654375 206.87507812 -45.21875 208.06640625 C-44.06313678 211.11441351 -44.06313678 211.11441351 -42 214 C-41.9498877 213.1248877 -41.89977539 212.24977539 -41.84814453 211.34814453 C-41.65433452 208.00415279 -41.45617975 204.6604707 -41.25537109 201.31689453 C-41.17037963 199.88795573 -41.08696943 198.45892173 -41.00537109 197.02978516 C-40.54956129 189.06718176 -39.94246477 181.16196478 -38.9921875 173.2421875 C-37.800945 163.18349074 -37.39347228 153.11628261 -37 143 C-36.59842297 132.67534201 -36.16146483 122.38545775 -35.04296875 112.109375 C-34.96566528 111.38838623 -34.88836182 110.66739746 -34.80871582 109.92456055 C-33.56821963 99.31483925 -30.00623983 90.37327041 -24.87890625 81.0703125 C-18.56830133 68.29708153 -15.99877856 53.93621452 -13.02319336 40.12109375 C-10.02532774 26.28354156 -6.6007308 12.62461565 0 0 Z " fill="#FEE8B7" transform="translate(400,241)"/>
<path d="M0 0 C1.2065625 1.0209375 1.2065625 1.0209375 2.4375 2.0625 C34.93007393 30.16418556 51.29494188 73.91146684 59 115 C59.19795166 116.02359619 59.39590332 117.04719238 59.59985352 118.10180664 C61.36770468 128.53661306 61.33773283 138.96217185 61.31567383 149.52026367 C61.31252329 152.66425602 61.3360159 155.80729573 61.36132812 158.95117188 C61.41709787 176.66098053 59.42791177 193.11010197 54 210 C50.11460328 210.07471917 46.74304605 209.99913978 43 209 C34.16502013 207.97452501 34.16502013 207.97452501 26.3125 211.25 C22.46924543 215.82035678 21.75054278 218.68315437 21.65625 224.6796875 C21.6416272 225.32890167 21.62700439 225.97811584 21.61193848 226.64700317 C21.56561546 228.72293875 21.53141381 230.79878883 21.5 232.875 C21.28875965 246.47887868 20.61742054 259.73408616 16.0625 272.6875 C15.81048828 273.45771484 15.55847656 274.22792969 15.29882812 275.02148438 C14.00816651 278.80764517 13.0224248 281.2739841 10 284 C9.93268677 282.82872559 9.93268677 282.82872559 9.86401367 281.63378906 C9.64313165 277.83890935 9.41704298 274.04436394 9.1875 270.25 C9.14498108 269.54570862 9.10246216 268.84141724 9.05865479 268.11578369 C8.53418747 259.51901731 7.93708115 250.93281808 7.19921875 242.3515625 C7.09703285 241.16065002 7.09703285 241.16065002 6.99278259 239.94567871 C6.66037989 236.09986277 6.31856966 232.25511127 5.96557617 228.41113281 C5.17374605 219.57187918 4.82609448 210.88323467 5 202 C3.83597656 201.90074219 2.67195313 201.80148437 1.47265625 201.69921875 C-5.62900038 200.90552863 -12.58483733 199.31547106 -19.5625 197.8125 C-20.28799042 197.65760101 -21.01348083 197.50270203 -21.76095581 197.34310913 C-34.07911285 194.71018317 -46.31137507 191.80084355 -58.50634766 188.64355469 C-61.44012907 187.88641275 -64.37853551 187.14926793 -67.31884766 186.41796875 C-69.23559572 185.94108377 -71.1510086 185.45884277 -73.06640625 184.9765625 C-75.83999555 184.2819373 -78.61906642 183.61561352 -81.40234375 182.9609375 C-143.87392082 168.09942847 -215.21634557 136.27732707 -250.38671875 79.234375 C-251.97620167 76.51323183 -253.52465631 73.7843759 -255 71 C-262.01572998 88.12349902 -266.24986262 105.85166739 -270.046875 123.93359375 C-272.81947201 136.93945874 -277.34958367 149.59716601 -283.8125 161.25 C-289.95486291 172.91428511 -289.94939138 188.60003847 -290.46484375 201.53125 C-290.5434383 203.3307371 -290.62222049 205.13021602 -290.70117188 206.9296875 C-290.81973035 209.7020569 -290.93645867 212.47447274 -291.04956055 215.24707031 C-291.46737596 225.37977384 -292.05668519 235.41700981 -293.27024841 245.48753357 C-293.87219357 250.56186075 -294.28430399 255.62053057 -294.5625 260.72265625 C-294.61966942 261.76424393 -294.61966942 261.76424393 -294.67799377 262.82687378 C-294.82765491 265.63139061 -294.96996429 268.43617122 -295.10449219 271.24145508 C-295.20721086 273.33988442 -295.32155912 275.43742228 -295.4375 277.53515625 C-295.52837891 279.36639038 -295.52837891 279.36639038 -295.62109375 281.23461914 C-295.74613281 282.14719482 -295.87117188 283.05977051 -296 284 C-296.66 284.33 -297.32 284.66 -298 285 C-304.0274968 272.89735821 -307.02812715 260.88848735 -307.2109375 247.34375 C-307.23899179 245.89451968 -307.26765614 244.44530106 -307.296875 242.99609375 C-307.33811722 240.74495605 -307.37506961 238.49404062 -307.40136719 236.24267578 C-307.42914538 234.04676148 -307.47498522 231.85179299 -307.5234375 229.65625 C-307.5531665 227.70428711 -307.5531665 227.70428711 -307.58349609 225.71289062 C-308.06371811 221.43199003 -309.0108652 218.80367102 -311 215 C-317.14211165 210.13749495 -322.38297312 209.23231535 -330 210 C-334.41444074 211.11333362 -338.70563439 212.49226035 -343 214 C-347.99657036 199.60987737 -352.24944938 185.36998494 -354.6875 170.3125 C-354.80697998 169.57717041 -354.92645996 168.84184082 -355.04956055 168.08422852 C-360.95589449 129.17769712 -357.45841271 87.5709401 -340 52 C-339.69336426 51.36368652 -339.38672852 50.72737305 -339.07080078 50.07177734 C-327.50633665 26.31336813 -308.30759 5.51490081 -283.03125 -3.71923828 C-273.70938384 -6.93449949 -264.92302818 -9.17376424 -254.96484375 -9 C-252.97127184 -9.00197091 -250.97769907 -9.00398414 -248.98413086 -9.00830078 C-247.61778687 -9.00275913 -246.251427 -8.98285838 -244.88549805 -8.94873047 C-236.77749964 -8.49971974 -236.77749964 -8.49971974 -229.85400391 -11.92749023 C-228.34145007 -14.22315435 -227.19686334 -16.52993284 -226 -19 C-211.53172243 -37.04783069 -185.88947397 -42.40615298 -164.11499023 -45.12597656 C-105.41547725 -51.4092282 -45.54682555 -38.88143645 0 0 Z " fill="#293139" transform="translate(655,171)"/>
<path d="M0 0 C0.04125 1.2375 0.0825 2.475 0.125 3.75 C1.23489993 13.28913991 6.37425955 21.48660922 13.34375 27.91015625 C26.36802313 38.15719467 41.78511464 43.25451403 57.875 46.3125 C58.69871094 46.47202148 59.52242188 46.63154297 60.37109375 46.79589844 C69.62997878 48.39676673 78.43874187 48.49677589 88 49 C88 126.55 88 204.1 88 284 C-6.82442216 284 -98.1950376 260.28247 -202 196 C-189.30544097 97.28021319 -189.30544097 97.28021319 -175 82 C-174.14535156 81.06671875 -173.29070312 80.1334375 -172.41015625 79.171875 C-132.97968893 37.30709336 -67.57731613 17.40126328 -13.8125 2 C-12.74370605 1.68796631 -12.74370605 1.68796631 -11.65332031 1.36962891 C-7.67221478 0.26548661 -4.12747616 -0.20541094 0 0 Z " fill="#FCAD5F" transform="translate(425,740)"/>
<path d="M0 0 C5.8607325 1.75821975 11.11797287 3.37082452 16.6875 5.625 C29.78184976 10.71148014 43.48304599 14.22050937 57 18 C57.93312012 18.26200195 58.86624023 18.52400391 59.82763672 18.79394531 C71.78656311 22.12633102 83.87857053 24.80493292 96.00390625 27.45703125 C103.83818882 29.17408942 111.64986606 30.98504034 119.45727539 32.82006836 C128.93964243 35.03149546 138.46816965 37.01524552 148 39 C148.08040527 40.13203857 148.16081055 41.26407715 148.24365234 42.43041992 C148.61768149 47.68300321 148.99545461 52.93531258 149.375 58.1875 C149.44313904 59.13071106 149.51127808 60.07392212 149.58148193 61.04571533 C150.3848288 72.12138963 151.23463524 83.18222823 152.36621094 94.22998047 C153.22394785 102.80182773 153.62631465 111.39540321 154 120 C159.44058016 106.05637474 162.91834941 93.66382218 163.17578125 78.55078125 C163.1877504 77.88480423 163.19971954 77.21882721 163.21205139 76.53266907 C163.2607995 73.75605183 163.30825203 70.97989449 163.32592773 68.20288086 C163.34146319 66.15148383 163.38164718 64.10173702 163.42578125 62.05078125 C163.44036377 60.84075439 163.45494629 59.63072754 163.4699707 58.3840332 C164.26821529 53.28754851 166.77004249 50.21579682 170.375 46.65234375 C176.71073743 42.66422331 185.77522727 44.7465626 192.8125 46 C200.39090865 47.96544977 204.34163956 51.84849223 208.48828125 58.32421875 C218.47362108 76.61594747 215.83997756 97.5520286 211 117 C205.70502913 134.71179362 196.97029001 152.73338499 181 163 C177.97563317 164.44643631 175.89294044 165.07168039 172.5456543 164.80297852 C169.30730339 164.67319457 167.05111874 164.86782386 164 166 C161.0996118 169.50065668 159.3346156 173.37835428 157.56100464 177.52392578 C156.3719346 180.29896258 155.08787753 183.02618659 153.80641174 185.75949097 C153.15265706 187.15493851 152.50345116 188.55252591 151.85874939 189.95217896 C148.90134967 196.34344132 145.53122526 202.44355164 141.9375 208.5 C141.36483398 209.46574951 140.79216797 210.43149902 140.20214844 211.42651367 C138.48420296 214.29451477 136.74753744 217.14994315 135 220 C134.12794922 221.4226416 134.12794922 221.4226416 133.23828125 222.87402344 C122.22134383 240.73094683 110.14273594 257.65385072 97 274 C96.24203125 274.95261719 95.4840625 275.90523437 94.703125 276.88671875 C88.82155668 284.1969659 82.64025977 291.35974023 76 298 C75.96376642 300.05072484 75.99884438 302.10273019 76.06103516 304.15283203 C76.0966153 305.47155304 76.13219543 306.79027405 76.16885376 308.1489563 C76.189193 308.85876774 76.20953224 309.56857918 76.23048782 310.29990005 C76.35097124 314.84139914 76.41366634 319.38414399 76.48780251 323.92659187 C76.5563147 327.91944819 76.64442408 331.91002076 76.77490234 335.90136719 C76.89993429 339.76061794 76.97042863 343.61752021 77.00471115 347.47860336 C77.02746551 348.94695286 77.06980481 350.41513968 77.13246536 351.88232803 C77.319925 356.42288819 77.31680391 360.5993128 76 365 C72.73819735 368.34121023 69.27362561 370.19808356 65 372 C64.32078491 372.308237 63.64156982 372.616474 62.94177246 372.93405151 C61.28687022 373.62699525 59.58064745 374.19354764 57.875 374.75 C56.68132812 375.14445312 55.48765625 375.53890625 54.2578125 375.9453125 C53.18273437 376.29335938 52.10765625 376.64140625 51 377 C50.25492188 377.28617188 49.50984375 377.57234375 48.7421875 377.8671875 C17.08171483 389.91058298 -27.50503024 387.08800348 -58.18579102 374.07275391 C-59.97797371 373.23754861 -61.74046833 372.33946176 -63.5 371.4375 C-64.6446875 370.85871094 -65.789375 370.27992188 -66.96875 369.68359375 C-72.12133072 366.82178668 -72.12133072 366.82178668 -74 365 C-74.48101807 362.20954895 -74.48101807 362.20954895 -74.45410156 358.78442383 C-74.45379944 357.5033223 -74.45349731 356.22222076 -74.45318604 354.90229797 C-74.43275939 353.50386943 -74.4118954 352.10544721 -74.390625 350.70703125 C-74.38316359 349.27643117 -74.37747018 347.84582086 -74.37347412 346.41520691 C-74.35820957 342.65186285 -74.31892176 338.88913742 -74.2746582 335.1260376 C-74.23372257 331.28528207 -74.21546682 327.44442647 -74.1953125 323.60351562 C-74.15242737 316.06872855 -74.08416728 308.53445099 -74 301 C-72.88320942 301.95361356 -71.76693577 302.90783253 -70.65087891 303.86230469 C-70.0291983 304.39362 -69.4075177 304.9249353 -68.76699829 305.47235107 C-66.59264767 307.35217428 -64.4840811 309.29742315 -62.375 311.25 C-44.59213614 327.2358022 -24.16215471 340.97973066 0 344 C0 230.48 0 116.96 0 0 Z " fill="#FEDFA7" transform="translate(512,334)"/>
<path d="M0 0 C-0.03254883 0.87213135 -0.06509766 1.7442627 -0.09863281 2.64282227 C-0.19152876 5.90872253 -0.22966633 9.16611519 -0.23193359 12.43286133 C-0.24387451 13.84043661 -0.27703956 15.24800885 -0.33251953 16.65454102 C-0.5069156 21.29577979 -0.41181296 25.52004094 1 30 C4.59884506 33.40284652 8.42906987 35.19175223 13 37 C14.27653442 37.59578857 14.27653442 37.59578857 15.57885742 38.20361328 C23.24201359 41.77922048 31.76256893 43.30099676 40 45 C40.71236816 45.15388184 41.42473633 45.30776367 42.15869141 45.46630859 C68.11912654 50.94007256 96.58790856 49.45734704 122 42 C123.08152344 41.68417969 124.16304687 41.36835937 125.27734375 41.04296875 C133.6508947 38.35015281 141.66175709 34.89216194 149 30 C149.41833778 26.89360445 149.41833778 26.89360445 149.29296875 23.2421875 C149.28872391 22.57913605 149.28447906 21.91608459 149.28010559 21.23294067 C149.26329971 19.11321559 149.22564701 16.99443812 149.1875 14.875 C149.17245549 13.43881581 149.15876668 12.00261672 149.14648438 10.56640625 C149.1133909 7.04396236 149.0615968 3.52207364 149 0 C150.58624235 0.42683239 152.1689098 0.86696158 153.75 1.3125 C154.63171875 1.55613281 155.5134375 1.79976562 156.421875 2.05078125 C159.22429174 3.08258014 160.86685384 3.90382638 163 6 C163.48101807 8.82841492 163.48101807 8.82841492 163.45410156 12.30737305 C163.45379944 13.60849533 163.45349731 14.90961761 163.45318604 16.25016785 C163.43275932 17.67069102 163.41189533 19.09120796 163.390625 20.51171875 C163.38316369 21.9647392 163.37747024 23.41776972 163.37347412 24.87080383 C163.35820878 28.69332715 163.3189202 32.51524153 163.2746582 36.33752441 C163.23372432 40.23860435 163.21546719 44.13978278 163.1953125 48.04101562 C163.15242596 55.69428789 163.08416485 63.34705859 163 71 C163.99 71.33 164.98 71.66 166 72 C165.01 72.495 165.01 72.495 164 73 C163.26661336 75.27453275 163.26661336 75.27453275 162.6875 78 C159.07297274 91.83182957 150.76094648 99.96374797 138.625 107.11328125 C128.47768128 112.59116072 117.29595264 115.90437078 106 118 C104.80479736 118.25160889 104.80479736 118.25160889 103.58544922 118.50830078 C94.27353046 120.307651 85.07310261 120.39796974 75.625 120.375 C74.785065 120.37445618 73.94513 120.37391235 73.07974243 120.37335205 C46.66804447 120.29478789 18.1956146 116.18823222 -1.7734375 97.296875 C-13.9868749 84.69775011 -14.20018684 72.22120555 -14.0546875 55.41796875 C-14.04897861 54.7383288 -14.04326973 54.05868885 -14.03738785 53.35845375 C-14.00610921 49.77345324 -13.96732887 46.18861955 -13.92285156 42.60375977 C-13.87880088 38.91413144 -13.8632313 35.22493048 -13.85362053 31.53507519 C-13.84075144 28.68059566 -13.80605996 25.82667541 -13.76550674 22.97246742 C-13.75006303 21.61182802 -13.74291898 20.25106703 -13.74441147 18.89034081 C-13.74554006 6.96560236 -13.74554006 6.96560236 -10.68798828 3.7121582 C-7.46527815 1.65940015 -3.91866962 0 0 0 Z " fill="#E29756" transform="translate(438,669)"/>
<path d="M0 0 C38.28 0 76.56 0 116 0 C116 23.43 116 46.86 116 71 C77.72 71 39.44 71 0 71 C0 47.57 0 24.14 0 0 Z " fill="#E8ECEC" transform="translate(596,896)"/>
<path d="M0 0 C0.8621814 -0.0071553 1.72436279 -0.01431061 2.6126709 -0.02168274 C3.56075119 -0.02437164 4.50883148 -0.02706055 5.48564148 -0.02983093 C6.48251984 -0.03640213 7.47939819 -0.04297333 8.50648499 -0.04974365 C11.8155372 -0.06950402 15.12454399 -0.08114494 18.43363953 -0.09111023 C20.12605805 -0.09722352 20.12605805 -0.09722352 21.85266685 -0.10346031 C27.82358493 -0.12433205 33.79447995 -0.13862939 39.76542664 -0.147995 C45.93952298 -0.15906587 52.11325954 -0.19347078 58.28722858 -0.23316669 C63.02869345 -0.25928366 67.77007193 -0.26768244 72.5116024 -0.27127647 C74.78781249 -0.27615461 77.06401842 -0.28780328 79.34015846 -0.30631447 C82.52436138 -0.33060225 85.70762474 -0.32975964 88.89189148 -0.32279968 C89.83389908 -0.33560974 90.77590668 -0.3484198 91.74645996 -0.36161804 C95.99216335 -0.32775633 98.26859232 -0.23487218 101.9447937 2.05154419 C104.71221122 5.04394933 105.01223258 6.66491865 105.05986023 10.63764954 C105.07911308 12.03534325 105.07911308 12.03534325 105.09875488 13.46127319 C105.10614182 14.47265854 105.11352875 15.48404388 105.12113953 16.52607727 C105.12921127 17.56731247 105.13728302 18.60854767 105.14559937 19.68133545 C105.15945124 21.89136587 105.17016844 24.10141779 105.17802429 26.31147766 C105.19516532 29.67184404 105.23903376 33.03120823 105.2832489 36.39131165 C105.29338215 38.54039296 105.30189627 40.68948264 105.30863953 42.83857727 C105.32614761 43.835793 105.3436557 44.83300873 105.36169434 45.86044312 C105.3384808 53.42905386 103.8760216 59.71350441 98.81254578 65.52217102 C98.1344989 66.05842102 97.45645203 66.59467102 96.75785828 67.14717102 C96.07465515 67.70404602 95.39145203 68.26092102 94.68754578 68.83467102 C91.08453771 71.45504052 87.99700028 71.32017057 83.68608093 71.35591125 C82.94428589 71.36569504 82.20249084 71.37547882 81.43821716 71.38555908 C78.97446991 71.4155517 76.51077767 71.43692073 74.04692078 71.45576477 C73.20319286 71.4623366 72.35946495 71.46890842 71.49016953 71.4756794 C67.01545133 71.50830549 62.54075709 71.53273656 58.06596375 71.55220032 C54.37810524 71.56993975 50.69102205 71.6046349 47.00346375 71.65473938 C42.54010352 71.71531003 38.0774563 71.74572787 33.61370468 71.755373 C31.9209756 71.7638748 30.2282628 71.78256088 28.53577042 71.81211662 C17.26584066 71.99816326 7.82007346 71.24367162 -1.10209656 63.402771 C-8.31387092 55.93845016 -10.26507324 46.39072721 -10.35542297 36.40107727 C-10.36349472 35.55294968 -10.37156647 34.70482208 -10.37988281 33.83099365 C-10.39368966 32.03984096 -10.40442696 30.24866233 -10.41230774 28.45747375 C-10.42385293 26.62731714 -10.44434467 24.79719486 -10.47383118 22.96723938 C-10.51647939 20.31995309 -10.53267008 17.67366429 -10.54292297 15.02607727 C-10.56043106 14.21135452 -10.57793915 13.39663177 -10.59597778 12.55722046 C-10.58071907 8.55410721 -10.41656317 6.61834943 -8.2155304 3.15473938 C-5.34946815 0.41272311 -3.85037156 0.0219037 0 0 Z " fill="#FDDEA7" transform="translate(541.1171417236328,387.8528289794922)"/>
<path d="M0 0 C0.8621814 -0.0071553 1.72436279 -0.01431061 2.6126709 -0.02168274 C3.56075119 -0.02437164 4.50883148 -0.02706055 5.48564148 -0.02983093 C6.48251984 -0.03640213 7.47939819 -0.04297333 8.50648499 -0.04974365 C11.8155372 -0.06950402 15.12454399 -0.08114494 18.43363953 -0.09111023 C20.12605805 -0.09722352 20.12605805 -0.09722352 21.85266685 -0.10346031 C27.82358493 -0.12433205 33.79447995 -0.13862939 39.76542664 -0.147995 C45.93952298 -0.15906587 52.11325954 -0.19347078 58.28722858 -0.23316669 C63.02869345 -0.25928366 67.77007193 -0.26768244 72.5116024 -0.27127647 C74.78781249 -0.27615461 77.06401842 -0.28780328 79.34015846 -0.30631447 C82.52436138 -0.33060225 85.70762474 -0.32975964 88.89189148 -0.32279968 C89.83389908 -0.33560974 90.77590668 -0.3484198 91.74645996 -0.36161804 C95.99216335 -0.32775633 98.26859232 -0.23487218 101.9447937 2.05154419 C105.51932448 5.9166799 105.05966915 9.49829295 105.08598328 14.52217102 C105.09168335 15.36127014 105.09738342 16.20036926 105.10325623 17.06489563 C105.11271632 18.84702797 105.1192442 20.62917788 105.12309265 22.41133118 C105.13272116 25.108757 105.16370164 27.8053954 105.19535828 30.50263977 C105.27071667 42.49668524 104.97149052 52.50007382 96.98832703 62.10029602 C90.42694255 68.47908167 83.48621855 71.29001354 74.4773407 71.32417297 C73.72576187 71.33074417 72.97418304 71.33731537 72.1998291 71.34408569 C69.7126607 71.3637957 67.22555261 71.37547589 64.73832703 71.38545227 C63.88802729 71.3895278 63.03772755 71.39360332 62.16166115 71.39780235 C57.66142139 71.4186529 53.16121204 71.43295923 48.66093445 71.44233704 C44.01708063 71.45340181 39.37370593 71.48780517 34.73002148 71.52750874 C31.15517292 71.55367402 27.58043859 71.56202876 24.0055027 71.56561852 C22.29391047 71.5704844 20.58232335 71.5820985 18.87082481 71.60065651 C16.47235165 71.62504779 14.07511909 71.62408352 11.67655945 71.61714172 C10.97348663 71.62995178 10.27041382 71.64276184 9.54603577 71.65596008 C3.66786645 71.59413653 0.2488497 69.36149633 -3.94526672 65.43623352 C-4.41448547 64.8870929 -4.88370422 64.33795227 -5.36714172 63.77217102 C-6.0864386 62.95619446 -6.0864386 62.95619446 -6.82026672 62.12373352 C-10.67360178 56.25087948 -10.43807384 50.00121922 -10.45307922 43.23701477 C-10.45973602 42.19195267 -10.46639282 41.14689056 -10.47325134 40.07015991 C-10.48334978 37.86725112 -10.48806923 35.66431192 -10.48774719 33.46138 C-10.49213158 30.09246199 -10.52851281 26.72484288 -10.56636047 23.3561554 C-10.57222695 21.21227965 -10.57619747 19.06839771 -10.57807922 16.92451477 C-10.59245026 15.91920212 -10.60682129 14.91388947 -10.62162781 13.87811279 C-10.59266702 9.44803631 -10.56493459 6.87892589 -8.21333313 3.03608704 C-5.32293947 0.43150099 -3.78903102 0.02155475 0 0 Z " fill="#FDE7B6" transform="translate(388.1171417236328,387.8528289794922)"/>
<path d="M0 0 C0.33 0 0.66 0 1 0 C1.38642454 8.35259363 1.71198084 16.70445012 1.96108532 25.06215763 C2.07866411 28.94363692 2.21672046 32.82207094 2.40258789 36.70092773 C2.58137701 40.4481416 2.70504725 44.19358788 2.79146767 47.94402885 C2.83386798 49.37079336 2.89575628 50.79712203 2.9778347 52.22215462 C3.22710135 56.68142282 3.2718602 60.70023727 2 65 C-1.26231083 68.32365579 -4.74330409 70.18753467 -9 72 C-10.01917763 72.46313347 -10.01917763 72.46313347 -11.0589447 72.93562317 C-12.71390163 73.62739525 -14.41973448 74.19367224 -16.125 74.75 C-17.91550781 75.34167969 -17.91550781 75.34167969 -19.7421875 75.9453125 C-20.81726563 76.29335938 -21.89234375 76.64140625 -23 77 C-23.74507812 77.28617188 -24.49015625 77.57234375 -25.2578125 77.8671875 C-56.91828517 89.91058298 -101.50503024 87.08800348 -132.18579102 74.07275391 C-133.97797371 73.23754861 -135.74046833 72.33946176 -137.5 71.4375 C-138.6446875 70.85871094 -139.789375 70.27992188 -140.96875 69.68359375 C-146.12133072 66.82178668 -146.12133072 66.82178668 -148 65 C-148.48101807 62.20954895 -148.48101807 62.20954895 -148.45410156 58.78442383 C-148.45379944 57.5033223 -148.45349731 56.22222076 -148.45318604 54.90229797 C-148.43275939 53.50386943 -148.4118954 52.10544721 -148.390625 50.70703125 C-148.38316359 49.27643117 -148.37747018 47.84582086 -148.37347412 46.41520691 C-148.35820957 42.65186285 -148.31892176 38.88913742 -148.2746582 35.1260376 C-148.23372257 31.28528207 -148.21546682 27.44442647 -148.1953125 23.60351562 C-148.15242737 16.06872855 -148.08416728 8.53445099 -148 1 C-146.88320942 1.95361356 -145.76693577 2.90783253 -144.65087891 3.86230469 C-144.0291983 4.39362 -143.4075177 4.9249353 -142.76699829 5.47235107 C-140.59264767 7.35217428 -138.4840811 9.29742315 -136.375 11.25 C-123.16413513 23.12583026 -108.58952693 33.41070192 -92 40 C-91.27554688 40.31839844 -90.55109375 40.63679687 -89.8046875 40.96484375 C-78.00314584 45.42640218 -62.80164004 44.46948979 -51.34765625 39.66015625 C-31.66456454 29.89899642 -15.4568032 15.4568032 0 0 Z " fill="#F3CE92" transform="translate(586,634)"/>
<path d="M0 0 C0.8621814 -0.0071553 1.72436279 -0.01431061 2.6126709 -0.02168274 C3.56075119 -0.02437164 4.50883148 -0.02706055 5.48564148 -0.02983093 C6.48251984 -0.03640213 7.47939819 -0.04297333 8.50648499 -0.04974365 C11.8155372 -0.06950402 15.12454399 -0.08114494 18.43363953 -0.09111023 C20.12605805 -0.09722352 20.12605805 -0.09722352 21.85266685 -0.10346031 C27.82358493 -0.12433205 33.79447995 -0.13862939 39.76542664 -0.147995 C45.93952298 -0.15906587 52.11325954 -0.19347078 58.28722858 -0.23316669 C63.02869345 -0.25928366 67.77007193 -0.26768244 72.5116024 -0.27127647 C74.78781249 -0.27615461 77.06401842 -0.28780328 79.34015846 -0.30631447 C82.52436138 -0.33060225 85.70762474 -0.32975964 88.89189148 -0.32279968 C89.83389908 -0.33560974 90.77590668 -0.3484198 91.74645996 -0.36161804 C95.99216335 -0.32775633 98.26859232 -0.23487218 101.9447937 2.05154419 C105.51932448 5.9166799 105.05966915 9.49829295 105.08598328 14.52217102 C105.09168335 15.36127014 105.09738342 16.20036926 105.10325623 17.06489563 C105.11271632 18.84702797 105.1192442 20.62917788 105.12309265 22.41133118 C105.13272116 25.108757 105.16370164 27.8053954 105.19535828 30.50263977 C105.27071667 42.49668524 104.97149052 52.50007382 96.98832703 62.10029602 C90.42694255 68.47908167 83.48621855 71.29001354 74.4773407 71.32417297 C73.72576187 71.33074417 72.97418304 71.33731537 72.1998291 71.34408569 C69.7126607 71.3637957 67.22555261 71.37547589 64.73832703 71.38545227 C63.88802729 71.3895278 63.03772755 71.39360332 62.16166115 71.39780235 C57.66142139 71.4186529 53.16121204 71.43295923 48.66093445 71.44233704 C44.01708063 71.45340181 39.37370593 71.48780517 34.73002148 71.52750874 C31.15517292 71.55367402 27.58043859 71.56202876 24.0055027 71.56561852 C22.29391047 71.5704844 20.58232335 71.5820985 18.87082481 71.60065651 C16.47235165 71.62504779 14.07511909 71.62408352 11.67655945 71.61714172 C10.97348663 71.62995178 10.27041382 71.64276184 9.54603577 71.65596008 C3.66786645 71.59413653 0.2488497 69.36149633 -3.94526672 65.43623352 C-4.41448547 64.8870929 -4.88370422 64.33795227 -5.36714172 63.77217102 C-6.0864386 62.95619446 -6.0864386 62.95619446 -6.82026672 62.12373352 C-10.67360178 56.25087948 -10.43807384 50.00121922 -10.45307922 43.23701477 C-10.45973602 42.19195267 -10.46639282 41.14689056 -10.47325134 40.07015991 C-10.48334978 37.86725112 -10.48806923 35.66431192 -10.48774719 33.46138 C-10.49213158 30.09246199 -10.52851281 26.72484288 -10.56636047 23.3561554 C-10.57222695 21.21227965 -10.57619747 19.06839771 -10.57807922 16.92451477 C-10.59245026 15.91920212 -10.60682129 14.91388947 -10.62162781 13.87811279 C-10.59266702 9.44803631 -10.56493459 6.87892589 -8.21333313 3.03608704 C-5.32293947 0.43150099 -3.78903102 0.02155475 0 0 Z M-0.11714172 10.14717102 C-2.74113893 35.28945212 -2.74113893 35.28945212 2.88285828 58.14717102 C7.21530175 61.73029326 10.19418575 62.64981413 15.77104187 62.66474915 C16.43206406 62.67175842 17.09308624 62.6787677 17.7741394 62.68598938 C19.94362822 62.70348995 22.11179535 62.69197397 24.28129578 62.67842102 C25.80055489 62.6811189 27.31981232 62.68500379 28.83906555 62.6900177 C32.01821891 62.6959025 35.19692155 62.68738568 38.37602234 62.6686554 C42.43345877 62.64590474 46.48983442 62.65896969 50.54723167 62.68294525 C53.683872 62.69746455 56.82026483 62.69276874 59.95691299 62.68243408 C61.45190687 62.67978164 62.94692384 62.68298392 64.44189072 62.69235229 C74.13390718 62.73975344 80.88910739 62.2329672 88.63285828 55.89717102 C100.25364825 41.69398327 94.88285828 31.13253947 94.88285828 10.14717102 C63.53285828 10.14717102 32.18285828 10.14717102 -0.11714172 10.14717102 Z " fill="#2D343B" transform="translate(388.1171417236328,387.8528289794922)"/>
<path d="M0 0 C0.8621814 -0.0071553 1.72436279 -0.01431061 2.6126709 -0.02168274 C3.56075119 -0.02437164 4.50883148 -0.02706055 5.48564148 -0.02983093 C6.48251984 -0.03640213 7.47939819 -0.04297333 8.50648499 -0.04974365 C11.8155372 -0.06950402 15.12454399 -0.08114494 18.43363953 -0.09111023 C20.12605805 -0.09722352 20.12605805 -0.09722352 21.85266685 -0.10346031 C27.82358493 -0.12433205 33.79447995 -0.13862939 39.76542664 -0.147995 C45.93952298 -0.15906587 52.11325954 -0.19347078 58.28722858 -0.23316669 C63.02869345 -0.25928366 67.77007193 -0.26768244 72.5116024 -0.27127647 C74.78781249 -0.27615461 77.06401842 -0.28780328 79.34015846 -0.30631447 C82.52436138 -0.33060225 85.70762474 -0.32975964 88.89189148 -0.32279968 C89.83389908 -0.33560974 90.77590668 -0.3484198 91.74645996 -0.36161804 C95.99216335 -0.32775633 98.26859232 -0.23487218 101.9447937 2.05154419 C104.71221122 5.04394933 105.01223258 6.66491865 105.05986023 10.63764954 C105.07911308 12.03534325 105.07911308 12.03534325 105.09875488 13.46127319 C105.10614182 14.47265854 105.11352875 15.48404388 105.12113953 16.52607727 C105.12921127 17.56731247 105.13728302 18.60854767 105.14559937 19.68133545 C105.15945124 21.89136587 105.17016844 24.10141779 105.17802429 26.31147766 C105.19516532 29.67184404 105.23903376 33.03120823 105.2832489 36.39131165 C105.29338215 38.54039296 105.30189627 40.68948264 105.30863953 42.83857727 C105.32614761 43.835793 105.3436557 44.83300873 105.36169434 45.86044312 C105.3384808 53.42905386 103.8760216 59.71350441 98.81254578 65.52217102 C98.1344989 66.05842102 97.45645203 66.59467102 96.75785828 67.14717102 C96.07465515 67.70404602 95.39145203 68.26092102 94.68754578 68.83467102 C91.08453771 71.45504052 87.99700028 71.32017057 83.68608093 71.35591125 C82.94428589 71.36569504 82.20249084 71.37547882 81.43821716 71.38555908 C78.97446991 71.4155517 76.51077767 71.43692073 74.04692078 71.45576477 C73.20319286 71.4623366 72.35946495 71.46890842 71.49016953 71.4756794 C67.01545133 71.50830549 62.54075709 71.53273656 58.06596375 71.55220032 C54.37810524 71.56993975 50.69102205 71.6046349 47.00346375 71.65473938 C42.54010352 71.71531003 38.0774563 71.74572787 33.61370468 71.755373 C31.9209756 71.7638748 30.2282628 71.78256088 28.53577042 71.81211662 C17.26584066 71.99816326 7.82007346 71.24367162 -1.10209656 63.402771 C-8.31387092 55.93845016 -10.26507324 46.39072721 -10.35542297 36.40107727 C-10.36349472 35.55294968 -10.37156647 34.70482208 -10.37988281 33.83099365 C-10.39368966 32.03984096 -10.40442696 30.24866233 -10.41230774 28.45747375 C-10.42385293 26.62731714 -10.44434467 24.79719486 -10.47383118 22.96723938 C-10.51647939 20.31995309 -10.53267008 17.67366429 -10.54292297 15.02607727 C-10.56043106 14.21135452 -10.57793915 13.39663177 -10.59597778 12.55722046 C-10.58071907 8.55410721 -10.41656317 6.61834943 -8.2155304 3.15473938 C-5.34946815 0.41272311 -3.85037156 0.0219037 0 0 Z M-0.11714172 10.14717102 C-2.7258877 41.79306905 -2.7258877 41.79306905 4.88285828 55.14717102 C7.07954138 57.43277227 7.07954138 57.43277227 9.50785828 58.70967102 C10.2632489 59.16471008 11.01863953 59.61974915 11.79692078 60.08857727 C15.80930774 62.12482609 19.01376611 62.28771113 23.46220398 62.32417297 C24.12600067 62.33074417 24.78979736 62.33731537 25.47370911 62.34408569 C27.66868712 62.36378281 29.86359684 62.37547318 32.05863953 62.38545227 C32.80964621 62.3895278 33.56065289 62.39360332 34.33441734 62.39780235 C38.3094645 62.41864778 42.2844773 62.43295609 46.25956726 62.44233704 C50.35864256 62.45339861 54.45717458 62.48779936 58.55605793 62.52750874 C61.71399931 62.55369165 64.87181154 62.56203031 68.02985191 62.56561852 C69.54049028 62.57048016 71.05112305 62.58208223 72.56165504 62.60065651 C74.67998078 62.62508557 76.79690462 62.62407718 78.91532898 62.61714172 C80.11873428 62.62300797 81.32213959 62.62887421 82.56201172 62.63491821 C86.642581 62.03558724 88.72150961 60.76987553 91.88285828 58.14717102 C100.13085268 44.40051367 94.88285828 26.17839056 94.88285828 10.14717102 C63.53285828 10.14717102 32.18285828 10.14717102 -0.11714172 10.14717102 Z " fill="#2D343B" transform="translate(541.1171417236328,387.8528289794922)"/>
<path d="M0 0 C0.75539063 0.75667969 1.51078125 1.51335938 2.2890625 2.29296875 C3.77843063 3.78019082 5.27031782 5.2649591 6.7734375 6.73828125 C9.75046609 9.66448252 12.59593701 12.64211119 15.3125 15.8125 C21.93868398 23.47866802 29.23167745 30.50331534 37 37 C37.5170752 37.44150391 38.03415039 37.88300781 38.56689453 38.33789062 C52.66661764 50.34803713 67.90351096 60.887997 84.11328125 69.86328125 C84.73589844 70.23839844 85.35851562 70.61351562 86 71 C86 71.33 86 71.66 86 72 C55.54696196 72.72988476 27.91674278 71.16420777 0.8371582 55.77050781 C-1 54 -1 54 -1.4699707 51.28637695 C-1.45538818 50.19800537 -1.44080566 49.10963379 -1.42578125 47.98828125 C-1.41417969 46.15450928 -1.41417969 46.15450928 -1.40234375 44.28369141 C-1.37269531 42.97319824 -1.34304688 41.66270508 -1.3125 40.3125 C-1.29550382 38.96534863 -1.27988991 37.61817915 -1.265625 36.27099609 C-1.110235 24.17331618 -0.64213517 12.08102184 0 0 Z " fill="#FEDFA7" transform="translate(439,645)"/>
<path d="M0 0 C12.87 0 25.74 0 39 0 C39 17.16 39 34.32 39 52 C35.0861218 52.97846955 31.98567118 53.12919458 27.96875 53.1328125 C27.29581909 53.13376923 26.62288818 53.13472595 25.92956543 53.13571167 C24.51082261 53.13639032 23.09207664 53.13455806 21.67333984 53.13037109 C19.50741572 53.12501833 17.34169896 53.13032671 15.17578125 53.13671875 C13.79427038 53.13605791 12.41275963 53.13477663 11.03125 53.1328125 C9.77892578 53.13168457 8.52660156 53.13055664 7.23632812 53.12939453 C4 53 4 53 0 52 C0 34.84 0 17.68 0 0 Z " fill="#D2D7DB" transform="translate(605,905)"/>
<path d="M0 0 C-0.14427444 1.9584488 -0.29051838 3.91675252 -0.4375 5.875 C-0.51871094 6.96554687 -0.59992188 8.05609375 -0.68359375 9.1796875 C-0.91788168 12.00849735 -1.19028085 14.82140669 -1.49072266 17.64306641 C-1.98914921 22.60389791 -2.26630871 27.55057911 -2.46484375 32.53125 C-2.5434383 34.3307371 -2.62222049 36.13021602 -2.70117188 37.9296875 C-2.81973035 40.7020569 -2.93645867 43.47447274 -3.04956055 46.24707031 C-3.46737596 56.37977384 -4.05668519 66.41700981 -5.27024841 76.48753357 C-5.87219357 81.56186075 -6.28430399 86.62053057 -6.5625 91.72265625 C-6.61966942 92.76424393 -6.61966942 92.76424393 -6.67799377 93.82687378 C-6.82765491 96.63139061 -6.96996429 99.43617122 -7.10449219 102.24145508 C-7.20721086 104.33988442 -7.32155912 106.43742228 -7.4375 108.53515625 C-7.52837891 110.36639038 -7.52837891 110.36639038 -7.62109375 112.23461914 C-7.74613281 113.14719482 -7.87117188 114.05977051 -8 115 C-8.99 115.495 -8.99 115.495 -10 116 C-16.0274968 103.89735821 -19.02812715 91.88848735 -19.2109375 78.34375 C-19.23899179 76.89451968 -19.26765614 75.44530106 -19.296875 73.99609375 C-19.33811722 71.74495605 -19.37506961 69.49404062 -19.40136719 67.24267578 C-19.42914538 65.04676148 -19.47498522 62.85179299 -19.5234375 60.65625 C-19.54325684 59.35494141 -19.56307617 58.05363281 -19.58349609 56.71289062 C-20.06371811 52.43199003 -21.0108652 49.80367102 -23 46 C-28.46074699 41.67690863 -32.33642927 40.87464614 -39.1875 40.9375 C-40.45980469 40.94652344 -41.73210937 40.95554687 -43.04296875 40.96484375 C-44.01878906 40.97644531 -44.99460937 40.98804688 -46 41 C-42.56677271 37.42818371 -39.04773037 34.40757711 -35.0625 31.4375 C-23.68309167 22.80580646 -13.40511852 13.77246384 -4 3 C-1.16846652 0 -1.16846652 0 0 0 Z " fill="#22272C" transform="translate(367,340)"/>
<path d="M0 0 C5.50432961 -0.1754368 10.53662347 0.4725839 15.9375 1.5 C16.71673828 1.64308594 17.49597656 1.78617187 18.29882812 1.93359375 C20.2002421 2.28354724 22.10027393 2.64099665 24 3 C24 3.99 24 4.98 24 6 C22.53298243 7.24377577 21.05985071 8.48518173 19.5078125 9.62109375 C16.77360149 12.12155097 16.0558909 14.40088372 15.71289062 18.07763672 C15.69419922 19.26631348 15.67550781 20.45499023 15.65625 21.6796875 C15.6416272 22.32890167 15.62700439 22.97811584 15.61193848 23.64700317 C15.56561546 25.72293875 15.53141381 27.79878883 15.5 29.875 C15.28875965 43.47887868 14.61742054 56.73408616 10.0625 69.6875 C9.68448242 70.84282227 9.68448242 70.84282227 9.29882812 72.02148438 C8.00816651 75.80764517 7.0224248 78.2739841 4 81 C3.9498877 80.13536133 3.89977539 79.27072266 3.84814453 78.37988281 C3.61133057 74.33632472 3.36945037 70.29310243 3.125 66.25 C3.05880463 65.14741348 3.05880463 65.14741348 2.99127197 64.02255249 C2.4808133 55.59238624 1.87536252 47.20099447 0.875 38.8125 C-0.62192112 25.95131257 -0.1749428 12.924236 0 0 Z " fill="#23272C" transform="translate(661,374)"/>
<path d="M0 0 C5.28 0 10.56 0 16 0 C16.495 8.415 16.495 8.415 17 17 C18.32 17.66 19.64 18.32 21 19 C22.41441874 21.82883747 22.31900332 23.87376745 22 27 C20.125 28.875 20.125 28.875 18 30 C17.34 30 16.68 30 16 30 C16 33.63 16 37.26 16 41 C10.72 41 5.44 41 0 41 C-0.0928125 38.40125 -0.0928125 38.40125 -0.1875 35.75 C-0.49352289 31.07094495 -0.49352289 31.07094495 -3.5625 27.625 C-4.366875 27.08875 -5.17125 26.5525 -6 26 C-6.625 23.5 -6.625 23.5 -6 21 C-5.17886719 20.46890625 -4.35773437 19.9378125 -3.51171875 19.390625 C-0.3619414 16.39270317 -0.36621457 14.79501623 -0.20507812 10.60546875 C-0.19927734 9.82816406 -0.19347656 9.05085937 -0.1875 8.25 C-0.16236328 7.45722656 -0.13722656 6.66445313 -0.11132812 5.84765625 C-0.0526327 3.89896805 -0.0234102 1.94943141 0 0 Z " fill="#6697B7" transform="translate(646,855)"/>
<path d="M0 0 C0.73347656 -0.01933594 1.46695313 -0.03867187 2.22265625 -0.05859375 C6.21120397 -0.02291801 8.42684314 0.5866412 12.03125 2.4765625 C14.5 5.625 14.5 5.625 14.5 16.625 C4.93 16.625 -4.64 16.625 -14.5 16.625 C-14.5 5.625 -14.5 5.625 -12.03125 2.4765625 C-7.74722739 0.23029401 -4.75582583 -0.12537326 0 0 Z " fill="#416A86" transform="translate(624.5,940.375)"/>
<path d="M0 0 C1.94140625 0.66015625 1.94140625 0.66015625 4.44140625 3.22265625 C6.21391273 7.28465027 6.8247133 10.30424013 5.94140625 14.66015625 C2.94140625 20.16015625 2.94140625 20.16015625 -0.05859375 21.66015625 C-6.30119056 22.23817447 -6.30119056 22.23817447 -9.43359375 19.84765625 C-12.43948994 15.80125753 -12.60202281 11.54148394 -12.05859375 6.66015625 C-9.41169253 0.86218215 -6.46096315 -1.03518194 0 0 Z " fill="#436C88" transform="translate(627.05859375,914.33984375)"/>
<path d="M0 0 C1.58624235 0.42683239 3.1689098 0.86696158 4.75 1.3125 C6.07257812 1.67794922 6.07257812 1.67794922 7.421875 2.05078125 C10.05772505 3.02125331 11.85407326 4.21005644 14 6 C13.53652954 13.10654704 11.10033326 19.75845073 6.11328125 24.97265625 C4.46669268 26.38544929 2.73977865 27.70369434 1 29 C0 28 0 28 -0.11352539 25.31616211 C-0.10828857 24.14835205 -0.10305176 22.98054199 -0.09765625 21.77734375 C-0.09443359 20.51728516 -0.09121094 19.25722656 -0.08789062 17.95898438 C-0.07953403 16.61848891 -0.07106907 15.27799412 -0.0625 13.9375 C-0.0574866 12.59310058 -0.05292342 11.2486994 -0.04882812 9.90429688 C-0.03699488 6.60282059 -0.02050971 3.30143197 0 0 Z " fill="#B87948" transform="translate(587,669)"/>
<path d="M0 0 C5.28 0 10.56 0 16 0 C16 5.61 16 11.22 16 17 C10.72 17 5.44 17 0 17 C0 11.39 0 5.78 0 0 Z " fill="#4E7A96" transform="translate(646,855)"/>
<path d="M0 0 C0.05796132 4.10410755 0.09358313 8.20811016 0.125 12.3125 C0.14175781 13.47974609 0.15851563 14.64699219 0.17578125 15.84960938 C0.18222656 16.96787109 0.18867188 18.08613281 0.1953125 19.23828125 C0.20578613 20.26993408 0.21625977 21.30158691 0.22705078 22.36450195 C0 25 0 25 -2 28 C-7.20538685 23.24078917 -11.70777943 17.89860283 -13.125 10.8125 C-13 7 -13 7 -11 4.125 C-7.69453993 1.78363245 -4.17612593 0 0 0 Z " fill="#B67746" transform="translate(438,669)"/>
<path d="M0 0 C5.28 0.33 10.56 0.66 16 1 C16 4.3 16 7.6 16 11 C10.72 11 5.44 11 0 11 C0 7.37 0 3.74 0 0 Z " fill="#4E7A96" transform="translate(646,885)"/>
<path d="M0 0 C15.84 0 31.68 0 48 0 C48 0.99 48 1.98 48 3 C32.16 3 16.32 3 0 3 C0 2.01 0 1.02 0 0 Z " fill="#B9C2C5" transform="translate(653,956)"/>
<path d="M0 0 C15.84 0 31.68 0 48 0 C48 0.99 48 1.98 48 3 C32.16 3 16.32 3 0 3 C0 2.01 0 1.02 0 0 Z " fill="#B9C2C5" transform="translate(653,946)"/>
<path d="M0 0 C15.84 0 31.68 0 48 0 C48 0.99 48 1.98 48 3 C32.16 3 16.32 3 0 3 C0 2.01 0 1.02 0 0 Z " fill="#B9C2C5" transform="translate(653,936)"/>
<path d="M0 0 C15.84 0 31.68 0 48 0 C48 0.99 48 1.98 48 3 C32.16 3 16.32 3 0 3 C0 2.01 0 1.02 0 0 Z " fill="#B9C2C5" transform="translate(653,926)"/>
<path d="M0 0 C15.84 0 31.68 0 48 0 C48 0.99 48 1.98 48 3 C32.16 3 16.32 3 0 3 C0 2.01 0 1.02 0 0 Z " fill="#B9C2C5" transform="translate(653,916)"/>
<path d="M0 0 C15.84 0 31.68 0 48 0 C48 0.99 48 1.98 48 3 C32.16 3 16.32 3 0 3 C0 2.01 0 1.02 0 0 Z " fill="#B9C2C5" transform="translate(653,906)"/>
</svg>
