<?xml version="1.0" encoding="UTF-8"?>
<svg version="1.1" xmlns="http://www.w3.org/2000/svg" width="512" height="512">
<path d="M0 0 C1.45108658 0.00273422 1.45108658 0.00273422 2.93148804 0.00552368 C17.26440977 0.05095174 31.21023917 0.55983928 45.3125 3.3125 C46.65803955 3.55395752 46.65803955 3.55395752 48.03076172 3.80029297 C107.84088904 14.62287989 165.35495829 48.68064457 202.3125 97.3125 C202.72918945 97.85277832 203.14587891 98.39305664 203.57519531 98.94970703 C211.2584873 108.9447116 218.00092968 119.40459036 224.3125 130.3125 C224.70679199 130.98974121 225.10108398 131.66698242 225.50732422 132.36474609 C238.68961173 155.2833756 247.29510918 180.85822563 252.625 206.6875 C252.77243652 207.39817627 252.91987305 208.10885254 253.07177734 208.84106445 C256.08922991 224.65173763 256.68791194 240.44904414 256.625 256.5 C256.62284485 257.49173218 256.6206897 258.48346436 256.61846924 259.50524902 C256.56810399 273.9527983 256.27547554 288.12085064 253.3125 302.3125 C253.00650879 303.80088379 253.00650879 303.80088379 252.69433594 305.31933594 C245.16916144 340.90782493 231.59969766 374.68084368 210.3125 404.3125 C209.83087402 404.98345703 209.34924805 405.65441406 208.85302734 406.34570312 C201.31378117 416.73835292 193.09185094 426.26215428 184.12939453 435.44873047 C182.39594444 437.22690274 180.67956672 439.02019956 178.96484375 440.81640625 C171.62307724 448.42667926 163.82418572 455.05043479 155.3125 461.3125 C154.59239746 461.84987793 153.87229492 462.38725586 153.13037109 462.94091797 C124.45157275 484.22382887 91.59664591 499.39856296 56.6875 507.125 C55.86797852 507.30764404 55.04845703 507.49028809 54.20410156 507.6784668 C36.41910595 511.35677359 18.76053403 512.86658136 0.625 512.75 C-0.37264374 512.74729095 -1.37028748 512.74458191 -2.39816284 512.74179077 C-18.48002579 512.6758427 -33.91485763 511.6624661 -49.6875 508.3125 C-50.59532227 508.13058105 -51.50314453 507.94866211 -52.43847656 507.76123047 C-118.05602541 494.4545909 -174.61539895 454.93555313 -212.6875 400.3125 C-216.95972397 393.80399608 -220.84831057 387.08233461 -224.6875 380.3125 C-225.41000878 379.07543469 -226.13265294 377.83844844 -226.85546875 376.6015625 C-236.7132021 359.08982062 -243.61729172 339.71619118 -248.6875 320.3125 C-248.88037598 319.57547852 -249.07325195 318.83845703 -249.27197266 318.07910156 C-250.60368143 312.85675976 -251.69445401 307.6087453 -252.6875 302.3125 C-252.83848145 301.55453125 -252.98946289 300.7965625 -253.14501953 300.015625 C-258.53806392 271.90430842 -258.19268773 239.3359283 -252.6875 211.3125 C-252.52652832 210.41692383 -252.36555664 209.52134766 -252.19970703 208.59863281 C-241.37865541 148.78659535 -207.32070506 91.27106736 -158.6875 54.3125 C-158.14722168 53.89581055 -157.60694336 53.47912109 -157.05029297 53.04980469 C-147.0552884 45.3665127 -136.59540964 38.62407032 -125.6875 32.3125 C-125.01025879 31.91820801 -124.33301758 31.52391602 -123.63525391 31.11767578 C-100.7166244 17.93538827 -75.14177437 9.32989082 -49.3125 4 C-48.60182373 3.85256348 -47.89114746 3.70512695 -47.15893555 3.55322266 C-31.51641634 0.56786213 -15.88080394 -0.0623098 0 0 Z " fill="#FEA055" transform="translate(255.6875,-0.3125)"/>
<path d="M0 0 C1.27151413 -0.00571014 2.54302826 -0.01142029 3.85307312 -0.01730347 C5.26515188 -0.01854883 6.67723075 -0.01967392 8.08930969 -0.02069092 C9.57429121 -0.02531958 11.05927154 -0.0303443 12.54425049 -0.03573608 C16.58167086 -0.04885992 20.6190746 -0.05530533 24.65651298 -0.05974674 C27.18012767 -0.06267828 29.70373783 -0.06678331 32.22735023 -0.07125092 C40.12640508 -0.08492754 48.02544956 -0.09459265 55.92451543 -0.09845281 C65.03628239 -0.1029302 74.14789909 -0.12046255 83.25962037 -0.1494534 C90.30603519 -0.17109283 97.35240782 -0.18115834 104.39885551 -0.18249393 C108.60550799 -0.18354059 112.81201926 -0.18941856 117.0186367 -0.20731354 C120.97901962 -0.22383275 124.93915577 -0.22593116 128.89956093 -0.21717453 C130.34912402 -0.21640613 131.79870058 -0.22072075 133.24822998 -0.23063278 C142.23508959 -0.28845613 148.83928172 0.13668558 156.67256165 4.76544189 C163.95188086 12.44916774 163.42198473 21.74601959 163.17256165 31.70294189 C163.15245662 33.10721317 163.13421295 34.51151238 163.11787415 35.91583252 C163.07101604 39.3247597 163.00541669 42.73223146 162.92256165 46.14044189 C163.84810852 46.26934814 164.7736554 46.39825439 165.72724915 46.53106689 C170.6715416 47.47398819 173.75259585 49.905478 177.17256165 53.51544189 C180.61796276 58.68354356 181.33628992 62.91319395 180.46162415 68.96466064 C179.09439328 74.48312145 175.48852322 78.02222423 170.92256165 81.14044189 C167.93754201 82.56187982 166.24525549 83.14044189 162.92256165 83.14044189 C162.94612732 84.1445813 162.94612732 84.1445813 162.97016907 85.16900635 C163.03333415 88.26356219 163.07180728 91.35798169 163.11006165 94.45294189 C163.13519836 95.50546143 163.16033508 96.55798096 163.18623352 97.64239502 C163.30145496 110.12471808 160.27736981 120.28182416 152.3874054 130.03887939 C145.82236225 136.64878616 136.39345931 139.68273274 127.92256165 143.14044189 C126.8036554 143.60063721 125.68474915 144.06083252 124.53193665 144.53497314 C122.3364438 145.42257954 120.131003 146.28556137 117.92256165 147.14044189 C117.92256165 153.08044189 117.92256165 159.02044189 117.92256165 165.14044189 C123.53256165 168.11044189 129.14256165 171.08044189 134.92256165 174.14044189 C134.26256165 175.46044189 133.60256165 176.78044189 132.92256165 178.14044189 C133.60753723 178.24638672 134.29251282 178.35233154 134.99824524 178.46148682 C142.89591546 179.72587281 150.71611294 181.27511666 158.52314758 183.00738525 C159.8750575 183.30492934 161.2282774 183.59658141 162.5827179 183.88238525 C174.93040745 186.48902059 185.97368004 189.74051328 193.92256165 200.14044189 C198.76406633 208.35728754 200.96402893 215.10241084 201.58686829 224.54229736 C201.64553574 225.38846115 201.70420319 226.23462494 201.76464844 227.10643005 C201.95772789 229.90658903 202.14543191 232.70707737 202.3327179 235.50762939 C202.4656286 237.46378798 202.59872365 239.41993404 202.73199463 241.37606812 C203.01092416 245.48323821 203.28710934 249.59058185 203.56147766 253.69805908 C203.91108163 258.92756446 204.26816193 264.15652728 204.62746525 269.38537407 C204.90449485 273.43126249 205.17707032 277.47744221 205.44840813 281.52371597 C205.57812803 283.44925798 205.70927532 285.37470444 205.84195137 287.30004501 C206.57245302 297.93482113 207.12768749 308.47487398 206.92256165 319.14044189 C181.73600906 334.10010989 155.85909732 345.66178744 127.11006165 352.01544189 C126.30206116 352.19429932 125.49406067 352.37315674 124.66157532 352.55743408 C121.75659278 353.15115314 118.84819871 353.65715143 115.92256165 354.14044189 C115.17294159 354.26432281 114.42332153 354.38820374 113.65098572 354.51583862 C99.46641464 356.80170471 85.59187475 357.67023236 71.23506165 357.57794189 C70.23741791 357.57523285 69.23977417 357.5725238 68.2118988 357.56973267 C52.13003586 357.50378459 36.69520401 356.490408 20.92256165 353.14044189 C20.01473938 352.95852295 19.10691711 352.776604 18.17158508 352.58917236 C-3.95841736 348.10141 -25.09638987 340.51145851 -45.30351257 330.48565674 C-48.69137266 328.84271456 -52.13795447 327.35808311 -55.61283875 325.90924072 C-59.13948733 324.0042566 -62.37086062 322.14407132 -65.07743835 319.14044189 C-65.66406028 316.00404594 -65.80593789 313.99050816 -65.5789032 310.90509033 C-65.5489797 310.11516064 -65.51905621 309.32523094 -65.48822594 308.51136398 C-65.3861758 306.0512351 -65.23464631 303.59759323 -65.07743835 301.14044189 C-65.00573104 299.67290928 -64.93640924 298.20525772 -64.86973572 296.73748779 C-64.65361258 292.3104157 -64.35796984 287.89034213 -64.05400085 283.46856689 C-63.94632427 281.84633777 -63.83902289 280.2240837 -63.73207092 278.60180664 C-63.50890273 275.23697337 -63.28158226 271.87245566 -63.05107117 268.50811768 C-62.75874135 264.2372453 -62.47657123 259.96577341 -62.19745827 255.69401932 C-61.97830404 252.35623595 -61.7539585 249.01881641 -61.52810287 245.68148041 C-61.42215979 244.10781691 -61.31769862 242.53405279 -61.21487808 240.96018219 C-58.85639973 205.06549014 -58.85639973 205.06549014 -46.35282898 193.94708252 C-38.38849855 187.62347252 -28.94833553 185.61060367 -19.20243835 183.51544189 C-16.62152342 182.94075472 -14.04079174 182.36524386 -11.46025085 181.78887939 C-9.60835144 181.38040771 -9.60835144 181.38040771 -7.71903992 180.96368408 C-2.48201257 179.77977042 2.72239581 178.47596384 7.92256165 177.14044189 C7.59256165 176.15044189 7.26256165 175.16044189 6.92256165 174.14044189 C12.53256165 171.17044189 18.14256165 168.20044189 23.92256165 165.14044189 C23.92256165 159.20044189 23.92256165 153.26044189 23.92256165 147.14044189 C22.29447571 146.48817627 20.66638977 145.83591064 18.9889679 145.16387939 C16.82078655 144.28158915 14.65282964 143.39874724 12.48506165 142.51544189 C11.4157843 142.08876221 10.34650696 141.66208252 9.24482727 141.22247314 C-3.04483822 136.18634111 -10.98423275 130.5705753 -17.88993835 119.14044189 C-21.09877906 111.03389694 -21.33788081 103.22021245 -21.20243835 94.57794189 C-21.19341492 93.47385986 -21.18439148 92.36977783 -21.1750946 91.23223877 C-21.15173964 88.53474019 -21.11898889 85.83771112 -21.07743835 83.14044189 C-22.00298523 83.01153564 -22.9285321 82.88262939 -23.88212585 82.74981689 C-29.87930972 81.60609968 -33.70295057 78.08165615 -37.07743835 73.14044189 C-39.93640943 68.3754901 -39.23799374 63.37976079 -38.07743835 58.14044189 C-35.20961324 52.60963632 -30.95131031 48.41419878 -25.07743835 46.14044189 C-23.75743835 46.14044189 -22.43743835 46.14044189 -21.07743835 46.14044189 C-21.09838562 45.27878418 -21.11933289 44.41712646 -21.14091492 43.52935791 C-21.2096217 40.29209439 -21.25949462 37.05520599 -21.29716492 33.81744385 C-21.31711831 32.42376375 -21.34429155 31.0301656 -21.37919617 29.63677979 C-21.60451279 20.40211163 -21.71363213 12.05249365 -15.0422821 4.98419189 C-14.03874695 4.31903564 -14.03874695 4.31903564 -13.01493835 3.64044189 C-12.34333679 3.17637939 -11.67173523 2.71231689 -10.9797821 2.23419189 C-7.264787 0.09826042 -4.20023868 0.01127904 0 0 Z " fill="#B4EABD" transform="translate(185.0774383544922,154.85955810546875)"/>
<path d="M0 0 C1.27151413 -0.00571014 2.54302826 -0.01142029 3.85307312 -0.01730347 C5.26515188 -0.01854883 6.67723075 -0.01967392 8.08930969 -0.02069092 C9.57429121 -0.02531958 11.05927154 -0.0303443 12.54425049 -0.03573608 C16.58167086 -0.04885992 20.6190746 -0.05530533 24.65651298 -0.05974674 C27.18012767 -0.06267828 29.70373783 -0.06678331 32.22735023 -0.07125092 C40.12640508 -0.08492754 48.02544956 -0.09459265 55.92451543 -0.09845281 C65.03628239 -0.1029302 74.14789909 -0.12046255 83.25962037 -0.1494534 C90.30603519 -0.17109283 97.35240782 -0.18115834 104.39885551 -0.18249393 C108.60550799 -0.18354059 112.81201926 -0.18941856 117.0186367 -0.20731354 C120.97901962 -0.22383275 124.93915577 -0.22593116 128.89956093 -0.21717453 C130.34912402 -0.21640613 131.79870058 -0.22072075 133.24822998 -0.23063278 C142.23508959 -0.28845613 148.83928172 0.13668558 156.67256165 4.76544189 C163.95188086 12.44916774 163.42198473 21.74601959 163.17256165 31.70294189 C163.15245662 33.10721317 163.13421295 34.51151238 163.11787415 35.91583252 C163.07101604 39.3247597 163.00541669 42.73223146 162.92256165 46.14044189 C163.84810852 46.26934814 164.7736554 46.39825439 165.72724915 46.53106689 C170.6715416 47.47398819 173.75259585 49.905478 177.17256165 53.51544189 C180.61796276 58.68354356 181.33628992 62.91319395 180.46162415 68.96466064 C179.09439328 74.48312145 175.48852322 78.02222423 170.92256165 81.14044189 C167.93754201 82.56187982 166.24525549 83.14044189 162.92256165 83.14044189 C162.94612732 84.1445813 162.94612732 84.1445813 162.97016907 85.16900635 C163.03333415 88.26356219 163.07180728 91.35798169 163.11006165 94.45294189 C163.13519836 95.50546143 163.16033508 96.55798096 163.18623352 97.64239502 C163.30145496 110.12471808 160.27736981 120.28182416 152.3874054 130.03887939 C145.82236225 136.64878616 136.39345931 139.68273274 127.92256165 143.14044189 C126.8036554 143.60063721 125.68474915 144.06083252 124.53193665 144.53497314 C122.33555331 145.42293955 120.13567224 146.29523383 117.92256165 147.14044189 C118.04760071 148.27739502 118.17263977 149.41434814 118.3014679 150.58575439 C118.64228343 156.37583862 118.98018683 162.31087017 115.43232727 167.1897583 C111.43888871 171.19884514 106.84156639 174.40584702 102.1764679 177.58380127 C99.49793867 179.43370403 96.9655979 181.42401942 94.43086243 183.46417236 C92.75384365 184.81283733 91.05627189 186.13082251 89.35224915 187.44512939 C86.89282793 189.35548375 84.49699922 191.32636638 82.11787415 193.33575439 C81.17464294 194.11753052 81.17464294 194.11753052 80.21235657 194.9151001 C79.00507468 195.9174289 77.80917476 196.93367781 76.62690735 197.96539307 C74.9811554 199.31622314 74.9811554 199.31622314 71.92256165 201.14044189 C67.41722257 200.43126815 64.30930588 197.15470318 60.98506165 194.20294189 C56.42534913 190.24958107 51.8044773 186.41654423 47.04756165 182.70294189 C46.47892395 182.24741943 45.91028625 181.79189697 45.32441711 181.3225708 C42.21813433 178.8491617 39.07834637 176.56430079 35.7389679 174.41387939 C25.76376942 167.71519746 25.76376942 167.71519746 24.17549133 162.8538208 C23.28722808 157.58144792 23.45664239 152.44838278 23.92256165 147.14044189 C23.24266174 146.86893311 22.56276184 146.59742432 21.86225891 146.31768799 C18.7321952 145.06076887 15.60870095 143.7882383 12.48506165 142.51544189 C11.4157843 142.08876221 10.34650696 141.66208252 9.24482727 141.22247314 C-3.04483822 136.18634111 -10.98423275 130.5705753 -17.88993835 119.14044189 C-21.09877906 111.03389694 -21.33788081 103.22021245 -21.20243835 94.57794189 C-21.19341492 93.47385986 -21.18439148 92.36977783 -21.1750946 91.23223877 C-21.15173964 88.53474019 -21.11898889 85.83771112 -21.07743835 83.14044189 C-22.00298523 83.01153564 -22.9285321 82.88262939 -23.88212585 82.74981689 C-29.87930972 81.60609968 -33.70295057 78.08165615 -37.07743835 73.14044189 C-39.93640943 68.3754901 -39.23799374 63.37976079 -38.07743835 58.14044189 C-35.20961324 52.60963632 -30.95131031 48.41419878 -25.07743835 46.14044189 C-23.75743835 46.14044189 -22.43743835 46.14044189 -21.07743835 46.14044189 C-21.09838562 45.27878418 -21.11933289 44.41712646 -21.14091492 43.52935791 C-21.2096217 40.29209439 -21.25949462 37.05520599 -21.29716492 33.81744385 C-21.31711831 32.42376375 -21.34429155 31.0301656 -21.37919617 29.63677979 C-21.60451279 20.40211163 -21.71363213 12.05249365 -15.0422821 4.98419189 C-14.37325867 4.54075439 -13.70423523 4.09731689 -13.01493835 3.64044189 C-12.34333679 3.17637939 -11.67173523 2.71231689 -10.9797821 2.23419189 C-7.264787 0.09826042 -4.20023868 0.01127904 0 0 Z " fill="#F4DBA9" transform="translate(185.0774383544922,154.85955810546875)"/>
<path d="M0 0 C-1.36939738 7.03437813 -2.77477884 14.06105144 -4.20410156 21.08349609 C-4.74910733 23.76539257 -5.29039377 26.44780996 -5.82714844 29.13134766 C-6.536329 32.66765278 -7.26504558 36.19952455 -8.00509644 39.72949219 C-8.28943071 41.09920918 -8.56802396 42.47013272 -8.84036255 43.84228516 C-11.5351374 57.37531455 -15.40496126 68.78022939 -27 77 C-36.85464099 83.53065494 -48.65272953 83.28501084 -60.06518555 83.16357422 C-61.4429683 83.15644424 -62.82075631 83.15027717 -64.19854736 83.14498901 C-67.14280723 83.13198586 -70.08694102 83.11293396 -73.03113365 83.08919907 C-77.69266903 83.05232264 -82.35417564 83.03334068 -87.01582336 83.0173645 C-100.26369303 82.9692743 -113.51137857 82.89723676 -126.7590332 82.80810547 C-134.093005 82.75891935 -141.42690633 82.72425417 -148.76101905 82.70498669 C-153.38959585 82.69195407 -158.0175854 82.66095495 -162.64596021 82.61635184 C-165.5285783 82.59279922 -168.4110562 82.58615189 -171.29376221 82.58415604 C-173.25552775 82.57785348 -175.21719757 82.55155046 -177.17878723 82.52453613 C-185.43910163 82.54277207 -191.30316309 83.30316309 -197.375 89.375 C-200.53375925 94.4776111 -201.26181592 99.21082075 -201.4140625 105.1484375 C-201.43342865 105.80582916 -201.4527948 106.46322083 -201.4727478 107.14053345 C-201.53202461 109.21856135 -201.57871794 111.29664624 -201.625 113.375 C-201.66322778 114.7929915 -201.70228223 116.21096097 -201.7421875 117.62890625 C-201.83768171 121.08573461 -201.92190189 124.54272983 -202 128 C-206.455 128.99 -206.455 128.99 -211 130 C-212.60199645 126.79600711 -212.61073854 123.25573006 -212.97265625 119.73046875 C-213.06002548 118.89848465 -213.14739471 118.06650055 -213.2374115 117.20930481 C-213.42178867 115.43995949 -213.60406516 113.67039422 -213.78442383 111.90063477 C-214.05756796 109.23562097 -214.34182511 106.57195772 -214.62695312 103.90820312 C-217.98403304 71.80951365 -217.98403304 71.80951365 -207.44921875 58.62109375 C-206 57 -206 57 -203.8125 55.125 C-201.81658538 52.78496217 -201.4142793 51.31312639 -200.625 48.375 C-197.76728636 37.99859593 -191.95901182 30.14453093 -182.7109375 24.63671875 C-146.17549226 6.36899613 -94.03632421 6.61799718 -54.125 3.25 C-52.85886871 3.14308838 -51.59273743 3.03617676 -50.28823853 2.92602539 C-38.7805958 1.96229664 -27.27215111 1.01485674 -15.7421875 0.359375 C-15.05843048 0.32023987 -14.37467346 0.28110474 -13.67019653 0.24078369 C-9.10710623 0.0029291 -4.56738466 -0.02917646 0 0 Z " fill="#474755" transform="translate(366,73)"/>
<path d="M0 0 C0 0.66 0 1.32 0 2 C-0.66 2 -1.32 2 -2 2 C-2.24492187 2.55042969 -2.48984375 3.10085937 -2.7421875 3.66796875 C-12.46700556 21.69814385 -32.00036669 32.79449156 -50 41 C-51.02222656 41.47308594 -52.04445313 41.94617188 -53.09765625 42.43359375 C-66.624929 48.15461424 -83.22527795 52.42981181 -98 51 C-95.9251351 48.75679474 -93.98644366 47.30083047 -91.26953125 45.9140625 C-90.54830078 45.54023437 -89.82707031 45.16640625 -89.08398438 44.78125 C-88.33439453 44.3996875 -87.58480469 44.018125 -86.8125 43.625 C-85.33824341 42.87030554 -83.86557838 42.11249388 -82.39453125 41.3515625 C-81.41770386 40.85390381 -81.41770386 40.85390381 -80.42114258 40.34619141 C-76.86238101 38.36746686 -73.43869262 36.17911355 -70 34 C-71.22702637 34.18755859 -72.45405273 34.37511719 -73.71826172 34.56835938 C-90.80269953 37.08571309 -107.9566877 38.37855261 -125.16821289 39.65106201 C-145.34224094 41.08564447 -145.34224094 41.08564447 -165.4140625 43.51171875 C-166.18033966 43.62572021 -166.94661682 43.73972168 -167.7361145 43.85717773 C-178.11043873 45.52494127 -189.53234538 48.13193495 -197 56 C-199.20199803 59.20290622 -199.9784742 61.00981329 -200.0625 64.875 C-197.72167195 71.75978837 -193.25085518 76.38839478 -187 80 C-185.515 80.99 -185.515 80.99 -184 82 C-184.59167969 82.23074219 -185.18335938 82.46148437 -185.79296875 82.69921875 C-192.16537584 85.32926605 -196.42117585 87.82910856 -199.60083008 94.21508789 C-201.12683633 97.9117517 -201.42561674 101.23373994 -201.51171875 105.24609375 C-201.52966995 105.90207047 -201.54762115 106.55804718 -201.56611633 107.23390198 C-201.61972153 109.30170512 -201.65395093 111.36928438 -201.6875 113.4375 C-201.72071743 114.85094231 -201.75521111 116.26435523 -201.79101562 117.67773438 C-201.87541619 121.11827446 -201.94246279 124.55889366 -202 128 C-206.455 128.99 -206.455 128.99 -211 130 C-212.60199645 126.79600711 -212.61073854 123.25573006 -212.97265625 119.73046875 C-213.06002548 118.89848465 -213.14739471 118.06650055 -213.2374115 117.20930481 C-213.42178867 115.43995949 -213.60406516 113.67039422 -213.78442383 111.90063477 C-214.05756796 109.23562097 -214.34182511 106.57195772 -214.62695312 103.90820312 C-217.98403304 71.80951365 -217.98403304 71.80951365 -207.44921875 58.62109375 C-206 57 -206 57 -203.8125 55.125 C-201.81658538 52.78496217 -201.4142793 51.31312639 -200.625 48.375 C-197.76728636 37.99859593 -191.95901182 30.14453093 -182.7109375 24.63671875 C-146.17549226 6.36899613 -94.03632421 6.61799718 -54.125 3.25 C-52.85886871 3.14308838 -51.59273743 3.03617676 -50.28823853 2.92602539 C-38.7805958 1.96229664 -27.27215111 1.01485674 -15.7421875 0.359375 C-15.05843048 0.32023987 -14.37467346 0.28110474 -13.67019653 0.24078369 C-9.10710623 0.0029291 -4.56738466 -0.02917646 0 0 Z " fill="#5C5D6D" transform="translate(366,73)"/>
<path d="M0 0 C0.64995297 1.41478135 1.29478722 2.83191487 1.9375 4.25 C2.47697266 5.43335938 2.47697266 5.43335938 3.02734375 6.640625 C5.01450245 11.46088145 5.32366065 16.23895191 5.66430664 21.40185547 C5.72297409 22.24801926 5.78164154 23.09418304 5.84208679 23.96598816 C6.03516625 26.76614714 6.22287026 29.56663547 6.41015625 32.3671875 C6.54306695 34.32334608 6.67616201 36.27949215 6.80943298 38.23562622 C7.08836251 42.34279632 7.36454769 46.45013996 7.63891602 50.55761719 C7.98851999 55.78712257 8.34560028 61.01608538 8.7049036 66.24493217 C8.98193321 70.2908206 9.25450867 74.33700031 9.52584648 78.38327408 C9.65556639 80.30881609 9.78671367 82.23426254 9.91938972 84.15960312 C10.64989138 94.79437923 11.20512584 105.33443208 11 116 C0.61270079 122.16996428 -9.78824534 128.15571785 -20.8125 133.125 C-21.61655273 133.49036865 -22.42060547 133.8557373 -23.24902344 134.23217773 C-28.11907736 136.37314639 -32.83642292 137.73090984 -38 139 C-38.11622093 126.82089 -38.20488098 114.64191351 -38.25906086 102.46236038 C-38.28507408 96.80592407 -38.32032048 91.14986919 -38.37719727 85.49365234 C-38.43181263 80.02766966 -38.46148267 74.56205221 -38.47438622 69.09581757 C-38.48357328 67.01794441 -38.50151274 64.9400896 -38.52865028 62.86237335 C-38.82710313 39.04940205 -38.82710313 39.04940205 -30.5546875 28.65234375 C-29.67039062 27.75644531 -28.78609375 26.86054688 -27.875 25.9375 C-27.13467529 25.17626831 -27.13467529 25.17626831 -26.37939453 24.3996582 C-25.25708839 23.2526324 -24.12616393 22.113997 -22.98828125 20.98242188 C-20.65859346 18.65959957 -18.36139351 16.3064198 -16.0625 13.953125 C-14.33471878 12.19655285 -12.60555274 10.44134175 -10.875 8.6875 C-9.61212158 7.4044397 -9.61212158 7.4044397 -8.32373047 6.09545898 C-7.53369629 5.30469971 -6.74366211 4.51394043 -5.9296875 3.69921875 C-4.86596924 2.62933716 -4.86596924 2.62933716 -3.78076172 1.5378418 C-2 0 -2 0 0 0 Z " fill="#B4EABD" transform="translate(381,358)"/>
<path d="M0 0 C3.0373445 1.88794682 5.69760154 4.07836922 8.36328125 6.4453125 C13.50023834 10.89827458 18.72333214 15.19535673 24.10302734 19.35205078 C27.20344766 21.74928299 30.25185563 24.18564872 33.24609375 26.71484375 C33.87265869 27.23433594 34.49922363 27.75382812 35.14477539 28.2890625 C36.34870616 29.28906962 37.54129197 30.30294004 38.72045898 31.33203125 C40.52104732 32.87828332 40.52104732 32.87828332 43.42578125 34.5078125 C47.93114634 33.79863466 51.03899461 30.52205418 54.36328125 27.5703125 C59.50060538 23.11703225 64.72253555 18.81733539 70.10522461 14.66357422 C73.2003331 12.2727806 76.23529878 9.83943272 79.2109375 7.30078125 C79.83299072 6.78128906 80.45504395 6.26179688 81.09594727 5.7265625 C82.2886216 4.72850333 83.46837438 3.71473223 84.63256836 2.68359375 C86.26953125 1.33203125 86.26953125 1.33203125 89.42578125 -0.4921875 C94.13977845 0.26873331 98.14095646 2.84066414 102.30078125 5.1328125 C103.45320313 5.76445312 104.605625 6.39609375 105.79296875 7.046875 C106.66179687 7.52898437 107.530625 8.01109375 108.42578125 8.5078125 C103.1756026 17.9340612 97.29873025 26.85847388 91.23583984 35.7746582 C89.65957119 38.0941659 88.09117017 40.41885731 86.5234375 42.74414062 C85.51738574 44.22947743 84.5108917 45.71451478 83.50390625 47.19921875 C82.80542572 48.23508873 82.80542572 48.23508873 82.09283447 49.29188538 C81.65517761 49.93363205 81.21752075 50.57537872 80.76660156 51.23657227 C80.3857843 51.79772232 80.00496704 52.35887238 79.61260986 52.93702698 C77.46588738 55.77824647 76.07035202 57.30727937 72.61328125 58.3828125 C69.42578125 58.5078125 69.42578125 58.5078125 63.42578125 55.5078125 C59.13578125 51.2178125 54.84578125 46.9278125 50.42578125 42.5078125 C50.09578125 91.6778125 49.76578125 140.8478125 49.42578125 191.5078125 C46.12578125 191.5078125 42.82578125 191.5078125 39.42578125 191.5078125 C39.09578125 142.3378125 38.76578125 93.1678125 38.42578125 42.5078125 C33.80578125 47.1278125 29.18578125 51.7478125 24.42578125 56.5078125 C21.08653137 58.73397909 19.37712587 58.85054751 15.45974731 58.22816467 C8.90617398 55.90714228 4.53070549 46.38778635 0.93359375 40.85546875 C0.04738846 39.50526894 0.04738846 39.50526894 -0.85671997 38.12779236 C-2.72549811 35.27828874 -4.58744941 32.42439911 -6.44921875 29.5703125 C-7.72220618 27.62665828 -8.99563927 25.68329586 -10.26953125 23.74023438 C-13.37625539 18.99945604 -16.47740077 14.25506698 -19.57421875 9.5078125 C-16.68135206 6.4363805 -13.4233079 4.60381141 -9.69921875 2.6953125 C-9.08691406 2.35822266 -8.47460938 2.02113281 -7.84375 1.67382812 C-5.01074706 0.22092833 -3.17532404 -0.6071181 0 0 Z " fill="#9BDCB4" transform="translate(211.57421875,320.4921875)"/>
<path d="M0 0 C7.56877178 2.43685403 14.96466389 5.24550769 22.375 8.125 C24.69509299 9.0240042 27.01539551 9.9224679 29.3359375 10.8203125 C30.35220215 11.21492676 31.3684668 11.60954102 32.41552734 12.01611328 C48.61559788 18.1833421 62.98350431 11.32999653 78 5 C79.37732124 4.42900457 80.75488282 3.85858809 82.1328125 3.2890625 C84.10306095 2.46773001 86.06821636 1.63383443 88.0234375 0.77734375 C90 0 90 0 92 0 C94.50521556 14.44183089 94.50521556 14.44183089 90.55712891 20.04931641 C86.57642859 24.08674879 81.95481567 27.27741338 77.27001953 30.44335938 C74.58007065 32.28796188 72.04472099 34.27844612 69.50610352 36.32373047 C67.83033164 37.67314112 66.13340082 38.99080897 64.4296875 40.3046875 C61.97026629 42.21504186 59.57443758 44.18592448 57.1953125 46.1953125 C56.5664917 46.71649658 55.9376709 47.23768066 55.28979492 47.7746582 C54.08251303 48.77698701 52.88661311 49.79323592 51.7043457 50.82495117 C50.05859375 52.17578125 50.05859375 52.17578125 47 54 C42.49466093 53.29082626 39.38674423 50.01426129 36.0625 47.0625 C31.50277032 43.1091243 26.88166758 39.27643487 22.125 35.5625 C21.2731311 34.87921631 21.2731311 34.87921631 20.40405273 34.18212891 C17.28865227 31.69903419 14.14053765 29.41743541 10.78125 27.2734375 C0.73051346 20.57411178 0.73051346 20.57411178 -0.64892578 15.71337891 C-1.27778703 10.39167999 -0.79184723 5.27898157 0 0 Z " fill="#EAC89B" transform="translate(210,302)"/>
<path d="M0 0 C4.05231787 1.62116911 6.80394374 4.49791681 9.83203125 7.53125 C10.38686691 8.08180054 10.94170258 8.63235107 11.51335144 9.19958496 C12.68665904 10.36715685 13.85736443 11.53734878 15.02563477 12.70996094 C16.78737483 14.4748302 18.56191256 16.22603674 20.33789062 17.9765625 C33.97258144 31.5249167 41.39696744 42.75239013 41.46430302 62.40602589 C41.45284582 65.58730949 41.4220754 68.76807517 41.390625 71.94921875 C41.38315433 74.17551666 41.3774653 76.40182119 41.37347412 78.62812805 C41.35828295 84.45611075 41.31905762 90.28368764 41.2746582 96.11151123 C41.23356439 102.07102979 41.21543307 108.03061463 41.1953125 113.99023438 C41.1525568 125.66033345 41.08438504 137.33013283 41 149 C38.03 148.34 35.06 147.68 32 147 C31.99857498 145.82395203 31.99714996 144.64790405 31.99568176 143.43621826 C31.97896058 132.3143631 31.93603078 121.19287143 31.86790943 110.07120895 C31.83372292 104.35438616 31.8085424 98.63782826 31.80444336 92.92089844 C31.80014257 87.39633771 31.77153221 81.87237368 31.72656822 76.34799957 C31.71365004 74.24789159 31.70926523 72.14771199 31.71384621 70.04756927 C31.77387434 51.12800628 31.77387434 51.12800628 22.69433594 34.93139648 C21.47525903 33.72658073 20.23797268 32.53994891 18.984375 31.37109375 C18.32794006 30.72930679 17.67150513 30.08751984 16.99517822 29.42628479 C14.92963609 27.4124504 12.84154847 25.42427748 10.75 23.4375 C8.64897628 21.41419395 6.55310365 19.38584053 4.4619751 17.35231018 C3.16771798 16.09658998 1.86694911 14.84753827 0.559021 13.60606384 C-0.02538757 13.04440018 -0.60979614 12.48273651 -1.21191406 11.90405273 C-1.7275592 11.41396225 -2.24320435 10.92387177 -2.7744751 10.41893005 C-4 9 -4 9 -5 6 C-3.59554165 3.7363436 -1.8032087 1.9791315 0 0 Z " fill="#9BDCB3" transform="translate(137,351)"/>
<path d="M0 0 C3.82946843 1.45255699 5.12050295 3.42895561 7 7 C6.21351074 7.77077881 5.42702148 8.54155762 4.61669922 9.33569336 C1.66794749 12.22966131 -1.27046799 15.13394336 -4.20605469 18.04125977 C-5.47186353 19.29209148 -6.74036541 20.54020455 -8.01171875 21.78540039 C-23.93166484 37.21481787 -23.93166484 37.21481787 -29.4367218 58.08764648 C-29.43528671 58.95655518 -29.43385162 59.82546387 -29.43237305 60.72070312 C-29.4425647 61.65821411 -29.45275635 62.5957251 -29.46325684 63.56164551 C-29.49325148 66.63490887 -29.50263211 69.70785984 -29.51171875 72.78125 C-29.52857545 74.92217026 -29.54672702 77.06308067 -29.56611633 79.20397949 C-29.61351462 84.81971157 -29.64338984 90.43540374 -29.66955566 96.05126953 C-29.6994125 101.78946815 -29.74592524 107.52752945 -29.79101562 113.265625 C-29.87693306 124.51034469 -29.94432978 135.75509272 -30 147 C-34.455 147.99 -34.455 147.99 -39 149 C-39.0929066 136.15165954 -39.16386985 123.30339974 -39.20724869 110.45479107 C-39.22807417 104.48788731 -39.25629982 98.52121433 -39.30175781 92.55444336 C-39.34539509 86.79022279 -39.36917497 81.02622343 -39.37950897 75.26185036 C-39.38686828 73.06873915 -39.40123895 70.87563929 -39.42292023 68.68262291 C-39.61324371 48.62401769 -36.38513891 36.54259439 -22.09570312 21.82351685 C-19.09497725 18.7878188 -16.0498368 15.79871517 -13 12.8125 C-11.73497363 11.5625605 -10.47064564 10.31191378 -9.20703125 9.06054688 C-6.14599408 6.03216822 -3.07572508 3.01345698 0 0 Z " fill="#9BDCB3" transform="translate(373,351)"/>
<path d="M0 0 C2.40025393 0.46758194 4.50561148 1.09863145 6.8125 1.9375 C16.70242218 4.98055298 26.71470476 4.21312471 36.375 0.75 C39.73481953 -0.26575939 41.71369925 -0.08170023 45.0625 0.9375 C48.2976208 3.21082813 48.97073677 4.57044707 49.9375 8.4375 C50.06474262 12.00029335 49.97481349 13.06902976 48.0625 15.9375 C45.9609375 17.3515625 45.9609375 17.3515625 43.4375 18.5625 C42.62023437 18.96726562 41.80296875 19.37203125 40.9609375 19.7890625 C34.06288818 22.52225185 27.72959175 23.32597644 20.375 23.3125 C19.50157959 23.31161377 18.62815918 23.31072754 17.72827148 23.30981445 C8.34093848 23.13945014 0.00888445 21.16574946 -7.9375 15.9375 C-10.0066993 13.30397362 -9.93680722 11.8993969 -9.875 8.5 C-8.33461252 2.64652756 -6.25290349 -0.09925244 0 0 Z " fill="#DCB491" transform="translate(235.9375,258.0625)"/>
<path d="M0 0 C0.03867188 1.16015625 0.03867188 1.16015625 0.078125 2.34375 C0.55570513 11.11385786 1.78629336 17.34689115 8.4375 23.375 C11.12971365 25.51020393 13.68050958 26.99409381 17 28 C14.6476009 29.56826607 12.60558817 30.66542568 10.0625 31.8125 C5.36575632 34.14794502 2.87704308 36.78450081 0.92431641 41.71728516 C-0.08535921 45.3031537 -0.31864372 48.42710513 -0.4140625 52.1484375 C-0.43342865 52.80582916 -0.4527948 53.46322083 -0.4727478 54.14053345 C-0.53202461 56.21856135 -0.57871794 58.29664624 -0.625 60.375 C-0.66322778 61.7929915 -0.70228223 63.21096097 -0.7421875 64.62890625 C-0.83768171 68.08573461 -0.92190189 71.54272983 -1 75 C-5.455 75.99 -5.455 75.99 -10 77 C-11.60199645 73.79600711 -11.61073854 70.25573006 -11.97265625 66.73046875 C-12.06002548 65.89848465 -12.14739471 65.06650055 -12.2374115 64.20930481 C-12.42178867 62.43995949 -12.60406516 60.67039422 -12.78442383 58.90063477 C-13.05756796 56.23562097 -13.34182511 53.57195772 -13.62695312 50.90820312 C-16.88238546 19.78141604 -16.88238546 19.78141604 -8 7.5625 C-1.86614476 0 -1.86614476 0 0 0 Z " fill="#968686" transform="translate(165,126)"/>
<path d="M0 0 C0.29003906 0.60585937 0.58007812 1.21171875 0.87890625 1.8359375 C2.00890241 4.15600298 2.00890241 4.15600298 3.9375 6.625 C11.9007314 19.65574228 8.90896422 34.9664407 7.40087891 49.40307617 C7.12241591 52.08741018 6.85959708 54.77299336 6.59765625 57.45898438 C6.42280971 59.17197066 6.24706182 60.88486525 6.0703125 62.59765625 C5.99313995 63.39760513 5.91596741 64.19755402 5.8364563 65.02174377 C5.43836792 68.7164122 5.09679102 70.85481346 3 74 C0.36 73.01 -2.28 72.02 -5 71 C-5.01401855 69.70751343 -5.01401855 69.70751343 -5.02832031 68.38891602 C-5.07268242 65.15113419 -5.13445068 61.91425352 -5.20751953 58.67700195 C-5.23551371 57.28356782 -5.25683406 55.88998125 -5.27099609 54.49633789 C-5.37128283 45.17970005 -5.71308393 36.93644881 -12.0625 29.625 C-16.45723272 27.19387126 -21.12880008 26.12609175 -26 25 C-24.06199145 24.01813284 -22.1270459 23.05631657 -20.140625 22.17578125 C-9.52060521 17.32655734 -4.59861913 10.60817822 0 0 Z " fill="#968686" transform="translate(353,130)"/>
<path d="M0 0 C3.15954305 2.54137159 4.71540886 4.14622659 6 8 C6.50521865 14.1889285 6.78090481 19.78495888 3 25 C0.11356347 27.41836574 -1.28548369 28.01458197 -5.0625 27.9375 C-8.41566758 26.86734013 -9.82655477 25.73693103 -12 23 C-13.99343293 17.01970121 -13.8221265 10.27063511 -11.6875 4.375 C-8.40727494 -0.24161305 -5.41516216 -0.65355405 0 0 Z " fill="#4A4957" transform="translate(214,201)"/>
<path d="M0 0 C2.86942113 2.26533247 3.83907612 3.51722837 5 7 C5.11979145 8.95566503 5.17528496 10.91570766 5.1875 12.875 C5.20167969 13.90367187 5.21585937 14.93234375 5.23046875 15.9921875 C4.99162525 19.10929756 4.43683108 21.23276977 3 24 C-0.21780127 26.19395541 -2.22139607 27 -6.125 27 C-9.74798253 25.73983216 -10.94779728 24.19231534 -13 21 C-14.81634495 15.55096516 -14.96831666 9.32395997 -12.75 4 C-8.56771616 -0.77975296 -6.41098326 -1.71722766 0 0 Z " fill="#494956" transform="translate(306,202)"/>
</svg>
