<?xml version="1.0" encoding="UTF-8"?>
<svg version="1.1" xmlns="http://www.w3.org/2000/svg" width="512" height="512">
<path d="M0 0 C0.90045044 -0.00705963 1.80090088 -0.01411926 2.7286377 -0.02139282 C40.56271231 -0.2507174 40.56271231 -0.2507174 57.20703125 3.203125 C58.69759033 3.50911621 58.69759033 3.50911621 60.21826172 3.82128906 C100.18935939 12.27446564 137.80072529 28.7735106 169.20703125 55.203125 C169.97515137 55.83806885 169.97515137 55.83806885 170.75878906 56.48583984 C183.79749401 67.27033137 195.8212139 78.80637344 206.20703125 92.203125 C206.98175781 93.16089844 207.75648438 94.11867188 208.5546875 95.10546875 C239.70878892 134.25792901 260.14558798 185.6276221 260.41015625 235.99609375 C260.41721588 236.89654419 260.42427551 237.79699463 260.43154907 238.72473145 C260.66087365 276.55880606 260.66087365 276.55880606 257.20703125 293.203125 C256.90104004 294.69368408 256.90104004 294.69368408 256.58886719 296.21435547 C251.93505569 318.22004202 245.02105864 338.97160444 235.20703125 359.203125 C234.73426758 360.18756592 234.73426758 360.18756592 234.25195312 361.19189453 C223.24109585 383.82598398 207.59056482 404.12816816 190.20703125 422.203125 C189.50296143 422.94006592 189.50296143 422.94006592 188.78466797 423.69189453 C182.32830598 430.41962725 175.54214494 436.45561126 168.20703125 442.203125 C167.24539063 442.98171875 166.28375 443.7603125 165.29296875 444.5625 C132.15536494 470.90479771 91.96503888 487.77267565 50.20703125 494.203125 C49.52060547 494.31350098 48.83417969 494.42387695 48.12695312 494.53759766 C-14.24984518 504.37108001 -80.57315763 488.23360008 -131.7109375 451.3984375 C-150.57326457 437.60806621 -168.70126496 421.95142987 -182.79296875 403.203125 C-183.50501465 402.26509033 -183.50501465 402.26509033 -184.23144531 401.30810547 C-225.52701601 346.63708702 -243.35363334 280.35699675 -234.10546875 212.328125 C-227.6690687 168.15346493 -209.60810684 125.45408584 -180.79296875 91.203125 C-180.16600098 90.44298096 -180.16600098 90.44298096 -179.52636719 89.66748047 C-159.89011437 65.86957721 -136.70339875 46.34155415 -109.79296875 31.203125 C-109.16696777 30.84299316 -108.5409668 30.48286133 -107.89599609 30.11181641 C-75.65552438 11.65266164 -37.27934428 0.19581559 0 0 Z " fill="#559187" transform="translate(243.79296875,7.796875)"/>
<path d="M0 0 C0.87641144 0.00182281 1.75282288 0.00364563 2.65579224 0.00552368 C25.0301476 0.08378689 54.80612584 0.79602134 72.69140625 16.44921875 C80.35545616 24.52457724 80.58562285 31.84448912 80.5 42.5625 C80.49540771 43.7594751 80.49081543 44.9564502 80.48608398 46.18969727 C80.3862803 56.55804469 79.90393001 66.89916615 79.3125 77.25 C79.26911499 78.01679077 79.22572998 78.78358154 79.18103027 79.5736084 C78.38832768 93.30469216 78.38832768 93.30469216 77.25 98.3125 C78.9 98.3125 80.55 98.3125 82.25 98.3125 C82.50394531 97.20132813 82.75789063 96.09015625 83.01953125 94.9453125 C89.17877547 68.20209674 89.17877547 68.20209674 94.25 62.3125 C97.77978629 61.12475201 98.84362632 61.13004651 102.3125 62.6875 C106.65069782 66.56418741 108.7773078 71.12205358 109.63305664 76.89794922 C109.78601587 79.63206399 109.80521874 82.32475006 109.75 85.0625 C109.73718994 86.02969971 109.72437988 86.99689941 109.71118164 87.9934082 C109.34130728 101.10583827 105.47868209 112.48666591 96.453125 122.2578125 C92.06774196 126.27451289 88.01379892 128.15305006 82 128.5 C79.25 128.3125 79.25 128.3125 77.25 127.3125 C76.98810379 128.14461754 76.98810379 128.14461754 76.72091675 128.99354553 C74.99817073 134.33051486 72.99005679 139.41089599 70.6328125 144.49609375 C70.29377899 145.23650406 69.95474548 145.97691437 69.60543823 146.73976135 C68.89326851 148.29275774 68.17889839 149.84474683 67.46240234 151.39575195 C66.38016495 153.73881777 65.30473337 156.0849103 64.23046875 158.43164062 C62.25674551 162.73459752 60.25975522 167.02627026 58.25 171.3125 C57.76619873 172.34947021 57.28239746 173.38644043 56.78393555 174.45483398 C54.57984837 179.04132704 52.3832373 182.80196368 48.8125 186.5 C48.03132812 187.325 47.25015625 188.15 46.4453125 189 C45.72085938 189.763125 44.99640625 190.52625 44.25 191.3125 C43.22034756 192.53428854 42.19838198 193.76263627 41.1875 195 C37.89444907 198.86144054 34.1484033 202.0776547 30.25 205.3125 C29.44046875 205.99828125 28.6309375 206.6840625 27.796875 207.390625 C26.95640625 208.08671875 26.1159375 208.7828125 25.25 209.5 C24.1053125 210.44939453 24.1053125 210.44939453 22.9375 211.41796875 C22.050625 212.04316406 21.16375 212.66835938 20.25 213.3125 C19.73308594 213.67875488 19.21617187 214.04500977 18.68359375 214.42236328 C12.58134015 218.12424337 6.24455679 217.92233121 -0.73144531 217.83398438 C-2.74666647 217.81253548 -4.75832466 217.83385482 -6.7734375 217.859375 C-14.02497671 217.83042674 -19.73240648 217.56631611 -25.75 213.3125 C-27.04550781 212.40951172 -27.04550781 212.40951172 -28.3671875 211.48828125 C-41.60339852 200.56497215 -41.60339852 200.56497215 -45.75 196.3125 C-45.75 195.6525 -45.75 194.9925 -45.75 194.3125 C-46.41 194.3125 -47.07 194.3125 -47.75 194.3125 C-46.50823334 197.81547494 -45.25508732 201.31427789 -44 204.8125 C-43.47792969 206.28589844 -43.47792969 206.28589844 -42.9453125 207.7890625 C-41.91693547 210.64566536 -40.84603896 213.48123675 -39.75 216.3125 C-39.47220703 217.06917969 -39.19441406 217.82585937 -38.90820312 218.60546875 C-36.3771018 224.63190049 -32.30830148 227.15145672 -26.75 230.3125 C-25.88697266 230.82087402 -25.02394531 231.32924805 -24.13476562 231.85302734 C-21.43687166 233.42745381 -18.722201 234.96803382 -16 236.5 C-14.17162367 237.53471227 -12.34349063 238.56985458 -10.515625 239.60546875 C-9.71930664 240.0543042 -8.92298828 240.50313965 -8.10253906 240.96557617 C-5.63061538 242.38085253 -3.18776843 243.8392987 -0.75 245.3125 C-1.11351562 245.83714844 -1.47703125 246.36179687 -1.8515625 246.90234375 C-7.00426539 254.84279103 -13.95564097 267.06077055 -12.625 276.9375 C-12.47659668 277.5614415 -12.32819336 278.185383 -12.17529297 278.82823181 C-11.63935442 281.95881518 -11.65157286 284.94285404 -11.66796875 288.11938477 C-11.67119644 288.7769983 -11.67442413 289.43461184 -11.67774963 290.11215305 C-11.72918066 297.33694884 -11.94836826 304.55667862 -12.1875 311.77734375 C-12.23254797 313.19079439 -12.27738416 314.60425179 -12.32202148 316.01771545 C-12.43829437 319.68202565 -12.55738227 323.34623875 -12.67712402 327.01043701 C-12.79952225 330.77187596 -12.91916501 334.53340253 -13.0390625 338.29492188 C-13.27339522 345.63420139 -13.51071172 352.97338021 -13.75 360.3125 C-33.37166782 359.41882652 -33.37166782 359.41882652 -42.8125 357.6875 C-43.76527832 357.51492676 -44.71805664 357.34235352 -45.69970703 357.16455078 C-92.6863816 348.22308528 -134.41898591 326.21946626 -169.75 294.3125 C-170.72582031 293.45527344 -171.70164062 292.59804688 -172.70703125 291.71484375 C-174.75 289.3125 -174.75 289.3125 -174.89453125 287.27734375 C-169.49828388 278.0134788 -156.26625674 273.56108264 -146.796875 270.29345703 C-137.14887591 266.9531938 -127.76831339 263.07117938 -118.36764526 259.09686279 C-115.57090729 257.91463409 -112.77218713 256.73721513 -109.97290039 255.56103516 C-106.12824213 253.94525756 -102.28424288 252.32793096 -98.44091797 250.70898438 C-90.48400537 247.35767014 -82.52461041 244.01236511 -74.55938721 240.68084717 C-72.21986106 239.70105282 -69.88213642 238.71704517 -67.54443359 237.73291016 C-66.1325853 237.14201762 -64.72064423 236.5513467 -63.30859375 235.9609375 C-62.66797501 235.68997253 -62.02735626 235.41900757 -61.36732483 235.13983154 C-56.97799385 233.3125 -56.97799385 233.3125 -54.75 233.3125 C-54.6159375 232.31992187 -54.481875 231.32734375 -54.34375 230.3046875 C-53.77418289 226.3237343 -53.03705378 222.38056149 -52.25 218.4375 C-52.11980469 217.76203125 -51.98960937 217.0865625 -51.85546875 216.390625 C-50.86977209 211.43227209 -50.86977209 211.43227209 -49.75 210.3125 C-48.44021304 199.32977434 -48.44021304 199.32977434 -51.58203125 189.05859375 C-53.15330778 187.26843293 -54.77029937 185.51739939 -56.4296875 183.80859375 C-61.46819679 178.38837921 -63.50477167 171.32025702 -65.58984375 164.34765625 C-68.13087982 155.98847069 -70.93998662 147.72434978 -73.74609375 139.45117188 C-74.13410156 138.29810547 -74.52210938 137.14503906 -74.921875 135.95703125 C-75.4492627 134.40012573 -75.4492627 134.40012573 -75.98730469 132.81176758 C-76.75 130.3125 -76.75 130.3125 -76.75 128.3125 C-77.801875 128.41691406 -77.801875 128.41691406 -78.875 128.5234375 C-85.30735213 128.89050107 -89.08637456 128.36777564 -93.9765625 124.06640625 C-94.56179687 123.48761719 -95.14703125 122.90882813 -95.75 122.3125 C-96.56597656 121.55259766 -96.56597656 121.55259766 -97.3984375 120.77734375 C-102.19747812 115.81995915 -104.42333013 109.71084215 -106.75 103.3125 C-107.11867188 102.43464844 -107.48734375 101.55679688 -107.8671875 100.65234375 C-109.16326562 95.74903934 -109.11855774 90.98822958 -109.125 85.9375 C-109.16173828 84.43316406 -109.16173828 84.43316406 -109.19921875 82.8984375 C-109.2299107 75.08222039 -107.48516669 70.08514371 -102.9375 63.8125 C-100.75 62.3125 -100.75 62.3125 -97.3125 61.5625 C-93.75 62.3125 -93.75 62.3125 -92.42480469 63.70507812 C-88.6649671 69.67023472 -87.01228656 75.73149974 -85.4375 82.5625 C-85.04208008 84.17511719 -85.04208008 84.17511719 -84.63867188 85.8203125 C-83.60429094 90.12978528 -82.75 93.86015082 -82.75 98.3125 C-80.77 98.3125 -78.79 98.3125 -76.75 98.3125 C-76.9665625 96.60513672 -76.9665625 96.60513672 -77.1875 94.86328125 C-78.67777871 81.5991384 -78.99508313 68.37650261 -79.04956055 55.0406189 C-79.0581416 53.02417235 -79.07175963 51.00774054 -79.09057617 48.99136353 C-79.1146383 46.10209146 -79.11710819 43.21357445 -79.11328125 40.32421875 C-79.12241043 39.46436371 -79.13153961 38.60450867 -79.14094543 37.71859741 C-79.08516793 30.21919552 -77.70912237 23.36642605 -73.625 17 C-55.30920833 -0.12128352 -23.59753161 -0.10223384 0 0 Z " fill="#F3CCA6" transform="translate(255.75,143.6875)"/>
<path d="M0 0 C2.58696208 0.01608625 5.17236242 0.00007579 7.75927734 -0.01904297 C16.95101275 -0.03133389 25.28232025 0.47445967 34.09130859 3.39111328 C35.17460449 3.72755859 35.17460449 3.72755859 36.27978516 4.07080078 C55.44050299 10.2728968 71.65444847 21.44198492 86.09130859 35.39111328 C86.81318359 36.08720703 87.53505859 36.78330078 88.27880859 37.50048828 C102.73761271 52.50697437 103.58269975 72.06877762 103.37255859 91.69189453 C103.14514266 100.34848197 102.34794773 108.91342775 101.40380859 117.51611328 C101.32957672 118.24990204 101.25534485 118.9836908 101.17886353 119.73971558 C99.73816234 133.6760033 99.73816234 133.6760033 95.31225586 139.67529297 C91.34531112 145.25011553 90.10775221 152.74086829 88.46630859 159.26611328 C88.03859434 160.95151111 87.60899861 162.63643292 87.17724609 164.32080078 C86.99210449 165.05540527 86.80696289 165.79000977 86.61621094 166.546875 C86.09130859 168.39111328 86.09130859 168.39111328 85.09130859 170.39111328 C83.44130859 170.39111328 81.79130859 170.39111328 80.09130859 170.39111328 C80.15189453 169.32602539 80.21248047 168.2609375 80.27490234 167.16357422 C81.77098277 140.79290643 81.77098277 140.79290643 82.40380859 114.39111328 C82.42991211 112.72387207 82.42991211 112.72387207 82.45654297 111.02294922 C82.45123803 102.51648287 81.02053859 95.45236011 75.05224609 89.04736328 C56.3379606 73.24087513 25.84895348 73.12646601 2.84130859 73.07861328 C1.9928537 73.07493744 1.1443988 73.0712616 0.27023315 73.06747437 C-22.04416315 73.01707772 -51.46563277 73.42648996 -69.20166016 88.56298828 C-75.20542453 94.99264898 -75.06006163 103.63012793 -75.04150391 111.91455078 C-75.04282318 112.84545029 -75.04414246 113.77634979 -75.04550171 114.73545837 C-75.04741152 117.74571101 -75.0411044 120.75587019 -75.03369141 123.76611328 C-75.03280518 124.78200531 -75.03191895 125.79789734 -75.03100586 126.84457397 C-75.01601737 141.38297392 -74.82914594 155.87751777 -73.90869141 170.39111328 C-75.88869141 170.39111328 -77.86869141 170.39111328 -79.90869141 170.39111328 C-80.09979492 169.57956787 -80.29089844 168.76802246 -80.48779297 167.93188477 C-81.2096638 164.88999406 -81.94141021 161.85069108 -82.6796875 158.81274414 C-83.15027925 156.86345813 -83.6096681 154.91147847 -84.06884766 152.95947266 C-86.3099108 143.658426 -86.3099108 143.658426 -90.90869141 135.39111328 C-93.52972138 134.34600967 -93.52972138 134.34600967 -95.90869141 134.39111328 C-94.91869141 134.06111328 -93.92869141 133.73111328 -92.90869141 133.39111328 C-93.02986328 132.44196045 -93.15103516 131.49280762 -93.27587891 130.51489258 C-101.69358954 63.77848199 -101.69358954 63.77848199 -85.90869141 41.39111328 C-71.56798605 23.90282826 -50.30787615 10.33462497 -28.90869141 3.39111328 C-28.10141602 3.12041016 -27.29414063 2.84970703 -26.46240234 2.57080078 C-17.6734083 -0.0201566 -9.08173545 -0.06711914 0 0 Z " fill="#B49761" transform="translate(252.90869140625,71.60888671875)"/>
<path d="M0 0 C0.54269531 0.7115625 1.08539063 1.423125 1.64453125 2.15625 C7.35415805 9.04946444 14.2723695 15.61036148 22.31640625 19.625 C26.18334037 21.60631122 29.88990613 23.84480051 33.625 26.0625 C38.72807368 29.08168001 43.84477945 32.0705899 49 35 C48.63648438 35.52464844 48.27296875 36.04929687 47.8984375 36.58984375 C42.74573461 44.53029103 35.79435903 56.74827055 37.125 66.625 C37.34760498 67.56091225 37.34760498 67.56091225 37.57470703 68.51573181 C38.11064558 71.64631518 38.09842714 74.63035404 38.08203125 77.80688477 C38.07880356 78.4644983 38.07557587 79.12211184 38.07225037 79.79965305 C38.02081934 87.02444884 37.80163174 94.24417862 37.5625 101.46484375 C37.51745203 102.87829439 37.47261584 104.29175179 37.42797852 105.70521545 C37.31170563 109.36952565 37.19261773 113.03373875 37.07287598 116.69793701 C36.95047775 120.45937596 36.83083499 124.22090253 36.7109375 127.98242188 C36.47660478 135.32170139 36.23928828 142.66088021 36 150 C16.37833218 149.10632652 16.37833218 149.10632652 6.9375 147.375 C5.50833252 147.11614014 5.50833252 147.11614014 4.05029297 146.85205078 C-42.9363816 137.91058528 -84.66898591 115.90696626 -120 84 C-121.46373047 82.71416016 -121.46373047 82.71416016 -122.95703125 81.40234375 C-125 79 -125 79 -125.14453125 76.96484375 C-119.74828388 67.7009788 -106.51625674 63.24858264 -97.046875 59.98095703 C-87.39887591 56.6406938 -78.01831339 52.75867938 -68.61764526 48.78436279 C-65.82090729 47.60213409 -63.02218713 46.42471513 -60.22290039 45.24853516 C-56.37824213 43.63275756 -52.53424288 42.01543096 -48.69091797 40.39648438 C-40.73400537 37.04517014 -32.77461041 33.69986511 -24.80938721 30.36834717 C-22.46986106 29.38855282 -20.13213642 28.40454517 -17.79443359 27.42041016 C-16.3825853 26.82951762 -14.97064423 26.2388467 -13.55859375 25.6484375 C-12.91797501 25.37747253 -12.27735626 25.10650757 -11.61732483 24.82733154 C-7.22799385 23 -7.22799385 23 -5 23 C-4.8659375 22.00742187 -4.731875 21.01484375 -4.59375 19.9921875 C-4.02418289 16.0112343 -3.28705378 12.06806149 -2.5 8.125 C-2.36980469 7.44953125 -2.23960937 6.7740625 -2.10546875 6.078125 C-1.11977209 1.11977209 -1.11977209 1.11977209 0 0 Z " fill="#F7F6F6" transform="translate(206,354)"/>
<path d="M0 0 C4.6415435 0.47362018 8.36386195 2.11769393 12.61181641 3.98071289 C13.50530289 4.36214951 14.39878937 4.74358612 15.3193512 5.13658142 C17.24141669 5.95862258 19.1613859 6.78557918 21.07943726 7.61694336 C24.09438164 8.92368053 27.11451231 10.21763978 30.13647461 11.50805664 C34.24832954 13.26459268 38.35829404 15.02543318 42.46679688 16.78979492 C50.40856369 20.19637598 58.36904453 23.55757597 66.34173584 26.89108276 C68.57972724 27.82854727 70.81482518 28.77266744 73.04980469 29.71728516 C79.40781122 32.38753433 85.70759587 34.84585882 92.35766602 36.71118164 C100.98958421 39.35691851 108.68178452 44.45361054 114.44775391 51.35180664 C112.85148561 55.48447672 109.84634517 58.07471688 106.63525391 60.97680664 C106.05412842 61.50532227 105.47300293 62.03383789 104.87426758 62.57836914 C64.93384998 98.44983312 7.84808953 125.00723237 -46.55224609 124.35180664 C-47.29510144 109.51445642 -47.596789 94.72209206 -47.47802734 79.86743164 C-47.46975922 78.58915497 -47.46149109 77.3108783 -47.45297241 75.99386597 C-47.41863813 70.77542096 -47.38430097 65.55743676 -47.30761719 60.3394165 C-47.25289355 56.61172526 -47.22305185 52.88447957 -47.19677734 49.15649414 C-47.17295486 48.04477844 -47.14913239 46.93306274 -47.12458801 45.78765869 C-47.10189589 38.86607064 -48.21666182 33.29324945 -50.68974304 26.8196106 C-51.55224609 24.35180664 -51.55224609 24.35180664 -51.55224609 21.35180664 C-50.91311279 21.35293457 -50.27397949 21.3540625 -49.61547852 21.35522461 C-25.85072124 21.25666011 -17.81152741 2.4551761 0 0 Z " fill="#F7F6F6" transform="translate(316.55224609375,379.648193359375)"/>
<path d="M0 0 C-0.01047363 0.72590332 -0.02094727 1.45180664 -0.03173828 2.19970703 C-0.0734696 5.50810241 -0.09938064 8.81644224 -0.125 12.125 C-0.15013672 13.83816406 -0.15013672 13.83816406 -0.17578125 15.5859375 C-0.18222656 16.69453125 -0.18867188 17.803125 -0.1953125 18.9453125 C-0.20578613 19.96125488 -0.21625977 20.97719727 -0.22705078 22.02392578 C0.02275282 25.29823322 0.86860377 27.92739954 2 31 C2.56991039 33.20121354 3.11144293 35.40996094 3.625 37.625 C3.88539063 38.73101562 4.14578125 39.83703125 4.4140625 40.9765625 C5 44 5 44 5 48 C7.31 48.66 9.62 49.32 12 50 C11.15308594 50.34998047 11.15308594 50.34998047 10.2890625 50.70703125 C7.44426711 52.31390373 5.61219323 54.30820492 3.375 56.6875 C-1.3418184 61.50171583 -6.24073018 65.49799239 -12 69 C-12.84304688 69.55429687 -13.68609375 70.10859375 -14.5546875 70.6796875 C-19.64915448 72.6319889 -24.47341553 72.31721785 -29.875 72.1875 C-30.94492187 72.17396484 -32.01484375 72.16042969 -33.1171875 72.14648438 C-35.74534227 72.11128587 -38.37231536 72.05941783 -41 72 C-40.46709099 73.26373192 -40.46709099 73.26373192 -39.92341614 74.55299377 C-35.65675142 85.74064346 -35.34243629 95.84066877 -35.51171875 107.71484375 C-35.52106824 109.66637761 -35.52817422 111.61792337 -35.53315735 113.56947327 C-35.55205922 118.65446566 -35.60101078 123.73872027 -35.65667725 128.82342529 C-35.70823679 134.03257269 -35.73074903 139.24184173 -35.75585938 144.45117188 C-35.80914931 154.63443506 -35.89425292 164.81715569 -36 175 C-38.34472132 175.1817922 -40.68963252 175.35649063 -43.03515625 175.52734375 C-44.34105713 175.62523193 -45.64695801 175.72312012 -46.99243164 175.82397461 C-52.70084542 176.15836506 -58.32245844 175.62232749 -64 175 C-64.14247085 158.01966697 -63.88585161 141.07961544 -63.35571289 124.10864258 C-63.13536814 116.960786 -62.94714987 109.81556661 -62.9140625 102.6640625 C-62.90560303 100.89216553 -62.90560303 100.89216553 -62.89697266 99.08447266 C-62.98476874 96.45599946 -63.27179244 94.17242217 -63.875 91.625 C-65.20986394 81.89161708 -58.44668915 69.62536481 -53 62 C-52.505 61.01 -52.505 61.01 -52 60 C-53.08796875 59.443125 -54.1759375 58.88625 -55.296875 58.3125 C-63.32885418 54.15720634 -71.04829812 49.88932445 -78.484375 44.7265625 C-80.96332313 42.95755582 -80.96332313 42.95755582 -83.640625 41.5859375 C-91.98633833 35.97607059 -95.31913252 20.19582477 -98 11 C-98 10.34 -98 9.68 -98 9 C-96 9 -96 9 -93.875 11 C-92.31663567 12.60834103 -90.77936397 14.23488647 -89.24609375 15.8671875 C-82.65639953 22.70981948 -74.67941112 30.39254878 -64.80541992 31.29052734 C-61.61852059 31.33100834 -58.43206835 31.3713675 -55.24487305 31.37060547 C-53.20340714 31.37496602 -51.1641292 31.41128866 -49.12304688 31.44921875 C-41.81042526 31.47088578 -36.05851645 31.32791815 -30 27 C-28.6696875 26.06220703 -28.6696875 26.06220703 -27.3125 25.10546875 C-26.549375 24.47253906 -25.78625 23.83960938 -25 23.1875 C-24.15824219 22.49011719 -23.31648438 21.79273438 -22.44921875 21.07421875 C-21.64097656 20.38972656 -20.83273437 19.70523437 -20 19 C-19.28457031 18.40832031 -18.56914062 17.81664062 -17.83203125 17.20703125 C-13.67675872 13.69474093 -10.06252758 9.94366827 -6.5390625 5.80078125 C-1.5813449 0 -1.5813449 0 0 0 Z " fill="#DCBA97" transform="translate(306,329)"/>
<path d="M0 0 C5.42900209 2.09756899 7.06870202 7.52865939 9.29214478 12.53440857 C13.98311431 24.12961899 14.54914896 34.5807788 14.3359375 46.97265625 C14.32471306 48.92132748 14.31618829 50.87001593 14.31021118 52.81871033 C14.28756804 57.88738782 14.22886389 62.95499339 14.1619873 68.02325439 C14.10002816 73.21913156 14.07308294 78.41518609 14.04296875 83.61132812 C13.97909063 93.76218344 13.87701791 103.91225176 13.75 114.0625 C11.40527868 114.2442922 9.06036748 114.41899063 6.71484375 114.58984375 C5.40894287 114.68773193 4.10304199 114.78562012 2.75756836 114.88647461 C-2.95084542 115.22086506 -8.57245844 114.68482749 -14.25 114.0625 C-14.39247085 97.08216697 -14.13585161 80.14211544 -13.60571289 63.17114258 C-13.38536814 56.023286 -13.19714987 48.87806661 -13.1640625 41.7265625 C-13.15842285 40.54529785 -13.1527832 39.3640332 -13.14697266 38.14697266 C-13.23476874 35.51849946 -13.52179244 33.23492217 -14.125 30.6875 C-15.45054355 21.0220783 -8.74083047 8.59278178 -3.25 1.0625 C-2.25 0.0625 -2.25 0.0625 0 0 Z " fill="#3C3C3C" transform="translate(256.25,389.9375)"/>
<path d="M0 0 C0.54269531 0.7115625 1.08539063 1.423125 1.64453125 2.15625 C7.35415805 9.04946444 14.2723695 15.61036148 22.31640625 19.625 C26.18334037 21.60631122 29.88990613 23.84480051 33.625 26.0625 C38.72807368 29.08168001 43.84477945 32.0705899 49 35 C48.63648438 35.52464844 48.27296875 36.04929687 47.8984375 36.58984375 C44.3835248 42.00641434 41.82412654 47.51789539 39.625 53.5625 C39.36251465 54.25786865 39.1000293 54.9532373 38.82958984 55.66967773 C37.22477772 60.26400407 36.84743788 64.15132443 37.00146484 69.00317383 C36.99871262 72.75490987 35.47918165 75.61020873 34 79 C32 79 32 79 30.6953125 77.77734375 C28.77899152 75.532102 26.88013054 73.2757754 25 71 C24.5580127 70.46890625 24.11602539 69.9378125 23.66064453 69.390625 C-6.33767949 33.20928478 -6.33767949 33.20928478 -5.1875 20.4375 C-4.82500305 18.94981253 -4.42284049 17.47167387 -4 16 C-3.62514684 14.02951522 -3.25089953 12.05889174 -2.88793945 10.08618164 C-1.24360265 1.24360265 -1.24360265 1.24360265 0 0 Z " fill="#ECECEC" transform="translate(206,354)"/>
<path d="M0 0 C2 1 2 1 2.59423828 2.70239258 C2.75134277 3.42579834 2.90844727 4.1492041 3.0703125 4.89453125 C3.24433594 5.68537109 3.41835938 6.47621094 3.59765625 7.29101562 C3.77167969 8.12310547 3.94570313 8.95519531 4.125 9.8125 C4.30675781 10.63298828 4.48851562 11.45347656 4.67578125 12.29882812 C5.47780052 16.01645881 6 19.16233281 6 23 C8.31 23.66 10.62 24.32 13 25 C12.43539062 25.23332031 11.87078125 25.46664063 11.2890625 25.70703125 C8.44426711 27.31390373 6.61219323 29.30820492 4.375 31.6875 C-0.3418184 36.50171583 -5.24073018 40.49799239 -11 44 C-11.83273437 44.54398437 -12.66546875 45.08796875 -13.5234375 45.6484375 C-18.73059202 47.67279195 -23.83328633 47.57327151 -29.375 47.6875 C-31.05142578 47.73874023 -31.05142578 47.73874023 -32.76171875 47.79101562 C-35.50771222 47.87316073 -38.25339982 47.94242128 -41 48 C-41.33773438 47.31292969 -41.67546875 46.62585938 -42.0234375 45.91796875 C-42.46945312 45.01691406 -42.91546875 44.11585938 -43.375 43.1875 C-43.81585938 42.29417969 -44.25671875 41.40085937 -44.7109375 40.48046875 C-46.01866905 37.85443619 -46.01866905 37.85443619 -48 35 C-47.33581055 34.61779297 -46.67162109 34.23558594 -45.98730469 33.84179688 C-19.8111005 20.56445492 -19.8111005 20.56445492 0 0 Z " fill="#D6D6D6" transform="translate(305,354)"/>
<path d="M0 0 C4.39121949 1.69660753 5.83289973 4.99914171 7.75 9.0625 C15.06029619 25.98633639 15.06029619 25.98633639 12.75 35.0625 C11.99976563 34.82273437 11.24953125 34.58296875 10.4765625 34.3359375 C3.1684682 32.21898323 -1.97522469 31.90115371 -9.25 34.0625 C-10.58225289 34.40012573 -11.91525136 34.73487988 -13.25 35.0625 C-15.8113476 25.000063 -11.41689529 15.13725692 -6.76953125 6.22265625 C-2.98351817 0.0828755 -2.98351817 0.0828755 0 0 Z " fill="#313131" transform="translate(256.25,389.9375)"/>
<path d="M0 0 C0 11.04275322 -14.85356402 24.747156 -21.75 33 C-22.19762695 33.53995605 -22.64525391 34.07991211 -23.10644531 34.63623047 C-25.81692504 37.83266481 -28.64594927 40.49049442 -32 43 C-33.86856638 38.71786871 -35.20336681 35.44126277 -34.9375 30.75 C-34.71358762 25.60897167 -36.34918614 21.37406226 -38.125 16.6015625 C-39 14 -39 14 -39 11 C-38.3608667 11.00112793 -37.7217334 11.00225586 -37.06323242 11.00341797 C-19.94717036 11.29722095 -19.94717036 11.29722095 -5 4 C-3.948125 3.21625 -2.89625 2.4325 -1.8125 1.625 C-1.214375 1.08875 -0.61625 0.5525 0 0 Z " fill="#ECECEC" transform="translate(304,390)"/>
<path d="M0 0 C1.0209375 0.60134766 1.0209375 0.60134766 2.0625 1.21484375 C6.76994159 3.97545777 11.47857777 6.72181654 16.25390625 9.36328125 C16.96869141 9.75974854 17.68347656 10.15621582 18.41992188 10.56469727 C19.82901062 11.34422391 21.24041684 12.11957861 22.65429688 12.89038086 C25.84860578 14.66012594 28.50467435 16.34071336 31 19 C29.07423885 21.43929746 27.19909405 23.80090595 25 26 C25 25.34 25 24.68 25 24 C24.41089844 23.72800781 23.82179687 23.45601563 23.21484375 23.17578125 C16.58399796 19.65570262 11.30310637 13.41998477 6 8.1875 C5.41162354 7.61217529 4.82324707 7.03685059 4.21704102 6.4440918 C2.77153065 5.00156758 1.38059797 3.50476761 0 2 C0 1.34 0 0.68 0 0 Z " fill="#D5D5D4" transform="translate(224,371)"/>
<path d="M0 0 C0 11.04275322 -14.85356402 24.747156 -21.75 33 C-22.42144043 33.80993408 -22.42144043 33.80993408 -23.10644531 34.63623047 C-25.81692504 37.83266481 -28.64594927 40.49049442 -32 43 C-35.62870159 34.738041 -35.62870159 34.738041 -34 30 C-32 32 -32 32 -31 35 C-26.942152 33.41131423 -24.36829846 30.52961115 -21.5 27.375 C-20.72692505 26.53122803 -20.72692505 26.53122803 -19.93823242 25.67041016 C-15.8190671 21.08829825 -12.01572418 16.29727704 -8.3125 11.375 C-7.79558594 10.68841309 -7.27867187 10.00182617 -6.74609375 9.29443359 C-4.67204621 6.48395904 -3.11506517 4.3451955 -2 1 C-1.34 0.67 -0.68 0.34 0 0 Z " fill="#E2E1E1" transform="translate(304,390)"/>
<path d="M0 0 C2.90005979 2.76014462 5.22200794 5.58789743 7.5 8.875 C10.86020146 13.56541254 14.42925538 17.99770955 18.1875 22.375 C18.68636719 22.95749512 19.18523437 23.53999023 19.69921875 24.14013672 C22.66628403 27.565874 25.66488785 30.92409345 29 34 C29.66 34 30.32 34 31 34 C31.66 32.35 32.32 30.7 33 29 C33.66 29.33 34.32 29.66 35 30 C34.49202991 34.3177458 33.80317221 38.03302114 32 42 C30 42 30 42 28.6953125 40.77734375 C26.77899152 38.532102 24.88013054 36.2757754 23 34 C22.5580127 33.46890625 22.11602539 32.9378125 21.66064453 32.390625 C15.88210264 25.42105596 10.36484871 18.32940906 5.3125 10.8125 C4.6796106 9.87748657 4.6796106 9.87748657 4.03393555 8.92358398 C2.1259315 6.02397491 0.50852551 3.4734878 0 0 Z " fill="#E2E1E1" transform="translate(208,391)"/>
<path d="M0 0 C-3.58587018 2.01026056 -7.30093646 3.02803791 -11.25 4.125 C-12.51328125 4.47820312 -13.7765625 4.83140625 -15.078125 5.1953125 C-16.04234375 5.46085937 -17.0065625 5.72640625 -18 6 C-17.67 4.68 -17.34 3.36 -17 2 C-11.19233704 0.4943096 -6.0018137 -0.21824777 0 0 Z " fill="#AC9D71" transform="translate(244,72)"/>
<path d="M0 0 C6.95041086 -0.26618595 13.23514355 0.3879491 20 2 C19.34 2.66 18.68 3.32 18 4 C15.5896083 3.79486028 13.36839834 3.45449898 11 3 C10.0409375 2.82855469 9.081875 2.65710938 8.09375 2.48046875 C5.39390048 1.99686168 2.6964374 1.50222975 0 1 C0 0.67 0 0.34 0 0 Z " fill="#A18F5F" transform="translate(265,72)"/>
<path d="M0 0 C2.31 0.66 4.62 1.32 7 2 C6.195625 2.3403125 6.195625 2.3403125 5.375 2.6875 C2.21499137 4.43382056 -0.2676983 6.6402849 -3 9 C-2.01 6.03 -1.02 3.06 0 0 Z " fill="#DEDEDE" transform="translate(311,377)"/>
</svg>
