<?xml version="1.0" encoding="UTF-8"?>
<svg version="1.1" xmlns="http://www.w3.org/2000/svg" width="512" height="512">
<path d="M0 0 C1.45108658 0.00273422 1.45108658 0.00273422 2.93148804 0.00552368 C17.26440977 0.05095174 31.21023917 0.55983928 45.3125 3.3125 C46.65803955 3.55395752 46.65803955 3.55395752 48.03076172 3.80029297 C107.84088904 14.62287989 165.35495829 48.68064457 202.3125 97.3125 C202.72918945 97.85277832 203.14587891 98.39305664 203.57519531 98.94970703 C211.2584873 108.9447116 218.00092968 119.40459036 224.3125 130.3125 C224.70679199 130.98974121 225.10108398 131.66698242 225.50732422 132.36474609 C238.68961173 155.2833756 247.29510918 180.85822563 252.625 206.6875 C252.77243652 207.39817627 252.91987305 208.10885254 253.07177734 208.84106445 C256.05713787 224.48358366 256.6873098 240.11919606 256.625 256 C256.62226578 257.45108658 256.62226578 257.45108658 256.61947632 258.93148804 C256.57404826 273.26440977 256.06516072 287.21023917 253.3125 301.3125 C253.15152832 302.20952637 252.99055664 303.10655273 252.82470703 304.03076172 C242.00212011 363.84088904 207.94435543 421.35495829 159.3125 458.3125 C158.77222168 458.72918945 158.23194336 459.14587891 157.67529297 459.57519531 C147.6802884 467.2584873 137.22040964 474.00092968 126.3125 480.3125 C125.63525879 480.70679199 124.95801758 481.10108398 124.26025391 481.50732422 C86.65686251 503.13596116 43.74617007 512.78895955 0.6875 512.625 C-0.83935928 512.62176727 -0.83935928 512.62176727 -2.39706421 512.61846924 C-17.00613523 512.56879854 -31.33825853 512.31790191 -45.6875 509.3125 C-47.14978027 509.01448486 -47.14978027 509.01448486 -48.64160156 508.71044922 C-108.22582385 496.24649799 -164.47712629 464.27705313 -201.6875 415.3125 C-202.10418945 414.77222168 -202.52087891 414.23194336 -202.95019531 413.67529297 C-210.6334873 403.6802884 -217.37592968 393.22040964 -223.6875 382.3125 C-224.08179199 381.63525879 -224.47608398 380.95801758 -224.88232422 380.26025391 C-238.06461173 357.3416244 -246.67010918 331.76677437 -252 305.9375 C-252.14743652 305.22682373 -252.29487305 304.51614746 -252.44677734 303.78393555 C-255.43213787 288.14141634 -256.0623098 272.50580394 -256 256.625 C-255.99817719 255.65760895 -255.99635437 254.6902179 -255.99447632 253.69351196 C-255.94904826 239.36059023 -255.44016072 225.41476083 -252.6875 211.3125 C-252.44604248 209.96696045 -252.44604248 209.96696045 -252.19970703 208.59423828 C-241.37712011 148.78411096 -207.31935543 91.27004171 -158.6875 54.3125 C-158.14722168 53.89581055 -157.60694336 53.47912109 -157.05029297 53.04980469 C-147.0552884 45.3665127 -136.59540964 38.62407032 -125.6875 32.3125 C-125.01025879 31.91820801 -124.33301758 31.52391602 -123.63525391 31.11767578 C-100.7166244 17.93538827 -75.14177437 9.32989082 -49.3125 4 C-48.60182373 3.85256348 -47.89114746 3.70512695 -47.15893555 3.55322266 C-31.51641634 0.56786213 -15.88080394 -0.0623098 0 0 Z " fill="#A2D4DF" transform="translate(255.6875,-0.3125)"/>
<path d="M0 0 C5.00676398 3.96959529 8.61501191 8.32048074 10.9375 14.3125 C11.1640625 16.73828125 11.1640625 16.73828125 11.1875 19.0625 C11.1922854 21.28633715 11.1922854 21.28633715 11.9375 23.3125 C14.25622758 25.24178878 16.64151874 26.54130525 19.3125 27.9375 C33.29125337 35.25970415 41.03009771 51.68954847 45.625 66.0625 C52.61330566 89.20441658 53.37793131 113.29882976 52.9375 137.3125 C53.56188965 137.58690918 54.1862793 137.86131836 54.82958984 138.14404297 C57.98750274 139.89453765 58.65823953 141.99270135 59.9375 145.3125 C61.63120716 159.36030644 58.87818829 175.96475993 51.9375 188.3125 C49.98046875 190.625 49.98046875 190.625 47.9375 192.3125 C44.6875 192.5625 44.6875 192.5625 41.9375 192.3125 C41.79054688 192.86035156 41.64359375 193.40820312 41.4921875 193.97265625 C36.23591764 212.55085146 28.36466791 228.36185575 14.9375 242.3125 C13.98745657 243.42692754 13.04770979 244.55033779 12.125 245.6875 C9.9375 248.3125 9.9375 248.3125 7.75 250.0625 C3.56377479 255.25919337 3.77844835 262.23730015 4.4375 268.59765625 C5.0605915 275.74097387 5.56087576 282.51201995 2.9375 289.3125 C-3.20923221 296.36154958 -11.73138943 300.61903542 -20.00439453 304.73339844 C-23.30685809 306.4386782 -26.25361582 308.40616994 -29.19897461 310.66455078 C-33.13689442 312.03376854 -36.94989702 309.36632913 -40.48168945 307.67797852 C-64.65944818 294.95175802 -64.65944818 294.95175802 -68.52294922 285.88525391 C-69.81686026 278.92605904 -69.18021187 272.30065679 -68.30664062 265.32714844 C-67.81799737 259.29338147 -68.49185716 254.21255619 -72.390625 249.49609375 C-73.27234375 248.77550781 -74.1540625 248.05492187 -75.0625 247.3125 C-87.68159331 234.46358877 -106.0625 211.22568196 -106.0625 192.3125 C-106.949375 192.415625 -107.83625 192.51875 -108.75 192.625 C-112.17683638 192.30171355 -113.64851981 191.7613233 -115.90625 189.15625 C-122.95125358 177.92232537 -125.77551846 158.31670462 -124.0625 145.3125 C-122.82738984 141.86810829 -121.46385681 139.01317841 -118.0625 137.3125 C-117.99518677 135.8119104 -117.99518677 135.8119104 -117.92651367 134.28100586 C-115.50177309 81.21698366 -115.50177309 81.21698366 -108.0625 61.3125 C-107.670625 60.22582031 -107.27875 59.13914062 -106.875 58.01953125 C-104.18324762 51.03337129 -100.62986324 45.22569881 -96.0625 39.3125 C-95.64097656 38.73757812 -95.21945313 38.16265625 -94.78515625 37.5703125 C-90.64047444 32.18362166 -85.2668337 28.28715657 -79.125 25.5 C-75.94208219 23.73458099 -75.94208219 23.73458099 -75.6171875 21.41796875 C-75.53648008 19.88183759 -75.46266259 18.34533405 -75.39453125 16.80859375 C-74.59166289 10.7729128 -70.97533024 6.05443474 -66.5703125 2.04296875 C-47.43654321 -12.56482395 -20.09552042 -13.2802836 0 0 Z " fill="#8D4809" transform="translate(288.0625,47.6875)"/>
<path d="M0 0 C4.68944459 4.44750837 7.96424901 9.62428538 11.5 15 C12.16386719 15.97839844 12.82773438 16.95679688 13.51171875 17.96484375 C17.96876379 24.73492614 20.83795736 31.20212918 23 39 C23.26361328 39.928125 23.52722656 40.85625 23.79882812 41.8125 C24.55518055 44.53614251 25.28132364 47.26619712 26 50 C27.80886193 56.7587154 29.71502354 63.425977 32.0078125 70.0390625 C33.97216436 75.90118341 35.63671238 81.85756725 37.35888672 87.79443359 C38.39695122 91.36559684 39.4490255 94.93261929 40.5 98.5 C40.9167372 99.91664592 41.33340379 101.33331261 41.75 102.75 C41.95625 103.45125 42.1625 104.1525 42.375 104.875 C43.3125 108.0625 43.3125 108.0625 44.25 111.25 C44.45665283 111.95229736 44.66330566 112.65459473 44.8762207 113.37817383 C45.28952447 114.78405368 45.70213099 116.1901387 46.11401367 117.59643555 C47.20127786 121.30519058 48.30314922 125.00881496 49.42578125 128.70703125 C49.6578125 129.47789062 49.88984375 130.24875 50.12890625 131.04296875 C50.57366834 132.51957888 51.0226662 133.99492201 51.4765625 135.46875 C52.48690243 138.83872253 53 141.44235392 53 145 C53.66 145 54.32 145 55 145 C55.09925781 144.07703125 55.19851563 143.1540625 55.30078125 142.203125 C56.06103837 136.91184158 57.66153614 131.86191786 59.1875 126.75 C59.49921143 125.69240479 59.81092285 124.63480957 60.13208008 123.54516602 C62.31102373 116.1940662 64.60273146 108.88298242 66.94238281 101.58178711 C68.77039137 95.83652997 70.35657586 90.05112398 71.87109375 84.21484375 C75.24826393 71.40192999 79.02599114 58.63855 83.08203125 46.0234375 C83.73809942 43.8626002 84.30984704 41.67544063 84.82421875 39.4765625 C88.52656201 25.04766741 97.18699026 10.29584647 108 0 C108.57621094 0.36351562 109.15242187 0.72703125 109.74609375 1.1015625 C116.92334434 5.16415717 123.93282747 7.131816 131.9375 8.9375 C156.98044339 14.61799522 187.46371601 22.61277632 203 45 C206.33781491 51.41166997 207.52450491 58.26703337 208.9375 65.3125 C209.19547363 66.57964844 209.45344727 67.84679687 209.71923828 69.15234375 C216.80480348 104.39709299 216.80480348 104.39709299 216 112 C214.59716797 113.7800293 214.59716797 113.7800293 212.6171875 115.38671875 C211.88338867 115.98274902 211.14958984 116.5787793 210.39355469 117.19287109 C206.39510363 120.21169349 202.3079677 123.05567685 198.125 125.8125 C197.20662354 126.41924561 196.28824707 127.02599121 195.34204102 127.65112305 C152.99959644 155.3108602 104.8937237 169.50486607 54.375 169.3125 C53.35709381 169.31034485 52.33918762 169.3081897 51.29043579 169.30596924 C36.68136477 169.25629854 22.34924147 169.00540191 8 166 C6.53771973 165.70198486 6.53771973 165.70198486 5.04589844 165.39794922 C-32.56520659 157.53038024 -68.44038485 142.77516734 -99.13085938 119.40380859 C-100.41046505 118.44276724 -101.72766577 117.53037782 -103.07226562 116.66259766 C-105.09998811 115.2320605 -106.5673957 114.02933296 -108 112 C-108.48799143 108.53820846 -107.69543011 105.39720961 -107 102 C-106.65320461 99.58841209 -106.31533361 97.17553102 -105.984375 94.76171875 C-98.9837079 48.26569316 -98.9837079 48.26569316 -91 40 C-90.30261719 39.26136719 -89.60523437 38.52273438 -88.88671875 37.76171875 C-69.55570745 18.93692051 -41.14582456 12.28041625 -15.68847656 6.47265625 C-11.66149487 5.5309387 -8.15638343 4.30475792 -4.5 2.375 C-3.6440625 1.92898438 -2.788125 1.48296875 -1.90625 1.0234375 C-0.96265625 0.51683594 -0.96265625 0.51683594 0 0 Z " fill="#388E6F" transform="translate(202,343)"/>
<path d="M0 0 C5.00676398 3.96959529 8.61501191 8.32048074 10.9375 14.3125 C11.1640625 16.73828125 11.1640625 16.73828125 11.1875 19.0625 C11.1922854 21.28633715 11.1922854 21.28633715 11.9375 23.3125 C14.25622758 25.24178878 16.64151874 26.54130525 19.3125 27.9375 C33.29125337 35.25970415 41.03009771 51.68954847 45.625 66.0625 C52.51597163 88.88209297 53.35709463 112.62871403 52.9375 136.3125 C51.9475 136.3125 50.9575 136.3125 49.9375 136.3125 C49.73253906 136.93898437 49.52757812 137.56546875 49.31640625 138.2109375 C48.91228516 139.43683594 48.91228516 139.43683594 48.5 140.6875 C48.23316406 141.49960938 47.96632813 142.31171875 47.69140625 143.1484375 C46.9375 145.3125 46.9375 145.3125 45.9375 147.3125 C45.2775 147.3125 44.6175 147.3125 43.9375 147.3125 C43.9375 142.6925 43.9375 138.0725 43.9375 133.3125 C42.2875 132.9825 40.6375 132.6525 38.9375 132.3125 C37.40324001 131.76009339 35.88450667 131.16297052 34.3828125 130.52734375 C33.52800293 130.16560059 32.67319336 129.80385742 31.79248047 129.43115234 C30.89158691 129.04137207 29.99069336 128.6515918 29.0625 128.25 C28.12937988 127.8473291 27.19625977 127.4446582 26.23486328 127.02978516 C5.02993963 117.75058337 -22.0534164 105.04786977 -31.0625 82.3125 C-31.42545539 80.9869238 -31.76990407 79.65536132 -32.0625 78.3125 C-32.28164062 78.9415625 -32.50078125 79.570625 -32.7265625 80.21875 C-41.27309738 103.28744578 -65.17050501 115.53630412 -86.36328125 125.2734375 C-101.46705266 131.99341053 -101.46705266 131.99341053 -108.0625 133.3125 C-108.0625 137.9325 -108.0625 142.5525 -108.0625 147.3125 C-108.7225 147.3125 -109.3825 147.3125 -110.0625 147.3125 C-110.73369549 145.8562455 -111.39931807 144.39742133 -112.0625 142.9375 C-112.619375 141.71933594 -112.619375 141.71933594 -113.1875 140.4765625 C-114.0625 138.3125 -114.0625 138.3125 -114.0625 136.3125 C-115.0525 136.3125 -116.0425 136.3125 -117.0625 136.3125 C-117.97240883 104.19608817 -117.16266371 65.52166218 -96.0625 39.3125 C-95.64355469 38.74402344 -95.22460938 38.17554688 -94.79296875 37.58984375 C-90.66194795 32.18773962 -85.26867709 28.2879931 -79.125 25.5 C-75.94208219 23.73458099 -75.94208219 23.73458099 -75.6171875 21.41796875 C-75.53648008 19.88183759 -75.46266259 18.34533405 -75.39453125 16.80859375 C-74.59166289 10.7729128 -70.97533024 6.05443474 -66.5703125 2.04296875 C-47.43654321 -12.56482395 -20.09552042 -13.2802836 0 0 Z " fill="#261D17" transform="translate(288.0625,47.6875)"/>
<path d="M0 0 C4.62424394 4.62424394 7.92026774 9.55741678 11.5 15 C12.16386719 15.97839844 12.82773438 16.95679688 13.51171875 17.96484375 C17.96876379 24.73492614 20.83795736 31.20212918 23 39 C23.26361328 39.928125 23.52722656 40.85625 23.79882812 41.8125 C24.55518055 44.53614251 25.28132364 47.26619712 26 50 C27.80886193 56.7587154 29.71502354 63.425977 32.0078125 70.0390625 C33.97216436 75.90118341 35.63671238 81.85756725 37.35888672 87.79443359 C38.39695122 91.36559684 39.4490255 94.93261929 40.5 98.5 C40.9167372 99.91664592 41.33340379 101.33331261 41.75 102.75 C41.95625 103.45125 42.1625 104.1525 42.375 104.875 C43 107 43.625 109.125 44.25 111.25 C44.45665283 111.95229736 44.66330566 112.65459473 44.8762207 113.37817383 C45.28952447 114.78405368 45.70213099 116.1901387 46.11401367 117.59643555 C47.20127786 121.30519058 48.30314922 125.00881496 49.42578125 128.70703125 C49.6578125 129.47789062 49.88984375 130.24875 50.12890625 131.04296875 C50.57366834 132.51957888 51.0226662 133.99492201 51.4765625 135.46875 C52.48690243 138.83872253 53 141.44235392 53 145 C53.66 145 54.32 145 55 145 C55.09925781 144.07703125 55.19851563 143.1540625 55.30078125 142.203125 C56.06103837 136.91184158 57.66153614 131.86191786 59.1875 126.75 C59.49921143 125.69240479 59.81092285 124.63480957 60.13208008 123.54516602 C62.31102373 116.1940662 64.60273146 108.88298242 66.94238281 101.58178711 C68.77039137 95.83652997 70.35657586 90.05112398 71.87109375 84.21484375 C75.24826393 71.40192999 79.02599114 58.63855 83.08203125 46.0234375 C83.73809942 43.8626002 84.30984704 41.67544063 84.82421875 39.4765625 C88.58061915 24.83699413 97.33563832 10.66436168 108 0 C111.96 1.98 115.92 3.96 120 6 C119.33945632 18.08515823 117.39015223 29.88047901 115.4375 41.8125 C115.10432967 43.87296802 114.77164352 45.93351439 114.43945312 47.99414062 C113.63188009 52.99701435 112.81776701 57.99878291 112 63 C110.58455844 62.8457568 109.16921253 62.69063578 107.75390625 62.53515625 C106.9657251 62.44886963 106.17754395 62.36258301 105.36547852 62.27368164 C102.23306907 61.91126746 99.11878527 61.46449993 96 61 C96.54269531 61.60328125 97.08539063 62.2065625 97.64453125 62.828125 C98.35996094 63.62734375 99.07539063 64.4265625 99.8125 65.25 C100.52019531 66.03890625 101.22789062 66.8278125 101.95703125 67.640625 C102.63121094 68.41921875 103.30539062 69.1978125 104 70 C104.93392578 70.95132813 104.93392578 70.95132813 105.88671875 71.921875 C107 74 107 74 106.59765625 76.5859375 C104.2824896 81.53326182 101.38479399 86.03277451 98.4375 90.625 C97.07127974 92.78151591 95.70676404 94.93911244 94.34375 97.09765625 C93.98929306 97.65805099 93.63483612 98.21844574 93.26963806 98.79582214 C89.24579357 105.16958051 85.3390142 111.61340343 81.4375 118.0625 C80.72433589 119.23994037 80.01111983 120.41734928 79.29785156 121.59472656 C77.888727 123.92135209 76.48025657 126.24837188 75.07226562 128.57568359 C71.78290557 134.01216821 68.48666365 139.44446008 65.1875 144.875 C64.61894287 145.81351807 64.05038574 146.75203613 63.46459961 147.71899414 C60.73373223 152.21326185 57.96179786 156.65411743 55 161 C51.26082141 159.75360714 50.93772978 158.69286197 48.98828125 155.34765625 C48.40361084 154.35685059 47.81894043 153.36604492 47.21655273 152.34521484 C46.58821533 151.26191895 45.95987793 150.17862305 45.3125 149.0625 C44.30408542 147.35197477 43.29563461 145.64146976 42.28511047 143.93218994 C41.58389772 142.74600991 40.88362597 141.55927314 40.18424988 140.37200928 C36.51762753 134.15559149 32.73371769 128.01298312 28.9375 121.875 C23.72584062 113.43123483 18.53290826 104.97672344 13.375 96.5 C12.8193335 95.58718262 12.26366699 94.67436523 11.69116211 93.73388672 C10.64172677 92.00786485 9.59700469 90.27896612 8.55761719 88.546875 C7.46924698 86.7672703 6.34710322 85.00807868 5.20019531 83.265625 C4.63139648 82.38390625 4.06259766 81.5021875 3.4765625 80.59375 C2.95400879 79.80677734 2.43145508 79.01980469 1.89306641 78.20898438 C1 76 1 76 1.72583008 73.87182617 C3.39540864 71.41912281 5.18943539 69.11388792 7.0625 66.8125 C8.13177734 65.49185547 8.13177734 65.49185547 9.22265625 64.14453125 C10.11504433 63.06778168 11.01112536 61.98887464 12 61 C11.34773438 61.144375 10.69546875 61.28875 10.0234375 61.4375 C9.14945313 61.623125 8.27546875 61.80875 7.375 62 C6.51648438 62.185625 5.65796875 62.37125 4.7734375 62.5625 C1.80645501 63.03053104 -1.00096782 63.02901119 -4 63 C-4.98551846 56.97286551 -5.96381152 50.94461592 -6.93579102 44.9152832 C-7.26655065 42.86972399 -7.59918959 40.82446765 -7.93383789 38.77954102 C-9.72078939 27.85215899 -11.39516372 17.06594835 -12 6 C-8.04 4.02 -4.08 2.04 0 0 Z " fill="#4ABB96" transform="translate(202,343)"/>
<path d="M0 0 C3.99830908 1.72665038 7.38040748 3.92854776 10.95605469 6.39428711 C11.67054779 6.87739853 12.38504089 7.36050995 13.1211853 7.85826111 C15.39102531 9.39360792 17.65457408 10.93787214 19.91699219 12.48413086 C22.18683109 14.03351962 24.45801341 15.58069493 26.73422241 17.12071228 C28.14705688 18.07668228 29.55626388 19.03804092 30.96133423 20.00538635 C34.030154 22.08277354 36.61697056 23.80525018 40.29199219 24.42163086 C42.26635671 23.6761017 42.26635671 23.6761017 44.17089844 22.35131836 C45.29226196 21.63335083 45.29226196 21.63335083 46.4362793 20.90087891 C47.23428955 20.37147705 48.0322998 19.8420752 48.85449219 19.29663086 C50.09694702 18.4957605 50.09694702 18.4957605 51.36450195 17.67871094 C55.84685732 14.76803025 60.25619561 11.76521362 64.62792969 8.69116211 C65.91074829 7.79324951 65.91074829 7.79324951 67.21948242 6.87719727 C68.87119351 5.71372176 70.51427233 4.53787747 72.14770508 3.34887695 C73.2690686 2.55537842 73.2690686 2.55537842 74.41308594 1.74584961 C75.06720459 1.27236084 75.72132324 0.79887207 76.39526367 0.31103516 C78.29199219 -0.57836914 78.29199219 -0.57836914 80.37329102 -0.33911133 C83.18937649 0.77743306 85.21786811 2.55755432 87.54199219 4.48413086 C88.43402344 5.21760742 89.32605469 5.95108398 90.24511719 6.70678711 C90.92058594 7.27268555 91.59605469 7.83858398 92.29199219 8.42163086 C90.95440188 12.11354423 89.29663567 15.07601426 87.02636719 18.27319336 C79.18802077 29.58779611 73.16642213 39.8084874 69.85400391 53.19702148 C69.11215822 56.13346715 68.24262024 59.02471846 67.36865234 61.92407227 C66.73553276 64.02657099 66.11856403 66.13313009 65.50683594 68.24194336 C64.2787344 72.47152111 63.03637864 76.69682019 61.79199219 80.92163086 C61.37526385 82.33827939 60.95859716 83.75494605 60.54199219 85.17163086 C53.04199219 110.67163086 53.04199219 110.67163086 52.41674805 112.79736328 C52.00082466 114.2115678 51.5849716 115.62579301 51.16918945 117.04003906 C50.11673134 120.61955093 49.06298748 124.19867563 48.00683594 127.77709961 C45.3907663 136.64626229 42.81556954 145.52566825 40.29199219 154.42163086 C39.63199219 154.42163086 38.97199219 154.42163086 38.29199219 154.42163086 C38.06648682 153.61665161 38.06648682 153.61665161 37.83642578 152.79541016 C35.14359385 143.20970193 32.41208257 133.64810207 29.35449219 124.17163086 C26.64019214 115.74334452 24.25783543 107.23752994 21.90429688 98.70239258 C19.87853846 91.39911846 17.67818438 84.17263051 15.35058594 76.96069336 C13.85944689 72.31090495 12.51709309 67.65062119 11.29199219 62.92163086 C10.9684375 61.71506836 10.64488281 60.50850586 10.31152344 59.26538086 C9.78527325 57.28135716 9.26182642 55.29623365 8.78173828 53.30053711 C5.28032353 38.90266903 -1.66193814 27.82197411 -10.19921875 15.79907227 C-11.71732113 13.4069556 -12.74487176 11.08000453 -13.70800781 8.42163086 C-12.02197806 6.85560322 -10.30820382 5.31940387 -8.58300781 3.79663086 C-7.63167969 2.93811523 -6.68035156 2.07959961 -5.70019531 1.19506836 C-2.70800781 -0.57836914 -2.70800781 -0.57836914 0 0 Z " fill="#D3D5D7" transform="translate(216.7080078125,333.578369140625)"/>
<path d="M0 0 C0.66644531 0.44730469 1.33289063 0.89460938 2.01953125 1.35546875 C8.45434529 5.57634677 14.88560811 9.06919236 22 12 C22.99 12.4125 23.98 12.825 25 13.25 C38.38246069 16.59561517 50.87967098 14.02400537 62.70214844 6.98681641 C66.21180571 4.76773689 69.62210467 2.41363798 73 0 C74 3 74 3 73.49609375 5.8828125 C72.90223695 9.37641073 73.19962381 12.47758817 73.59765625 15.9921875 C74.20251123 23.23047812 74.65040247 30.11583774 72 37 C65.86392515 44.05709361 57.32934374 48.30741411 49.05810547 52.42089844 C45.75564191 54.1261782 42.80888418 56.09366994 39.86352539 58.35205078 C35.92560558 59.72126854 32.11260298 57.05382913 28.58081055 55.36547852 C4.43728096 42.65716767 4.43728096 42.65716767 0.5234375 33.57275391 C-0.80279377 26.63957507 -0.2598768 19.98503126 0.69287109 13.03417969 C1.1416375 8.6007386 0.67007368 4.38851944 0 0 Z " fill="#7F3F0B" transform="translate(219,300)"/>
<path d="M0 0 C7.30965525 1.32902823 13.8685425 2.72509907 20.8125 5.0625 C25.86317889 6.74605963 30.69574483 8.30814063 36 9 C32.43693583 22.04438282 28.7474464 35.01555974 24.56298828 47.875 C22.15597078 55.34122424 20.0787638 62.87517849 18.05834961 70.45385742 C16.58501697 75.95149294 14.93088155 81.32709529 13.05859375 86.703125 C11.26695746 92.28298119 9.81130865 97.95612969 8.29443359 103.61572266 C6.08314136 111.81763216 3.61639356 119.91928008 1 128 C0.34 127.67 -0.32 127.34 -1 127 C-0.67 85.09 -0.34 43.18 0 0 Z " fill="#C6C8C8" transform="translate(256,360)"/>
<path d="M0 0 C5.5755168 4.42712677 10.31179426 9.6712761 11.29296875 16.94921875 C11.3125 19.4375 11.3125 19.4375 10.9375 23.3125 C10.16148437 23.04695313 9.38546875 22.78140625 8.5859375 22.5078125 C7.50570312 22.15460938 6.42546875 21.80140625 5.3125 21.4375 C4.26835937 21.08945313 3.22421875 20.74140625 2.1484375 20.3828125 C-8.94687156 17.27692491 -20.42892831 16.94086259 -31.875 17 C-32.57361145 17.00115814 -33.2722229 17.00231628 -33.99200439 17.00350952 C-48.25676748 17.05019301 -61.49147735 18.61099093 -75.0625 23.3125 C-75.71557163 16.56409317 -74.84620804 12.42143946 -71.08984375 6.73828125 C-54.13382232 -13.55013746 -20.84848345 -13.77788518 0 0 Z " fill="#17120F" transform="translate(288.0625,47.6875)"/>
<path d="M0 0 C2.80891429 1.12399609 4.84082648 2.90341537 7.16210938 4.82763672 C8.05414063 5.56111328 8.94617188 6.29458984 9.86523438 7.05029297 C10.54070312 7.61619141 11.21617187 8.18208984 11.91210938 8.76513672 C10.56016784 12.46344697 8.88453128 15.54748875 6.68945312 18.81201172 C5.75842773 20.20226562 5.75842773 20.20226562 4.80859375 21.62060547 C4.16212891 22.57580078 3.51566406 23.53099609 2.84960938 24.51513672 C2.19927734 25.48580078 1.54894531 26.45646484 0.87890625 27.45654297 C-3.91953042 34.59677651 -3.91953042 34.59677651 -5.08789062 35.76513672 C-13.84391923 36.0375465 -21.98548583 32.65128745 -30.08789062 29.76513672 C-31.89871142 29.15595558 -33.71089721 28.55078991 -35.52539062 27.95263672 C-36.70101563 27.56076172 -37.87664062 27.16888672 -39.08789062 26.76513672 C-37.60271609 22.24815763 -34.03008657 20.59265345 -30.15039062 18.32763672 C-25.30476715 15.42328975 -20.56183519 12.44384095 -15.94335938 9.18701172 C-15.09314209 8.58816162 -14.2429248 7.98931152 -13.36694336 7.37231445 C-11.69930256 6.18891571 -10.03844272 4.99589454 -8.38500977 3.79272461 C-7.6218042 3.25381592 -6.85859863 2.71490723 -6.07226562 2.15966797 C-5.39905273 1.67344971 -4.72583984 1.18723145 -4.03222656 0.6862793 C-2.08789062 -0.23486328 -2.08789062 -0.23486328 0 0 Z " fill="#F1F8FC" transform="translate(297.087890625,333.23486328125)"/>
<path d="M0 0 C4.01625793 1.7267351 7.43049049 3.92992615 11.03076172 6.38989258 C11.74999817 6.873004 12.46923462 7.35611542 13.21026611 7.85386658 C15.49343998 9.38931543 17.77005285 10.93416968 20.04638672 12.47973633 C22.33832436 14.02683026 24.63155633 15.5719832 26.925354 17.11631775 C28.34905678 18.07583105 29.77142491 19.03732825 31.19232178 20.00099182 C34.64944427 22.36733462 34.64944427 22.36733462 38.29638672 24.41723633 C38.29638672 25.07723633 38.29638672 25.73723633 38.29638672 26.41723633 C34.11816163 27.70789025 29.93725366 28.98933062 25.75366211 30.26245117 C24.33199826 30.69647535 22.91108649 31.13297122 21.4909668 31.57202148 C19.44498167 32.20409115 17.39642186 32.82710825 15.34716797 33.44848633 C13.50119019 34.0140625 13.50119019 34.0140625 11.61791992 34.59106445 C8.63802631 35.3322596 6.3373904 35.75584478 3.29638672 35.41723633 C1.37451172 33.50317383 1.37451172 33.50317383 -0.45361328 30.79223633 C-1.12908203 29.80094727 -1.80455078 28.8096582 -2.50048828 27.78833008 C-3.23596591 26.66535354 -3.97028138 25.54161525 -4.70361328 24.41723633 C-5.54199415 23.15801467 -6.3805402 21.89890298 -7.21923828 20.63989258 C-8.04923101 19.37940168 -8.87738778 18.11769977 -9.70361328 16.85473633 C-10.10161133 16.24742676 -10.49960938 15.64011719 -10.90966797 15.0144043 C-13.70361328 10.65580029 -13.70361328 10.65580029 -13.70361328 8.41723633 C-11.50830078 6.18286133 -11.50830078 6.18286133 -8.57861328 3.66723633 C-7.62728516 2.82676758 -6.67595703 1.98629883 -5.69580078 1.12036133 C-2.70361328 -0.58276367 -2.70361328 -0.58276367 0 0 Z " fill="#F1F8FD" transform="translate(216.70361328125,333.582763671875)"/>
<path d="M0 0 C0.66 0.33 1.32 0.66 2 1 C5.12747083 1.12765187 8.10011047 1.18062299 11.1796875 0.5625 C14.65730348 -0.1113633 16.99143905 -0.49112533 20.24609375 1.09375 C24.0993753 3.86528462 26.94845164 6.64045973 29 11 C19.85248962 17.6822239 11.5382085 21.4646527 0 20 C-6.51830982 18.23006478 -11.71705475 15.13447889 -17 11 C-13.29313327 3.79220359 -8.20978437 -0.34207435 0 0 Z " fill="#5F2C07" transform="translate(250,266)"/>
<path d="M0 0 C0.66 0.33 1.32 0.66 2 1 C5.12747083 1.12765187 8.10011047 1.18062299 11.1796875 0.5625 C14.72794494 -0.12505161 17.01221897 -0.49638912 20.31640625 1.1640625 C25.688631 5.065893 25.688631 5.065893 27 9 C26.13246094 8.83886719 25.26492188 8.67773438 24.37109375 8.51171875 C18.30574889 7.6500341 12.17539107 7.81567553 6.0625 7.8125 C4.82564453 7.80025391 3.58878906 7.78800781 2.31445312 7.77539062 C-4.15022461 7.76502503 -9.82358662 8.0442646 -16 10 C-13.37652235 2.91661036 -7.20031348 -0.30001306 0 0 Z " fill="#723808" transform="translate(250,266)"/>
</svg>
