<?xml version="1.0" encoding="UTF-8"?>
<svg version="1.1" xmlns="http://www.w3.org/2000/svg" width="512" height="512">
<path d="M0 0 C1.45108658 0.00273422 1.45108658 0.00273422 2.93148804 0.00552368 C17.26440977 0.05095174 31.21023917 0.55983928 45.3125 3.3125 C46.65803955 3.55395752 46.65803955 3.55395752 48.03076172 3.80029297 C107.84088904 14.62287989 165.35495829 48.68064457 202.3125 97.3125 C202.72918945 97.85277832 203.14587891 98.39305664 203.57519531 98.94970703 C211.2584873 108.9447116 218.00092968 119.40459036 224.3125 130.3125 C224.70679199 130.98974121 225.10108398 131.66698242 225.50732422 132.36474609 C238.68961173 155.2833756 247.29510918 180.85822563 252.625 206.6875 C252.77243652 207.39817627 252.91987305 208.10885254 253.07177734 208.84106445 C256.05713787 224.48358366 256.6873098 240.11919606 256.625 256 C256.62226578 257.45108658 256.62226578 257.45108658 256.61947632 258.93148804 C256.57404826 273.26440977 256.06516072 287.21023917 253.3125 301.3125 C253.15152832 302.20952637 252.99055664 303.10655273 252.82470703 304.03076172 C242.00212011 363.84088904 207.94435543 421.35495829 159.3125 458.3125 C158.77222168 458.72918945 158.23194336 459.14587891 157.67529297 459.57519531 C147.6802884 467.2584873 137.22040964 474.00092968 126.3125 480.3125 C125.63525879 480.70679199 124.95801758 481.10108398 124.26025391 481.50732422 C98.34126191 496.41535371 68.84898362 505.97401819 39.3125 510.3125 C38.10787109 510.48982666 36.90324219 510.66715332 35.66210938 510.84985352 C24.00482646 512.448825 12.44063902 512.6709053 0.6875 512.625 C-0.76733292 512.62226578 -0.76733292 512.62226578 -2.2515564 512.61947632 C-16.60306055 512.57408309 -30.56692918 512.0687347 -44.6875 509.3125 C-45.58452637 509.15152832 -46.48155273 508.99055664 -47.40576172 508.82470703 C-107.21588904 498.00212011 -164.72995829 463.94435543 -201.6875 415.3125 C-202.10418945 414.77222168 -202.52087891 414.23194336 -202.95019531 413.67529297 C-210.6334873 403.6802884 -217.37592968 393.22040964 -223.6875 382.3125 C-224.08179199 381.63525879 -224.47608398 380.95801758 -224.88232422 380.26025391 C-239.79035371 354.34126191 -249.34901819 324.84898362 -253.6875 295.3125 C-253.86482666 294.10787109 -254.04215332 292.90324219 -254.22485352 291.66210938 C-255.823825 280.00482646 -256.0459053 268.44063902 -256 256.6875 C-255.99817719 255.71761139 -255.99635437 254.74772278 -255.99447632 253.7484436 C-255.94908309 239.39693945 -255.4437347 225.43307082 -252.6875 211.3125 C-252.44604248 209.96696045 -252.44604248 209.96696045 -252.19970703 208.59423828 C-241.37712011 148.78411096 -207.31935543 91.27004171 -158.6875 54.3125 C-158.14722168 53.89581055 -157.60694336 53.47912109 -157.05029297 53.04980469 C-147.0552884 45.3665127 -136.59540964 38.62407032 -125.6875 32.3125 C-125.01025879 31.91820801 -124.33301758 31.52391602 -123.63525391 31.11767578 C-100.7166244 17.93538827 -75.14177437 9.32989082 -49.3125 4 C-48.60182373 3.85256348 -47.89114746 3.70512695 -47.15893555 3.55322266 C-31.51641634 0.56786213 -15.88080394 -0.0623098 0 0 Z " fill="#A5D8E9" transform="translate(255.6875,-0.3125)"/>
<path d="M0 0 C1.27037109 -0.01160156 1.27037109 -0.01160156 2.56640625 -0.0234375 C18.19759549 0.02443751 32.4690409 6.49752142 43.60546875 17.43359375 C59.44707638 35.14180941 70.29663283 57.3032776 71.5 81.1875 C72.3217082 93.52659365 76.59653068 101.66246215 84.125 111.25 C96.62441456 127.57902242 102.86940249 142.50070471 100.8125 163.4296875 C100.07278944 168.51519762 98.90624477 173.04012833 97 177.8125 C94.38075363 184.78387818 93.66149308 190.50059255 96.41796875 197.5625 C99.12717059 203.11729371 102.21705199 208.42357594 105.328125 213.76000977 C112.22547725 225.63574476 115.70615028 236.78823631 112.31640625 250.52734375 C108.10390572 261.61977593 100.08381047 270.54161025 91.97265625 278.99609375 C90.05531819 281.33500297 89.08542448 283.39889698 88.125 286.25 C88.63289062 286.6625 89.14078125 287.075 89.6640625 287.5 C90.35242188 288.0775 91.04078125 288.655 91.75 289.25 C92.42289063 289.806875 93.09578125 290.36375 93.7890625 290.9375 C100.34217592 297.42486312 103.49472947 303.89856407 106.125 312.6875 C106.45822266 313.76700928 106.79144531 314.84651855 107.13476562 315.95874023 C109.52232507 323.85240894 111.65523204 331.80493903 113.625 339.8125 C113.88023437 340.83980225 114.13546875 341.86710449 114.3984375 342.92553711 C115.71419647 348.51427877 116.39802305 353.50969041 116.125 359.25 C86.9652042 376.66650655 56.67804518 389.22889489 23.125 395.25 C22.29371582 395.41226074 21.46243164 395.57452148 20.60595703 395.74169922 C-7.11993058 401.03765528 -39.20751622 400.65049548 -66.875 395.25 C-67.77202637 395.08902832 -68.66905273 394.92805664 -69.59326172 394.76220703 C-98.20269173 389.58535728 -125.53534057 379.1770498 -150.8125 364.875 C-151.52293457 364.48256104 -152.23336914 364.09012207 -152.96533203 363.68579102 C-157.65894611 360.90712889 -157.65894611 360.90712889 -158.62792969 357.95996094 C-158.90774682 354.89082046 -158.51634961 352.59702295 -157.80078125 349.6015625 C-157.54731934 348.52108643 -157.29385742 347.44061035 -157.03271484 346.32739258 C-156.75379395 345.18810303 -156.47487305 344.04881348 -156.1875 342.875 C-155.9085791 341.70412842 -155.6296582 340.53325684 -155.34228516 339.3269043 C-153.59987602 332.06619595 -151.80739423 324.82117262 -149.78515625 317.6328125 C-149.13839786 315.22898091 -148.57080171 312.80323876 -148.05859375 310.3671875 C-146.07724199 301.16789186 -142.78626581 295.63805378 -135.875 289.25 C-134.53823762 287.92010455 -133.20379565 286.58785562 -131.875 285.25 C-132.37128906 284.70214844 -132.86757812 284.15429688 -133.37890625 283.58984375 C-144.980463 270.05102516 -150.36423695 254.57192491 -149.21240234 236.81689453 C-148.41297778 230.73502057 -145.68010384 225.45069814 -142.83740234 220.08740234 C-141.29901862 217.15034606 -139.94215525 214.13980222 -138.5625 211.125 C-137.85673828 209.63613281 -137.85673828 209.63613281 -137.13671875 208.1171875 C-133.93011473 200.83035359 -132.30749555 194.31704927 -134.71484375 186.53515625 C-136.57819778 181.96146909 -138.73543748 177.53855269 -140.8828125 173.09375 C-148.03164834 158.26818974 -153.79395291 142.86661265 -148.3125 126.375 C-147.55168052 124.64303212 -146.73869458 122.93303022 -145.875 121.25 C-145.45863281 120.40824219 -145.04226562 119.56648438 -144.61328125 118.69921875 C-140.96702073 112.23930839 -136.14719122 107.37350991 -130.875 102.25 C-117.7608048 89.48115023 -111.35689176 75.50242574 -107.4375 57.8125 C-103.19654613 38.99750138 -96.11116376 24.56994009 -79.46875 13.7734375 C-71.21473449 8.92544646 -63.2429976 5.29713117 -53.875 3.25 C-52.58529297 2.94255859 -52.58529297 2.94255859 -51.26953125 2.62890625 C-40.79420659 0.38529905 -30.00197302 0.70284043 -19.4375 2.2265625 C-16.72791628 2.37808802 -16.72791628 2.37808802 -13.6796875 1.2890625 C-9.01512066 0.01516642 -4.80711235 -0.04350328 0 0 Z " fill="#471B18" transform="translate(277.875,113.75)"/>
<path d="M0 0 C1.69524679 3.22793567 2.99697762 6.53942426 4.3125 9.9375 C6.24812208 14.60910401 7.98376836 17.78701469 12 21 C12.78375 21.70125 13.5675 22.4025 14.375 23.125 C19.82497795 27.01784139 25.27829352 28.40128132 31.8125 29.375 C39.38938532 30.68762765 46.67562086 32.12269538 51.90234375 38.21875 C57.80439448 46.77325177 58.32897462 56.14712302 56.61914062 66.25048828 C55.61941884 70.89307383 54.33170248 75.44333127 53 80 C50.70026529 88.28494169 51.85522937 95.4868896 56 103 C58.74917577 106.85418428 61.64569535 110.64569535 65 114 C64.64864545 119.79735012 63.36005103 124.16712903 60.5 129.25 C60.14542725 129.89404785 59.79085449 130.5380957 59.42553711 131.20166016 C54.18098499 140.48938939 46.26878562 154.20410534 36.2019043 158.82543945 C33.87454703 160.00497767 32.59027998 160.90759599 31 163 C29.96143911 168.09398616 30.01897971 173.14073958 30.0625 178.3125 C30.04938364 179.73505868 30.03314006 181.15759219 30.01367188 182.58007812 C29.97292277 186.05382969 29.97494808 189.52602857 30 193 C32.64 193.66 35.28 194.32 38 195 C36.21666086 216.5571389 34.40750692 238.11214139 32.59134483 259.66653728 C32.26704586 263.51536847 31.94307062 267.36422606 31.62005615 271.21316528 C29.8345252 292.48377632 27.96101032 313.74481827 26 335 C23.19462697 335.93512434 21.51834636 336.12182907 18.62036133 336.11352539 C17.73967484 336.11344986 16.85898834 336.11337433 15.95161438 336.11329651 C15.00465195 336.10813522 14.05768951 336.10297394 13.08203125 336.09765625 C12.10965012 336.0962413 11.13726898 336.09482635 10.13542175 336.09336853 C7.02774996 336.08776817 3.92015004 336.07521562 0.8125 336.0625 C-1.29361875 336.05748505 -3.39973863 336.05292213 -5.50585938 336.04882812 C-10.67060064 336.03779862 -15.83528813 336.02053375 -21 336 C-19.68 335.67 -18.36 335.34 -17 335 C-17.15033691 333.7931958 -17.30067383 332.5863916 -17.45556641 331.34301758 C-20.74859632 304.86545454 -23.90588717 278.37637663 -26.87597656 251.8605957 C-27.12039104 249.67919343 -27.36485642 247.49779686 -27.609375 245.31640625 C-27.72742493 244.26306595 -27.84547485 243.20972565 -27.96710205 242.12446594 C-28.7112692 235.50606575 -29.47703054 228.89059398 -30.265625 222.27734375 C-30.36193207 221.46866348 -30.45823914 220.65998322 -30.5574646 219.82679749 C-30.99494923 216.16075013 -31.43631754 212.49522323 -31.88330078 208.83032227 C-32.0326709 207.58694092 -32.18204102 206.34355957 -32.3359375 205.0625 C-32.46532715 204.00160156 -32.5947168 202.94070313 -32.72802734 201.84765625 C-32.98000461 199.20935925 -33.05181439 196.6480199 -33 194 C-31.35 193.67 -29.7 193.34 -28 193 C-26.30943267 175.08237253 -26.30943267 175.08237253 -31.64453125 158.9453125 C-34.29011752 156.61036258 -37.25250839 154.83247521 -40.30957031 153.08642578 C-43.21121902 151.22155912 -45.14984267 148.88579362 -47.375 146.25 C-48.10460937 145.40953125 -48.83421875 144.5690625 -49.5859375 143.703125 C-51.49874625 140.04659557 -50.94287211 137.95470054 -50 134 C-49.51435242 132.46756801 -48.99573567 130.94500599 -48.4375 129.4375 C-43.77146713 114.03035185 -48.92195717 97.02516236 -53.25 82.0625 C-55.54201581 73.65235433 -56.98924483 65.16269544 -53 57.0625 C-48.65422259 50.42311785 -42.08264548 47.03591499 -35.4375 43 C-19.15529831 33.01757095 -8.20016294 17.08013213 0 0 Z " fill="#F0C8A4" transform="translate(255,176)"/>
<path d="M0 0 C2.05241687 14.50086907 3.8451121 29.01410075 5.44839478 43.57113647 C7.09975112 58.55542025 8.78372355 73.5337171 10.6875 88.48828125 C10.82451828 89.56625977 10.96153656 90.64423828 11.10270691 91.75488281 C11.75278033 96.85147003 12.41205626 101.94668053 13.08325195 107.04052734 C14.55344538 118.35764183 15.55302438 129.59553551 16 141 C-20.12048801 142.78552903 -74.24961655 128.09099222 -102 104 C-103.20521966 100.1066658 -102.86304053 97.27504939 -101.92578125 93.3515625 C-101.67231934 92.27108643 -101.41885742 91.19061035 -101.15771484 90.07739258 C-100.87879395 88.93810303 -100.59987305 87.79881348 -100.3125 86.625 C-100.0335791 85.45412842 -99.7546582 84.28325684 -99.46728516 83.0769043 C-97.72487602 75.81619595 -95.93239423 68.57117262 -93.91015625 61.3828125 C-93.26339786 58.97898091 -92.69580171 56.55323876 -92.18359375 54.1171875 C-89.43303975 41.28814656 -83.01287418 34.53140997 -72.2956543 27.26123047 C-66.07851685 23.2440032 -59.48015462 19.9910912 -52.78955078 16.84619141 C-51.27556749 16.13030244 -49.77481699 15.3865296 -48.27734375 14.63671875 C-34.65528695 8.00918874 -15.40094906 0 0 0 Z " fill="#FD3A3F" transform="translate(222,370)"/>
<path d="M0 0 C20.98445163 4.59536996 41.72231893 11.49742475 61 21 C62.10988281 21.5465625 63.21976562 22.093125 64.36328125 22.65625 C69.35171619 25.24627185 73.25437978 27.73415475 77 32 C77.84498047 32.78503906 77.84498047 32.78503906 78.70703125 33.5859375 C79.31933594 34.15570313 79.93164062 34.72546875 80.5625 35.3125 C81.39974609 36.08013672 81.39974609 36.08013672 82.25390625 36.86328125 C87.49631057 43.27848296 89.59218873 51.3924502 91.9375 59.1875 C92.28232422 60.32429199 92.62714844 61.46108398 92.98242188 62.63232422 C95.1606512 69.92124955 97.19509228 77.23458935 99 84.625 C99.2074585 85.45797607 99.41491699 86.29095215 99.62866211 87.14916992 C100.81463415 92.22102677 101.19068274 96.79197779 101 102 C71.7945464 119.44377696 41.57504348 131.85706101 8 138 C7.29584961 138.12987305 6.59169922 138.25974609 5.86621094 138.39355469 C-0.1205564 139.47135395 -5.91441867 140.28305029 -12 140 C-12.19665204 131.75690808 -11.57746914 123.63232903 -10.86328125 115.42578125 C-10.74200848 113.99709842 -10.62107606 112.56838667 -10.50045776 111.13964844 C-10.17679337 107.31998502 -9.8476688 103.50081143 -9.51714706 99.68173599 C-9.2431825 96.5099988 -8.97206768 93.33802032 -8.70082951 90.166049 C-7.81196004 79.77636888 -6.90954157 69.38788943 -6 59 C-5.93566269 58.26519409 -5.87132538 57.53038818 -5.80503845 56.77331543 C-4.94442536 46.95196668 -4.07053336 37.13186115 -3.1875 27.3125 C-3.08281403 26.13902008 -2.97812805 24.96554016 -2.87026978 23.75650024 C-2.57710133 20.47927198 -2.27957838 17.20247193 -1.98046875 13.92578125 C-1.89529999 12.96873291 -1.81013123 12.01168457 -1.72238159 11.02563477 C-1.64150299 10.15132813 -1.56062439 9.27702148 -1.47729492 8.3762207 C-1.4087883 7.6221846 -1.34028168 6.8681485 -1.2696991 6.09126282 C-1.00011543 4.00089508 -0.55337335 2.03201681 0 0 Z " fill="#FD3A3F" transform="translate(293,371)"/>
<path d="M0 0 C1.92219322 2.88328982 3.20534397 5.65991188 4.625 8.8125 C8.72887408 17.08015873 14.3693304 20.97322982 23 24 C25.61597479 24.52799491 28.1794714 24.98262961 30.8125 25.375 C38.38938532 26.68762765 45.67562086 28.12269538 50.90234375 34.21875 C56.80439448 42.77325177 57.32897462 52.14712302 55.61914062 62.25048828 C54.61941884 66.89307383 53.33170248 71.44333127 52 76 C49.70026529 84.28494169 50.85522937 91.4868896 55 99 C57.74917577 102.85418428 60.64569535 106.64569535 64 110 C63.64864545 115.79735012 62.36005103 120.16712903 59.5 125.25 C59.14542725 125.89404785 58.79085449 126.5380957 58.42553711 127.20166016 C53.18098499 136.48938939 45.26878562 150.20410534 35.2019043 154.82543945 C32.87454703 156.00497767 31.59027998 156.90759599 30 159 C28.96143911 164.09398616 29.01897971 169.14073958 29.0625 174.3125 C29.04938364 175.73505868 29.03314006 177.15759219 29.01367188 178.58007812 C28.97292277 182.05382969 28.97494808 185.52602857 29 189 C31.64 189.66 34.28 190.32 37 191 C36.59376645 195.99900384 36.18473856 200.99776853 35.77319336 205.99633789 C35.63376518 207.69451815 35.49508198 209.39275976 35.35717773 211.09106445 C35.15807886 213.54134621 34.9562439 215.99139007 34.75390625 218.44140625 C34.6934462 219.19273331 34.63298615 219.94406036 34.57069397 220.71815491 C34.51070724 221.43837326 34.45072052 222.15859161 34.38891602 222.90063477 C34.33784195 223.52462662 34.28676788 224.14861847 34.23414612 224.79151917 C33.9076345 227.87119713 33.4379732 230.9341876 33 234 C22.11 234 11.22 234 0 234 C0 156.78 0 79.56 0 0 Z " fill="#E3B591" transform="translate(256,180)"/>
<path d="M0 0 C20.13 0 40.26 0 61 0 C59.85117953 17.2323071 59.85117953 17.2323071 59.24389648 24.13842773 C59.14126495 25.32677216 59.14126495 25.32677216 59.03656006 26.53912354 C58.81613635 29.08740379 58.59364689 31.63549867 58.37109375 34.18359375 C58.2154515 35.97818394 58.05994145 37.7727856 57.90455627 39.56739807 C57.49981584 44.23787707 57.09330785 48.9082005 56.68640137 53.57849121 C56.26966109 58.36538386 55.85463433 63.15242505 55.43945312 67.93945312 C54.62795654 77.29311295 53.81458811 86.64660894 53 96 C50.19462697 96.93512434 48.51834636 97.12182907 45.62036133 97.11352539 C44.73967484 97.11344986 43.85898834 97.11337433 42.95161438 97.11329651 C42.00465195 97.10813522 41.05768951 97.10297394 40.08203125 97.09765625 C39.10965012 97.0962413 38.13726898 97.09482635 37.13542175 97.09336853 C34.02774996 97.08776817 30.92015004 97.07521562 27.8125 97.0625 C25.70638125 97.05748505 23.60026137 97.05292213 21.49414062 97.04882812 C16.32939936 97.03779862 11.16471187 97.02053375 6 97 C7.98 96.505 7.98 96.505 10 96 C9.83918945 94.70416992 9.67837891 93.40833984 9.51269531 92.07324219 C4.10125486 48.41262978 4.10125486 48.41262978 1.88269043 28.88537598 C1.71302143 27.39709512 1.54128132 25.90904868 1.36730957 24.42126465 C1.12665564 22.35701752 0.89422314 20.29200266 0.6640625 18.2265625 C0.53467285 17.08783691 0.4052832 15.94911133 0.27197266 14.77587891 C-0.08193432 9.86248095 0 4.92612724 0 0 Z " fill="#FEFEFE" transform="translate(228,415)"/>
</svg>
