<?xml version="1.0" encoding="UTF-8"?>
<svg version="1.1" xmlns="http://www.w3.org/2000/svg" width="512" height="512">
<path d="M0 0 C1.45108658 0.00273422 1.45108658 0.00273422 2.93148804 0.00552368 C17.26440977 0.05095174 31.21023917 0.55983928 45.3125 3.3125 C46.65803955 3.55395752 46.65803955 3.55395752 48.03076172 3.80029297 C107.84088904 14.62287989 165.35495829 48.68064457 202.3125 97.3125 C202.72918945 97.85277832 203.14587891 98.39305664 203.57519531 98.94970703 C211.2584873 108.9447116 218.00092968 119.40459036 224.3125 130.3125 C224.70679199 130.98974121 225.10108398 131.66698242 225.50732422 132.36474609 C238.68961173 155.2833756 247.29510918 180.85822563 252.625 206.6875 C252.77243652 207.39817627 252.91987305 208.10885254 253.07177734 208.84106445 C256.05713787 224.48358366 256.6873098 240.11919606 256.625 256 C256.62226578 257.45108658 256.62226578 257.45108658 256.61947632 258.93148804 C256.57404826 273.26440977 256.06516072 287.21023917 253.3125 301.3125 C253.15152832 302.20952637 252.99055664 303.10655273 252.82470703 304.03076172 C242.00212011 363.84088904 207.94435543 421.35495829 159.3125 458.3125 C158.77222168 458.72918945 158.23194336 459.14587891 157.67529297 459.57519531 C147.6802884 467.2584873 137.22040964 474.00092968 126.3125 480.3125 C125.63525879 480.70679199 124.95801758 481.10108398 124.26025391 481.50732422 C86.65686251 503.13596116 43.74617007 512.78895955 0.6875 512.625 C-0.83935928 512.62176727 -0.83935928 512.62176727 -2.39706421 512.61846924 C-17.00613523 512.56879854 -31.33825853 512.31790191 -45.6875 509.3125 C-47.14978027 509.01448486 -47.14978027 509.01448486 -48.64160156 508.71044922 C-108.22582385 496.24649799 -164.47712629 464.27705313 -201.6875 415.3125 C-202.10418945 414.77222168 -202.52087891 414.23194336 -202.95019531 413.67529297 C-210.6334873 403.6802884 -217.37592968 393.22040964 -223.6875 382.3125 C-224.08179199 381.63525879 -224.47608398 380.95801758 -224.88232422 380.26025391 C-238.06461173 357.3416244 -246.67010918 331.76677437 -252 305.9375 C-252.14743652 305.22682373 -252.29487305 304.51614746 -252.44677734 303.78393555 C-255.43213787 288.14141634 -256.0623098 272.50580394 -256 256.625 C-255.99817719 255.65760895 -255.99635437 254.6902179 -255.99447632 253.69351196 C-255.94904826 239.36059023 -255.44016072 225.41476083 -252.6875 211.3125 C-252.44604248 209.96696045 -252.44604248 209.96696045 -252.19970703 208.59423828 C-241.37712011 148.78411096 -207.31935543 91.27004171 -158.6875 54.3125 C-158.14722168 53.89581055 -157.60694336 53.47912109 -157.05029297 53.04980469 C-147.0552884 45.3665127 -136.59540964 38.62407032 -125.6875 32.3125 C-125.01025879 31.91820801 -124.33301758 31.52391602 -123.63525391 31.11767578 C-100.7166244 17.93538827 -75.14177437 9.32989082 -49.3125 4 C-48.60182373 3.85256348 -47.89114746 3.70512695 -47.15893555 3.55322266 C-31.51641634 0.56786213 -15.88080394 -0.0623098 0 0 Z " fill="#4ABB95" transform="translate(255.6875,-0.3125)"/>
<path d="M0 0 C0.3403125 0.77601562 0.680625 1.55203125 1.03125 2.3515625 C7.36805639 16.4745512 14.67952202 31.12416812 26.015625 41.93359375 C31.82504979 47.66733172 34.57698854 51.64939091 34.75366211 60.04101562 C34.65787958 64.05327883 34.39428428 68.00538253 34 72 C34.66 72 35.32 72 36 72 C36.99 69.03 37.98 66.06 39 63 C41.1875 62.1875 41.1875 62.1875 44 62 C47.08617938 64.52505586 48.73289132 66.19867395 50 70 C51.17485633 84.15605579 49.76972934 103.28045261 41 115 C37.58639978 117.83079043 36.50688733 118 32 118 C31.86464844 118.53625 31.72929687 119.0725 31.58984375 119.625 C26.82863093 136.95923588 18.45836893 152.76779805 6.04296875 165.81640625 C3.92156623 168.02600054 3.92156623 168.02600054 1.87109375 170.671875 C0 173 0 173 -2.125 174.6875 C-7.43217938 181.23302124 -6.36581604 192.1441425 -6.375 200.125 C-6.41173828 201.81689453 -6.41173828 201.81689453 -6.44921875 203.54296875 C-6.47328028 210.40050565 -5.77121262 215.23421168 -2 221 C-1.50757813 221.81726563 -1.01515625 222.63453125 -0.5078125 223.4765625 C0.17667969 224.54003906 0.17667969 224.54003906 0.875 225.625 C15.4139577 249.66028957 17.04206397 277.34922189 10.4793396 304.1242218 C9.9862264 306.08281453 9.4931132 308.04140727 9 310 C3.85881945 310.04966586 -1.28221951 310.08584495 -6.42358398 310.10986328 C-8.17035355 310.11988268 -9.9171065 310.13350195 -11.66381836 310.15087891 C-14.18347285 310.17530669 -16.70290439 310.18652389 -19.22265625 310.1953125 C-19.99585709 310.20563507 -20.76905792 310.21595764 -21.56568909 310.22659302 C-26.39910738 310.22757938 -30.34220629 309.42556077 -35 308 C-37.3357361 307.80635528 -37.3357361 307.80635528 -39.48046875 307.98046875 C-40.25197266 308.00947266 -41.02347656 308.03847656 -41.81835938 308.06835938 C-43.41010219 308.1484058 -45.00131445 308.23972692 -46.59179688 308.34179688 C-48.82688896 308.41498629 -50.80539877 308.4364296 -53 308 C-55.36328125 305.55078125 -55.36328125 305.55078125 -57 303 C-60.36551123 301.87816292 -63.09060232 301.79199032 -66.63671875 301.68359375 C-67.93544922 301.64169922 -69.23417969 301.59980469 -70.57226562 301.55664062 C-71.94400761 301.51683013 -73.31575244 301.47711784 -74.6875 301.4375 C-76.07097645 301.39429165 -77.45444027 301.35067661 -78.83789062 301.30664062 C-82.22515719 301.20041972 -85.61249799 301.09837642 -89 301 C-89.27585938 300.35546875 -89.55171875 299.7109375 -89.8359375 299.046875 C-90.84757889 296.71229528 -90.84757889 296.71229528 -93.625 296.25 C-94.40875 296.1675 -95.1925 296.085 -96 296 C-99.41981276 279.3894809 -99.41981276 279.3894809 -95.08984375 271.5 C-91.44767188 263.14519714 -90.82856463 253.91010168 -91.3125 244.9375 C-91.57204388 234.40001849 -86.53363807 227.23104635 -80.8125 218.76171875 C-76.11915199 211.61043202 -76.77565195 204.28841415 -77 196 C-78.60509934 197.43645851 -80.20904424 198.87420706 -81.8125 200.3125 C-82.70582031 201.11300781 -83.59914062 201.91351563 -84.51953125 202.73828125 C-86.39926786 204.45224581 -88.22592747 206.17877604 -90 208 C-89.22373593 198.10263315 -86.09449045 188.69261515 -81.734375 179.8046875 C-80.81154262 177.86160684 -80.81154262 177.86160684 -81 175 C-82.61671533 173.62407206 -84.23803693 172.25328156 -85.87890625 170.90625 C-96.9259377 160.9781628 -105.50385351 146.6738039 -111 133 C-111.46535156 131.85660156 -111.93070313 130.71320313 -112.41015625 129.53515625 C-116 120.48555014 -116 120.48555014 -116 117 C-116.886875 117.103125 -117.77375 117.20625 -118.6875 117.3125 C-122 117 -122 117 -124.53515625 115.00390625 C-127.54331425 111.33786266 -128.57140192 108.14955101 -129.75 103.625 C-129.95753906 102.89539063 -130.16507813 102.16578125 -130.37890625 101.4140625 C-132.49467996 93.76997683 -133.20031695 86.34331538 -133.25 78.4375 C-133.270625 77.61314453 -133.29125 76.78878906 -133.3125 75.93945312 C-133.34474888 70.89653492 -132.91117226 67.31609994 -130 63 C-126.8125 61.625 -126.8125 61.625 -124 61 C-123.32880451 62.4562545 -122.66318193 63.91507867 -122 65.375 C-121.62875 66.18710938 -121.2575 66.99921875 -120.875 67.8359375 C-120 70 -120 70 -120 72 C-119.34 72 -118.68 72 -118 72 C-118 66.06 -118 60.12 -118 54 C-116.47890625 53.81824219 -114.9578125 53.63648438 -113.390625 53.44921875 C-98.00686647 51.66984794 -98.00686647 51.66984794 -83 48 C-81.92468018 47.6599292 -81.92468018 47.6599292 -80.82763672 47.31298828 C-58.50633767 40.15417423 -38.4168121 29.5314087 -20 15 C-19.11441406 14.30777344 -18.22882813 13.61554688 -17.31640625 12.90234375 C-12.59316903 9.17120202 -8.02814106 5.32091638 -3.59375 1.25 C-2 0 -2 0 0 0 Z " fill="#F3B281" transform="translate(298,123)"/>
<path d="M0 0 C0.66 0 1.32 0 2 0 C2.433125 0.928125 2.86625 1.85625 3.3125 2.8125 C5.13902021 6.3979688 5.13902021 6.3979688 8 9 C8.94617188 8.99226562 9.89234375 8.98453125 10.8671875 8.9765625 C14 10 14 10 15.09350586 11.78881836 C16.10829802 14.35322195 16.9751908 16.9347598 17.8125 19.5625 C22.72213888 33.60965502 29.12232961 45.78067753 39 57 C40.07507813 58.25490234 40.07507813 58.25490234 41.171875 59.53515625 C45.19876502 64.19376681 45.19876502 64.19376681 50 68 C49.33254673 72.33432616 47.77570161 76.12258011 46.0625 80.125 C43.47956681 86.32847452 41.80815513 92.29788593 41 99 C41.60328125 98.37351562 42.2065625 97.74703125 42.828125 97.1015625 C43.62734375 96.28429687 44.4265625 95.46703125 45.25 94.625 C46.03890625 93.81289063 46.8278125 93.00078125 47.640625 92.1640625 C49.73379455 90.24416857 51.40397179 89.08366315 54 88 C54.58727791 103.29097662 51.37529437 111.49449349 42.65625 123.9140625 C39.54547231 128.95796632 39.83203965 133.84160189 39.99731445 139.57495117 C40.19167964 148.56875867 39.19816685 158.50903407 34.8125 166.5 C32.70138285 170.57664001 32.58840714 173.56566934 33 178 C33.07863281 178.97324219 33.15726563 179.94648438 33.23828125 180.94921875 C33.46875282 183.63576053 33.72389315 186.31781919 34 189 C35.65 189 37.3 189 39 189 C39.99 191.475 39.99 191.475 41 194 C42.27846802 193.97643433 42.27846802 193.97643433 43.58276367 193.95239258 C46.76031226 193.90111038 49.93764913 193.86357518 53.11547852 193.83520508 C54.48794517 193.82016568 55.86036414 193.79972867 57.23266602 193.77368164 C59.21088656 193.73708779 61.18946514 193.72183302 63.16796875 193.70703125 C64.35672607 193.6913208 65.5454834 193.67561035 66.77026367 193.65942383 C70.34380869 194.03625468 72.15676068 194.84080559 75 197 C75.66 197.99 76.32 198.98 77 200 C79.96162175 200.16966074 82.73644239 200.18692805 85.6875 200.0625 C87.27438795 200.00171456 88.8616871 199.95079496 90.44921875 199.91015625 C91.50629028 199.86580444 91.50629028 199.86580444 92.5847168 199.82055664 C95 200 95 200 98.23583984 200.97973633 C102.5234331 202.14187488 106.36217535 202.34810224 110.77734375 202.4140625 C111.58869278 202.43342865 112.40004181 202.4527948 113.23597717 202.4727478 C115.80304772 202.53206966 118.37016429 202.57873736 120.9375 202.625 C122.68816956 202.66322352 124.43882119 202.70227774 126.18945312 202.7421875 C130.45948816 202.83773156 134.7296111 202.92193537 139 203 C139.22417603 201.13855347 139.22417603 201.13855347 139.45288086 199.23950195 C139.85990118 195.85980704 140.46814162 192.55408344 141.15576172 189.21875 C146.48990747 162.58003893 141.5707247 135.93768954 126.76953125 113.1015625 C126.41246094 112.57304687 126.05539062 112.04453125 125.6875 111.5 C123.4953071 108.25230681 122.87352758 105.82083239 122.90234375 101.98828125 C122.90556641 101.23095703 122.90878906 100.47363281 122.91210938 99.69335938 C122.92048828 98.90767578 122.92886719 98.12199219 122.9375 97.3125 C122.94201172 96.51521484 122.94652344 95.71792969 122.95117188 94.89648438 C122.9629415 92.93095743 122.98087652 90.96546915 123 89 C139.56689773 98.5231487 149.456678 119.01659098 154.375 136.875 C154.96194053 139.23921839 155.49941037 141.61600382 156 144 C156.17515137 144.79833252 156.35030273 145.59666504 156.53076172 146.41918945 C158.03074362 153.78060823 158.38330964 160.93596834 158.375 168.4375 C158.37628906 169.65147461 158.37757813 170.86544922 158.37890625 172.11621094 C158.25546904 182.76828108 156.65543773 192.71017881 154 203 C154.78375 203.268125 155.5675 203.53625 156.375 203.8125 C159 205 159 205 161 208 C161.24050903 210.79045105 161.24050903 210.79045105 161.22705078 214.21557617 C161.22682419 216.13722847 161.22682419 216.13722847 161.22659302 218.09770203 C161.21637973 219.49612584 161.20594774 220.89454808 161.1953125 222.29296875 C161.19158178 223.72357485 161.18873509 225.15418352 161.18673706 226.58479309 C161.17910522 230.34792144 161.15946069 234.11089511 161.1373291 237.8739624 C161.11686094 241.71478178 161.10773327 245.55562617 161.09765625 249.39648438 C161.07621429 256.93106006 161.04208387 264.46550834 161 272 C158.93912164 272.64383284 156.87744089 273.28509757 154.81542969 273.92529297 C153.66741882 274.28267548 152.51940796 274.64005798 151.33660889 275.00827026 C147.01108167 276.29393308 142.67764364 277.27067279 138.25 278.125 C137.4971875 278.28097656 136.744375 278.43695313 135.96875 278.59765625 C120.13149467 281.7288783 104.47679195 282.37381268 88.375 282.3125 C87.35709381 282.31034485 86.33918762 282.3081897 85.29043579 282.30596924 C30.6804437 282.1202958 30.6804437 282.1202958 14 271 C13.61231995 268.22505188 13.61231995 268.22505188 13.59594727 264.6418457 C13.58908401 263.9895549 13.58222076 263.3372641 13.57514954 262.66520691 C13.55680278 260.50184535 13.56073229 258.33920419 13.56640625 256.17578125 C13.56184571 254.67082991 13.55654052 253.16588066 13.55052185 251.66093445 C13.5415735 248.5008399 13.54403033 245.34099777 13.55395508 242.1809082 C13.56540291 238.14347106 13.54530769 234.10691397 13.51603794 230.06959248 C13.49762397 226.95788584 13.49797941 223.84638761 13.50367546 220.73464012 C13.50382828 219.2471818 13.49781648 217.759709 13.48538399 216.27230263 C13.38252263 201.9377381 13.38252263 201.9377381 18 196 C18.66 196 19.32 196 20 196 C19.505 190.06 19.505 190.06 19 184 C18.09121094 184.47050781 17.18242187 184.94101562 16.24609375 185.42578125 C2.75573314 192.19724972 -9.86143412 194.62980166 -25 194 C-22.97262291 191.97262291 -21.35040753 191.09237419 -18.8125 189.8125 C-8.51044922 184.10014492 -3.79062993 175.72137132 0.15625 164.80078125 C1.25061567 159.87106924 1.25266801 155.21915636 1.1875 150.1875 C1.18685547 149.25357422 1.18621094 148.31964844 1.18554688 147.35742188 C1.11992955 136.85135979 -0.12052004 127.56319565 -3.1875 117.5 C-3.49921143 116.44901123 -3.81092285 115.39802246 -4.13208008 114.31518555 C-5.77888404 108.81873169 -7.53027797 103.37633997 -9.43432617 97.96411133 C-19.36129699 69.60547474 -20.59088753 40.69711838 -8 13 C-2.858742 2.858742 -2.858742 2.858742 0 0 Z " fill="#212222" transform="translate(168,230)"/>
<path d="M0 0 C2.09526142 -0.00217853 4.18998798 -0.02037143 6.28515625 -0.03930664 C17.71497129 -0.08902494 28.89527477 0.67071433 39.61328125 4.93530273 C40.2872998 5.19625732 40.96131836 5.45721191 41.65576172 5.72607422 C47.05818766 7.89654079 51.76851169 10.59284792 56.36328125 14.18530273 C57.87921875 15.26811523 57.87921875 15.26811523 59.42578125 16.37280273 C79.87549591 34.16008917 84.53031237 66.77632631 86.36328125 92.18530273 C86.68284064 101.51690525 86.56770467 110.85206311 86.36328125 120.18530273 C85.37328125 120.18530273 84.38328125 120.18530273 83.36328125 120.18530273 C83.05583984 121.1250293 83.05583984 121.1250293 82.7421875 122.08374023 C82.33806641 123.30963867 82.33806641 123.30963867 81.92578125 124.56030273 C81.65894531 125.37241211 81.39210938 126.18452148 81.1171875 127.02124023 C80.36328125 129.18530273 80.36328125 129.18530273 79.36328125 131.18530273 C78.70328125 131.18530273 78.04328125 131.18530273 77.36328125 131.18530273 C77.38011963 130.63181152 77.39695801 130.07832031 77.41430664 129.50805664 C78.08264829 116.7239399 78.08264829 116.7239399 72.48828125 105.87280273 C71.67617188 105.13803711 70.8640625 104.40327148 70.02734375 103.64624023 C66.83993685 100.70186143 64.39751343 97.50434349 61.86328125 93.99780273 C61.17214233 93.04550781 61.17214233 93.04550781 60.46704102 92.07397461 C43.36328125 68.14254066 43.36328125 68.14254066 43.36328125 59.18530273 C42.41582031 59.9684082 42.41582031 59.9684082 41.44921875 60.76733398 C38.42988893 63.25153763 35.39960853 65.72193412 32.36328125 68.18530273 C31.81768555 68.6290625 31.27208984 69.07282227 30.70996094 69.5300293 C21.93872093 76.63642937 12.90084642 83.14457786 3.36328125 89.18530273 C2.35652344 89.82338867 1.34976563 90.46147461 0.3125 91.11889648 C-7.66289688 95.96457063 -16.00275632 99.69687399 -24.63671875 103.18530273 C-25.29768555 103.45761719 -25.95865234 103.72993164 -26.63964844 104.01049805 C-35.44440941 107.58513591 -44.21483544 109.9040475 -53.57421875 111.56030273 C-54.52111572 111.72812256 -55.4680127 111.89594238 -56.44360352 112.06884766 C-62.57895216 113.06619839 -68.4224697 113.33178549 -74.63671875 113.18530273 C-74.63671875 119.12530273 -74.63671875 125.06530273 -74.63671875 131.18530273 C-75.29671875 131.18530273 -75.95671875 131.18530273 -76.63671875 131.18530273 C-77.30791424 129.72904823 -77.97353682 128.27022406 -78.63671875 126.81030273 C-79.00796875 125.99819336 -79.37921875 125.18608398 -79.76171875 124.34936523 C-80.63671875 122.18530273 -80.63671875 122.18530273 -80.63671875 120.18530273 C-81.62671875 120.18530273 -82.61671875 120.18530273 -83.63671875 120.18530273 C-84.39881055 95.2326585 -83.93721511 68.70674154 -74.63671875 45.18530273 C-74.24613281 44.10893555 -73.85554687 43.03256836 -73.453125 41.92358398 C-70.7730194 34.92016049 -67.21068731 29.10705321 -62.63671875 23.18530273 C-62.21519531 22.61038086 -61.79367188 22.03545898 -61.359375 21.44311523 C-51.30502622 8.37584712 -34.38427648 2.86688507 -18.734375 0.62670898 C-12.50675711 -0.02876102 -6.25522349 -0.00072533 0 0 Z " fill="#3F1C0A" transform="translate(254.63671875,63.814697265625)"/>
<path d="M0 0 C7.34995401 0.51233633 14.38930601 1.51225666 21.5625 3.1875 C22.98912964 3.51959473 22.98912964 3.51959473 24.44458008 3.85839844 C44.38435421 8.63554924 65.15351373 15.5443871 81 29 C81.67289062 29.56203125 82.34578125 30.1240625 83.0390625 30.703125 C91.52773819 38.43323818 93.98635213 48.64331016 96.0625 59.5625 C96.3114502 60.8194165 96.56040039 62.07633301 96.81689453 63.37133789 C99.03207323 74.73930362 101.17731402 86.16983828 102.69042969 97.65576172 C102.93794584 99.53009144 103.25786362 101.39480776 103.6015625 103.25390625 C101.95801088 110.75661267 91.15437379 115.83878602 85.125 119.8125 C84.20662354 120.41924561 83.28824707 121.02599121 82.34204102 121.65112305 C34.35213866 153 34.35213866 153 14 153 C13.99635437 152.20708557 13.99270874 151.41417114 13.98895264 150.597229 C13.95107592 143.12239856 13.89422776 135.64806671 13.81609726 128.17355728 C13.77659821 124.33085682 13.74442198 120.48838633 13.72900391 116.64550781 C13.71385278 112.93641985 13.6794362 109.22796401 13.63169098 105.51915741 C13.61686096 104.10464728 13.60895805 102.69004691 13.60811615 101.27545929 C13.60575002 99.29323296 13.57640694 97.31109451 13.54589844 95.32910156 C13.53701599 94.20103088 13.52813354 93.07296021 13.51898193 91.91070557 C12.88710444 88.36682625 11.77663828 87.213643 9 85 C8.34 84.67 7.68 84.34 7 84 C7.52234506 79.4730095 8.17886003 75.02657254 9.015625 70.546875 C12.83951402 47.64544649 10.17531184 24.24988579 1 3 C0.67 2.01 0.34 1.02 0 0 Z " fill="#CC8598" transform="translate(315,349)"/>
<path d="M0 0 C5.72972039 10.2091085 4.34182592 28.58545332 2.31640625 39.77734375 C-0.76137442 49.70031296 -7.11407986 59.90959401 -16.22265625 65.3203125 C-18.11803635 66.2763596 -20.05591908 67.14733293 -22 68 C-8.4777008 68.67989214 3.44156872 66.29706674 15.48828125 60.20703125 C18 59 18 59 20 59 C20.98757063 63.07372885 21.38046243 66.81491327 21 71 C19.0625 73.25 19.0625 73.25 17 75 C15.85653902 78.43038294 15.879884 81.0563175 15.88647461 84.67456055 C15.88632858 85.347995 15.88618256 86.02142944 15.8860321 86.715271 C15.88672825 88.93911979 15.89450668 91.16288461 15.90234375 93.38671875 C15.90420899 94.92942764 15.90563239 96.47213711 15.90663147 98.0148468 C15.91044831 102.07383868 15.92027149 106.13279473 15.93133545 110.19177246 C15.94156748 114.33422359 15.94613293 118.4766805 15.95117188 122.61914062 C15.96189449 130.74611018 15.97896093 138.87305063 16 147 C14.2656022 146.53849505 12.532041 146.07384545 10.79882812 145.60791016 C9.8333606 145.34950348 8.86789307 145.0910968 7.87316895 144.82485962 C3.63513166 143.60815921 -0.42130066 142.04075382 -4.5 140.375 C-5.35384277 140.02800049 -6.20768555 139.68100098 -7.08740234 139.32348633 C-27.06947168 131.09654827 -45.71455535 121.16344279 -63.046875 108.19140625 C-65.86776986 106.03771637 -65.86776986 106.03771637 -68.453125 104.46484375 C-70.52053742 103.0689334 -71.66747422 102.10277682 -73 100 C-73.11279297 97.6015625 -73.11279297 97.6015625 -72.8046875 94.75 C-72.68955811 93.6789502 -72.57442871 92.60790039 -72.45581055 91.50439453 C-71.64563949 85.27558074 -70.71006311 79.07220012 -69.6875 72.875 C-69.52034988 71.85752182 -69.52034988 71.85752182 -69.349823 70.81948853 C-63.86032954 37.55213026 -63.86032954 37.55213026 -57 29 C-56.40960938 28.25878906 -55.81921875 27.51757812 -55.2109375 26.75390625 C-43.48619876 13.69372429 -26.14092522 7.596584 -10 2 C-8.89011719 1.5978125 -7.78023438 1.195625 -6.63671875 0.78125 C-4 0 -4 0 0 0 Z " fill="#CC8698" transform="translate(167,355)"/>
<path d="M0 0 C0.66 0 1.32 0 2 0 C2.433125 0.928125 2.86625 1.85625 3.3125 2.8125 C5.13902021 6.3979688 5.13902021 6.3979688 8 9 C8.94617188 8.99226562 9.89234375 8.98453125 10.8671875 8.9765625 C14 10 14 10 15.09350586 11.78881836 C16.10829802 14.35322195 16.9751908 16.9347598 17.8125 19.5625 C22.72213888 33.60965502 29.12232961 45.78067753 39 57 C40.07507813 58.25490234 40.07507813 58.25490234 41.171875 59.53515625 C45.19876502 64.19376681 45.19876502 64.19376681 50 68 C49.33254673 72.33432616 47.77570161 76.12258011 46.0625 80.125 C43.47956681 86.32847452 41.80815513 92.29788593 41 99 C41.60328125 98.37351562 42.2065625 97.74703125 42.828125 97.1015625 C43.62734375 96.28429687 44.4265625 95.46703125 45.25 94.625 C46.03890625 93.81289063 46.8278125 93.00078125 47.640625 92.1640625 C49.73379455 90.24416857 51.40397179 89.08366315 54 88 C54.58727791 103.29097662 51.37529437 111.49449349 42.65625 123.9140625 C39.54435271 128.95978167 39.83604542 133.84247659 39.99511719 139.57714844 C40.31588361 155.00957766 36.21453292 167.28518375 25.58203125 178.640625 C11.54420543 191.46792726 -6.70874055 194.48064623 -25 194 C-22.97262291 191.97262291 -21.35040753 191.09237419 -18.8125 189.8125 C-8.51044922 184.10014492 -3.79062993 175.72137132 0.15625 164.80078125 C1.25061567 159.87106924 1.25266801 155.21915636 1.1875 150.1875 C1.18685547 149.25357422 1.18621094 148.31964844 1.18554688 147.35742188 C1.11992955 136.85135979 -0.12052004 127.56319565 -3.1875 117.5 C-3.49921143 116.44901123 -3.81092285 115.39802246 -4.13208008 114.31518555 C-5.77888404 108.81873169 -7.53027797 103.37633997 -9.43432617 97.96411133 C-19.36129699 69.60547474 -20.59088753 40.69711838 -8 13 C-2.858742 2.858742 -2.858742 2.858742 0 0 Z " fill="#3F1D0B" transform="translate(168,230)"/>
<path d="M0 0 C3.90553833 1.50014055 5.40548934 3.69002379 7.6875 7.125 C14.37968305 16.57060891 24.14833473 25.83229979 36 28 C45.76123621 29.04462352 53.21038711 26.38375544 60.875 20.375 C61.92300781 19.48941406 61.92300781 19.48941406 62.9921875 18.5859375 C65 17 65 17 67.1328125 16.0390625 C69.54050522 14.69921676 69.8459999 13.48153405 71 11 C72.5052421 9.05459685 74.0503094 7.13962873 75.625 5.25 C76.44226563 4.26515625 77.25953125 3.2803125 78.1015625 2.265625 C78.72804688 1.51796875 79.35453125 0.7703125 80 0 C83.23006434 1.04127074 84.02262209 2.03834841 85.78125 5.01953125 C86.37012851 6.27649905 86.94219269 7.54143865 87.5 8.8125 C87.80188232 9.48394043 88.10376465 10.15538086 88.41479492 10.84716797 C99.52063039 36.13567709 98.59629372 60.80022894 92 87 C86.85881945 87.04966586 81.71778049 87.08584495 76.57641602 87.10986328 C74.82964645 87.11988268 73.0828935 87.13350195 71.33618164 87.15087891 C68.81652715 87.17530669 66.29709561 87.18652389 63.77734375 87.1953125 C63.00414291 87.20563507 62.23094208 87.21595764 61.43431091 87.22659302 C56.60089262 87.22757938 52.65779371 86.42556077 48 85 C45.6642639 84.80635528 45.6642639 84.80635528 43.51953125 84.98046875 C42.36227539 85.02397461 42.36227539 85.02397461 41.18164062 85.06835938 C39.58989781 85.1484058 37.99868555 85.23972692 36.40820312 85.34179688 C34.17311104 85.41498629 32.19460123 85.4364296 30 85 C27.63671875 82.55078125 27.63671875 82.55078125 26 80 C22.63448877 78.87816292 19.90939768 78.79199032 16.36328125 78.68359375 C15.06455078 78.64169922 13.76582031 78.59980469 12.42773438 78.55664062 C11.05599239 78.51683013 9.68424756 78.47711784 8.3125 78.4375 C6.92902355 78.39429165 5.54555973 78.35067661 4.16210938 78.30664062 C0.77484281 78.20041972 -2.61249799 78.09837642 -6 78 C-6.27585938 77.35546875 -6.55171875 76.7109375 -6.8359375 76.046875 C-7.84757889 73.71229528 -7.84757889 73.71229528 -10.625 73.25 C-11.40875 73.1675 -12.1925 73.085 -13 73 C-16.41981276 56.3894809 -16.41981276 56.3894809 -12.08984375 48.5 C-8.43984406 40.12724086 -7.81911119 30.81098563 -8.25 21.8125 C-8.47900855 13.22892033 -5.76462279 7.95840595 -1 1 C-0.67 0.67 -0.34 0.34 0 0 Z " fill="#CC8598" transform="translate(215,346)"/>
<path d="M0 0 C8.48394783 5.32775738 14.81677569 12.5120978 18.30859375 21.96484375 C20.4559745 31.39148129 20.38798377 43.25504294 16 52 C10.98306292 59.93376097 4.63364372 66.22126849 -4 70 C-8.25597949 70.54284648 -12.48721123 70.51546273 -16.77563477 70.50097656 C-18.79784965 70.50000702 -20.8162251 70.54161893 -22.83789062 70.5859375 C-32.99483702 70.60612021 -38.95404313 68.52999472 -46.625 62.0625 C-54.80262817 53.11881767 -57.97561467 43.82085896 -57.69116211 31.91162109 C-57.07189106 21.56109751 -53.44133198 13.46712934 -46.24609375 5.97265625 C-33.60549561 -5.12908647 -15.0598661 -8.22108633 0 0 Z " fill="#333032" transform="translate(275,441)"/>
<path d="M0 0 C0.63164062 0.42410156 1.26328125 0.84820312 1.9140625 1.28515625 C20.47451537 13.50536564 20.47451537 13.50536564 42 16 C54.06229771 13.20662579 64.69791777 7.73597684 75 1 C74.93143799 1.56960449 74.86287598 2.13920898 74.79223633 2.72607422 C73.99899604 9.86310633 73.74944915 16.94715831 73.6875 24.125 C73.65849609 25.25292969 73.62949219 26.38085938 73.59960938 27.54296875 C73.54622683 34.56482662 74.30856018 39.00052802 78 45 C78.33 45.66 78.66 46.32 79 47 C78.34 47.61875 77.68 48.2375 77 48.875 C74.50449022 51.34254889 72.43399147 54.01970494 70.3125 56.8125 C63.10651994 65.89771314 54.01644173 72.32785276 43 76 C31.73002194 77.26141039 23.48812855 72.96867833 14.6796875 66.28125 C8.47069628 60.99546156 3.31305163 54.9008826 -1 48 C-1.66 47.34 -2.32 46.68 -3 46 C-2.071875 44.7315625 -2.071875 44.7315625 -1.125 43.4375 C3.7301805 35.99977668 3.23365892 28.63239885 3 20 C1.39490066 21.43645851 -0.20904424 22.87420706 -1.8125 24.3125 C-2.70582031 25.11300781 -3.59914062 25.91351563 -4.51953125 26.73828125 C-6.39926786 28.45224581 -8.22592747 30.17877604 -10 32 C-9.10713055 20.61591456 -4.97929416 10.1830647 0 0 Z " fill="#E0A279" transform="translate(218,299)"/>
<path d="M0 0 C0.33 0 0.66 0 1 0 C1.66 5.94 2.32 11.88 3 18 C4.65 18 6.3 18 8 18 C8.66 19.65 9.32 21.3 10 23 C10.85231201 22.98428955 11.70462402 22.9685791 12.58276367 22.95239258 C15.76031226 22.90111038 18.93764913 22.86357518 22.11547852 22.83520508 C23.48794517 22.82016568 24.86036414 22.79972867 26.23266602 22.77368164 C28.21088656 22.73708779 30.18946514 22.72183302 32.16796875 22.70703125 C33.35672607 22.6913208 34.5454834 22.67561035 35.77026367 22.65942383 C39.33599222 23.03543043 41.15729777 23.85503752 44 26 C45.8125 28.6875 45.8125 28.6875 47 31 C46.46632812 31.14695312 45.93265625 31.29390625 45.3828125 31.4453125 C33.79730746 34.93299049 24.70958767 41.05481775 18.46484375 51.58984375 C14.76370344 58.76552394 12.62377822 65.09998497 12.6875 73.25 C12.69313965 74.00289307 12.6987793 74.75578613 12.70458984 75.53149414 C12.95729034 87.15946999 17.14632159 97.10375124 25.1875 105.625 C27.76849186 108.32259041 27.76849186 108.32259041 31 108 C29.96875 107.195625 28.9375 106.39125 27.875 105.5625 C20.43307566 99.12990548 15.62448936 90.82470302 14.8359375 80.94433594 C14.07531357 66.24527847 16.64789968 56.82236156 25.25 44.875 C28.80797383 41.15530009 32.55104888 38.55868594 37 36 C37.70511719 35.58234375 38.41023438 35.1646875 39.13671875 34.734375 C47.0366458 30.81887887 57.35187416 30.76810273 66 32 C68.26220703 33.02099609 68.26220703 33.02099609 70 34 C70 34.66 70 35.32 70 36 C70.86625 36.2475 71.7325 36.495 72.625 36.75 C76.22840494 38.08459442 78.89245454 39.75198839 82 42 C82.825 42.556875 83.65 43.11375 84.5 43.6875 C91.30146864 49.97885849 96.97262061 59.57516596 97.53125 68.9375 C97.54169892 70.6249998 97.53114913 72.31275536 97.5 74 C97.52320313 75.25683594 97.52320313 75.25683594 97.546875 76.5390625 C97.5079508 82.82532079 95.94897066 87.48471778 93 93 C92.54238281 93.85851562 92.08476562 94.71703125 91.61328125 95.6015625 C87.92971126 101.33156026 83.5863763 105.13919327 78 109 C78.66 109.66 79.32 110.32 80 111 C0.96309069 111.97539379 0.96309069 111.97539379 -17 100 C-17.38768005 97.22505188 -17.38768005 97.22505188 -17.40405273 93.6418457 C-17.41091599 92.9895549 -17.41777924 92.3372641 -17.42485046 91.66520691 C-17.44319722 89.50184535 -17.43926771 87.33920419 -17.43359375 85.17578125 C-17.43815429 83.67082991 -17.44345948 82.16588066 -17.44947815 80.66093445 C-17.4584265 77.5008399 -17.45596967 74.34099777 -17.44604492 71.1809082 C-17.43459709 67.14347106 -17.45469231 63.10691397 -17.48396206 59.06959248 C-17.50237603 55.95788584 -17.50202059 52.84638761 -17.49632454 49.73464012 C-17.49617172 48.2471818 -17.50218352 46.759709 -17.51461601 45.27230263 C-17.61747737 30.9377381 -17.61747737 30.9377381 -13 25 C-12.34 25 -11.68 25 -11 25 C-11.66 20.71 -12.32 16.42 -13 12 C-11.783125 11.13375 -10.56625 10.2675 -9.3125 9.375 C-5.56927999 6.58749574 -2.87204183 3.65532597 0 0 Z M27 49 C19.1970049 59.85707061 17.1763819 70.85497572 19 84 C21.73650234 94.02009065 28.1512668 102.07322707 36.7890625 107.64453125 C43.21779529 111.13521922 49.85159211 110.73012365 57 110.625 C58.97226562 110.65400391 58.97226562 110.65400391 60.984375 110.68359375 C71.14424638 110.63259038 77.26449452 108.49628691 84.75 101.75 C93.55382429 92.35380702 95.61181802 81.60959728 95.30859375 69.16796875 C94.76084348 59.02890675 89.37417395 51.11229683 82.15625 44.24609375 C72.68424892 36.50156828 61.90951208 34.76004966 50.02001953 35.73388672 C40.74205536 36.95614692 33.07610507 42.08166254 27 49 Z " fill="#232424" transform="translate(199,401)"/>
<path d="M0 0 C6.14793979 3.22625831 11.59742795 7.36118461 14.4609375 13.84765625 C16.4561054 21.44103054 16.34376102 29.75566711 13.0625 36.9375 C9.39336757 43.14204417 4.40756654 47.65551827 -2.5078125 49.90234375 C-9.94629508 51.38758532 -17.60224568 51.55915721 -24.23828125 47.56640625 C-30.12971744 43.27789065 -34.5681764 37.2954708 -36.875 30.375 C-37.41097366 23.32488488 -37.35657644 17.59210079 -33.875 11.375 C-33.33875 10.364375 -32.8025 9.35375 -32.25 8.3125 C-24.4028213 -1.39322102 -11.70271614 -4.86268033 0 0 Z " fill="#A4B4B7" transform="translate(266.875,450.625)"/>
<path d="M0 0 C16.56689773 9.5231487 26.456678 30.01659098 31.375 47.875 C31.96194053 50.23921839 32.49941037 52.61600382 33 55 C33.17515137 55.79833252 33.35030273 56.59666504 33.53076172 57.41918945 C35.03074362 64.78060823 35.38330964 71.93596834 35.375 79.4375 C35.37628906 80.65147461 35.37757813 81.86544922 35.37890625 83.11621094 C35.25546904 93.76828108 33.65543773 103.71017881 31 114 C26.05 113.67 21.1 113.34 16 113 C16.433125 110.958125 16.433125 110.958125 16.875 108.875 C22.76721328 78.78262501 20.7767007 50.34119537 3.76953125 24.1015625 C3.41246094 23.57304687 3.05539062 23.04453125 2.6875 22.5 C0.4953071 19.25230681 -0.12647242 16.82083239 -0.09765625 12.98828125 C-0.09443359 12.23095703 -0.09121094 11.47363281 -0.08789062 10.69335938 C-0.07951172 9.90767578 -0.07113281 9.12199219 -0.0625 8.3125 C-0.05798828 7.51521484 -0.05347656 6.71792969 -0.04882812 5.89648438 C-0.0370585 3.93095743 -0.01912348 1.96546915 0 0 Z " fill="#2A3131" transform="translate(291,319)"/>
<path d="M0 0 C0.33 0 0.66 0 1 0 C1.5 2.5625 1.5 2.5625 1 6 C-3.98227186 11.5855742 -10.66973489 15.7217458 -16.875 19.8125 C-17.78685059 20.41634521 -18.69870117 21.02019043 -19.63818359 21.64233398 C-50.74804299 42 -50.74804299 42 -61 42 C-61.67704411 38.48108123 -62.33974487 34.95960423 -63 31.4375 C-63.19078125 30.44685547 -63.3815625 29.45621094 -63.578125 28.43554688 C-64.55231597 23.19927041 -65.23904737 18.32627422 -65 13 C-61.5284446 11.49905322 -58.29752119 10.56964306 -54.57055664 9.94677734 C-53.50917984 9.76674164 -52.44780304 9.58670593 -51.35426331 9.4012146 C-50.21770798 9.21467316 -49.08115265 9.02813171 -47.91015625 8.8359375 C-46.7328746 8.63900299 -45.55559296 8.44206848 -44.34263611 8.23916626 C-41.85591761 7.82464967 -39.36872602 7.41296266 -36.88110352 7.00390625 C-33.07887945 6.37769762 -29.27865421 5.74029088 -25.47851562 5.1015625 C-23.0600075 4.69984797 -20.64139112 4.29878453 -18.22265625 3.8984375 C-17.08812515 3.7078476 -15.95359406 3.51725769 -14.78468323 3.32089233 C-13.72015427 3.14716095 -12.65562531 2.97342957 -11.55883789 2.79443359 C-10.62793839 2.64058197 -9.69703888 2.48673035 -8.7379303 2.32821655 C-5.80144554 1.97619777 -2.9547182 1.9446922 0 2 C0 1.34 0 0.68 0 0 Z " fill="#DDA27A" transform="translate(417,449)"/>
<path d="M0 0 C0.33 0.66 0.66 1.32 1 2 C3.88410739 2.55368559 3.88410739 2.55368559 7.5 2.8671875 C14.73000003 3.66430771 21.88907834 4.74332237 29.0625 5.9453125 C30.63922485 6.20909698 30.63922485 6.20909698 32.24780273 6.47821045 C35.49896727 7.02460964 38.74949146 7.57471325 42 8.125 C44.23953203 8.50160728 46.47911504 8.87791153 48.71875 9.25390625 C54.14642518 10.16578317 59.57346238 11.08137905 65 12 C65.08360039 16.84844941 65.13528513 21.48662327 64.125 26.25390625 C63.94453125 27.12724609 63.7640625 28.00058594 63.578125 28.90039062 C63.29195312 30.21813477 63.29195312 30.21813477 63 31.5625 C62.71382812 32.93245117 62.71382812 32.93245117 62.421875 34.33007812 C61.95588071 36.55520087 61.48183025 38.77826276 61 41 C57.59140668 42.13619777 57.26360872 41.96039542 54.18359375 40.515625 C53.05087036 39.98690796 53.05087036 39.98690796 51.89526367 39.44750977 C51.08420166 39.05233154 50.27313965 38.65715332 49.4375 38.25 C48.59485596 37.84386475 47.75221191 37.43772949 46.8840332 37.01928711 C32.73866128 30.05673062 19.59183657 21.45638587 7 12 C6.20207031 11.42378906 5.40414062 10.84757812 4.58203125 10.25390625 C2.625 8.75 2.625 8.75 0 6 C-0.4375 2.625 -0.4375 2.625 0 0 Z " fill="#DEA27A" transform="translate(94,449)"/>
<path d="M0 0 C8.48394783 5.32775738 14.81677569 12.5120978 18.30859375 21.96484375 C20.4559745 31.39148129 20.38798377 43.25504294 16 52 C10.98306292 59.93376097 4.63364372 66.22126849 -4 70 C-8.25597949 70.54284648 -12.48721123 70.51546273 -16.77563477 70.50097656 C-18.79784965 70.50000702 -20.8162251 70.54161893 -22.83789062 70.5859375 C-32.99483702 70.60612021 -38.95404313 68.52999472 -46.625 62.0625 C-54.80262817 53.11881767 -57.97561467 43.82085896 -57.69116211 31.91162109 C-57.07189106 21.56109751 -53.44133198 13.46712934 -46.24609375 5.97265625 C-33.60549561 -5.12908647 -15.0598661 -8.22108633 0 0 Z M-45 12 C-51.32167592 21.86899188 -53.08184265 30.45051912 -52 42 C-51.16046989 45.40609357 -49.89130789 48.05992949 -48 51 C-47.57589844 51.69480469 -47.15179688 52.38960938 -46.71484375 53.10546875 C-42.23707943 59.75351439 -35.67928042 64.61714853 -28 67 C-17.36209918 68.20358258 -7.74729176 67.8500086 1.09765625 61.4921875 C7.9370767 55.99508322 13.27850332 49.18113638 14.75 40.3828125 C15.64593218 31.84345887 15.28091878 25.56592937 11 18 C10.4225 16.96875 9.845 15.9375 9.25 14.875 C3.86839862 7.99850935 -2.36722266 2.96622557 -11 1 C-23.99358894 -0.37296092 -36.27064378 1.57432784 -45 12 Z " fill="#252122" transform="translate(275,441)"/>
<path d="M0 0 C4.41768968 0.35373136 8.56425165 0.64283709 12.9375 -0.25 C19.2271634 -1.26762585 25.61303828 2.15697804 31.3125 4.5 C31.3125 7.5 31.3125 7.5 29.9140625 8.9296875 C20.54194075 15.78282 11.20704519 21.05601597 -0.6875 19.5 C-8.38090429 16.76282948 -15.83646145 12.23283576 -21.6875 6.5 C-21.6875 5.84 -21.6875 5.18 -21.6875 4.5 C-20.10550369 3.85089846 -18.52184276 3.20585306 -16.9375 2.5625 C-16.05578125 2.20285156 -15.1740625 1.84320313 -14.265625 1.47265625 C-9.25112369 -0.41917833 -5.32966325 -0.46237394 0 0 Z " fill="#C26A53" transform="translate(250.6875,266.5)"/>
<path d="M0 0 C1.28317892 3.84953676 1.06643637 6.94738135 1 11 C-6.71843493 12.30961892 -14.43774836 13.61391879 -22.15821266 14.91151428 C-25.74345197 15.51426341 -29.32836818 16.11881139 -32.91259766 16.72753906 C-36.37428941 17.31538635 -39.83676134 17.89841848 -43.29981613 18.47817993 C-45.25786069 18.80725611 -47.21507511 19.14125943 -49.17227173 19.4753418 C-50.37306366 19.67554932 -51.57385559 19.87575684 -52.81103516 20.08203125 C-53.86360504 20.25968018 -54.91617493 20.4373291 -56.00064087 20.62036133 C-59.03424322 21.00433428 -61.94568889 21.06705795 -65 21 C-65.33 17.7 -65.66 14.4 -66 11 C-59.50181132 8.91742813 -52.90170833 7.90037865 -46.171875 6.8359375 C-44.33293671 6.54053574 -44.33293671 6.54053574 -42.45684814 6.23916626 C-39.21663763 5.71982731 -35.97583015 5.2044342 -32.73474121 4.69061279 C-29.43181903 4.16538336 -26.13008749 3.63279048 -22.828125 3.1015625 C-20.31777517 2.70010266 -17.80736068 2.29904692 -15.296875 1.8984375 C-14.1093866 1.7078476 -12.92189819 1.51725769 -11.69842529 1.32089233 C-10.60008362 1.14716095 -9.50174194 0.97342957 -8.37011719 0.79443359 C-6.91952911 0.56365616 -6.91952911 0.56365616 -5.43963623 0.32821655 C-3 0 -3 0 0 0 Z " fill="#C14F72" transform="translate(416,440)"/>
<path d="M0 0 C11.75272882 1.78456959 23.49337177 3.64639502 35.2331543 5.51391602 C37.55553867 5.88273344 39.87813397 6.25022486 42.20092773 6.61645508 C45.57586442 7.14871756 48.95010268 7.68521955 52.32421875 8.22265625 C53.36680344 8.38621109 54.40938812 8.54976593 55.48356628 8.71827698 C56.9219561 8.94872963 56.9219561 8.94872963 58.3894043 9.18383789 C59.23399704 9.31770401 60.07858978 9.45157013 60.94877625 9.5894928 C63 10 63 10 65 11 C65.125 17.625 65.125 17.625 64 21 C52.43137103 20.54358756 41.12318565 18.50385295 29.73120117 16.56152344 C26.4148543 15.99613927 23.09723516 15.43877418 19.77929688 14.8828125 C17.66398542 14.52649899 15.54874823 14.16974422 13.43359375 13.8125 C12.44507919 13.64580811 11.45656464 13.47911621 10.43809509 13.30737305 C9.51936111 13.15051025 8.60062714 12.99364746 7.65405273 12.83203125 C6.849431 12.69514893 6.04480927 12.5582666 5.21580505 12.41723633 C3.11782799 12.02218702 1.06459813 11.54117617 -1 11 C-1.125 3.375 -1.125 3.375 0 0 Z " fill="#C14F72" transform="translate(96,440)"/>
<path d="M0 0 C1.11246094 -0.00257813 2.22492188 -0.00515625 3.37109375 -0.0078125 C4.53769531 -0.00007813 5.70429688 0.00765625 6.90625 0.015625 C8.07285156 0.00789063 9.23945313 0.00015625 10.44140625 -0.0078125 C11.55386719 -0.00523437 12.66632813 -0.00265625 13.8125 0 C14.83666016 0.00225586 15.86082031 0.00451172 16.91601562 0.00683594 C19.40625 0.265625 19.40625 0.265625 21.40625 2.265625 C21.60477102 4.97485301 21.68464477 7.55865679 21.65625 10.265625 C21.66398437 11.00296875 21.67171875 11.7403125 21.6796875 12.5 C21.6595696 18.0123054 21.6595696 18.0123054 19.40625 20.265625 C15.44576178 20.72218297 11.4525119 20.58964542 7.46875 20.578125 C5.80295898 20.60229492 5.80295898 20.60229492 4.10351562 20.62695312 C3.03939453 20.62759766 1.97527344 20.62824219 0.87890625 20.62890625 C-0.09812256 20.63188721 -1.07515137 20.63486816 -2.08178711 20.63793945 C-4.59375 20.265625 -4.59375 20.265625 -6.41308594 18.96191406 C-8.37439232 16.144057 -7.98436155 13.00568142 -7.90625 9.703125 C-7.90947266 9.01798828 -7.91269531 8.33285156 -7.91601562 7.62695312 C-7.84524107 1.07065544 -6.33287847 0.01394907 0 0 Z " fill="#68B8CB" transform="translate(194.59375,428.734375)"/>
<path d="M0 0 C3.62645377 3.06566195 5.66763761 5.0497474 6.14453125 9.9140625 C5.77484483 14.42423683 4.730308 17.26473194 1.83203125 20.7265625 C-2.17929672 23.42984874 -5.36034775 24.4276739 -10.16796875 23.7265625 C-14.48259654 21.44234779 -17.33757112 19.30255657 -19.16796875 14.7265625 C-19.7209046 9.90812148 -19.84005603 4.9255568 -17.16796875 0.7265625 C-12.44152337 -2.37516728 -4.9023699 -2.87959025 0 0 Z " fill="#FCFDFD" transform="translate(254.16796875,455.2734375)"/>
<path d="M0 0 C6.96755589 5.54775205 12.17597072 13.64875518 13.6953125 22.4609375 C14.81245981 32.80602765 12.66381784 41.726916 6.7109375 50.328125 C1.08398494 57.05253285 -5.06176768 60.71329756 -13.3046875 63.4609375 C-16.23429207 63.61028989 -19.12441371 63.6920933 -22.0546875 63.7109375 C-22.84101563 63.7315625 -23.62734375 63.7521875 -24.4375 63.7734375 C-33.44227675 63.8332699 -40.35157798 60.05641432 -47.3046875 54.4609375 C-54.43241196 47.12821211 -57.67581743 38.62157375 -57.8046875 28.4609375 C-57.62800839 17.51700155 -54.33184088 10.61856956 -46.81640625 2.73046875 C-33.29060705 -9.49113208 -15.03925823 -10.04316566 0 0 Z M-48.3046875 6.4609375 C-54.62636342 16.32992938 -56.38653015 24.91145662 -55.3046875 36.4609375 C-54.46515739 39.86703107 -53.19599539 42.52086699 -51.3046875 45.4609375 C-50.88058594 46.15574219 -50.45648438 46.85054688 -50.01953125 47.56640625 C-45.54176693 54.21445189 -38.98396792 59.07808603 -31.3046875 61.4609375 C-20.66678668 62.66452008 -11.05197926 62.3109461 -2.20703125 55.953125 C4.6323892 50.45602072 9.97381582 43.64207388 11.4453125 34.84375 C12.34124468 26.30439637 11.97623128 20.02686687 7.6953125 12.4609375 C7.1178125 11.4296875 6.5403125 10.3984375 5.9453125 9.3359375 C0.56371112 2.45944685 -5.67191016 -2.57283693 -14.3046875 -4.5390625 C-27.29827644 -5.91202342 -39.57533128 -3.96473466 -48.3046875 6.4609375 Z " fill="#060506" transform="translate(278.3046875,446.5390625)"/>
<path d="M0 0 C5.50437554 3.91604827 9.31081512 8.47933246 12.48046875 14.42578125 C12.82319824 15.06676758 13.16592773 15.70775391 13.51904297 16.36816406 C16.38263164 22.16155156 17.09894882 27.00811103 16.98046875 33.42578125 C17.00367188 34.68261719 17.00367188 34.68261719 17.02734375 35.96484375 C16.98841955 42.25110204 15.42943941 46.91049903 12.48046875 52.42578125 C12.02285156 53.28429687 11.56523437 54.1428125 11.09375 55.02734375 C7.1677491 61.13445625 2.0135555 67.30366695 -5.296875 69.11328125 C-6.03035156 69.21640625 -6.76382813 69.31953125 -7.51953125 69.42578125 C-6.85953125 68.91015625 -6.19953125 68.39453125 -5.51953125 67.86328125 C3.82911582 60.26750551 11.42760785 53.83769408 13.48046875 41.42578125 C14.62896509 29.29061097 13.49780067 19.79605678 6.29296875 9.67578125 C0.69535783 2.92045549 -6.79893231 -2.07363614 -15.51953125 -3.57421875 C-28.12599612 -4.7031559 -38.63027131 -3.54400254 -48.89453125 4.61328125 C-56.31592507 11.69452785 -60.64821817 20.78314355 -61.05297852 30.9987793 C-61.19036315 42.47559174 -59.29729655 51.13618666 -51.2265625 59.921875 C-49.06640242 61.89388043 -46.86492179 63.68098604 -44.51953125 65.42578125 C-43.00359375 66.66328125 -43.00359375 66.66328125 -41.45703125 67.92578125 C-40.81765625 68.42078125 -40.17828125 68.91578125 -39.51953125 69.42578125 C-46.43635505 68.44286418 -51.05884508 64.25557035 -55.55078125 59.08984375 C-63.62280192 48.24734141 -64.46934374 37.52798921 -63.51953125 24.42578125 C-62.35640368 18.44784654 -58.91828803 13.38989604 -55.51953125 8.42578125 C-54.65328125 7.12640625 -54.65328125 7.12640625 -53.76953125 5.80078125 C-39.33521353 -9.43544301 -17.27804426 -10.7954292 0 0 Z " fill="#898888" transform="translate(279.51953125,441.57421875)"/>
<path d="M0 0 C0.50138659 13.05462133 -1.08833351 20.5160843 -8.28125 31.3359375 C-10.49906795 34.77355532 -12.25622406 38.30319501 -14 42 C-16 40 -16 40 -16.24291992 37.95629883 C-16.23675659 36.71916138 -16.23675659 36.71916138 -16.23046875 35.45703125 C-16.22853516 34.54759766 -16.22660156 33.63816406 -16.22460938 32.70117188 C-16.21236328 31.74791016 -16.20011719 30.79464844 -16.1875 29.8125 C-16.18685547 28.87857422 -16.18621094 27.94464844 -16.18554688 26.98242188 C-16.09964582 13.41959926 -16.09964582 13.41959926 -13.6171875 10.21484375 C-13.04226562 9.79332031 -12.46734375 9.37179687 -11.875 8.9375 C-11.25109375 8.45925781 -10.6271875 7.98101562 -9.984375 7.48828125 C-9.32953125 6.99714844 -8.6746875 6.50601562 -8 6 C-6.70145593 4.88294536 -5.40947501 3.75820419 -4.125 2.625 C-1.12307692 0 -1.12307692 0 0 0 Z " fill="#2E3331" transform="translate(222,318)"/>
<path d="M0 0 C7.20279858 5.4141036 11.18457707 12.5537312 14 21 C14.90528969 31.30637495 13.40553914 41.11825273 6.66015625 49.22265625 C-0.35126526 56.72900163 -7.0229472 61.02177412 -17.44873047 61.57470703 C-27.51128177 61.78880387 -35.39837641 59.95881432 -43.14453125 53.1015625 C-51.20871947 44.51107989 -53.48708377 35.52029775 -53.27734375 24.0234375 C-53.04389142 19.0036317 -51.71580815 15.2217703 -49 11 C-48.57589844 10.30519531 -48.15179688 9.61039062 -47.71484375 8.89453125 C-37.09794481 -6.86816272 -15.84508315 -9.57695467 0 0 Z M-46 9 C-50.83476618 16.47392754 -52.96040125 24.12314843 -52 33 C-49.48615932 43.64596384 -43.44831343 51.38685103 -34.18359375 57.125 C-26.6726251 61.10871818 -18.35738901 61.24539029 -10.16015625 59.33984375 C-1.04297063 56.09474378 5.80832651 49.6920361 10 41 C13.05201422 33.2410061 13.6335026 23.93182914 10.375 16.125 C9.62929975 14.72453856 8.83691884 13.3479347 8 12 C7.57589844 11.30261719 7.15179688 10.60523438 6.71484375 9.88671875 C2.42714928 3.54475283 -3.4637188 -1.18806456 -10.875 -3.375 C-25.32218032 -6.12684387 -36.29485322 -2.04734793 -46 9 Z " fill="#221F20" transform="translate(276,447)"/>
<path d="M0 0 C0 0.66 0 1.32 0 2 C-0.5765332 1.83918945 -1.15306641 1.67837891 -1.74707031 1.51269531 C-5.39691804 0.68210578 -9.02038647 0.77437656 -12.75 0.75 C-13.5234375 0.729375 -14.296875 0.70875 -15.09375 0.6875 C-25.11068985 0.62027222 -33.40882471 4.82620428 -40.75 11.5 C-50.57465639 22.41628488 -52.63901513 31.56134564 -52.12304688 45.97070312 C-51.51396827 56.01566609 -46.21423549 63.54911968 -39.41845703 70.65332031 C-31.6783029 77.24010812 -21.65279357 75.57759334 -12.125 75.25 C-9.43456211 75.17975609 -6.74430856 75.11826295 -4.05343628 75.06732178 C-2.38704964 75.03348063 -0.72085695 74.98728688 0.9447937 74.92730713 C6.66801394 74.77867596 6.66801394 74.77867596 10 77 C-5.18 77 -20.36 77 -36 77 C-36 76.34 -36 75.68 -36 75 C-37.11181641 74.63261719 -37.11181641 74.63261719 -38.24609375 74.2578125 C-44.75438949 71.2852292 -49.20530609 64.43744047 -52.2109375 58.1171875 C-54.49234157 51.99579639 -55.35956386 46.595257 -55.3125 40.125 C-55.30758545 39.32852051 -55.3026709 38.53204102 -55.29760742 37.71142578 C-55.06030893 25.83189817 -50.19493498 16.56743203 -42 8 C-39.13968916 5.72539893 -36.16609201 3.82088652 -33 2 C-32.29488281 1.58234375 -31.58976562 1.1646875 -30.86328125 0.734375 C-22.58759933 -3.36735915 -8.26342556 -4.65528751 0 0 Z " fill="#272324" transform="translate(269,435)"/>
<path d="M0 0 C4.41768968 0.35373136 8.56425165 0.64283709 12.9375 -0.25 C19.2271634 -1.26762585 25.61303828 2.15697804 31.3125 4.5 C27.93590721 6.75106186 26.6041255 6.79216638 22.6328125 6.9140625 C21.48522461 6.95281494 20.33763672 6.99156738 19.15527344 7.03149414 C17.9284082 7.06235107 16.70154297 7.09320801 15.4375 7.125 C13.56626465 7.18192017 13.56626465 7.18192017 11.65722656 7.23999023 C0.8745833 7.54379458 -9.90171002 7.6050564 -20.6875 7.5 C-21.0175 6.51 -21.3475 5.52 -21.6875 4.5 C-20.10550369 3.85089846 -18.52184276 3.20585306 -16.9375 2.5625 C-16.05578125 2.20285156 -15.1740625 1.84320313 -14.265625 1.47265625 C-9.25112369 -0.41917833 -5.32966325 -0.46237394 0 0 Z " fill="#CC795E" transform="translate(250.6875,266.5)"/>
<path d="M0 0 C1.8253125 0.0309375 1.8253125 0.0309375 3.6875 0.0625 C0.60822073 1.74858351 -2.58276379 2.87621188 -5.89697266 4.01489258 C-19.21276295 8.66939044 -26.25550431 14.99478359 -33.125 27.3125 C-37.15898079 36.65435026 -36.94359225 51.25823182 -33.4921875 60.7578125 C-29.9613739 67.6557596 -25.04698531 73.86562269 -19.3125 79.0625 C-25.17928155 78.46342724 -27.46303385 75.25512985 -31.15625 70.96484375 C-39.18602593 60.15664898 -40.47375749 48.13693036 -39.3125 35.0625 C-38.46862359 31.37837669 -37.13730918 28.35856158 -35.3125 25.0625 C-34.69375 23.82113281 -34.69375 23.82113281 -34.0625 22.5546875 C-28.62707144 12.4559083 -20.04768814 5.10398259 -9.3125 1.0625 C-6.14973809 0.28404931 -3.2519042 -0.05511702 0 0 Z " fill="#050505" transform="translate(250.3125,430.9375)"/>
<path d="M0 0 C10.40675311 1.6422004 17.89663332 8.80990913 24 17 C30.71541309 27.99034678 32.61044371 38.94487042 30.34765625 51.66796875 C28.32716192 59.61987131 25.26000142 65.72116947 20 72 C19.53078125 72.58007812 19.0615625 73.16015625 18.578125 73.7578125 C17.3125 75.1875 17.3125 75.1875 15 77 C12.85546875 76.61328125 12.85546875 76.61328125 11 76 C11.76183594 75.41605469 11.76183594 75.41605469 12.5390625 74.8203125 C19.6903703 69.00820092 24.67007862 62.00051819 27 53 C27.30161823 49.7246145 27.3247761 46.47504058 27.3125 43.1875 C27.32861328 42.33607422 27.34472656 41.48464844 27.36132812 40.60742188 C27.36860183 31.05704607 24.41079859 23.74921944 19 16 C18.13375 14.700625 18.13375 14.700625 17.25 13.375 C12.47074487 8.33023069 6.27061536 4.89413017 0 2 C0 1.34 0 0.68 0 0 Z " fill="#040304" transform="translate(270,433)"/>
<path d="M0 0 C0.33 0 0.66 0 1 0 C1.66 5.94 2.32 11.88 3 18 C0.03 18.33 -2.94 18.66 -6 19 C-6.4021875 20.2065625 -6.4021875 20.2065625 -6.8125 21.4375 C-7.204375 22.283125 -7.59625 23.12875 -8 24 C-8.99 24.33 -9.98 24.66 -11 25 C-11.66 20.71 -12.32 16.42 -13 12 C-11.783125 11.13375 -10.56625 10.2675 -9.3125 9.375 C-5.56927999 6.58749574 -2.87204183 3.65532597 0 0 Z M-13 25 C-12.34 25.33 -11.68 25.66 -11 26 C-11.99 26.66 -12.98 27.32 -14 28 C-13.67 27.01 -13.34 26.02 -13 25 Z " fill="#2C3131" transform="translate(199,401)"/>
<path d="M0 0 C0.66 0 1.32 0 2 0 C2.78938649 2.98134363 3.42804411 5.96955631 4 9 C4.23976562 10.13115234 4.23976562 10.13115234 4.484375 11.28515625 C4.79416957 13.86829626 4.79252162 15.50676982 4 18 C1.00719055 21.4595779 -2.41068277 24.1850709 -6 27 C-7.01836373 27.98129267 -8.02783021 28.97292361 -9 30 C-8.17216853 19.44514873 -4.60472443 9.47887422 0 0 Z " fill="#4BB590" transform="translate(217,301)"/>
<path d="M0 0 C-5.27101414 6.41069287 -11.09128152 12.18590512 -17 18 C-17.66 17.67 -18.32 17.34 -19 17 C-19.75313808 6.50627615 -19.75313808 6.50627615 -17.375 1.75 C-11.85592231 -1.11174399 -6.09135078 -0.37092122 0 0 Z " fill="#D6E3F3" transform="translate(207,430)"/>
<path d="M0 0 C0.33 0 0.66 0 1 0 C1.09796875 1.05058594 1.1959375 2.10117187 1.296875 3.18359375 C2.53461694 15.274272 5.01751191 25.14675635 14 34 C19.68380195 38.46854025 24.05839539 39.70378498 31.20703125 39.41796875 C32.0542424 39.40615067 32.90145355 39.39433258 33.77433777 39.38215637 C36.45482565 39.3412644 39.13288496 39.26640447 41.8125 39.1875 C44.50968525 39.12473002 47.20666842 39.06929587 49.90422058 39.02497864 C51.57611286 38.99582813 53.24785329 38.95515472 54.91914368 38.9016571 C60.66642587 38.77761725 60.66642587 38.77761725 64 41 C48.82 41 33.64 41 18 41 C18 40.34 18 39.68 18 39 C17.25878906 38.75507813 16.51757812 38.51015625 15.75390625 38.2578125 C9.35733761 35.33625916 4.56551909 28.41788729 1.74609375 22.08984375 C-0.94748512 14.54500241 -1.24063522 7.87971016 0 0 Z " fill="#353031" transform="translate(215,471)"/>
<path d="M0 0 C1.03688965 0.01047363 2.0737793 0.02094727 3.14208984 0.03173828 C4.26357422 0.03818359 5.38505859 0.04462891 6.54052734 0.05126953 C7.71615234 0.06802734 8.89177734 0.08478516 10.10302734 0.10205078 C11.87806641 0.11558594 11.87806641 0.11558594 13.68896484 0.12939453 C16.61885257 0.15302266 19.54834075 0.18596564 22.47802734 0.22705078 C22.47802734 0.55705078 22.47802734 0.88705078 22.47802734 1.22705078 C21.65044922 1.39978516 20.82287109 1.57251953 19.97021484 1.75048828 C15.11508079 3.8033302 12.19662875 7.07880904 8.60302734 10.85205078 C5.07615234 14.50267578 5.07615234 14.50267578 1.47802734 18.22705078 C8.40802734 18.55705078 15.33802734 18.88705078 22.47802734 19.22705078 C22.47802734 19.55705078 22.47802734 19.88705078 22.47802734 20.22705078 C14.55802734 20.22705078 6.63802734 20.22705078 -1.52197266 20.22705078 C0.16449517 16.85411513 1.16952451 15.29358084 3.73583984 12.77392578 C4.67363281 11.84580078 4.67363281 11.84580078 5.63037109 10.89892578 C6.28134766 10.26470703 6.93232422 9.63048828 7.60302734 8.97705078 C8.26173828 8.32736328 8.92044922 7.67767578 9.59912109 7.00830078 C11.22099377 5.40993351 12.84735544 3.81643181 14.47802734 2.22705078 C12.39584372 2.11872909 10.31203605 2.04131537 8.22802734 1.97705078 C7.06787109 1.93064453 5.90771484 1.88423828 4.71240234 1.83642578 C1.44430544 1.97432157 1.44430544 1.97432157 -0.89697266 3.88330078 C-2.86483436 6.72156286 -3.10872886 8.54893097 -3.27197266 11.97705078 C-3.32869141 12.96189453 -3.38541016 13.94673828 -3.44384766 14.96142578 C-3.46962891 15.70908203 -3.49541016 16.45673828 -3.52197266 17.22705078 C-3.85197266 17.22705078 -4.18197266 17.22705078 -4.52197266 17.22705078 C-4.57581114 14.76842677 -4.61556304 12.31097528 -4.64697266 9.85205078 C-4.66373047 9.15337891 -4.68048828 8.45470703 -4.69775391 7.73486328 C-4.71541532 5.89807592 -4.62500526 4.06103116 -4.52197266 2.22705078 C-2.52197266 0.22705078 -2.52197266 0.22705078 0 0 Z " fill="#62909C" transform="translate(191.52197265625,428.77294921875)"/>
<path d="M0 0 C0.33 0 0.66 0 1 0 C2.14802278 8.77239146 2.73881306 15.34609891 -2 23 C-2.42539062 23.75925781 -2.85078125 24.51851563 -3.2890625 25.30078125 C-6.77807599 31.09956066 -11.12967283 35.56968708 -17 39 C-19.77734375 39.6875 -19.77734375 39.6875 -22 40 C-21.34 39.484375 -20.68 38.96875 -20 38.4375 C-9.32728209 29.7659167 -2.32317697 22.88088247 -0.59765625 8.69140625 C-0.34856814 5.79447744 -0.14469311 2.90384107 0 0 Z " fill="#888888" transform="translate(294,471)"/>
<path d="M0 0 C0.33 0 0.66 0 1 0 C1.06316406 0.99257813 1.12632812 1.98515625 1.19140625 3.0078125 C2.19889339 15.2370398 5.154043 26.05528598 14.625 34.625 C16.06563197 35.77258034 17.52223312 36.90065193 19 38 C20.010625 38.825 21.02125 39.65 22.0625 40.5 C22.701875 40.995 23.34125 41.49 24 42 C17.0831762 41.01708293 12.46068617 36.8297891 7.96875 31.6640625 C0.41345807 21.51564071 -0.4839774 12.44001177 0 0 Z " fill="#8A8A8A" transform="translate(216,469)"/>
<path d="M0 0 C4.62 0 9.24 0 14 0 C14.33 1.65 14.66 3.3 15 5 C9.72 5 4.44 5 -1 5 C-0.67 3.35 -0.34 1.7 0 0 Z " fill="#020202" transform="translate(193,419)"/>
<path d="M0 0 C0.66 0.33 1.32 0.66 2 1 C2.85813149 18.87773933 2.85813149 18.87773933 -2 26 C-4.140625 27.26171875 -4.140625 27.26171875 -6 28 C-5.731875 27.34 -5.46375 26.68 -5.1875 26 C-4.795625 25.01 -4.40375 24.02 -4 23 C-3.2265625 21.329375 -3.2265625 21.329375 -2.4375 19.625 C-0.07176817 13.4358632 -0.24745925 6.5534037 0 0 Z " fill="#2B2829" transform="translate(296,470)"/>
<path d="M0 0 C6.70518586 -0.19818283 12.65176798 -0.30844801 19 2 C19 2.99 19 3.98 19 5 C19.66 5 20.32 5 21 5 C21 5.66 21 6.32 21 7 C20.01 7 19.02 7 18 7 C17.67 6.34 17.34 5.68 17 5 C13.43913342 3.81304447 10.02668976 3.64904582 6.3125 3.4375 C5.61060547 3.39431641 4.90871094 3.35113281 4.18554688 3.30664062 C2.45724794 3.2008264 0.7286489 3.09993419 -1 3 C-0.67 2.01 -0.34 1.02 0 0 Z " fill="#181213" transform="translate(251,430)"/>
<path d="M0 0 C1.03688965 0.01047363 2.0737793 0.02094727 3.14208984 0.03173828 C4.26357422 0.03818359 5.38505859 0.04462891 6.54052734 0.05126953 C7.71615234 0.06802734 8.89177734 0.08478516 10.10302734 0.10205078 C11.87806641 0.11558594 11.87806641 0.11558594 13.68896484 0.12939453 C16.61885257 0.15302266 19.54834075 0.18596564 22.47802734 0.22705078 C22.47802734 0.55705078 22.47802734 0.88705078 22.47802734 1.22705078 C16.49089781 2.36745641 10.76574083 2.15486409 4.68505859 1.87158203 C1.43991049 1.97344503 1.43991049 1.97344503 -0.90087891 3.87939453 C-2.86225737 6.71984864 -3.10880577 8.55054624 -3.27197266 11.97705078 C-3.32869141 12.96189453 -3.38541016 13.94673828 -3.44384766 14.96142578 C-3.46962891 15.70908203 -3.49541016 16.45673828 -3.52197266 17.22705078 C-3.85197266 17.22705078 -4.18197266 17.22705078 -4.52197266 17.22705078 C-4.57581114 14.76842677 -4.61556304 12.31097528 -4.64697266 9.85205078 C-4.66373047 9.15337891 -4.68048828 8.45470703 -4.69775391 7.73486328 C-4.71541532 5.89807592 -4.62500526 4.06103116 -4.52197266 2.22705078 C-2.52197266 0.22705078 -2.52197266 0.22705078 0 0 Z " fill="#7B9BA7" transform="translate(191.52197265625,428.77294921875)"/>
<path d="M0 0 C0.33 1.32 0.66 2.64 1 4 C-0.41170909 5.29708314 -1.82958196 6.58745978 -3.25 7.875 C-4.03890625 8.59429687 -4.8278125 9.31359375 -5.640625 10.0546875 C-7.75048562 11.79427457 -9.43460127 13.07772856 -12 14 C-12.99 13.67 -13.98 13.34 -15 13 C-14.41992188 12.64808594 -13.83984375 12.29617188 -13.2421875 11.93359375 C-7.81438345 8.50314993 -3.94867235 5.06240045 0 0 Z " fill="#868585" transform="translate(287,497)"/>
<path d="M0 0 C0 0.33 0 0.66 0 1 C-0.845625 1.04898437 -1.69125 1.09796875 -2.5625 1.1484375 C-8.94709185 1.56924014 -14.85792595 2.19350763 -21 4 C-20.67 3.01 -20.34 2.02 -20 1 C-13.49581762 -1.95644654 -6.93232929 -0.77141709 0 0 Z " fill="#7B7A7A" transform="translate(260,436)"/>
<path d="M0 0 C0.33 0 0.66 0 1 0 C1.04241723 2.33294775 1.04092937 4.66702567 1 7 C0 8 0 8 -3.5625 8.0625 C-4.696875 8.041875 -5.83125 8.02125 -7 8 C-6.02133662 6.85373678 -5.04205413 5.70800212 -4.0625 4.5625 C-3.51722656 3.92441406 -2.97195312 3.28632813 -2.41015625 2.62890625 C-1.63204305 1.73008851 -0.84063472 0.84063472 0 0 Z " fill="#D6E3F3" transform="translate(215,440)"/>
<path d="M0 0 C-0.99 1.485 -0.99 1.485 -2 3 C-3.97119141 3.34057617 -3.97119141 3.34057617 -6.3515625 3.29296875 C-7.20234375 3.28330078 -8.053125 3.27363281 -8.9296875 3.26367188 C-9.81914062 3.23853516 -10.70859375 3.21339844 -11.625 3.1875 C-12.5221875 3.17396484 -13.419375 3.16042969 -14.34375 3.14648438 C-16.56309789 3.11106925 -18.78125188 3.06168461 -21 3 C-21 2.67 -21 2.34 -21 2 C-20.13117188 1.95101563 -19.26234375 1.90203125 -18.3671875 1.8515625 C-17.21476563 1.77679688 -16.06234375 1.70203125 -14.875 1.625 C-13.16957031 1.52058594 -13.16957031 1.52058594 -11.4296875 1.4140625 C-7.96982988 1.11248614 -7.96982988 1.11248614 -4.6953125 -0.1015625 C-2 -1 -2 -1 0 0 Z " fill="#1C191A" transform="translate(273,508)"/>
<path d="M0 0 C0.33 0 0.66 0 1 0 C1 4.62 1 9.24 1 14 C0.01 14.33 -0.98 14.66 -2 15 C-2.05386629 12.87527424 -2.09273071 10.75016348 -2.125 8.625 C-2.14820313 7.44164062 -2.17140625 6.25828125 -2.1953125 5.0390625 C-2 2 -2 2 0 0 Z " fill="#0C0C0C" transform="translate(300,467)"/>
<path d="M0 0 C0.66 0.66 1.32 1.32 2 2 C1.73302379 3.67857457 1.38185762 5.3437773 1 7 C0.78118981 9.6068127 0.58987147 12.20220189 0.4375 14.8125 C0.39431641 15.50537109 0.35113281 16.19824219 0.30664062 16.91210938 C0.20138547 18.60788686 0.10027137 20.30392052 0 22 C-0.33 22 -0.66 22 -1 22 C-1.22415191 19.64640498 -1.42959058 17.29351589 -1.625 14.9375 C-1.74101562 13.62652344 -1.85703125 12.31554687 -1.9765625 10.96484375 C-2.00153472 6.74037732 -1.3471837 3.95413841 0 0 Z " fill="#757474" transform="translate(218,459)"/>
<path d="M0 0 C0.33 0 0.66 0 1 0 C1.66 5.94 2.32 11.88 3 18 C2.01 17.67 1.02 17.34 0 17 C-1.14819277 11.1314592 -0.77313045 5.9114744 0 0 Z " fill="#383535" transform="translate(215,471)"/>
<path d="M0 0 C2.10827055 3.16240582 2.33817465 4.50657469 2.625 8.1875 C2.69976562 9.08855469 2.77453125 9.98960937 2.8515625 10.91796875 C2.90054687 11.60503906 2.94953125 12.29210937 3 13 C2.34 12.67 1.68 12.34 1 12 C0.33203125 9.53125 0.33203125 9.53125 -0.1875 6.5 C-0.36667969 5.4996875 -0.54585938 4.499375 -0.73046875 3.46875 C-0.81941406 2.6540625 -0.90835937 1.839375 -1 1 C-0.67 0.67 -0.34 0.34 0 0 Z " fill="#211D1E" transform="translate(295,458)"/>
<path d="M0 0 C0.33 0 0.66 0 1 0 C1.22127098 2.29045368 1.4266504 4.58244764 1.625 6.875 C1.74101562 8.15117187 1.85703125 9.42734375 1.9765625 10.7421875 C1.98429687 11.81726563 1.99203125 12.89234375 2 14 C1.34 14.66 0.68 15.32 0 16 C-1.16306443 12.45049966 -0.92365049 9.44176052 -0.5625 5.75 C-0.46066406 4.67234375 -0.35882813 3.5946875 -0.25390625 2.484375 C-0.17011719 1.66453125 -0.08632813 0.8446875 0 0 Z " fill="#706F6F" transform="translate(294,471)"/>
<path d="M0 0 C3.99500618 1.3697164 6.80009492 3.25722422 10 6 C5.16743695 5.58578031 3.17320782 3.53586014 0 0 Z " fill="#8A8A8A" transform="translate(230,505)"/>
<path d="M0 0 C0 0.66 0 1.32 0 2 C-2.31 3.32 -4.62 4.64 -7 6 C-7 5.01 -7 4.02 -7 3 C-2.77777778 0 -2.77777778 0 0 0 Z " fill="#868586" transform="translate(239,439)"/>
</svg>
