<?xml version="1.0" encoding="UTF-8"?>
<svg version="1.1" xmlns="http://www.w3.org/2000/svg" width="512" height="512">
<path d="M0 0 C1.45108658 0.00273422 1.45108658 0.00273422 2.93148804 0.00552368 C17.26440977 0.05095174 31.21023917 0.55983928 45.3125 3.3125 C46.65803955 3.55395752 46.65803955 3.55395752 48.03076172 3.80029297 C107.84088904 14.62287989 165.35495829 48.68064457 202.3125 97.3125 C202.72918945 97.85277832 203.14587891 98.39305664 203.57519531 98.94970703 C211.2584873 108.9447116 218.00092968 119.40459036 224.3125 130.3125 C224.70679199 130.98974121 225.10108398 131.66698242 225.50732422 132.36474609 C238.68961173 155.2833756 247.29510918 180.85822563 252.625 206.6875 C252.77243652 207.39817627 252.91987305 208.10885254 253.07177734 208.84106445 C256.05713787 224.48358366 256.6873098 240.11919606 256.625 256 C256.62226578 257.45108658 256.62226578 257.45108658 256.61947632 258.93148804 C256.57404826 273.26440977 256.06516072 287.21023917 253.3125 301.3125 C253.15152832 302.20952637 252.99055664 303.10655273 252.82470703 304.03076172 C242.00212011 363.84088904 207.94435543 421.35495829 159.3125 458.3125 C158.77222168 458.72918945 158.23194336 459.14587891 157.67529297 459.57519531 C147.6802884 467.2584873 137.22040964 474.00092968 126.3125 480.3125 C125.63525879 480.70679199 124.95801758 481.10108398 124.26025391 481.50732422 C101.3416244 494.68961173 75.76677437 503.29510918 49.9375 508.625 C49.22682373 508.77243652 48.51614746 508.91987305 47.78393555 509.07177734 C32.14141634 512.05713787 16.50580394 512.6873098 0.625 512.625 C-0.34239105 512.62317719 -1.3097821 512.62135437 -2.30648804 512.61947632 C-16.63940977 512.57404826 -30.58523917 512.06516072 -44.6875 509.3125 C-45.58452637 509.15152832 -46.48155273 508.99055664 -47.40576172 508.82470703 C-107.21588904 498.00212011 -164.72995829 463.94435543 -201.6875 415.3125 C-202.10418945 414.77222168 -202.52087891 414.23194336 -202.95019531 413.67529297 C-210.6334873 403.6802884 -217.37592968 393.22040964 -223.6875 382.3125 C-224.08179199 381.63525879 -224.47608398 380.95801758 -224.88232422 380.26025391 C-238.06461173 357.3416244 -246.67010918 331.76677437 -252 305.9375 C-252.14743652 305.22682373 -252.29487305 304.51614746 -252.44677734 303.78393555 C-255.43213787 288.14141634 -256.0623098 272.50580394 -256 256.625 C-255.99817719 255.65760895 -255.99635437 254.6902179 -255.99447632 253.69351196 C-255.94904826 239.36059023 -255.44016072 225.41476083 -252.6875 211.3125 C-252.44604248 209.96696045 -252.44604248 209.96696045 -252.19970703 208.59423828 C-241.37712011 148.78411096 -207.31935543 91.27004171 -158.6875 54.3125 C-158.14722168 53.89581055 -157.60694336 53.47912109 -157.05029297 53.04980469 C-147.0552884 45.3665127 -136.59540964 38.62407032 -125.6875 32.3125 C-125.01025879 31.91820801 -124.33301758 31.52391602 -123.63525391 31.11767578 C-100.7166244 17.93538827 -75.14177437 9.32989082 -49.3125 4 C-48.60182373 3.85256348 -47.89114746 3.70512695 -47.15893555 3.55322266 C-31.51641634 0.56786213 -15.88080394 -0.0623098 0 0 Z " fill="#48A0AE" transform="translate(255.6875,-0.3125)"/>
<path d="M0 0 C-0.10699219 0.86496094 -0.21398437 1.72992188 -0.32421875 2.62109375 C0.10168501 7.05972931 2.1607577 9.05071611 5.1875 12.0625 C5.72270264 12.61832764 6.25790527 13.17415527 6.80932617 13.74682617 C8.52247834 15.51565019 10.25735611 17.26025247 12 19 C12.57137695 19.57298828 13.14275391 20.14597656 13.73144531 20.73632812 C15.9722748 22.98098809 18.21517427 25.22325336 20.47314453 27.45068359 C24.036426 30.97710727 27.38308389 34.60716228 30.53515625 38.51171875 C32.20269103 40.20593408 33.83327149 41.05409487 36 42 C39.47905403 38.61611767 42.86771388 35.2099285 46 31.5 C50.25115735 26.55002227 54.92745102 22.02139785 59.58203125 17.45507812 C66.81221117 11.03608834 66.81221117 11.03608834 70.3125 2.625 C70.209375 1.75875 70.10625 0.8925 70 0 C73.6646218 -0.35532512 75.42989286 -0.41602413 78.45703125 1.79296875 C79.23433594 2.58316406 80.01164063 3.37335938 80.8125 4.1875 C88.95567033 11.96386086 96.84530012 15.25632366 107.94140625 16.91796875 C134.23087354 20.92887746 159.96511805 26.22206254 184 38 C185.47919922 38.68449219 185.47919922 38.68449219 186.98828125 39.3828125 C197.40831568 44.54124538 207.52144418 52.77986079 211.71264648 63.88891602 C213.14049835 68.32050421 214.22041293 72.84762349 215.31835938 77.37011719 C216.03288625 80.12688063 216.8797848 82.82275419 217.734375 85.5390625 C221.53748794 98.87708166 221.53748794 98.87708166 218.87255859 104.29003906 C215.04618653 109.43523798 210.08825494 113.17913094 205 117 C203.16474483 118.58110532 201.33113816 120.16412844 199.5 121.75 C197.67882565 123.18226378 195.84468209 124.59814283 194 126 C193.45972168 126.41668945 192.91944336 126.83337891 192.36279297 127.26269531 C182.3677884 134.9459873 171.90790964 141.68842968 161 148 C160.32275879 148.39429199 159.64551758 148.78858398 158.94775391 149.19482422 C136.0291244 162.37711173 110.45427437 170.98260918 84.625 176.3125 C83.5589856 176.53365479 83.5589856 176.53365479 82.47143555 176.75927734 C66.82891634 179.74463787 51.19330394 180.3748098 35.3125 180.3125 C34.34510895 180.31067719 33.3777179 180.30885437 32.38101196 180.30697632 C18.04809023 180.26154826 4.10226083 179.75266072 -10 177 C-10.89702637 176.83902832 -11.79405273 176.67805664 -12.71826172 176.51220703 C-60.99916835 167.77582187 -106.24666585 144.572328 -141.4699707 110.42407227 C-143.02941755 108.93246471 -143.02941755 108.93246471 -144.95776367 107.46459961 C-149.83652136 103.35626727 -149.83652136 103.35626727 -150.27685547 99.703125 C-149.99713289 96.98976292 -149.46922831 94.45999447 -148.8125 91.8125 C-148.60560547 90.85794922 -148.39871094 89.90339844 -148.18554688 88.91992188 C-147.51336235 85.92958778 -146.77167099 82.96612563 -146 80 C-145.75427246 79.05044434 -145.50854492 78.10088867 -145.25537109 77.12255859 C-140.78447802 60.29873181 -134.74077219 49.4764212 -119.33032227 40.36499023 C-96.20826953 27.3590111 -68.44505013 20.65590407 -42.3125 17.4375 C-29.81526295 15.87384918 -20.49693905 13.01841102 -11.1640625 4.28125 C-7.40991963 0.80579896 -5.39966212 -0.79019446 0 0 Z " fill="#9AD0DC" transform="translate(221,332)"/>
<path d="M0 0 C1.24144272 -0.0131424 1.24144272 -0.0131424 2.50796509 -0.02655029 C17.33022707 -0.13395932 32.08714317 1.4685844 45.375 8.5625 C46.08398438 8.90796875 46.79296875 9.2534375 47.5234375 9.609375 C64.87566644 18.49858702 75.86850593 33.7204928 82.5546875 51.7421875 C83.60135666 54.99578699 84.51454002 58.25475774 85.375 61.5625 C85.54628418 62.21089844 85.71756836 62.85929687 85.89404297 63.52734375 C90.82768093 82.42250741 91.82718864 101.1085161 92.375 120.5625 C93.7671875 121.1503125 93.7671875 121.1503125 95.1875 121.75 C98.79715231 123.80254739 99.86712838 124.72614636 101.375 128.5625 C101.79880566 131.82230984 101.80123298 135.02914742 101.75 138.3125 C101.74057373 139.24118896 101.73114746 140.16987793 101.72143555 141.12670898 C101.43851874 154.3020659 100.16151658 170.26786862 91.51171875 180.83984375 C89.05866507 182.8175342 87.73328777 183.12965954 84.625 183.3125 C83.82578125 183.36921875 83.0265625 183.4259375 82.203125 183.484375 C81.59984375 183.51015625 80.9965625 183.5359375 80.375 183.5625 C79.95089844 184.58988281 79.52679688 185.61726562 79.08984375 186.67578125 C75.52479277 195.16023292 71.72149308 203.02164128 66.375 210.5625 C65.87871094 211.28179687 65.38242187 212.00109375 64.87109375 212.7421875 C57.96514596 222.19243184 48.83630361 232.12291575 38.73046875 238.15625 C36.61839475 240.34745069 36.72612047 242.58521782 36.375 245.5625 C36.44976222 247.69935532 36.58482713 249.8346737 36.76953125 251.96484375 C38.17074212 274.22015181 38.17074212 274.22015181 31.97753906 281.34570312 C29.51379692 283.71203849 26.97535431 285.91729805 24.28662109 288.02441406 C21.26894554 290.45242887 18.63326601 293.2264548 15.9375 296 C14.96063637 296.96585716 13.98281226 297.93074412 13.00390625 298.89453125 C10.12469021 301.81652911 7.45624905 304.85283321 4.875 308.0390625 C3.19032471 309.75006084 1.56462989 310.60925595 -0.625 311.5625 C-9.11784697 303.24297644 -9.11784697 303.24297644 -12.75 298.9375 C-16.97711345 293.99087788 -21.65459539 289.48316299 -26.29541016 284.92919922 C-26.92366699 284.30932129 -27.55192383 283.68944336 -28.19921875 283.05078125 C-28.76213623 282.49946533 -29.32505371 281.94814941 -29.9050293 281.38012695 C-30.47261963 280.78031006 -31.04020996 280.18049316 -31.625 279.5625 C-32.34905029 278.80138916 -33.07310059 278.04027832 -33.8190918 277.25610352 C-36.07537759 273.89073902 -36.06363501 271.99669716 -35.9453125 267.9765625 C-35.91244141 266.08550781 -35.91244141 266.08550781 -35.87890625 264.15625 C-35.83636719 262.8465625 -35.79382813 261.536875 -35.75 260.1875 C-35.68073799 257.59658761 -35.62055298 255.00541352 -35.5703125 252.4140625 C-35.53437988 251.26760254 -35.49844727 250.12114258 -35.46142578 248.93994141 C-35.68527078 244.31804324 -36.20791343 240.01764881 -39.515625 236.62109375 C-40.29421875 236.08613281 -41.0728125 235.55117188 -41.875 235 C-59.37946785 221.84635363 -72.6671402 204.43607941 -79.625 183.5625 C-80.51251953 183.55863281 -80.51251953 183.55863281 -81.41796875 183.5546875 C-82.60326172 183.49667969 -82.60326172 183.49667969 -83.8125 183.4375 C-84.58980469 183.41429687 -85.36710938 183.39109375 -86.16796875 183.3671875 C-89.81050294 182.17424308 -91.62926542 179.68671507 -93.625 176.5625 C-99.07546375 164.26726782 -100.75231816 151.46719763 -101 138.125 C-101.02618408 137.27204346 -101.05236816 136.41908691 -101.0793457 135.5402832 C-101.09381754 130.10905822 -100.48244678 126.70829413 -96.625 122.5625 C-93.375 121.1875 -93.375 121.1875 -90.625 120.5625 C-90.64071045 119.89009277 -90.6564209 119.21768555 -90.67260742 118.52490234 C-91.31517109 86.58108317 -88.47763303 52.33742838 -67.625 26.5625 C-66.8825 25.53125 -66.14 24.5 -65.375 23.4375 C-57.8695741 15.59091838 -48.67115422 9.60432484 -38.625 5.5625 C-36.83835937 4.83160156 -36.83835937 4.83160156 -35.015625 4.0859375 C-23.62511868 0.05549293 -11.9385922 0.05488749 0 0 Z " fill="#9A5B32" transform="translate(255.625,63.4375)"/>
<path d="M0 0 C1.24144272 -0.0131424 1.24144272 -0.0131424 2.50796509 -0.02655029 C17.33022707 -0.13395932 32.08714317 1.4685844 45.375 8.5625 C46.08398438 8.90796875 46.79296875 9.2534375 47.5234375 9.609375 C64.87566644 18.49858702 75.86850593 33.7204928 82.5546875 51.7421875 C83.60135666 54.99578699 84.51454002 58.25475774 85.375 61.5625 C85.54628418 62.21089844 85.71756836 62.85929687 85.89404297 63.52734375 C90.87765145 82.61388772 91.66756948 100.90183106 91.375 120.5625 C88.735 120.8925 86.095 121.2225 83.375 121.5625 C82.385 131.4625 81.395 141.3625 80.375 151.5625 C78.725 150.9025 77.075 150.2425 75.375 149.5625 C75.33012451 148.6238208 75.28524902 147.6851416 75.23901367 146.71801758 C74.74053828 136.45422908 74.16662348 126.19611851 73.52349854 115.94036865 C73.42792166 114.40992089 73.33399817 112.8793685 73.24212646 111.34869385 C72.41117784 90.7302207 72.41117784 90.7302207 63.76171875 72.51123047 C61.99531735 70.02893893 60.42876433 67.44938492 58.84375 64.84765625 C57.5841487 62.79377056 56.32372847 60.74038689 55.0625 58.6875 C54.14633911 57.19391968 54.14633911 57.19391968 53.21166992 55.67016602 C52.63006104 54.75033936 52.04845215 53.8305127 51.44921875 52.8828125 C50.66937622 51.63395264 50.66937622 51.63395264 49.8737793 50.35986328 C49.37918213 49.7667334 48.88458496 49.17360352 48.375 48.5625 C44.84271574 48.5625 43.20435931 49.46834616 40.0625 51.0546875 C38.99789551 51.58924561 37.93329102 52.12380371 36.83642578 52.67456055 C35.12302002 53.54721558 35.12302002 53.54721558 33.375 54.4375 C32.17839834 55.04177055 30.9816192 55.64568976 29.78466797 56.24926758 C22.5935105 59.88425192 15.45334083 63.60844256 8.34375 67.39990234 C-1.02429704 72.3600326 -10.53796492 77.03411299 -20.02642822 81.75808716 C-29.58454634 86.51855018 -39.10888874 91.3226345 -48.53686523 96.33740234 C-53.56005851 99.00877127 -58.60785635 101.6249301 -63.6875 104.1875 C-64.36200195 104.53119629 -65.03650391 104.87489258 -65.73144531 105.22900391 C-70.38868921 107.5625 -70.38868921 107.5625 -72.625 107.5625 C-73.45544022 121.5563011 -74.07034521 135.55523733 -74.625 149.5625 C-76.605 150.5525 -76.605 150.5525 -78.625 151.5625 C-79.67099879 148.42450363 -80.02399064 145.65010846 -80.37890625 142.36328125 C-80.51103516 141.15478516 -80.64316406 139.94628906 -80.77929688 138.70117188 C-80.91400391 137.43853516 -81.04871094 136.17589844 -81.1875 134.875 C-81.39536133 132.96364258 -81.39536133 132.96364258 -81.60742188 131.01367188 C-81.94956576 127.86358855 -82.28863372 124.71320463 -82.625 121.5625 C-86.585 121.0675 -86.585 121.0675 -90.625 120.5625 C-91.38651295 87.96974586 -88.94735901 52.91803389 -67.625 26.5625 C-66.8825 25.53125 -66.14 24.5 -65.375 23.4375 C-57.8695741 15.59091838 -48.67115422 9.60432484 -38.625 5.5625 C-36.83835937 4.83160156 -36.83835937 4.83160156 -35.015625 4.0859375 C-23.62511868 0.05549293 -11.9385922 0.05488749 0 0 Z " fill="#30302E" transform="translate(255.625,63.4375)"/>
<path d="M0 0 C-0.10699219 0.86496094 -0.21398437 1.72992188 -0.32421875 2.62109375 C0.10168501 7.05972931 2.1607577 9.05071611 5.1875 12.0625 C5.72270264 12.61832764 6.25790527 13.17415527 6.80932617 13.74682617 C8.52247834 15.51565019 10.25735611 17.26025247 12 19 C12.57137695 19.57298828 13.14275391 20.14597656 13.73144531 20.73632812 C15.9722748 22.98098809 18.21517427 25.22325336 20.47314453 27.45068359 C24.036426 30.97710727 27.38308389 34.60716228 30.53515625 38.51171875 C32.20269103 40.20593408 33.83327149 41.05409487 36 42 C39.47905403 38.61611767 42.86771388 35.2099285 46 31.5 C50.25115735 26.55002227 54.92745102 22.02139785 59.58203125 17.45507812 C66.81221117 11.03608834 66.81221117 11.03608834 70.3125 2.625 C70.209375 1.75875 70.10625 0.8925 70 0 C73.6646218 -0.35532512 75.42989286 -0.41602413 78.45703125 1.79296875 C79.23433594 2.58316406 80.01164062 3.37335938 80.8125 4.1875 C86.17214013 9.32079032 91.64056837 13.41590709 99 15 C99 15.66 99 16.32 99 17 C99.66 17 100.32 17 101 17 C100.31511044 24.68788535 98.90404684 32.19521809 97.41601562 39.75878906 C96.99696192 41.89045428 96.58402256 44.02323986 96.171875 46.15625 C94.14424635 56.56726095 94.14424635 56.56726095 93 60 C92.25234375 59.9278125 91.5046875 59.855625 90.734375 59.78125 C89.74953125 59.6884375 88.7646875 59.595625 87.75 59.5 C86.28820312 59.36078125 86.28820312 59.36078125 84.796875 59.21875 C82.53697847 59.04199832 80.26679807 59 78 59 C82.95 64.94 82.95 64.94 88 71 C86.03067494 74.93865011 84.26878814 76.97376858 81.18310547 80.04394531 C80.69513489 80.53220795 80.20716431 81.02047058 79.70440674 81.52352905 C78.09669725 83.12984962 76.48202899 84.72897713 74.8671875 86.328125 C73.74859765 87.44298317 72.63044971 88.55828487 71.51272583 89.67401123 C68.57440675 92.60470609 65.63013045 95.52934422 62.68457031 98.45275879 C59.67801738 101.43882725 56.67714118 104.43058859 53.67578125 107.421875 C47.78939314 113.28683456 41.896699 119.14540732 36 125 C32.21698773 123.43056316 29.82743453 121.06898723 26.95605469 118.18310547 C26.46779205 117.69513489 25.97952942 117.20716431 25.47647095 116.70440674 C23.87015038 115.09669725 22.27102287 113.48202899 20.671875 111.8671875 C19.55701683 110.74859765 18.44171513 109.63044971 17.32598877 108.51272583 C14.39529391 105.57440675 11.47065578 102.63013045 8.54724121 99.68457031 C5.56117275 96.67801738 2.56941141 93.67714118 -0.421875 90.67578125 C-6.28683456 84.78939314 -12.14540732 78.896699 -18 73 C-16.24044478 69.28615618 -14.01109938 66.41331925 -11.375 63.25 C-10.55773437 62.26515625 -9.74046875 61.2803125 -8.8984375 60.265625 C-7.95871094 59.14414062 -7.95871094 59.14414062 -7 58 C-7.65226562 58.144375 -8.30453125 58.28875 -8.9765625 58.4375 C-9.85054687 58.623125 -10.72453125 58.80875 -11.625 59 C-12.48351562 59.185625 -13.34203125 59.37125 -14.2265625 59.5625 C-17.19269005 60.03039618 -20.00207333 60.07033259 -23 60 C-27.87003523 37.82327576 -27.87003523 37.82327576 -29.8125 28.375 C-30.04582031 27.24835938 -30.27914062 26.12171875 -30.51953125 24.9609375 C-30.96096933 22.24053048 -31.09707172 19.74866237 -31 17 C-30.34 17 -29.68 17 -29 17 C-29 16.34 -29 15.68 -29 15 C-28.42894531 14.83886719 -27.85789063 14.67773438 -27.26953125 14.51171875 C-20.41819728 12.21341753 -15.78667841 8.64153429 -10.64379883 3.7097168 C-7.04565446 0.39098548 -4.89068796 -0.61499669 0 0 Z " fill="#63A4AF" transform="translate(221,332)"/>
<path d="M0 0 C1.4540625 0.0309375 1.4540625 0.0309375 2.9375 0.0625 C2.83050781 0.92746094 2.72351563 1.79242188 2.61328125 2.68359375 C3.03918501 7.12222931 5.0982577 9.11321611 8.125 12.125 C8.66020264 12.68082764 9.19540527 13.23665527 9.74682617 13.80932617 C11.45997834 15.57815019 13.19485611 17.32275247 14.9375 19.0625 C15.50887695 19.63548828 16.08025391 20.20847656 16.66894531 20.79882812 C18.9097748 23.04348809 21.15267427 25.28575336 23.41064453 27.51318359 C26.973926 31.03960727 30.32058389 34.66966228 33.47265625 38.57421875 C35.14019103 40.26843408 36.77077149 41.11659487 38.9375 42.0625 C42.41655403 38.67861767 45.80521388 35.2724285 48.9375 31.5625 C53.18865735 26.61252227 57.86495102 22.08389785 62.51953125 17.51757812 C69.74971117 11.09858834 69.74971117 11.09858834 73.25 2.6875 C73.146875 1.82125 73.04375 0.955 72.9375 0.0625 C76.77152445 -0.33547622 78.45217173 -0.28466401 81.640625 1.99609375 C82.90132812 3.23552734 82.90132812 3.23552734 84.1875 4.5 C87.29139976 7.66219859 87.29139976 7.66219859 90.9375 10.0625 C89.66478693 13.52049186 88.19021213 16.37444497 86.06958008 19.38232422 C74.99251971 35.49125262 66.31452027 52.42234627 57.7265625 69.94543457 C56.2370854 72.97704205 54.73509706 76.00236928 53.23257732 79.02752876 C50.12769484 85.27918811 47.03038006 91.53464097 43.95581055 97.80126953 C43.41925339 98.89327667 42.88269623 99.98528381 42.32987976 101.11038208 C41.09381075 103.73109058 39.97769525 106.35908393 38.9375 109.0625 C38.2775 109.0625 37.6175 109.0625 36.9375 109.0625 C36.69966797 108.55654297 36.46183594 108.05058594 36.21679688 107.52929688 C32.5136095 99.67963082 28.73214083 91.86823457 24.9375 84.0625 C24.50667114 83.1748999 24.07584229 82.2872998 23.63195801 81.37280273 C20.64806167 75.23030212 17.6432292 69.09851758 14.61987305 62.9753418 C13.59761881 60.89926347 12.58035824 58.8207173 11.56860352 56.73950195 C4.77777389 42.78526444 -2.75170988 29.84063777 -11.7427063 17.18096924 C-13.17101123 14.88832301 -14.13048243 12.59296797 -15.0625 10.0625 C-13.88880859 9.10537109 -13.88880859 9.10537109 -12.69140625 8.12890625 C-11.67949219 7.30261719 -10.66757813 6.47632813 -9.625 5.625 C-8.61566406 4.80128906 -7.60632813 3.97757812 -6.56640625 3.12890625 C-2.84541139 0.05806962 -2.84541139 0.05806962 0 0 Z " fill="#E2E8EC" transform="translate(218.0625,331.9375)"/>
<path d="M0 0 C0.50225098 0.25692627 1.00450195 0.51385254 1.52197266 0.77856445 C18.32526334 9.28745669 32.48944706 14.65016654 51.375 9.375 C56.29143733 7.73802347 60.81797067 5.70857919 65.4140625 3.3515625 C66.05190674 3.02841064 66.68975098 2.70525879 67.34692383 2.37231445 C68.89971025 1.58500662 70.45011145 0.79299734 72 0 C74.42344475 32.45019146 74.42344475 32.45019146 69.3046875 40.2421875 C66.52913292 43.46025637 63.34395386 46.06728868 59.91162109 48.55859375 C56.82619375 50.8850769 54.23796551 53.66155359 51.5625 56.4375 C50.58611477 57.40384077 49.60831075 58.36875069 48.62890625 59.33203125 C45.74969021 62.25402911 43.08124905 65.29033321 40.5 68.4765625 C38.81532471 70.18756084 37.18962989 71.04675595 35 72 C26.50715303 63.68047644 26.50715303 63.68047644 22.875 59.375 C18.64788655 54.42837788 13.97040461 49.92066299 9.32958984 45.36669922 C8.70133301 44.74682129 8.07307617 44.12694336 7.42578125 43.48828125 C6.58140503 42.66130737 6.58140503 42.66130737 5.7199707 41.81762695 C5.15238037 41.21781006 4.58479004 40.61799316 4 40 C3.2773999 39.27103516 2.5547998 38.54207031 1.81030273 37.79101562 C-0.5574576 34.14054548 -0.50793103 31.05888723 -0.390625 26.85546875 C-0.38496521 26.08568192 -0.37930542 25.31589508 -0.37347412 24.52278137 C-0.35117872 22.07704057 -0.30099875 19.6327939 -0.25 17.1875 C-0.229926 15.52410978 -0.2116768 13.86069647 -0.1953125 12.19726562 C-0.15133684 8.13093942 -0.08235979 4.06572256 0 0 Z " fill="#8C5130" transform="translate(220,303)"/>
<path d="M0 0 C26.07 0 52.14 0 79 0 C79 7.26 79 14.52 79 22 C72.23178038 25.38410981 66.15254755 27.76182217 59 29.9375 C57.87094238 30.28304932 56.74188477 30.62859863 55.57861328 30.98461914 C37.17481046 36.47502295 19.2380157 40 0 40 C0 26.8 0 13.6 0 0 Z " fill="#D1E3EE" transform="translate(275,471)"/>
<path d="M0 0 C4.32779318 1.09333723 7.05199139 0.26934827 11.3125 -1.125 C19.18585366 -2.19257338 24.5320718 1.07796021 31.3125 4.875 C31.3125 8.875 31.3125 8.875 30.01953125 10.40234375 C19.90161499 17.93341131 8.93932676 21.62637194 -3.6875 19.875 C-12.57109053 17.52989109 -21.45498381 13.72377429 -26.6875 5.875 C-18.43431981 -1.37779472 -10.49797522 -2.73626952 0 0 Z " fill="#7A4229" transform="translate(252.6875,267.125)"/>
<path d="M0 0 C7.92 0 15.84 0 24 0 C24 10.23 24 20.46 24 31 C24.66 31.33 25.32 31.66 26 32 C13.13 31.505 13.13 31.505 0 31 C0 20.77 0 10.54 0 0 Z " fill="#586B7A" transform="translate(281,476)"/>
<path d="M0 0 C26.07 0 52.14 0 79 0 C79 2.31 79 4.62 79 7 C52.93 7 26.86 7 0 7 C0 4.69 0 2.38 0 0 Z " fill="#5E7280" transform="translate(275,464)"/>
<path d="M0 0 C4.32779318 1.09333723 7.05199139 0.26934827 11.3125 -1.125 C19.18585366 -2.19257338 24.5320718 1.07796021 31.3125 4.875 C28.68459517 7.50290483 27.394384 7.18986279 23.72265625 7.32421875 C21.97505005 7.39008179 21.97505005 7.39008179 20.19213867 7.45727539 C18.93248291 7.49199951 17.67282715 7.52672363 16.375 7.5625 C15.09149658 7.6030249 13.80799316 7.6435498 12.4855957 7.68530273 C-0.59532005 8.02518102 -13.62150378 7.57200065 -26.6875 6.875 C-18.77493633 -1.33310934 -10.82290339 -2.82096119 0 0 Z " fill="#844A2C" transform="translate(252.6875,267.125)"/>
<path d="M0 0 C11.22 0 22.44 0 34 0 C34 1.32 34 2.64 34 4 C22.78 4 11.56 4 0 4 C0 2.68 0 1.36 0 0 Z " fill="#6D7F8D" transform="translate(313,477)"/>
<path d="M0 0 C11.55 0 23.1 0 35 0 C34.67 0.99 34.34 1.98 34 3 C22.78 3 11.56 3 0 3 C0 2.01 0 1.02 0 0 Z " fill="#566978" transform="translate(313,490)"/>
<path d="M0 0 C4.62 0 9.24 0 14 0 C9.25294723 3.16470185 5.68228705 3.10927475 0 3 C0 2.01 0 1.02 0 0 Z " fill="#607A88" transform="translate(313,502)"/>
<path d="M0 0 C1.98 0 3.96 0 6 0 C4.35 1.65 2.7 3.3 1 5 C0.67 3.35 0.34 1.7 0 0 Z " fill="#C9CDCE" transform="translate(291,332)"/>
<path d="M0 0 C1.98 0 3.96 0 6 0 C5.67 1.65 5.34 3.3 5 5 C3.35 3.35 1.7 1.7 0 0 Z " fill="#C9CDCE" transform="translate(215,332)"/>
</svg>
