<?xml version="1.0" encoding="UTF-8"?>
<svg version="1.1" xmlns="http://www.w3.org/2000/svg" width="512" height="512">
<path d="M0 0 C1.45108658 0.00273422 1.45108658 0.00273422 2.93148804 0.00552368 C17.26440977 0.05095174 31.21023917 0.55983928 45.3125 3.3125 C46.65803955 3.55395752 46.65803955 3.55395752 48.03076172 3.80029297 C107.84088904 14.62287989 165.35495829 48.68064457 202.3125 97.3125 C202.72918945 97.85277832 203.14587891 98.39305664 203.57519531 98.94970703 C211.2584873 108.9447116 218.00092968 119.40459036 224.3125 130.3125 C224.70679199 130.98974121 225.10108398 131.66698242 225.50732422 132.36474609 C238.68961173 155.2833756 247.29510918 180.85822563 252.625 206.6875 C252.77243652 207.39817627 252.91987305 208.10885254 253.07177734 208.84106445 C256.05713787 224.48358366 256.6873098 240.11919606 256.625 256 C256.62226578 257.45108658 256.62226578 257.45108658 256.61947632 258.93148804 C256.57404826 273.26440977 256.06516072 287.21023917 253.3125 301.3125 C253.15152832 302.20952637 252.99055664 303.10655273 252.82470703 304.03076172 C242.00212011 363.84088904 207.94435543 421.35495829 159.3125 458.3125 C158.77222168 458.72918945 158.23194336 459.14587891 157.67529297 459.57519531 C147.6802884 467.2584873 137.22040964 474.00092968 126.3125 480.3125 C125.63525879 480.70679199 124.95801758 481.10108398 124.26025391 481.50732422 C98.34126191 496.41535371 68.84898362 505.97401819 39.3125 510.3125 C38.10787109 510.48982666 36.90324219 510.66715332 35.66210938 510.84985352 C24.00482646 512.448825 12.44063902 512.6709053 0.6875 512.625 C-0.76733292 512.62226578 -0.76733292 512.62226578 -2.2515564 512.61947632 C-16.60306055 512.57408309 -30.56692918 512.0687347 -44.6875 509.3125 C-45.58452637 509.15152832 -46.48155273 508.99055664 -47.40576172 508.82470703 C-107.21588904 498.00212011 -164.72995829 463.94435543 -201.6875 415.3125 C-202.10418945 414.77222168 -202.52087891 414.23194336 -202.95019531 413.67529297 C-210.6334873 403.6802884 -217.37592968 393.22040964 -223.6875 382.3125 C-224.08179199 381.63525879 -224.47608398 380.95801758 -224.88232422 380.26025391 C-239.79035371 354.34126191 -249.34901819 324.84898362 -253.6875 295.3125 C-253.86482666 294.10787109 -254.04215332 292.90324219 -254.22485352 291.66210938 C-255.823825 280.00482646 -256.0459053 268.44063902 -256 256.6875 C-255.99817719 255.71761139 -255.99635437 254.74772278 -255.99447632 253.7484436 C-255.94908309 239.39693945 -255.4437347 225.43307082 -252.6875 211.3125 C-252.44604248 209.96696045 -252.44604248 209.96696045 -252.19970703 208.59423828 C-241.37712011 148.78411096 -207.31935543 91.27004171 -158.6875 54.3125 C-158.14722168 53.89581055 -157.60694336 53.47912109 -157.05029297 53.04980469 C-147.0552884 45.3665127 -136.59540964 38.62407032 -125.6875 32.3125 C-125.01025879 31.91820801 -124.33301758 31.52391602 -123.63525391 31.11767578 C-100.7166244 17.93538827 -75.14177437 9.32989082 -49.3125 4 C-48.60182373 3.85256348 -47.89114746 3.70512695 -47.15893555 3.55322266 C-31.51641634 0.56786213 -15.88080394 -0.0623098 0 0 Z " fill="#2B5870" transform="translate(255.6875,-0.3125)"/>
<path d="M0 0 C0.82951172 0.00894287 1.65902344 0.01788574 2.51367188 0.02709961 C27.15638826 0.48617724 47.14513889 9.41492816 65.8125 25.25 C66.49828125 25.80171875 67.1840625 26.3534375 67.890625 26.921875 C83.5838107 39.89655609 95.42202159 59.59019847 102.625 78.5 C102.89054688 79.17603271 103.15609375 79.85206543 103.4296875 80.54858398 C110.13447316 99.13204297 110.89960146 119.03438141 112.10564041 138.54973769 C112.35241244 142.49121426 112.61544632 146.43160879 112.87670898 150.37214661 C113.3708961 157.85960288 113.8522643 165.3478195 114.32823467 172.83645374 C114.91065113 181.99505112 115.50499031 191.15286199 116.1015625 200.31054688 C116.15441721 201.12240267 116.20727192 201.93425847 116.26172829 202.77071595 C117.28436397 218.47209072 118.32191291 234.17244808 119.38276768 249.8712889 C119.61766628 253.34902761 119.85121567 256.826842 120.08074951 260.30493927 C120.55607262 267.50051167 121.04962925 274.69410782 121.58273315 281.88564491 C121.73365478 283.96465465 121.87706022 286.04422631 122.01223755 288.12431908 C122.19551254 290.92253773 122.40635211 293.71729509 122.625 296.51293945 C122.69369545 297.70497073 122.69369545 297.70497073 122.76377869 298.92108345 C123.26386043 304.71566961 125.17622996 307.72805115 128.8125 312.25 C129.91162109 314.61987305 129.91162109 314.61987305 130.5859375 316.76171875 C130.85011475 317.58849121 131.11429199 318.41526367 131.38647461 319.26708984 C131.78298218 320.58894287 131.78298218 320.58894287 132.1875 321.9375 C132.47568604 322.87287598 132.76387207 323.80825195 133.06079102 324.77197266 C135.49255866 332.83496028 137.66065938 340.96736179 139.75 349.125 C140.05663574 350.30666748 140.36327148 351.48833496 140.67919922 352.70581055 C142.17316513 358.71478741 143.1853154 364.05669934 142.8125 370.25 C113.6527042 387.66650655 83.36554518 400.22889489 49.8125 406.25 C48.98121582 406.41226074 48.14993164 406.57452148 47.29345703 406.74169922 C19.56756942 412.03765528 -12.52001622 411.65049548 -40.1875 406.25 C-41.08452637 406.08902832 -41.98155273 405.92805664 -42.90576172 405.76220703 C-71.51519173 400.58535728 -98.84784057 390.1770498 -124.125 375.875 C-124.83543457 375.48256104 -125.54586914 375.09012207 -126.27783203 374.68579102 C-130.94803011 371.92099137 -130.94803011 371.92099137 -131.97412109 369.04589844 C-132.2481756 365.45496911 -131.51613256 362.7047108 -130.57421875 359.2265625 C-130.19539754 357.79470298 -129.81700052 356.36273118 -129.43896484 354.93066406 C-129.23495056 354.17192993 -129.03093628 353.4131958 -128.82073975 352.63146973 C-127.7173242 348.48177645 -126.68553911 344.31413713 -125.64453125 340.1484375 C-125.20661278 338.40488949 -124.7684601 336.66140028 -124.33007812 334.91796875 C-124.1116626 334.04833496 -123.89324707 333.17870117 -123.66821289 332.28271484 C-123.21818447 330.49279545 -122.76732164 328.70308567 -122.31567383 326.91357422 C-121.65223503 324.28408246 -120.99184388 321.65384118 -120.33203125 319.0234375 C-120.03048882 317.83275162 -120.03048882 317.83275162 -119.72285461 316.61801147 C-119.44202278 315.49491074 -119.44202278 315.49491074 -119.15551758 314.34912109 C-118.91047234 313.37560196 -118.91047234 313.37560196 -118.66047668 312.38241577 C-117.51914766 307.23673293 -116.96066309 302.12816427 -116.57080078 296.87573242 C-116.51689273 296.15958173 -116.46298468 295.44343103 -116.40744305 294.7055788 C-116.22996489 292.33906156 -116.05637745 289.97227595 -115.8828125 287.60546875 C-115.75810399 285.93231478 -115.63315516 284.25917872 -115.50798035 282.58605957 C-115.17496315 278.12533783 -114.84534603 273.66437127 -114.51657486 269.20333481 C-114.17562749 264.58246132 -113.83216028 259.96177505 -113.48901367 255.34106445 C-113.01820162 248.99772601 -112.54855552 242.65430307 -112.08025646 236.31077862 C-111.47263955 228.08148859 -110.8576436 219.85282653 -110.23046875 211.625 C-108.94266712 194.64466088 -107.84516623 177.66270386 -106.87884521 160.66082764 C-106.33757457 151.18919558 -105.77357621 141.71896351 -105.1875 132.25 C-105.1326947 131.3626416 -105.0778894 130.4752832 -105.02142334 129.56103516 C-103.5836948 106.63169664 -100.92067262 85.93167466 -90.1875 65.25 C-89.70410156 64.29867187 -89.22070312 63.34734375 -88.72265625 62.3671875 C-74.41852919 35.12484471 -50.85175792 12.40951504 -21.1640625 3.0390625 C-13.99830982 1.13947977 -7.43832524 -0.09182165 0 0 Z " fill="#583A2F" transform="translate(251.1875,102.75)"/>
<path d="M0 0 C0.33 0 0.66 0 1 0 C1 9.9 1 19.8 1 30 C14.86 30 28.72 30 43 30 C43 20.1 43 10.2 43 0 C43.33 0 43.66 0 44 0 C45.0051621 4.43634709 46.00324731 8.87425658 47 13.3125 C47.28617187 14.57513672 47.57234375 15.83777344 47.8671875 17.13867188 C48.27324219 18.95141602 48.27324219 18.95141602 48.6875 20.80078125 C48.93886719 21.91622314 49.19023437 23.03166504 49.44921875 24.1809082 C50 27 50 27 50 30 C58.91 30 67.82 30 77 30 C77 21.75 77 13.5 77 5 C78.85955942 7.78933912 79.50927881 9.42579925 80.2890625 12.59765625 C80.61777344 13.92313477 80.61777344 13.92313477 80.953125 15.27539062 C81.17484375 16.19513672 81.3965625 17.11488281 81.625 18.0625 C81.85445312 18.98611328 82.08390625 19.90972656 82.3203125 20.86132812 C84 27.70505487 84 27.70505487 84 30 C84.93271729 29.96334229 85.86543457 29.92668457 86.82641602 29.88891602 C90.31370698 29.76903836 93.79878633 29.68159996 97.28735352 29.61547852 C98.79193835 29.58044311 100.29628769 29.53279621 101.80004883 29.47192383 C114.18535294 28.98340835 114.18535294 28.98340835 118.50366211 31.40258789 C124.40967646 37.0604957 127.07015737 44.87862856 127.5625 52.9375 C127.17829045 61.5410495 123.120775 70.0285122 117 76 C113.83470607 78.40837581 111.32642733 79.89972972 107.515625 81.0703125 C105.24279902 82.03580037 104.22043891 82.63885009 102.92333984 84.76391602 C102.03922972 87.04773584 101.31538069 89.33789281 100.625 91.6875 C94.95056446 108.82190986 85.68362901 124.00509471 72 136 C71.12323608 136.39747437 71.12323608 136.39747437 70.22875977 136.80297852 C67.89163494 137.98657785 66.60046224 138.90181536 65 141 C63.95934996 146.09325963 64.01898189 151.14099799 64.0625 156.3125 C64.04938364 157.73505868 64.03314006 159.15759219 64.01367188 160.58007812 C63.97292277 164.05382969 63.97494808 167.52602857 64 171 C66.64 170.67 69.28 170.34 72 170 C72.33 171.32 72.66 172.64 73 174 C74.03125 174.0825 75.0625 174.165 76.125 174.25 C92.22227926 176.22227926 92.22227926 176.22227926 96 180 C96.04113624 181.76189674 96.00813282 183.5255482 95.94702148 185.28686523 C95.90875748 186.43510269 95.87049347 187.58334015 95.83106995 188.76637268 C95.7824028 190.03843063 95.73373566 191.31048859 95.68359375 192.62109375 C95.63503858 193.96593412 95.58657373 195.31077775 95.53819275 196.65562439 C94.95422092 212.44653675 94.15030404 228.2277224 93.32543945 244.00756836 C93.14856629 247.39347284 92.97515857 250.77952639 92.80493164 254.16577148 C90.9928982 290.19988647 90.9928982 290.19988647 89 308 C88.01 308 87.02 308 86 308 C86 308.66 86 309.32 86 310 C83.04222565 310.48283996 80.08385071 310.96133765 77.125 311.4375 C76.30257812 311.57220703 75.48015625 311.70691406 74.6328125 311.84570312 C73.3953125 312.04389648 73.3953125 312.04389648 72.1328125 312.24609375 C71.38918457 312.36654053 70.64555664 312.4869873 69.87939453 312.61108398 C62.31581145 313.63268716 54.83774196 314.16318396 47.20703125 314.203125 C46.30603699 314.21004868 45.40504272 314.21697235 44.47674561 314.22410583 C41.58861886 314.24127746 38.70067537 314.24769135 35.8125 314.25 C34.33642776 314.25200912 34.33642776 314.25200912 32.83053589 314.25405884 C18.35451388 314.24977822 4.2386495 313.87214636 -10 311 C-11.07507813 310.7839209 -11.07507813 310.7839209 -12.171875 310.56347656 C-15.80955611 309.80961502 -19.41410287 308.97046352 -23 308 C-24.03149842 300.74448755 -24.44349801 293.48491369 -24.8671875 286.171875 C-25.64695965 273.13291761 -26.54608832 260.1048583 -27.5078125 247.078125 C-27.57343132 246.18774033 -27.63905014 245.29735565 -27.70665741 244.37998962 C-28.17698554 238.00314374 -28.6507502 231.62655521 -29.125 225.25 C-29.60650629 218.77091623 -30.08677783 212.29174372 -30.564785 205.81240082 C-30.75412034 203.25303433 -30.94525379 200.69380644 -31.13650513 198.13458252 C-31.25140407 196.58093865 -31.36622575 195.02728907 -31.48095703 193.47363281 C-31.53391937 192.77152679 -31.58688171 192.06942078 -31.64144897 191.34603882 C-31.87102478 188.21451024 -32 185.14336779 -32 182 C-28.67096068 180.84142571 -25.33611579 179.70052081 -22 178.5625 C-21.06542969 178.23701172 -20.13085938 177.91152344 -19.16796875 177.57617188 C-13.73459558 175.73338447 -8.72111507 174.47900845 -3 174 C-2.67 172.68 -2.34 171.36 -2 170 C0.64 170.33 3.28 170.66 6 171 C7.68935532 153.10722 7.68935532 153.10722 2.390625 136.98046875 C-0.26718283 134.63915334 -3.25430793 132.8402247 -6.31494141 131.07226562 C-19.64858017 122.58757402 -29.64931902 99.95743989 -33 85 C-33 84.01 -33 83.02 -33 82 C-34.134375 81.95875 -35.26875 81.9175 -36.4375 81.875 C-43.53376056 80.95813802 -48.96540075 76.64492481 -53.375 71.1875 C-58.84967141 63.12756709 -60.2396524 54.64823803 -59 45 C-57.01599243 38.75122403 -53.88559041 33.27357505 -48 30 C-44.51136638 29.32840564 -41.11200988 29.41584805 -37.5703125 29.51171875 C-36.57998016 29.51879349 -35.58964783 29.52586823 -34.56930542 29.53315735 C-31.42042039 29.56104407 -28.2733434 29.62377322 -25.125 29.6875 C-22.98440076 29.71259021 -20.84377353 29.73540211 -18.703125 29.75585938 C-13.46813788 29.81085145 -8.23419813 29.89441968 -3 30 C-2.94013916 28.9378125 -2.88027832 27.875625 -2.81860352 26.78125 C-2.00830691 12.8531642 -2.00830691 12.8531642 -0.9375 6 C-0.76089844 4.845 -0.58429688 3.69 -0.40234375 2.5 C-0.26957031 1.675 -0.13679688 0.85 0 0 Z " fill="#C41C39" transform="translate(221,198)"/>
<path d="M0 0 C0.33 0 0.66 0 1 0 C1 9.9 1 19.8 1 30 C14.86 30 28.72 30 43 30 C43 20.1 43 10.2 43 0 C43.33 0 43.66 0 44 0 C45.0051621 4.43634709 46.00324731 8.87425658 47 13.3125 C47.28617187 14.57513672 47.57234375 15.83777344 47.8671875 17.13867188 C48.27324219 18.95141602 48.27324219 18.95141602 48.6875 20.80078125 C48.93886719 21.91622314 49.19023437 23.03166504 49.44921875 24.1809082 C50 27 50 27 50 30 C58.91 30 67.82 30 77 30 C77 21.75 77 13.5 77 5 C78.85955942 7.78933912 79.50927881 9.42579925 80.2890625 12.59765625 C80.61777344 13.92313477 80.61777344 13.92313477 80.953125 15.27539062 C81.17484375 16.19513672 81.3965625 17.11488281 81.625 18.0625 C81.85445312 18.98611328 82.08390625 19.90972656 82.3203125 20.86132812 C84 27.70505487 84 27.70505487 84 30 C84.93271729 29.96334229 85.86543457 29.92668457 86.82641602 29.88891602 C90.31370698 29.76903836 93.79878633 29.68159996 97.28735352 29.61547852 C98.79193835 29.58044311 100.29628769 29.53279621 101.80004883 29.47192383 C114.18535294 28.98340835 114.18535294 28.98340835 118.50366211 31.40258789 C124.40967646 37.0604957 127.07015737 44.87862856 127.5625 52.9375 C127.17829045 61.5410495 123.120775 70.0285122 117 76 C113.83470607 78.40837581 111.32642733 79.89972972 107.515625 81.0703125 C105.24279902 82.03580037 104.22043891 82.63885009 102.92333984 84.76391602 C102.03922972 87.04773584 101.31538069 89.33789281 100.625 91.6875 C95.02577469 108.59480661 84.58827006 129.56353254 68.0625 138.0625 C63.23883742 142.02871064 63.23883742 142.02871064 64 156 C44.86 156 25.72 156 6 156 C5.505 148.575 5.505 148.575 5 141 C2.80922033 138.08226478 1.93677476 137.08557582 -0.9375 135.3125 C-2.13751891 134.42867342 -3.3314677 133.53655196 -4.51953125 132.63671875 C-5.1120166 132.20020996 -5.70450195 131.76370117 -6.31494141 131.31396484 C-19.4120008 121.10121874 -29.41002144 101.02566427 -33 85 C-33 84.01 -33 83.02 -33 82 C-34.134375 81.95875 -35.26875 81.9175 -36.4375 81.875 C-43.53376056 80.95813802 -48.96540075 76.64492481 -53.375 71.1875 C-58.84967141 63.12756709 -60.2396524 54.64823803 -59 45 C-57.01599243 38.75122403 -53.88559041 33.27357505 -48 30 C-44.51136638 29.32840564 -41.11200988 29.41584805 -37.5703125 29.51171875 C-36.57998016 29.51879349 -35.58964783 29.52586823 -34.56930542 29.53315735 C-31.42042039 29.56104407 -28.2733434 29.62377322 -25.125 29.6875 C-22.98440076 29.71259021 -20.84377353 29.73540211 -18.703125 29.75585938 C-13.46813788 29.81085145 -8.23419813 29.89441968 -3 30 C-2.94013916 28.9378125 -2.88027832 27.875625 -2.81860352 26.78125 C-2.00830691 12.8531642 -2.00830691 12.8531642 -0.9375 6 C-0.76089844 4.845 -0.58429688 3.69 -0.40234375 2.5 C-0.26957031 1.675 -0.13679688 0.85 0 0 Z " fill="#E3B591" transform="translate(221,198)"/>
<path d="M0 0 C0.33 0 0.66 0 1 0 C1 10.23 1 20.46 1 31 C12.22 31 23.44 31 35 31 C35 72.25 35 113.5 35 156 C25.43 156 15.86 156 6 156 C6.103125 153.751875 6.20625 151.50375 6.3125 149.1875 C6.21011797 144.35987369 5.61448322 141.71199103 2.390625 137.9765625 C-0.40289557 135.61778809 -3.37221847 133.48199216 -6.31494141 131.31396484 C-19.4120008 121.10121874 -29.41002144 101.02566427 -33 85 C-33 84.01 -33 83.02 -33 82 C-34.134375 81.95875 -35.26875 81.9175 -36.4375 81.875 C-43.53376056 80.95813802 -48.96540075 76.64492481 -53.375 71.1875 C-58.84967141 63.12756709 -60.2396524 54.64823803 -59 45 C-57.01599243 38.75122403 -53.88559041 33.27357505 -48 30 C-44.51136638 29.32840564 -41.11200988 29.41584805 -37.5703125 29.51171875 C-36.57998016 29.51879349 -35.58964783 29.52586823 -34.56930542 29.53315735 C-31.42042039 29.56104407 -28.2733434 29.62377322 -25.125 29.6875 C-22.98440076 29.71259021 -20.84377353 29.73540211 -18.703125 29.75585938 C-13.46813788 29.81085145 -8.23419813 29.89441968 -3 30 C-2.94013916 28.9378125 -2.88027832 27.875625 -2.81860352 26.78125 C-2.00830691 12.8531642 -2.00830691 12.8531642 -0.9375 6 C-0.76089844 4.845 -0.58429688 3.69 -0.40234375 2.5 C-0.26957031 1.675 -0.13679688 0.85 0 0 Z " fill="#F0C8A4" transform="translate(221,198)"/>
<path d="M0 0 C5.30662334 4.32425535 6.85863964 9.14264193 8.875 15.5625 C9.21015625 16.60083984 9.5453125 17.63917969 9.890625 18.70898438 C12.52676979 27.06833824 14.83130618 35.50847093 17 44 C17.30276855 45.17377197 17.60553711 46.34754395 17.91748047 47.55688477 C20.81011909 59.30303346 20.81011909 59.30303346 20 65 C17.953125 67.09375 17.953125 67.09375 15.25 68.5 C14.36828125 68.9846875 13.4865625 69.469375 12.578125 69.96875 C10 71 10 71 6 71 C3.58709492 47.35212535 1.3555195 23.73536679 0 0 Z " fill="#C1203B" transform="translate(374,408)"/>
<path d="M0 0 C0.95937413 3.14709517 1.02725284 5.70673423 0.76220703 8.97705078 C0.68527618 9.96553009 0.60834534 10.9540094 0.52908325 11.97244263 C0.4395639 13.03598969 0.35004456 14.09953674 0.2578125 15.1953125 C0.16998505 16.29793427 0.08215759 17.40055603 -0.0083313 18.53659058 C-0.29111603 22.0665833 -0.58306045 25.59575385 -0.875 29.125 C-1.06437849 31.47912037 -1.25318702 33.83328666 -1.44140625 36.1875 C-2.21574286 45.80047761 -3.00414889 55.40703773 -4 65 C-7.98467756 64.17707746 -10.67947232 62.33946269 -14 60 C-13.16384612 54.38515332 -11.86409426 48.9005455 -10.56640625 43.37890625 C-10.32840805 42.36078354 -10.09040985 41.34266083 -9.84519958 40.29368591 C-9.34264067 38.14601098 -8.83912606 35.99855947 -8.3347168 33.85131836 C-7.56612578 30.57794193 -6.80140249 27.30367915 -6.03710938 24.02929688 C-5.54710699 21.93744565 -5.05688004 19.845647 -4.56640625 17.75390625 C-4.3392543 16.78078995 -4.11210236 15.80767365 -3.87806702 14.80506897 C-2.70633013 9.82805091 -1.45535927 4.90183962 0 0 Z " fill="#C0203B" transform="translate(133,413)"/>
<path d="M0 0 C1.98 0.495 1.98 0.495 4 1 C3.67 2.32 3.34 3.64 3 5 C1.68 4.67 0.36 4.34 -1 4 C-0.67 2.68 -0.34 1.36 0 0 Z " fill="#F7DFE4" transform="translate(274,397)"/>
<path d="M0 0 C1.98 0.495 1.98 0.495 4 1 C3.67 2.32 3.34 3.64 3 5 C1.68 4.67 0.36 4.34 -1 4 C-0.67 2.68 -0.34 1.36 0 0 Z " fill="#F7E3E7" transform="translate(235,397)"/>
<path d="M0 0 C1.98 0.495 1.98 0.495 4 1 C3.67 2.32 3.34 3.64 3 5 C1.68 4.67 0.36 4.34 -1 4 C-0.67 2.68 -0.34 1.36 0 0 Z " fill="#F7E0E4" transform="translate(284,387)"/>
<path d="M0 0 C1.98 0.495 1.98 0.495 4 1 C3.67 2.32 3.34 3.64 3 5 C1.68 4.67 0.36 4.34 -1 4 C-0.67 2.68 -0.34 1.36 0 0 Z " fill="#F7E3E7" transform="translate(287,381)"/>
<path d="M0 0 C1.98 0.495 1.98 0.495 4 1 C3.67 2.32 3.34 3.64 3 5 C1.68 4.67 0.36 4.34 -1 4 C-0.67 2.68 -0.34 1.36 0 0 Z " fill="#F6DFE3" transform="translate(222,381)"/>
<path d="M0 0 C1.98 0.495 1.98 0.495 4 1 C3.67 2.32 3.34 3.64 3 5 C1.68 4.67 0.36 4.34 -1 4 C-0.67 2.68 -0.34 1.36 0 0 Z " fill="#F1DDE0" transform="translate(290,368)"/>
<path d="M0 0 C0.99 0 1.98 0 3 0 C3 1.65 3 3.3 3 5 C1.68 5 0.36 5 -1 5 C-0.67 3.35 -0.34 1.7 0 0 Z " fill="#F8E4E7" transform="translate(255,403)"/>
<path d="M0 0 C0.99 0.33 1.98 0.66 3 1 C3 2.32 3 3.64 3 5 C1.68 5 0.36 5 -1 5 C-0.67 3.35 -0.34 1.7 0 0 Z " fill="#F9E7EA" transform="translate(262,402)"/>
<path d="M0 0 C2.475 0.495 2.475 0.495 5 1 C4.67 1.99 4.34 2.98 4 4 C2.68 4 1.36 4 0 4 C0 2.68 0 1.36 0 0 Z " fill="#F9EBED" transform="translate(247,403)"/>
<path d="M0 0 C1.65 0 3.3 0 5 0 C4.67 1.32 4.34 2.64 4 4 C2.68 3.67 1.36 3.34 0 3 C0 2.01 0 1.02 0 0 Z " fill="#FAECEF" transform="translate(240,401)"/>
<path d="M0 0 C1.32 0 2.64 0 4 0 C3.67 1.65 3.34 3.3 3 5 C2.01 4.67 1.02 4.34 0 4 C0 2.68 0 1.36 0 0 Z " fill="#FAECEE" transform="translate(279,393)"/>
<path d="M0 0 C1.32 0 2.64 0 4 0 C3.67 1.65 3.34 3.3 3 5 C2.01 4.67 1.02 4.34 0 4 C0 2.68 0 1.36 0 0 Z " fill="#FAECEE" transform="translate(229,393)"/>
<path d="M0 0 C1.32 0 2.64 0 4 0 C4 1.32 4 2.64 4 4 C2.35 3.67 0.7 3.34 -1 3 C-0.67 2.01 -0.34 1.02 0 0 Z " fill="#F9EBED" transform="translate(289,375)"/>
<path d="M0 0 C1.98 0.495 1.98 0.495 4 1 C4 1.99 4 2.98 4 4 C2.35 4 0.7 4 -1 4 C-0.67 2.68 -0.34 1.36 0 0 Z " fill="#F2EAEA" transform="translate(219,368)"/>
<path d="M0 0 C1.32 0 2.64 0 4 0 C3.67 1.32 3.34 2.64 3 4 C1.68 3.67 0.36 3.34 -1 3 C-0.67 2.01 -0.34 1.02 0 0 Z " fill="#FBF2F4" transform="translate(268,401)"/>
<path d="M0 0 C1.32 0 2.64 0 4 0 C3.67 1.32 3.34 2.64 3 4 C1.68 3.67 0.36 3.34 -1 3 C-0.67 2.01 -0.34 1.02 0 0 Z " fill="#FBF0F2" transform="translate(225,388)"/>
<path d="M0 0 C1.98 0.495 1.98 0.495 4 1 C3.67 1.99 3.34 2.98 3 4 C1.68 4 0.36 4 -1 4 C-0.67 2.68 -0.34 1.36 0 0 Z " fill="#FAEFF1" transform="translate(220,375)"/>
</svg>
