<?xml version="1.0" encoding="UTF-8"?>
<svg version="1.1" xmlns="http://www.w3.org/2000/svg" width="512" height="512">
<path d="M0 0 C1.45724991 0.00273422 1.45724991 0.00273422 2.94393921 0.00552368 C16.95500637 0.04979633 30.54718511 0.50697143 44.3125 3.3125 C46.16795267 3.6563368 48.02342214 4.0000829 49.87890625 4.34375 C106.19254675 15.25743054 160.20804364 47.63441221 195.3125 93.3125 C195.73354004 93.85712891 196.15458008 94.40175781 196.58837891 94.96289062 C212.62774173 115.83338683 225.18928014 138.64698154 234.3125 163.3125 C234.55983887 163.97991211 234.80717773 164.64732422 235.06201172 165.33496094 C243.25075588 187.79117439 248.3380285 212.1451707 248.55078125 236.0859375 C248.56052979 236.99933395 248.57027832 237.91273041 248.58032227 238.85380554 C248.75115677 259.01195677 248.57563321 278.51640099 244.3125 298.3125 C244.12526367 299.20533691 243.93802734 300.09817383 243.74511719 301.01806641 C233.82996379 347.07472454 210.8840777 388.48575553 178.3125 422.3125 C177.81073242 422.83618164 177.30896484 423.35986328 176.79199219 423.89941406 C170.03711689 430.91492763 163.0473889 437.36809464 155.3125 443.3125 C154.76787109 443.73354004 154.22324219 444.15458008 153.66210938 444.58837891 C109.60397116 478.44787402 56.65268701 496.80051249 1.0625 496.6875 C0.09916748 496.68728851 -0.86416504 496.68707703 -1.85668945 496.68685913 C-18.09215549 496.65142005 -33.74489464 495.61022805 -49.6875 492.3125 C-50.59741699 492.12526367 -51.50733398 491.93802734 -52.44482422 491.74511719 C-98.46195447 481.90796806 -139.91371843 458.83308002 -173.6875 426.3125 C-174.21118164 425.81073242 -174.73486328 425.30896484 -175.27441406 424.79199219 C-182.29025517 418.03680152 -188.74089972 411.04616151 -194.6875 403.3125 C-195.30310791 402.51948486 -195.30310791 402.51948486 -195.93115234 401.71044922 C-219.63788414 371.00127804 -235.6932694 336.25203648 -243.6875 298.3125 C-244.00509277 296.84490234 -244.00509277 296.84490234 -244.32910156 295.34765625 C-247.55848578 279.76882018 -248.07555004 264.35198704 -248.125 248.5 C-248.13126404 247.56330475 -248.13752808 246.6266095 -248.14398193 245.66152954 C-248.21923841 227.8672726 -246.37769638 210.32222075 -242.5 192.9375 C-242.18699951 191.53262329 -242.18699951 191.53262329 -241.86767578 190.09936523 C-227.30095871 127.51238922 -186.88740346 72.13811613 -132.79296875 37.796875 C-129.14299039 35.54230624 -125.42616301 33.41568026 -121.6875 31.3125 C-121.06149902 30.95236816 -120.43549805 30.59223633 -119.79052734 30.22119141 C-97.62938915 17.53291925 -73.38616543 9.21221966 -48.4375 4.0625 C-47.34151489 3.83554443 -47.34151489 3.83554443 -46.22338867 3.60400391 C-30.84406545 0.63579955 -15.62527665 -0.06091433 0 0 Z " fill="#92BFC0" transform="translate(255.6875,7.6875)"/>
<path d="M0 0 C23.44075227 21.4841592 39.99332462 57.69681246 41.54785156 89.48217773 C41.91590335 119.18524094 41.91590335 119.18524094 38.38671875 132.1875 C38.08072754 133.36602539 38.08072754 133.36602539 37.76855469 134.56835938 C34.60941311 146.68070132 30.72622012 158.46507696 26.1875 170.12792969 C25.45977604 171.99960022 24.75033606 173.878354 24.04296875 175.7578125 C21.20267672 183.02240557 18.02697261 189.76066409 11.38671875 194.1875 C7.86947737 193.67025862 7.86947737 193.67025862 6.38671875 192.1875 C6.06476934 193.99900202 5.74308486 195.81055145 5.42260742 197.62231445 C5.14641388 199.17854935 4.86789293 200.73437281 4.5871582 202.28979492 C3.97419 205.71258393 3.39582525 209.11653492 2.953125 212.56640625 C1.49547284 223.85193998 -4.00354474 236.20266047 -13.1796875 243.41943359 C-13.75589844 243.8520752 -14.33210937 244.2847168 -14.92578125 244.73046875 C-27.53890435 254.74518022 -28.87313386 267.58173524 -31.54457092 282.57978821 C-35.40479808 303.90121748 -47.30928255 316.5542762 -64.38671875 329.0703125 C-66.61328125 330.1875 -66.61328125 330.1875 -68.58203125 330.0859375 C-79.64308633 325.19354775 -94.66788973 312.82671581 -99.79345703 301.60327148 C-100.29594971 300.28178101 -100.29594971 300.28178101 -100.80859375 298.93359375 C-101.15164551 298.04212646 -101.49469727 297.15065918 -101.84814453 296.23217773 C-102.10063965 295.55743408 -102.35313477 294.88269043 -102.61328125 294.1875 C-102.63310059 294.84306885 -102.65291992 295.4986377 -102.67333984 296.17407227 C-102.93381076 304.51417824 -103.2554923 312.85101755 -103.61328125 321.1875 C-103.66709961 322.44868652 -103.72091797 323.70987305 -103.77636719 325.00927734 C-105.13675381 354.78790985 -108.38323072 383.70891839 -120.61328125 411.1875 C-158.17831448 406.19031668 -192.44095416 385.91973019 -222.61328125 364.1875 C-222.08541496 354.68590675 -218.46545468 347.54212144 -211.6640625 340.94702148 C-208.12230121 337.90827463 -204.1980081 335.59332797 -200.17578125 333.25 C-199.34884766 332.75693359 -198.52191406 332.26386719 -197.66992188 331.75585938 C-195.65634324 330.55702354 -193.63770078 329.36790366 -191.61328125 328.1875 C-188.6509716 331.5398056 -187.83720949 334.59736554 -186.92578125 338.9375 C-186.67441406 340.10796875 -186.42304688 341.2784375 -186.1640625 342.484375 C-185.98230469 343.37640625 -185.80054688 344.2684375 -185.61328125 345.1875 C-185.09121094 344.46046875 -184.56914062 343.7334375 -184.03125 342.984375 C-177.27198103 333.75104786 -169.87450026 325.31025064 -161.671875 317.33203125 C-141.77776458 297.96562845 -127.51312937 274.74680107 -127.08105469 246.24951172 C-127.21738643 240.20778951 -129.05250636 237.01025501 -132.80078125 232.4609375 C-141.10160123 222.04913313 -141.99916996 205.93560329 -142.61328125 193.1875 C-144.59328125 193.1875 -146.57328125 193.1875 -148.61328125 193.1875 C-148.94328125 199.4575 -149.27328125 205.7275 -149.61328125 212.1875 C-149.94328125 212.1875 -150.27328125 212.1875 -150.61328125 212.1875 C-151.96632095 206.48634244 -152.70773722 201.04903655 -152.92578125 195.1875 C-153.30300982 188.55698247 -155.11780677 183.78541853 -158.61328125 178.1875 C-159.60328125 178.5175 -160.59328125 178.8475 -161.61328125 179.1875 C-182.79962803 137.65595172 -179.89491717 89.39833843 -165.80078125 45.75 C-162.87486586 37.16240966 -159.0134725 29.1096052 -154.61328125 21.1875 C-154.04738281 20.16785156 -153.48148437 19.14820313 -152.8984375 18.09765625 C-142.6968992 0.98307552 -124.5783731 -11.10520036 -105.48046875 -16.25390625 C-70.92499191 -24.97871544 -28.47741666 -24.21268277 0 0 Z " fill="#8E6B4E" transform="translate(324.61328125,87.8125)"/>
<path d="M0 0 C23.44075227 21.4841592 39.99332462 57.69681246 41.54785156 89.48217773 C41.91627298 119.21507121 41.91627298 119.21507121 38.38671875 132.1875 C38.17208984 132.99977051 37.95746094 133.81204102 37.73632812 134.64892578 C34.80355772 145.68317147 31.44114562 156.51323456 27.38671875 167.1875 C27.05671875 167.1875 26.72671875 167.1875 26.38671875 167.1875 C26.9120667 162.02157851 27.58655401 156.93342473 28.44921875 151.8125 C30.50620243 139.51000009 30.50620243 139.51000009 26.38671875 128.1875 C22.89547858 125.86000655 21.49449624 125.68450684 17.38671875 126.1875 C10.00496558 131.03836637 9.04841708 144.26243853 7.08328247 152.34411621 C4.58617415 162.61278369 1.99024459 172.81367432 -1.05078125 182.9375 C-3.16237976 190.0088518 -4.58249923 196.75364235 -4.61328125 204.1875 C-5.27328125 203.8575 -5.93328125 203.5275 -6.61328125 203.1875 C-7.2590465 188.82572233 -5.39292369 175.87384184 -2.30078125 161.875 C1.92983959 142.33164453 6.02019923 122.77660276 5.76171875 102.6875 C5.75084229 101.49825928 5.73996582 100.30901855 5.72875977 99.08374023 C5.44327576 83.39073824 2.59000338 69.29766063 -8.73828125 57.5625 C-11.4751724 54.96188559 -14.3364389 53.05836155 -17.61328125 51.1875 C-18.10634766 52.20457031 -18.10634766 52.20457031 -18.609375 53.2421875 C-27.11254663 69.87982954 -40.80157212 79.73622127 -57.23828125 87.9375 C-58.97513184 88.82356934 -58.97513184 88.82356934 -60.74707031 89.72753906 C-66.67758826 92.74962461 -72.64266595 95.69884968 -78.62109375 98.625 C-90.48867243 104.44349165 -102.0682087 110.16098389 -112.61328125 118.1875 C-113.18320801 118.61740234 -113.75313477 119.04730469 -114.34033203 119.49023438 C-133.34666786 134.05732813 -143.88096491 153.99990574 -147.2578125 177.45703125 C-148.74851626 188.97796857 -149.17857724 200.58776662 -149.61328125 212.1875 C-149.94328125 212.1875 -150.27328125 212.1875 -150.61328125 212.1875 C-151.96632095 206.48634244 -152.70773722 201.04903655 -152.92578125 195.1875 C-153.30300982 188.55698247 -155.11780677 183.78541853 -158.61328125 178.1875 C-159.60328125 178.5175 -160.59328125 178.8475 -161.61328125 179.1875 C-182.79962803 137.65595172 -179.89491717 89.39833843 -165.80078125 45.75 C-162.87486586 37.16240966 -159.0134725 29.1096052 -154.61328125 21.1875 C-154.04738281 20.16785156 -153.48148438 19.14820313 -152.8984375 18.09765625 C-142.6968992 0.98307552 -124.5783731 -11.10520036 -105.48046875 -16.25390625 C-70.92499191 -24.97871544 -28.47741666 -24.21268277 0 0 Z " fill="#332E28" transform="translate(324.61328125,87.8125)"/>
<path d="M0 0 C10.12973711 3.37657904 10.12973711 3.37657904 13.44873047 4.78662109 C14.20272629 5.10529144 14.95672211 5.42396179 15.73356628 5.75228882 C16.52016129 6.08926788 17.30675629 6.42624695 18.1171875 6.7734375 C18.96408646 7.13353912 19.81098541 7.49364075 20.68354797 7.86465454 C23.41631004 9.0295284 26.14608005 10.20115531 28.875 11.375 C29.80841217 11.77605957 30.74182434 12.17711914 31.70352173 12.59033203 C95.70316413 40.13776272 95.70316413 40.13776272 103.5 58.25 C104.77610917 61.61628798 105.7862605 64.44284905 105 68 C102.73701003 70.28984314 100.11903812 71.98536195 97.4375 73.75 C96.66535156 74.27440674 95.89320313 74.79881348 95.09765625 75.33911133 C87.89856374 80.18005847 80.55426303 84.73664584 73 89 C72.34596191 89.3722168 71.69192383 89.74443359 71.01806641 90.12792969 C40.01236323 107.62597627 2.09815964 120.1100584 -33.74316406 120.01635742 C-35.5003476 120.01281502 -35.5003476 120.01281502 -37.29302979 120.00920105 C-38.18632996 120.0061647 -39.07963013 120.00312836 -40 120 C-40.2787523 109.8558286 -40.49160712 99.71257591 -40.62174606 89.56534672 C-40.68422859 84.85264861 -40.76887172 80.14258059 -40.90527344 75.43139648 C-41.03623174 70.87942902 -41.10752046 66.32998023 -41.13852692 61.77627373 C-41.16060261 60.04446185 -41.20371955 58.31277929 -41.26876068 56.58204842 C-41.75756809 43.02867098 -41.75756809 43.02867098 -37.38269043 37.97897339 C-34.47244907 35.60298303 -31.29327947 33.80162099 -28 32 C-18.31287745 24.91756123 -11.86274105 14.9215427 -10 3 C-9.34 3 -8.68 3 -8 3 C-5.69 9.27 -3.38 15.54 -1 22 C-0.67 14.74 -0.34 7.48 0 0 Z " fill="#D4C270" transform="translate(305,384)"/>
<path d="M0 0 C1.91803741 1.39261759 3.81634446 2.80452616 5.69897461 4.24487305 C7.18034525 5.37480127 8.68280239 6.47786358 10.20922852 7.54614258 C16.47652473 12.30016741 17.69782718 17.11065802 18.9375 24.6875 C19.13150391 25.71939453 19.32550781 26.75128906 19.52539062 27.81445312 C19.88316038 29.72214584 20.22781258 31.63238405 20.55444336 33.5456543 C20.9394627 35.91728441 20.9394627 35.91728441 21.54638672 37.84765625 C22.22864356 41.08488783 22.16233239 44.3195537 22.16796875 47.61328125 C22.17224884 48.3666275 22.17652893 49.11997375 22.18093872 49.89614868 C22.19100554 52.36832505 22.19096914 54.84030677 22.1875 57.3125 C22.18656342 58.16256622 22.18562683 59.01263245 22.18466187 59.88845825 C22.09705704 96.71139706 20.15922716 133.9401194 5 168 C-32.56503323 163.00281668 -66.82767291 142.73223019 -97 121 C-96.47213371 111.49840675 -92.85217343 104.35462144 -86.05078125 97.75952148 C-82.50901996 94.72077463 -78.58472685 92.40582797 -74.5625 90.0625 C-73.73556641 89.56943359 -72.90863281 89.07636719 -72.05664062 88.56835938 C-70.04306199 87.36952354 -68.02441953 86.18040366 -66 85 C-63.03769035 88.3523056 -62.22392824 91.40986554 -61.3125 95.75 C-61.06113281 96.92046875 -60.80976563 98.0909375 -60.55078125 99.296875 C-60.36902344 100.18890625 -60.18726563 101.0809375 -60 102 C-59.47792969 101.27296875 -58.95585937 100.5459375 -58.41796875 99.796875 C-51.65869978 90.56354786 -44.26121901 82.12275064 -36.05859375 74.14453125 C-14.40532819 53.06563635 -3.72704362 29.84665016 0 0 Z " fill="#342F29" transform="translate(199,331)"/>
<path d="M0 0 C-2.14973056 24.4659811 -8.44862888 47.4665213 -27.40625 63.87890625 C-38.64531031 73.06988479 -38.64531031 73.06988479 -41.96875 72.8984375 C-50.66765549 69.05084469 -58.2273815 61.52949886 -65 55 C-65.66128906 54.37609375 -66.32257813 53.7521875 -67.00390625 53.109375 C-74.35013779 45.55687778 -77.05080951 35.68274491 -78.46484375 25.46875 C-79.30263925 20.03836749 -80.51326336 14.68958064 -81.67993164 9.32177734 C-81.85000732 8.5323877 -82.02008301 7.74299805 -82.1953125 6.9296875 C-82.35016113 6.22054199 -82.50500977 5.51139648 -82.66455078 4.78076172 C-83 3 -83 3 -83 1 C-78.83758488 2.65287186 -75.97797349 5.6974139 -72.8125 8.75 C-61.93193963 18.98962975 -53.34807875 23.71619429 -37.94140625 23.3046875 C-24.38092993 22.25640489 -15.30610157 12.44950853 -5.93408203 3.50561523 C-2.21335654 0 -2.21335654 0 0 0 Z " fill="#826248" transform="translate(298,345)"/>
<path d="M0 0 C0.44947998 0.39687012 0.89895996 0.79374023 1.36206055 1.20263672 C4.71025547 4.12235168 7.98490781 6.84279 11.8125 9.125 C12.56144531 9.58132813 13.31039062 10.03765625 14.08203125 10.5078125 C18.24793013 12.63816507 22.65565016 14.26226007 27 16 C27 44.05 27 72.1 27 101 C11.24087956 101 11.24087956 101 5.578125 100.16015625 C4.36898437 99.98419922 3.15984375 99.80824219 1.9140625 99.62695312 C0.70492187 99.44068359 -0.50421875 99.25441406 -1.75 99.0625 C-3.00554687 98.88009766 -4.26109375 98.69769531 -5.5546875 98.50976562 C-14.69489247 97.15255376 -14.69489247 97.15255376 -17 96 C-16.4121875 94.2365625 -16.4121875 94.2365625 -15.8125 92.4375 C-15.53792969 91.59832031 -15.26335937 90.75914062 -14.98046875 89.89453125 C-14.3118473 87.92063285 -13.60424583 85.95961532 -12.86328125 84.01171875 C-5.71000898 64.44740625 -3.5410577 43.62580232 -2.21044922 22.96582031 C-1.86609964 18.11296796 -1.37488781 13.27643142 -0.875 8.4375 C-0.78710205 7.57970947 -0.6992041 6.72191895 -0.60864258 5.83813477 C-0.40798931 3.8918589 -0.20437268 1.94588882 0 0 Z " fill="#D4C26F" transform="translate(221,403)"/>
<path d="M0 0 C3 1 3 1 4.3515625 3.16015625 C8.12691829 11.76472482 8.93526125 19.74235873 9 29 C9.00837891 30.00998047 9.01675781 31.01996094 9.02539062 32.06054688 C9.07085138 39.04083962 9.05682753 46.01983073 9 53 C6.17678135 50.17678135 5.22705463 46.74021797 3.875 43.0625 C3.59785156 42.33353516 3.32070313 41.60457031 3.03515625 40.85351562 C1.89178807 37.78106567 1 35.30460627 1 32 C0.34 32 -0.32 32 -1 32 C-1.04125 33.27875 -1.0825 34.5575 -1.125 35.875 C-2.33937134 46.48827284 -10.77107408 55.838348 -18.8515625 62.26953125 C-22.50624323 64.94545183 -26.23168256 67.48778837 -30 70 C-30.31627816 72.56975551 -30.43742379 74.90445602 -30.43237305 77.47900391 C-30.4425647 78.24982803 -30.45275635 79.02065216 -30.46325684 79.81483459 C-30.49350935 82.36881665 -30.5026712 84.92242444 -30.51171875 87.4765625 C-30.5285564 89.24491637 -30.54670539 91.0132582 -30.56611633 92.78158569 C-30.61372193 97.44059488 -30.64346278 102.0995553 -30.66955566 106.75872803 C-30.69930811 111.51112506 -30.74585657 116.26335381 -30.79101562 121.015625 C-30.87716892 130.34368159 -30.94290868 139.67172021 -31 149 C-36.61 149 -42.22 149 -48 149 C-48.33 120.95 -48.66 92.9 -49 64 C-53.29 62.35 -57.58 60.7 -62 59 C-64.97401441 57.01732373 -67.41939941 55.35423211 -70 53 C-70.89074219 52.36707031 -71.78148437 51.73414063 -72.69921875 51.08203125 C-76.29281077 46.26820425 -75.53398965 41.51778907 -75.3125 35.6875 C-75.28994141 34.56537109 -75.26738281 33.44324219 -75.24414062 32.28710938 C-75.18533776 29.52337464 -75.10320401 26.76237446 -75 24 C-73.21465004 26.67802494 -72.43175487 28.57012907 -71.4375 31.5625 C-66.67408951 43.68273337 -52.5236415 56.12871461 -41 62 C-32.31995224 61.57029467 -21.68745278 49.97861931 -16 44 C-7.32738398 32.96816659 -4.6636294 20.22841413 -1.83203125 6.80859375 C-1 3 -1 3 0 0 Z " fill="#F9F7F4" transform="translate(296,355)"/>
<path d="M0 0 C-2.9685471 1.71665981 -5.89110067 2.50888252 -9.22729492 3.2409668 C-30.17864972 7.86619648 -49.47783463 18.17114575 -61.5 36.4375 C-68.89517854 48.12783388 -74.46475864 60.62529377 -78 74 C-78.25136719 74.86625 -78.50273437 75.7325 -78.76171875 76.625 C-80.69373625 83.65795258 -81.90547512 90.81658021 -83.125 98 C-83.29580078 98.99684814 -83.46660156 99.99369629 -83.64257812 101.02075195 C-88.32703902 129.48911667 -88.69473378 160.16911338 -77 187 C-76.20142578 187.99966797 -76.20142578 187.99966797 -75.38671875 189.01953125 C-73.34317081 191.9380631 -73.2342672 194.7460879 -72.8125 198.25 C-72.57466797 200.14492188 -72.57466797 200.14492188 -72.33203125 202.078125 C-72.22246094 203.04234375 -72.11289063 204.0065625 -72 205 C-74.29113732 202.8092961 -75.6975667 200.90542812 -77 198 C-77.99 198.33 -78.98 198.66 -80 199 C-101.18634678 157.46845172 -98.28163592 109.21083843 -84.1875 65.5625 C-81.26158461 56.97490966 -77.40019125 48.9221052 -73 41 C-72.43410156 39.98035156 -71.86820313 38.96070313 -71.28515625 37.91015625 C-60.40574871 19.65835019 -41.27054377 7.9775398 -20.99633789 2.80957031 C-20.06942139 2.58366211 -19.14250488 2.35775391 -18.1875 2.125 C-17.30376709 1.9094043 -16.42003418 1.69380859 -15.50952148 1.47167969 C-10.21416843 0.26843979 -5.42786473 -0.21434077 0 0 Z " fill="#48453F" transform="translate(243,68)"/>
<path d="M0 0 C13.67594338 6.17049072 25.81779107 14.22264715 31.37109375 28.60546875 C32.60286325 33.29537376 32.60286325 33.29537376 32 36 C29.73656907 38.28947076 27.11882902 39.98495455 24.4375 41.75 C23.2923291 42.53008423 23.2923291 42.53008423 22.12402344 43.32592773 C14.92434596 48.17804605 7.50753049 52.64526249 0 57 C-0.92296875 57.57621094 -1.8459375 58.15242188 -2.796875 58.74609375 C-5 60 -5 60 -7 60 C-7.88601343 15.77202687 -7.88601343 15.77202687 0 0 Z " fill="#8F6D50" transform="translate(378,416)"/>
<path d="M0 0 C11.46118721 1.14611872 11.46118721 1.14611872 15 4 C16.49282393 6.98564786 16.11916977 9.68983718 16.11352539 13.02001953 C16.11367142 13.74207581 16.11381744 14.46413208 16.1139679 15.20806885 C16.11327007 17.59968041 16.10548375 19.99121451 16.09765625 22.3828125 C16.09579161 24.03905189 16.09436792 25.69529184 16.09336853 27.35153198 C16.08954699 31.71467608 16.07971978 36.077787 16.06866455 40.44091797 C16.05844264 44.89159699 16.05386924 49.34228137 16.04882812 53.79296875 C16.0380972 62.52866278 16.02050332 71.26432344 16 80 C10.72 80 5.44 80 0 80 C0 53.6 0 27.2 0 0 Z " fill="#FCFCFC" transform="translate(248,424)"/>
<path d="M0 0 C4.25630877 5.07577051 6.51832504 11.33300628 6 18 C4.69591636 22.21978379 2.65172799 26.03828702 0.58520508 29.92724609 C-3.09423262 36.85829626 -4.89140915 43.18889433 -6 51 C-10.27278292 51 -12.85208272 48.65646446 -16.25 46.3125 C-16.89324219 45.87744141 -17.53648438 45.44238281 -18.19921875 44.99414062 C-22.51488597 42.06348129 -26.76444377 39.04499185 -31 36 C-30.47213371 26.49840675 -26.85217343 19.35462144 -20.05078125 12.75952148 C-16.50901996 9.72077463 -12.58472685 7.40582797 -8.5625 5.0625 C-7.73556641 4.56943359 -6.90863281 4.07636719 -6.05664062 3.56835938 C-4.04306199 2.36952354 -2.02441953 1.18040366 0 0 Z " fill="#8F6D50" transform="translate(133,416)"/>
<path d="M0 0 C2.64 1.98 5.28 3.96 8 6 C7.54194778 8.04361759 7.08229725 10.08688333 6.6171875 12.12890625 C6.18730395 14.128681 5.79978624 16.13783456 5.4453125 18.15234375 C0.78868742 43.2463789 -14.21720896 61.43863763 -32 78.875 C-49.94887573 96.59369825 -60.03906721 114.49712723 -66 139 C-67.98 138.67 -69.96 138.34 -72 138 C-74.68252534 129.95242398 -69.20406569 118.90388972 -65.59667969 111.64233398 C-61.20633879 103.24977167 -56.41992589 95.99415897 -50 89 C-49.02740234 87.86884766 -49.02740234 87.86884766 -48.03515625 86.71484375 C-44.49960773 82.64998086 -40.8275131 78.80739017 -36.96875 75.05078125 C-14.92238808 53.57252399 -3.80559882 30.47573035 0 0 Z " fill="#48443E" transform="translate(199,331)"/>
<path d="M0 0 C0.495 0.639375 0.99 1.27875 1.5 1.9375 C4.3396379 5.41605643 7.34913682 8.709373 10.390625 12.01171875 C12 14 12 14 12 16 C12.59296875 16.26425781 13.1859375 16.52851563 13.796875 16.80078125 C16.08029054 18.04370425 17.47426723 19.30401646 19.25 21.1875 C22.31289251 24.3414339 25.50225372 27.24940233 28.8359375 30.11328125 C31.24816176 32.21635763 33.5872329 34.39050393 35.9375 36.5625 C39.77351019 40.03740429 43.69514067 42.98319076 48.08984375 45.7109375 C49.97263433 46.98153237 51.45432463 48.34288095 53 50 C51.3970551 51.29318256 49.79259858 52.58449156 48.1875 53.875 C47.29417969 54.59429687 46.40085937 55.31359375 45.48046875 56.0546875 C40.40643173 60.03401102 40.40643173 60.03401102 38.1328125 59.84375 C29.37634571 56.37965325 21.68609559 48.4460819 15 42 C14.33871094 41.37609375 13.67742187 40.7521875 12.99609375 40.109375 C4.81903753 31.70272541 2.35188591 20.31811462 1 9 C0.88914063 8.0925 0.77828125 7.185 0.6640625 6.25 C0.42342444 4.16880593 0.20846624 2.08466239 0 0 Z " fill="#8F6C50" transform="translate(218,358)"/>
<path d="M0 0 C3 1 3 1 4.3515625 3.16015625 C8.12691829 11.76472482 8.93526125 19.74235873 9 29 C9.00837891 30.00998047 9.01675781 31.01996094 9.02539062 32.06054688 C9.07085138 39.04083962 9.05682753 46.01983073 9 53 C6.17678135 50.17678135 5.22705463 46.74021797 3.875 43.0625 C3.59785156 42.33353516 3.32070313 41.60457031 3.03515625 40.85351562 C1.89178807 37.78106567 1 35.30460627 1 32 C0.34 32 -0.32 32 -1 32 C-1.04125 33.27875 -1.0825 34.5575 -1.125 35.875 C-1.88019772 42.80311825 -5.65687051 47.91530865 -9.77734375 53.33984375 C-12 55 -12 55 -15.234375 54.953125 C-16.39453125 54.72109375 -17.5546875 54.4890625 -18.75 54.25 C-20.50570313 53.91742188 -20.50570313 53.91742188 -22.296875 53.578125 C-23.18890625 53.38734375 -24.0809375 53.1965625 -25 53 C-24.319375 52.34 -23.63875 51.68 -22.9375 51 C-21.95345289 50.00480221 -20.97486987 49.00418927 -20 48 C-19.43410156 47.41863281 -18.86820312 46.83726562 -18.28515625 46.23828125 C-7.4767195 34.57841403 -4.60360303 19.92511811 -1.43310547 4.85009766 C-1 3 -1 3 0 0 Z " fill="#E2E2E2" transform="translate(296,355)"/>
<path d="M0 0 C0.66 0.33 1.32 0.66 2 1 C0.60201172 2.32837891 0.60201172 2.32837891 -0.82421875 3.68359375 C-9.8324382 12.38884617 -17.61411661 21.51198959 -24.93115234 31.67749023 C-25.28387207 32.11391846 -25.6365918 32.55034668 -26 33 C-26.33 33 -26.66 33 -27 33 C-27.20496094 32.03578125 -27.40992188 31.0715625 -27.62109375 30.078125 C-27.89050781 28.81484375 -28.15992188 27.5515625 -28.4375 26.25 C-28.70433594 24.99703125 -28.97117188 23.7440625 -29.24609375 22.453125 C-29.79182028 19.95352783 -30.37084831 17.47862024 -31 15 C-9.12131879 3.08062162 -9.12131879 3.08062162 0 0 Z " fill="#D1C070" transform="translate(165,401)"/>
<path d="M0 0 C0.94875 0.86625 1.8975 1.7325 2.875 2.625 C10.08852481 8.778993 18.12608616 12.79028648 27 16 C27 17.65 27 19.3 27 21 C15.93781348 20.29763895 8.93342078 16.69563432 1 9 C0.67 10.65 0.34 12.3 0 14 C-0.33 14 -0.66 14 -1 14 C-1.08333357 9.1666528 -0.95261487 4.76307437 0 0 Z " fill="#C1B167" transform="translate(221,403)"/>
<path d="M0 0 C0.66 0 1.32 0 2 0 C2.84124316 2.24732102 3.67314832 4.49738785 4.5 6.75 C4.73847656 7.38421875 4.97695313 8.0184375 5.22265625 8.671875 C6.44801758 12.03286607 7 14.36871587 7 18 C-3.37357631 22.59225513 -3.37357631 22.59225513 -9 22 C-7.63018637 19.17793026 -6.10812783 16.50415298 -4.5 13.8125 C-1.94344871 9.27254755 -0.89327646 5.11603791 0 0 Z " fill="#C2B36A" transform="translate(295,387)"/>
<path d="M0 0 C0.99 0.33 1.98 0.66 3 1 C3.66 6.61 4.32 12.22 5 18 C5.33 15.69 5.66 13.38 6 11 C6.33 11 6.66 11 7 11 C7 18.92 7 26.84 7 35 C4.17678135 32.17678135 3.22705463 28.74021797 1.875 25.0625 C1.59785156 24.33353516 1.32070313 23.60457031 1.03515625 22.85351562 C-0.10821193 19.78106567 -1 17.30460627 -1 14 C-1.66 14 -2.32 14 -3 14 C-2.69249629 11.85344499 -2.3788634 9.70776715 -2.0625 7.5625 C-1.88847656 6.36753906 -1.71445312 5.17257812 -1.53515625 3.94140625 C-1 1 -1 1 0 0 Z " fill="#D7D6D1" transform="translate(298,373)"/>
<path d="M0 0 C5.06057937 1.58615174 9.57595309 3.003065 14 6 C9.88862122 10.23985937 5.59026002 14.27845742 1 18 C0.67 18 0.34 18 0 18 C0 12.06 0 6.12 0 0 Z " fill="#C0B166" transform="translate(305,384)"/>
<path d="M0 0 C2.31 0.33 4.62 0.66 7 1 C6.01 1.33 5.02 1.66 4 2 C4 8.27 4 14.54 4 21 C3.67 21 3.34 21 3 21 C2.67 19.35 2.34 17.7 2 16 C1.67 18.64 1.34 21.28 1 24 C-0.82976016 20.89003222 -1.20629302 18.81817118 -0.9765625 15.234375 C-0.925 14.34492188 -0.8734375 13.45546875 -0.8203125 12.5390625 C-0.75585938 11.61867188 -0.69140625 10.69828125 -0.625 9.75 C-0.56828125 8.81414062 -0.5115625 7.87828125 -0.453125 6.9140625 C-0.31197212 4.60856552 -0.1605965 2.30421072 0 0 Z " fill="#89AFAF" transform="translate(175,280)"/>
<path d="M0 0 C1 1 1 1 1.125 3.5 C1 6 1 6 0 7 C-2.4375 7.1875 -2.4375 7.1875 -5 7 C-5.66 6.34 -6.32 5.68 -7 5 C-6.75 2.4375 -6.75 2.4375 -6 0 C-3.49749232 -1.25125384 -2.59701335 -0.83774624 0 0 Z " fill="#D7CDC3" transform="translate(259,476)"/>
<path d="M0 0 C1 1 1 1 1.125 3.5 C1 6 1 6 0 7 C-2.4375 7.1875 -2.4375 7.1875 -5 7 C-5.66 6.34 -6.32 5.68 -7 5 C-6.75 2.4375 -6.75 2.4375 -6 0 C-3.49749232 -1.25125384 -2.59701335 -0.83774624 0 0 Z " fill="#D7CDC3" transform="translate(259,432)"/>
<path d="M0 0 C2.13113362 0.73238958 4.25479751 1.48654314 6.375 2.25 C7.55835938 2.66765625 8.74171875 3.0853125 9.9609375 3.515625 C13 5 13 5 14.4140625 7.171875 C14.60742188 7.77515625 14.80078125 8.3784375 15 9 C14.33613281 8.79503906 13.67226563 8.59007812 12.98828125 8.37890625 C12.10527344 8.10949219 11.22226562 7.84007812 10.3125 7.5625 C9.44238281 7.29566406 8.57226562 7.02882813 7.67578125 6.75390625 C5.12974079 6.03655471 2.5996577 5.482459 0 5 C0 3.35 0 1.7 0 0 Z " fill="#E5E5E5" transform="translate(248,419)"/>
<path d="M0 0 C0.33 0 0.66 0 1 0 C1.66 4.62 2.32 9.24 3 14 C-0.15492007 10.84507993 -1.05840255 9.2799884 -2 5 C-1.125 2.125 -1.125 2.125 0 0 Z " fill="#886B52" transform="translate(168,259)"/>
</svg>
