<?xml version="1.0" encoding="UTF-8"?>
<svg version="1.1" xmlns="http://www.w3.org/2000/svg" width="512" height="512">
<path d="M0 0 C1.45108658 0.00273422 1.45108658 0.00273422 2.93148804 0.00552368 C17.26440977 0.05095174 31.21023917 0.55983928 45.3125 3.3125 C46.65803955 3.55395752 46.65803955 3.55395752 48.03076172 3.80029297 C107.84088904 14.62287989 165.35495829 48.68064457 202.3125 97.3125 C202.72918945 97.85277832 203.14587891 98.39305664 203.57519531 98.94970703 C211.2584873 108.9447116 218.00092968 119.40459036 224.3125 130.3125 C224.70679199 130.98974121 225.10108398 131.66698242 225.50732422 132.36474609 C238.68961173 155.2833756 247.29510918 180.85822563 252.625 206.6875 C252.77243652 207.39817627 252.91987305 208.10885254 253.07177734 208.84106445 C256.05713787 224.48358366 256.6873098 240.11919606 256.625 256 C256.62226578 257.45108658 256.62226578 257.45108658 256.61947632 258.93148804 C256.57404826 273.26440977 256.06516072 287.21023917 253.3125 301.3125 C253.15152832 302.20952637 252.99055664 303.10655273 252.82470703 304.03076172 C242.00212011 363.84088904 207.94435543 421.35495829 159.3125 458.3125 C158.77222168 458.72918945 158.23194336 459.14587891 157.67529297 459.57519531 C147.6802884 467.2584873 137.22040964 474.00092968 126.3125 480.3125 C125.63525879 480.70679199 124.95801758 481.10108398 124.26025391 481.50732422 C86.65686251 503.13596116 43.74617007 512.78895955 0.6875 512.625 C-0.83935928 512.62176727 -0.83935928 512.62176727 -2.39706421 512.61846924 C-17.00613523 512.56879854 -31.33825853 512.31790191 -45.6875 509.3125 C-47.14978027 509.01448486 -47.14978027 509.01448486 -48.64160156 508.71044922 C-108.22582385 496.24649799 -164.47712629 464.27705313 -201.6875 415.3125 C-202.10418945 414.77222168 -202.52087891 414.23194336 -202.95019531 413.67529297 C-210.6334873 403.6802884 -217.37592968 393.22040964 -223.6875 382.3125 C-224.08179199 381.63525879 -224.47608398 380.95801758 -224.88232422 380.26025391 C-238.06461173 357.3416244 -246.67010918 331.76677437 -252 305.9375 C-252.14743652 305.22682373 -252.29487305 304.51614746 -252.44677734 303.78393555 C-255.43213787 288.14141634 -256.0623098 272.50580394 -256 256.625 C-255.99817719 255.65760895 -255.99635437 254.6902179 -255.99447632 253.69351196 C-255.94904826 239.36059023 -255.44016072 225.41476083 -252.6875 211.3125 C-252.44604248 209.96696045 -252.44604248 209.96696045 -252.19970703 208.59423828 C-241.37712011 148.78411096 -207.31935543 91.27004171 -158.6875 54.3125 C-158.14722168 53.89581055 -157.60694336 53.47912109 -157.05029297 53.04980469 C-147.0552884 45.3665127 -136.59540964 38.62407032 -125.6875 32.3125 C-125.01025879 31.91820801 -124.33301758 31.52391602 -123.63525391 31.11767578 C-100.7166244 17.93538827 -75.14177437 9.32989082 -49.3125 4 C-48.60182373 3.85256348 -47.89114746 3.70512695 -47.15893555 3.55322266 C-31.51641634 0.56786213 -15.88080394 -0.0623098 0 0 Z " fill="#48A0AE" transform="translate(255.6875,-0.3125)"/>
<path d="M0 0 C0.66 0 1.32 0 2 0 C2.15855469 0.65226563 2.31710937 1.30453125 2.48046875 1.9765625 C4.66928873 10.17556773 7.63817046 14.92294986 14.87890625 19.78125 C23.07231203 24.48906327 31.94399286 26.95373278 41.04296875 29.203125 C44 30 44 30 45 31 C45.07325168 33.86267567 45.09238205 36.700719 45.0625 39.5625 C45.05798828 40.36880859 45.05347656 41.17511719 45.04882812 42.00585938 C45.03700518 44.00393756 45.01906914 46.00197783 45 48 C45.66 48 46.32 48 47 48 C47.20496094 47.37351563 47.40992188 46.74703125 47.62109375 46.1015625 C47.89050781 45.28429687 48.15992188 44.46703125 48.4375 43.625 C48.70433594 42.81289062 48.97117187 42.00078125 49.24609375 41.1640625 C50 39 50 39 51 37 C54.9088118 37.79952969 56.70861409 38.67027384 59.375 41.6875 C64.70258628 52.4764195 60.44897389 69.6122621 56.828125 80.53515625 C54.86281679 85.52728172 53.21610084 89.51748458 49 93 C45.75 93.25 45.75 93.25 43 93 C42.89816406 93.65097656 42.79632813 94.30195313 42.69140625 94.97265625 C38.89784302 111.58289074 30.09538336 127.2489102 19 140 C18.29359375 140.81597656 17.5871875 141.63195312 16.859375 142.47265625 C11.39974619 148.69056684 11.39974619 148.69056684 8.890625 150.6328125 C3.8692977 156.91984627 4.62154158 166.93084812 4.375 174.625 C4.31699219 176.13126953 4.31699219 176.13126953 4.2578125 177.66796875 C4.16471378 180.11181005 4.07889087 182.55566596 4 185 C4.89847656 184.9175 5.79695312 184.835 6.72265625 184.75 C10.80232265 185.0612022 11.66691899 186.07632093 14.4375 189 C25.1125676 199.02952516 36.31672847 202.65678533 50.37719727 205.78637695 C74.36866554 211.13160772 103.22817708 219.7143371 118 241 C121.33781491 247.41166997 122.52450491 254.26703337 123.9375 261.3125 C124.19547363 262.57964844 124.45344727 263.84679687 124.71923828 265.15234375 C131.80480348 300.39709299 131.80480348 300.39709299 131 308 C129.59716797 309.7800293 129.59716797 309.7800293 127.6171875 311.38671875 C126.88338867 311.98274902 126.14958984 312.5787793 125.39355469 313.19287109 C121.39510363 316.21169349 117.3079677 319.05567685 113.125 321.8125 C112.20662354 322.41924561 111.28824707 323.02599121 110.34204102 323.65112305 C67.99959644 351.3108602 19.8937237 365.50486607 -30.625 365.3125 C-31.64290619 365.31034485 -32.66081238 365.3081897 -33.70956421 365.30596924 C-48.31863523 365.25629854 -62.65075853 365.00540191 -77 362 C-78.46228027 361.70198486 -78.46228027 361.70198486 -79.95410156 361.39794922 C-117.56520659 353.53038024 -153.44038485 338.77516734 -184.13085938 315.40380859 C-185.41046505 314.44276724 -186.72766577 313.53037782 -188.07226562 312.66259766 C-190.10435356 311.22898072 -191.57118407 310.0391342 -193 308 C-193.43995815 304.5298301 -192.69929662 301.4010706 -192 298 C-191.72386359 295.97666718 -191.45872329 293.951811 -191.203125 291.92578125 C-189.61400557 280.70722391 -187.87422175 269.53211056 -185.5625 258.4375 C-185.38170898 257.5297583 -185.20091797 256.6220166 -185.01464844 255.68676758 C-182.29156105 243.20208456 -176.48227622 234.31896559 -166.0546875 226.90625 C-148.25141997 215.53315526 -128.94644321 209.26830522 -108.5390625 204.33203125 C-107.11376221 203.98700562 -107.11376221 203.98700562 -105.65966797 203.63500977 C-104.0152791 203.24240324 -102.36879869 202.85831416 -100.71923828 202.48803711 C-90.1622844 200.05210749 -81.75020373 194.46673397 -74.31640625 186.72265625 C-71.38327981 184.54135986 -69.57117874 184.66600487 -66 185 C-66.11163587 181.54110333 -66.2418243 178.08312901 -66.375 174.625 C-66.4059375 173.65949219 -66.436875 172.69398438 -66.46875 171.69921875 C-66.60055291 160.19997742 -66.60055291 160.19997742 -71.328125 150.18359375 C-72.65070313 149.10271484 -72.65070313 149.10271484 -74 148 C-86.67415973 135.09501948 -105 111.729725 -105 93 C-105.886875 93.103125 -106.77375 93.20625 -107.6875 93.3125 C-111.08014124 92.99243951 -112.59716102 92.49187934 -114.84375 89.9140625 C-121.66575303 78.62088181 -124.60826324 58.90224666 -123 46 C-122.05545849 42.87287386 -121.17737372 41.57846888 -119 39 C-115.75 37.5625 -115.75 37.5625 -113 37 C-112.32880451 38.4562545 -111.66318193 39.91507867 -111 41.375 C-110.62875 42.18710938 -110.2575 42.99921875 -109.875 43.8359375 C-109 46 -109 46 -109 48 C-108.34 48 -107.68 48 -107 48 C-107 42.72 -107 37.44 -107 32 C-104.94523437 31.81824219 -102.89046875 31.63648438 -100.7734375 31.44921875 C-49.35872582 28.90300988 -49.35872582 28.90300988 -4 8 C-2.12903386 5.33855066 -1.13570856 3.08263752 0 0 Z " fill="#9AD0DC" transform="translate(287,147)"/>
<path d="M0 0 C0.91273682 -0.00570007 1.82547363 -0.01140015 2.76586914 -0.01727295 C4.69562635 -0.02669382 6.62539944 -0.03324531 8.55517578 -0.03710938 C11.46286319 -0.04675185 14.3698238 -0.07777689 17.27734375 -0.109375 C27.79049857 -0.17000593 37.32795885 0.30997159 47.5 3.203125 C48.34594727 3.43290039 49.19189453 3.66267578 50.06347656 3.89941406 C64.718842 8.08930591 76.62233143 14.34389315 87.5 25.203125 C88.54800781 26.23373047 88.54800781 26.23373047 89.6171875 27.28515625 C115.50807688 54.43533013 115.69285118 97.44978174 115.61352539 132.63476562 C115.61324252 134.42035419 115.6134032 136.20594287 115.6139679 137.99153137 C115.61425197 142.78589599 115.60841882 147.58023501 115.60139394 152.37459373 C115.59509497 157.4047164 115.59455147 162.43483982 115.59336853 167.46496582 C115.59027436 176.96654259 115.58208704 186.4681077 115.57201904 195.96967936 C115.56079812 206.79692866 115.55533246 217.62417855 115.55032361 228.45143223 C115.5399026 250.70200297 115.52234063 272.95256324 115.5 295.203125 C114.41030411 294.92833313 113.32060822 294.65354126 112.19789124 294.37042236 C110.74920939 294.00633653 109.3005138 293.64230541 107.85180664 293.27832031 C107.13584572 293.09761993 106.4198848 292.91691956 105.68222809 292.73074341 C101.75834029 291.74610398 97.83427931 290.81650369 93.87109375 290 C78.82259709 286.85743713 66.6407013 282.31012831 55.74609375 270.98828125 C53.01327537 268.81628473 50.93379349 268.51349658 47.5 268.203125 C47.44101631 264.74486564 47.40607869 261.2867388 47.375 257.828125 C47.35824219 256.86261719 47.34148437 255.89710938 47.32421875 254.90234375 C47.21725426 238.96463453 47.21725426 238.96463453 51.828125 233.38671875 C52.70984375 232.66613281 53.5915625 231.94554687 54.5 231.203125 C66.53246321 218.95152753 76.57981241 204.27301387 81.984375 187.8359375 C82.22969971 187.10616699 82.47502441 186.37639648 82.7277832 185.62451172 C83.18964824 184.21143033 83.62223421 182.78832949 84.02026367 181.35595703 C84.65234375 179.40625 84.65234375 179.40625 86.5 176.203125 C88.57037256 175.34994363 90.41760313 174.96531104 92.63793945 174.69702148 C94.94337795 174.29871855 94.94337795 174.29871855 96.75 171.015625 C102.03388739 158.19339159 106.76955395 140.38002411 102.78125 126.74609375 C101.23243452 123.77961248 99.70669382 122.3111695 96.75 120.765625 C96.0075 120.58 95.265 120.394375 94.5 120.203125 C94.19255859 121.14285156 94.19255859 121.14285156 93.87890625 122.1015625 C93.47478516 123.32746094 93.47478516 123.32746094 93.0625 124.578125 C92.79566406 125.39023438 92.52882813 126.20234375 92.25390625 127.0390625 C91.5 129.203125 91.5 129.203125 90.5 131.203125 C89.84 131.203125 89.18 131.203125 88.5 131.203125 C88.17 125.593125 87.84 119.983125 87.5 114.203125 C85.2725 113.64625 83.045 113.089375 80.75 112.515625 C67.82056437 109.10410126 56.83261292 104.61691574 47.9375 94.203125 C46.12233424 90.41495297 45.78823787 87.38257412 45.5 83.203125 C44.84 83.203125 44.18 83.203125 43.5 83.203125 C43.4175 83.925 43.335 84.646875 43.25 85.390625 C42.01943455 90.00524545 39.43438978 92.54443635 35.57421875 95.265625 C14.42728303 107.36352594 -9.30331725 110.64488746 -33.1875 113.515625 C-33.89798492 113.60288849 -34.60846985 113.69015198 -35.34048462 113.78005981 C-44.78123376 114.92361027 -53.98041807 115.37100789 -63.5 115.203125 C-63.5 120.483125 -63.5 125.763125 -63.5 131.203125 C-64.16 131.203125 -64.82 131.203125 -65.5 131.203125 C-66.17119549 129.7468705 -66.83681807 128.28804633 -67.5 126.828125 C-67.87125 126.01601562 -68.2425 125.20390625 -68.625 124.3671875 C-69.5 122.203125 -69.5 122.203125 -69.5 120.203125 C-72.89272299 121.5602142 -75.09216251 122.68653084 -77.375 125.578125 C-81.85719016 140.02073775 -76.15288675 157.3911774 -71.5 171.203125 C-71.17 172.193125 -70.84 173.183125 -70.5 174.203125 C-68.50961916 174.64832152 -68.50961916 174.64832152 -66.1875 174.7890625 C-61.92211185 175.61750616 -61.92211185 175.61750616 -60.15625 178.06738281 C-59.10774966 180.62415934 -58.28013595 183.17709889 -57.5 185.828125 C-56.85369977 187.74686979 -56.19729844 189.6622394 -55.53125 191.57421875 C-55.03625 193.00290283 -55.03625 193.00290283 -54.53125 194.46044922 C-50.52213775 205.12294142 -43.97465948 214.68904458 -36.5 223.203125 C-35.87996094 223.93144531 -35.25992188 224.65976562 -34.62109375 225.41015625 C-32.08473663 228.36284845 -29.66870036 231.06066692 -26.6875 233.578125 C-21.32958063 240.00762825 -22.23687238 249.86984906 -22.375 257.828125 C-22.38402344 258.83230469 -22.39304687 259.83648437 -22.40234375 260.87109375 C-22.42562254 263.31536626 -22.45831513 265.75910908 -22.5 268.203125 C-23.53769531 268.43515625 -24.57539063 268.6671875 -25.64453125 268.90625 C-29.66821032 270.05847159 -32.09882925 272.10999711 -35.1875 274.953125 C-44.13202939 282.73742675 -53.14969508 286.57810908 -64.77172852 288.64794922 C-70.56589849 289.69177283 -76.18105104 291.18051465 -81.84326172 292.77514648 C-83.09386635 293.12506275 -83.09386635 293.12506275 -84.36973572 293.48204803 C-86.4136002 294.0541599 -88.45686141 294.62842619 -90.5 295.203125 C-90.52344233 271.94907247 -90.54103455 248.69502191 -90.55181217 225.44095993 C-90.55695117 214.64178826 -90.5639478 203.84262397 -90.57543945 193.04345703 C-90.58545993 183.62225789 -90.59187082 174.2010641 -90.59408849 164.77985978 C-90.59538319 159.79929584 -90.59838933 154.81874718 -90.60573006 149.83818817 C-90.61260694 145.13343315 -90.61459369 140.42869946 -90.61310768 135.7239399 C-90.61337884 134.01335343 -90.61531381 132.30276612 -90.61920547 130.59218407 C-90.65464321 114.18615816 -90.50257285 97.6631731 -87.75 81.453125 C-87.5737207 80.39875244 -87.39744141 79.34437988 -87.21582031 78.25805664 C-83.87855862 59.22314296 -77.37897501 41.84078357 -64.5 27.203125 C-63.860625 26.3678125 -63.22125 25.5325 -62.5625 24.671875 C-48.41707024 7.74022423 -21.20508459 0.10410128 0 0 Z " fill="#30302E" transform="translate(243.5,63.796875)"/>
<path d="M0 0 C0.66 0 1.32 0 2 0 C2.15855469 0.65226563 2.31710937 1.30453125 2.48046875 1.9765625 C4.66928873 10.17556773 7.63817046 14.92294986 14.87890625 19.78125 C23.07231203 24.48906327 31.94399286 26.95373278 41.04296875 29.203125 C44 30 44 30 45 31 C45.07325168 33.86267567 45.09238205 36.700719 45.0625 39.5625 C45.05798828 40.36880859 45.05347656 41.17511719 45.04882812 42.00585938 C45.03700518 44.00393756 45.01906914 46.00197783 45 48 C45.66 48 46.32 48 47 48 C47.20496094 47.37351563 47.40992188 46.74703125 47.62109375 46.1015625 C47.89050781 45.28429687 48.15992188 44.46703125 48.4375 43.625 C48.70433594 42.81289062 48.97117187 42.00078125 49.24609375 41.1640625 C50 39 50 39 51 37 C54.9088118 37.79952969 56.70861409 38.67027384 59.375 41.6875 C64.70258628 52.4764195 60.44897389 69.6122621 56.828125 80.53515625 C54.86281679 85.52728172 53.21610084 89.51748458 49 93 C45.75 93.25 45.75 93.25 43 93 C42.89816406 93.65097656 42.79632813 94.30195313 42.69140625 94.97265625 C38.89784302 111.58289074 30.09538336 127.2489102 19 140 C18.29359375 140.81597656 17.5871875 141.63195312 16.859375 142.47265625 C11.39974619 148.69056684 11.39974619 148.69056684 8.890625 150.6328125 C3.8692977 156.91984627 4.62154158 166.93084812 4.375 174.625 C4.33632813 175.62917969 4.29765625 176.63335937 4.2578125 177.66796875 C4.16471378 180.11181005 4.07889087 182.55566596 4 185 C4.86753906 184.90332031 5.73507812 184.80664062 6.62890625 184.70703125 C11.07502969 185.09342668 12.68309192 186.6951919 15.9375 189.6875 C16.91589844 190.55761719 17.89429688 191.42773438 18.90234375 192.32421875 C21 195 21 195 20.804245 197.39724731 C19.95248393 200.15377477 18.89957266 201.97552658 17.22973633 204.31982422 C16.35341805 205.58718918 16.35341805 205.58718918 15.45939636 206.88015747 C14.49916313 208.26592484 14.49916313 208.26592484 13.51953125 209.6796875 C3.87844423 224.03600208 -3.61323687 239.38039223 -11.2109375 254.88293457 C-12.7004146 257.91454205 -14.20240294 260.93986928 -15.70492268 263.96502876 C-18.80980516 270.21668811 -21.90711994 276.47214097 -24.98168945 282.73876953 C-25.51824661 283.83077667 -26.05480377 284.92278381 -26.60762024 286.04788208 C-27.84368925 288.66859058 -28.95980475 291.29658393 -30 294 C-30.66 294 -31.32 294 -32 294 C-32.23783203 293.49404297 -32.47566406 292.98808594 -32.72070312 292.46679688 C-36.4238905 284.61713082 -40.20535917 276.80573457 -44 269 C-44.43082886 268.1123999 -44.86165771 267.2247998 -45.30554199 266.31030273 C-48.28943833 260.16780212 -51.2942708 254.03601758 -54.31762695 247.9128418 C-55.33988119 245.83676347 -56.35714176 243.7582173 -57.36889648 241.67700195 C-63.33247947 229.42264455 -69.68478678 217.8499648 -77.55075073 206.69744873 C-78.11682037 205.88882385 -78.68289001 205.08019897 -79.26611328 204.24707031 C-79.77022736 203.54463196 -80.27434143 202.8421936 -80.79373169 202.11846924 C-82.1791335 199.68540266 -82.7699445 197.79023392 -83 195 C-80.90234375 192.32421875 -80.90234375 192.32421875 -77.9375 189.6875 C-76.97714844 188.80449219 -76.01679688 187.92148437 -75.02734375 187.01171875 C-71.64319588 184.76289791 -69.97480474 184.55704256 -66 185 C-66.11163587 181.54110333 -66.2418243 178.08312901 -66.375 174.625 C-66.4059375 173.65949219 -66.436875 172.69398438 -66.46875 171.69921875 C-66.60055291 160.19997742 -66.60055291 160.19997742 -71.328125 150.18359375 C-72.20984375 149.46300781 -73.0915625 148.74242187 -74 148 C-86.67415973 135.09501948 -105 111.729725 -105 93 C-105.886875 93.103125 -106.77375 93.20625 -107.6875 93.3125 C-111.08014124 92.99243951 -112.59716102 92.49187934 -114.84375 89.9140625 C-121.66575303 78.62088181 -124.60826324 58.90224666 -123 46 C-122.05545849 42.87287386 -121.17737372 41.57846888 -119 39 C-115.75 37.5625 -115.75 37.5625 -113 37 C-112.32880451 38.4562545 -111.66318193 39.91507867 -111 41.375 C-110.62875 42.18710938 -110.2575 42.99921875 -109.875 43.8359375 C-109 46 -109 46 -109 48 C-108.34 48 -107.68 48 -107 48 C-107 42.72 -107 37.44 -107 32 C-104.94523437 31.81824219 -102.89046875 31.63648438 -100.7734375 31.44921875 C-49.35872582 28.90300988 -49.35872582 28.90300988 -4 8 C-2.12903386 5.33855066 -1.13570856 3.08263752 0 0 Z " fill="#F3B281" transform="translate(287,147)"/>
<path d="M0 0 C1.4140037 2.12100556 2.79039422 4.2435467 4.13671875 6.40625 C4.54986328 7.06882812 4.96300781 7.73140625 5.38867188 8.4140625 C6.23507876 9.77340468 7.08143541 11.13277813 7.92773438 12.4921875 C8.34732422 13.16507812 8.76691406 13.83796875 9.19921875 14.53125 C9.62163345 15.21065643 10.04404816 15.89006287 10.47926331 16.59005737 C11.48088467 18.17734728 12.49945705 19.75408562 13.53587341 21.31887817 C18.51122122 28.89434965 22.61987216 36.79973922 26.6484375 44.8984375 C27.35313619 46.30580831 28.05819068 47.71300101 28.76358032 49.12002563 C30.22795871 52.04439705 31.68805002 54.97085646 33.14501953 57.89892578 C35.00962275 61.64533639 36.88507581 65.38619403 38.76370811 69.12558556 C40.21615385 72.0196337 41.66286911 74.9165167 43.10786819 77.81428909 C43.79744163 79.19543052 44.48878422 80.57569017 45.18195724 81.95502853 C46.14716883 83.87781592 47.10458211 85.80429415 48.06005859 87.73193359 C48.60520111 88.82460541 49.15034363 89.91727722 49.71200562 91.0430603 C50.88691607 93.74038524 51.56529978 96.10215234 52 99 C52.66 99 53.32 99 54 99 C54.35473389 97.80665039 54.70946777 96.61330078 55.07495117 95.38378906 C57.34743281 88.5892484 60.61418415 82.2581707 63.80078125 75.859375 C64.48050545 74.4877015 65.16012463 73.11597596 65.83964539 71.74420166 C67.26510459 68.87088758 68.69565135 66.00017002 70.12915039 63.13085938 C71.57434495 60.23628058 73.0100957 57.33734587 74.43676758 54.43359375 C82.57318434 37.87765373 90.85412212 21.94084535 101.75260925 6.97564697 C103.33454247 4.60264556 103.33454247 4.60264556 105 0 C109.62 2.31 114.24 4.62 119 7 C118.31511044 14.68788535 116.90404684 22.19521809 115.41601562 29.75878906 C114.99696192 31.89045428 114.58402256 34.02323986 114.171875 36.15625 C112.14424635 46.56726095 112.14424635 46.56726095 111 50 C110.25234375 49.9278125 109.5046875 49.855625 108.734375 49.78125 C107.74953125 49.6884375 106.7646875 49.595625 105.75 49.5 C104.28820312 49.36078125 104.28820312 49.36078125 102.796875 49.21875 C100.53697847 49.04199832 98.26679807 49 96 49 C100.95 54.94 100.95 54.94 106 61 C104.03067494 64.93865011 102.26878814 66.97376858 99.18310547 70.04394531 C98.69513489 70.53220795 98.20716431 71.02047058 97.70440674 71.52352905 C96.09669725 73.12984962 94.48202899 74.72897713 92.8671875 76.328125 C91.74859765 77.44298317 90.63044971 78.55828487 89.51272583 79.67401123 C86.57440675 82.60470609 83.63013045 85.52934422 80.68457031 88.45275879 C77.67801738 91.43882725 74.67714118 94.43058859 71.67578125 97.421875 C65.78939314 103.28683456 59.896699 109.14540732 54 115 C50.21698773 113.43056316 47.82743453 111.06898723 44.95605469 108.18310547 C44.46779205 107.69513489 43.97952942 107.20716431 43.47647095 106.70440674 C41.87015038 105.09669725 40.27102287 103.48202899 38.671875 101.8671875 C37.55701683 100.74859765 36.44171513 99.63044971 35.32598877 98.51272583 C32.39529391 95.57440675 29.47065578 92.63013045 26.54724121 89.68457031 C23.56117275 86.67801738 20.56941141 83.67714118 17.578125 80.67578125 C11.71316544 74.78939314 5.85459268 68.896699 0 63 C1.75955522 59.28615618 3.98890062 56.41331925 6.625 53.25 C7.44226563 52.26515625 8.25953125 51.2803125 9.1015625 50.265625 C10.04128906 49.14414062 10.04128906 49.14414062 11 48 C10.34773438 48.144375 9.69546875 48.28875 9.0234375 48.4375 C8.14945313 48.623125 7.27546875 48.80875 6.375 49 C5.51648438 49.185625 4.65796875 49.37125 3.7734375 49.5625 C0.80730995 50.03039618 -2.00207333 50.07033259 -5 50 C-13 13.87893175 -13 13.87893175 -13 7 C-8.71 4.69 -4.42 2.38 0 0 Z " fill="#63A4AF" transform="translate(203,342)"/>
<path d="M0 0 C-0.10699219 0.86496094 -0.21398437 1.72992188 -0.32421875 2.62109375 C0.10168501 7.05972931 2.1607577 9.05071611 5.1875 12.0625 C5.72270264 12.61832764 6.25790527 13.17415527 6.80932617 13.74682617 C8.52247834 15.51565019 10.25735611 17.26025247 12 19 C12.57137695 19.57298828 13.14275391 20.14597656 13.73144531 20.73632812 C15.9722748 22.98098809 18.21517427 25.22325336 20.47314453 27.45068359 C24.036426 30.97710727 27.38308389 34.60716228 30.53515625 38.51171875 C32.20269103 40.20593408 33.83327149 41.05409487 36 42 C39.47905403 38.61611767 42.86771388 35.2099285 46 31.5 C50.25115735 26.55002227 54.92745102 22.02139785 59.58203125 17.45507812 C66.81221117 11.03608834 66.81221117 11.03608834 70.3125 2.625 C70.209375 1.75875 70.10625 0.8925 70 0 C73.97480474 -0.44295744 75.64319588 -0.23710209 79.02734375 2.01171875 C79.98769531 2.89472656 80.94804687 3.77773438 81.9375 4.6875 C82.91589844 5.55761719 83.89429688 6.42773438 84.90234375 7.32421875 C87 10 87 10 86.804245 12.39724731 C85.95248393 15.15377477 84.89957266 16.97552658 83.22973633 19.31982422 C82.64552414 20.16473419 82.06131195 21.00964417 81.45939636 21.88015747 C80.81924088 22.80400238 80.17908539 23.72784729 79.51953125 24.6796875 C69.87844423 39.03600208 62.38676313 54.38039223 54.7890625 69.88293457 C53.2995854 72.91454205 51.79759706 75.93986928 50.29507732 78.96502876 C47.19019484 85.21668811 44.09288006 91.47214097 41.01831055 97.73876953 C40.48175339 98.83077667 39.94519623 99.92278381 39.39237976 101.04788208 C38.15631075 103.66859058 37.04019525 106.29658393 36 109 C35.34 109 34.68 109 34 109 C33.76216797 108.49404297 33.52433594 107.98808594 33.27929688 107.46679688 C29.5761095 99.61713082 25.79464083 91.80573457 22 84 C21.56917114 83.1123999 21.13834229 82.2247998 20.69445801 81.31030273 C17.71056167 75.16780212 14.7057292 69.03601758 11.68237305 62.9128418 C10.66011881 60.83676347 9.64285824 58.7582173 8.63110352 56.67700195 C2.66752053 44.42264455 -3.68478678 32.8499648 -11.55075073 21.69744873 C-12.11682037 20.88882385 -12.68289001 20.08019897 -13.26611328 19.24707031 C-13.77022736 18.54463196 -14.27434143 17.8421936 -14.79373169 17.11846924 C-16.1791335 14.68540266 -16.7699445 12.79023392 -17 10 C-14.90234375 7.32421875 -14.90234375 7.32421875 -11.9375 4.6875 C-10.97714844 3.80449219 -10.01679688 2.92148437 -9.02734375 2.01171875 C-5.64319588 -0.23710209 -3.97480474 -0.44295744 0 0 Z " fill="#E3E8EC" transform="translate(221,332)"/>
<path d="M0 0 C6.36695279 3.59871245 6.36695279 3.59871245 9.3046875 5.4609375 C18.72919988 11.39265935 29.60351793 16.30508101 41 15 C52.71349358 12.31693537 63.49609118 7.34392954 73 0 C74 3 74 3 73.51171875 5.84375 C72.91786214 9.40129606 73.11927739 12.68979238 73.39453125 16.28125 C74.79238082 37.5969814 74.79238082 37.5969814 68.60253906 44.71069336 C66.13740564 47.09168477 63.59650723 49.31581324 60.91162109 51.44580078 C57.9050113 53.89025518 55.2617666 56.66426897 52.5625 59.4375 C51.58555662 60.40327649 50.6077292 61.36815977 49.62890625 62.33203125 C46.74969021 65.25402911 44.08124905 68.29033321 41.5 71.4765625 C39.81532471 73.18756084 38.18962989 74.04675595 36 75 C27.50715303 66.68047644 27.50715303 66.68047644 23.875 62.375 C19.64788655 57.42837788 14.97040461 52.92066299 10.32958984 48.36669922 C9.70133301 47.74682129 9.07307617 47.12694336 8.42578125 46.48828125 C7.58140503 45.66130737 7.58140503 45.66130737 6.7199707 44.81762695 C2.52692264 40.38650661 0.48594739 38.02783864 0.64453125 31.73828125 C0.66193359 30.53623047 0.67933594 29.33417969 0.69726562 28.09570312 C0.75430664 26.22301758 0.75430664 26.22301758 0.8125 24.3125 C0.98863184 16.12022148 1.08842562 8.13548034 0 0 Z " fill="#E1A279" transform="translate(219,300)"/>
<path d="M0 0 C26.07 0 52.14 0 79 0 C79 7.26 79 14.52 79 22 C72.23178038 25.38410981 66.15254755 27.76182217 59 29.9375 C57.87094238 30.28304932 56.74188477 30.62859863 55.57861328 30.98461914 C37.17481046 36.47502295 19.2380157 40 0 40 C0 26.8 0 13.6 0 0 Z " fill="#D1E3EE" transform="translate(275,471)"/>
<path d="M0 0 C7.92 0 15.84 0 24 0 C24 10.23 24 20.46 24 31 C24.66 31.33 25.32 31.66 26 32 C13.13 31.505 13.13 31.505 0 31 C0 20.77 0 10.54 0 0 Z " fill="#586B7A" transform="translate(281,476)"/>
<path d="M0 0 C4.41768968 0.35373136 8.56425165 0.64283709 12.9375 -0.25 C19.2271634 -1.26762585 25.61303828 2.15697804 31.3125 4.5 C31.3125 5.49 31.3125 6.48 31.3125 7.5 C29.34144742 9.15856863 27.446056 10.58045111 25.3125 12 C24.71526123 12.4014624 24.11802246 12.8029248 23.50268555 13.21655273 C15.97794183 18.16412011 9.40729546 20.6923055 0.3125 19.5 C-8.13206395 17.47005674 -15.2815654 12.20150193 -21.6875 6.5 C-21.6875 5.84 -21.6875 5.18 -21.6875 4.5 C-20.10550369 3.85089846 -18.52184276 3.20585306 -16.9375 2.5625 C-16.05578125 2.20285156 -15.1740625 1.84320313 -14.265625 1.47265625 C-9.25112369 -0.41917833 -5.32966325 -0.46237394 0 0 Z " fill="#CC795E" transform="translate(250.6875,266.5)"/>
<path d="M0 0 C26.07 0 52.14 0 79 0 C79 2.31 79 4.62 79 7 C52.93 7 26.86 7 0 7 C0 4.69 0 2.38 0 0 Z " fill="#5E7280" transform="translate(275,464)"/>
<path d="M0 0 C4.41768968 0.35373136 8.56425165 0.64283709 12.9375 -0.25 C19.2271634 -1.26762585 25.61303828 2.15697804 31.3125 4.5 C28.64247914 7.17002086 27.21150353 6.81820249 23.4765625 6.94921875 C22.27555908 6.99328857 21.07455566 7.0373584 19.8371582 7.08276367 C17.90682739 7.13460815 17.90682739 7.13460815 15.9375 7.1875 C14.63449951 7.22657471 13.33149902 7.26564941 11.98901367 7.3059082 C4.18954145 7.50306566 -3.58030231 7.54287022 -11.375 7.1875 C-12.1985498 7.15293701 -13.02209961 7.11837402 -13.87060547 7.08276367 C-19.43250617 6.75499383 -19.43250617 6.75499383 -21.6875 4.5 C-20.10550369 3.85089846 -18.52184276 3.20585306 -16.9375 2.5625 C-16.05578125 2.20285156 -15.1740625 1.84320313 -14.265625 1.47265625 C-9.25112369 -0.41917833 -5.32966325 -0.46237394 0 0 Z " fill="#D6876B" transform="translate(250.6875,266.5)"/>
<path d="M0 0 C11.22 0 22.44 0 34 0 C34 1.32 34 2.64 34 4 C22.78 4 11.56 4 0 4 C0 2.68 0 1.36 0 0 Z " fill="#6D7F8D" transform="translate(313,477)"/>
<path d="M0 0 C11.55 0 23.1 0 35 0 C34.67 0.99 34.34 1.98 34 3 C22.78 3 11.56 3 0 3 C0 2.01 0 1.02 0 0 Z " fill="#566978" transform="translate(313,490)"/>
<path d="M0 0 C4.62 0 9.24 0 14 0 C9.25294723 3.16470185 5.68228705 3.10927475 0 3 C0 2.01 0 1.02 0 0 Z " fill="#607A88" transform="translate(313,502)"/>
<path d="M0 0 C1.98 0 3.96 0 6 0 C4.35 1.65 2.7 3.3 1 5 C0.67 3.35 0.34 1.7 0 0 Z " fill="#CCCBCA" transform="translate(291,332)"/>
<path d="M0 0 C1.98 0 3.96 0 6 0 C5.67 1.65 5.34 3.3 5 5 C3.02 4.01 1.04 3.02 -1 2 C-0.67 1.34 -0.34 0.68 0 0 Z " fill="#CCCECF" transform="translate(215,332)"/>
</svg>
