<?xml version="1.0" encoding="UTF-8"?>
<svg version="1.1" xmlns="http://www.w3.org/2000/svg" width="512" height="512">
<path d="M0 0 C1.45108658 0.00273422 1.45108658 0.00273422 2.93148804 0.00552368 C17.26440977 0.05095174 31.21023917 0.55983928 45.3125 3.3125 C46.65803955 3.55395752 46.65803955 3.55395752 48.03076172 3.80029297 C107.84088904 14.62287989 165.35495829 48.68064457 202.3125 97.3125 C202.72918945 97.85277832 203.14587891 98.39305664 203.57519531 98.94970703 C211.2584873 108.9447116 218.00092968 119.40459036 224.3125 130.3125 C224.70679199 130.98974121 225.10108398 131.66698242 225.50732422 132.36474609 C238.68961173 155.2833756 247.29510918 180.85822563 252.625 206.6875 C252.77243652 207.39817627 252.91987305 208.10885254 253.07177734 208.84106445 C256.05713787 224.48358366 256.6873098 240.11919606 256.625 256 C256.62226578 257.45108658 256.62226578 257.45108658 256.61947632 258.93148804 C256.57404826 273.26440977 256.06516072 287.21023917 253.3125 301.3125 C253.15152832 302.20952637 252.99055664 303.10655273 252.82470703 304.03076172 C242.00212011 363.84088904 207.94435543 421.35495829 159.3125 458.3125 C158.77222168 458.72918945 158.23194336 459.14587891 157.67529297 459.57519531 C147.6802884 467.2584873 137.22040964 474.00092968 126.3125 480.3125 C125.63525879 480.70679199 124.95801758 481.10108398 124.26025391 481.50732422 C101.3416244 494.68961173 75.76677437 503.29510918 49.9375 508.625 C49.22682373 508.77243652 48.51614746 508.91987305 47.78393555 509.07177734 C32.14141634 512.05713787 16.50580394 512.6873098 0.625 512.625 C-0.34239105 512.62317719 -1.3097821 512.62135437 -2.30648804 512.61947632 C-16.63940977 512.57404826 -30.58523917 512.06516072 -44.6875 509.3125 C-45.58452637 509.15152832 -46.48155273 508.99055664 -47.40576172 508.82470703 C-107.21588904 498.00212011 -164.72995829 463.94435543 -201.6875 415.3125 C-202.10418945 414.77222168 -202.52087891 414.23194336 -202.95019531 413.67529297 C-210.6334873 403.6802884 -217.37592968 393.22040964 -223.6875 382.3125 C-224.08179199 381.63525879 -224.47608398 380.95801758 -224.88232422 380.26025391 C-238.06461173 357.3416244 -246.67010918 331.76677437 -252 305.9375 C-252.14743652 305.22682373 -252.29487305 304.51614746 -252.44677734 303.78393555 C-255.43213787 288.14141634 -256.0623098 272.50580394 -256 256.625 C-255.99817719 255.65760895 -255.99635437 254.6902179 -255.99447632 253.69351196 C-255.94904826 239.36059023 -255.44016072 225.41476083 -252.6875 211.3125 C-252.44604248 209.96696045 -252.44604248 209.96696045 -252.19970703 208.59423828 C-241.37712011 148.78411096 -207.31935543 91.27004171 -158.6875 54.3125 C-158.14722168 53.89581055 -157.60694336 53.47912109 -157.05029297 53.04980469 C-147.0552884 45.3665127 -136.59540964 38.62407032 -125.6875 32.3125 C-125.01025879 31.91820801 -124.33301758 31.52391602 -123.63525391 31.11767578 C-100.7166244 17.93538827 -75.14177437 9.32989082 -49.3125 4 C-48.60182373 3.85256348 -47.89114746 3.70512695 -47.15893555 3.55322266 C-31.51641634 0.56786213 -15.88080394 -0.0623098 0 0 Z " fill="#4AC7EA" transform="translate(255.6875,-0.3125)"/>
<path d="M0 0 C1.35416667 0.27083333 2.70833333 0.54166667 4.0625 0.8125 C4.98160156 0.99425781 5.90070313 1.17601562 6.84765625 1.36328125 C9.02539964 1.80314764 11.19976209 2.25997162 13.37109375 2.73046875 C32.88231517 6.86793981 52.08700534 7.32172188 71.93969727 7.26074219 C75.68220703 7.24935875 79.4244321 7.25611658 83.16693211 7.26761532 C111.15008085 7.44817081 111.15008085 7.44817081 138.6875 2.9375 C144.12777402 1.60103086 149.42538771 0.60688821 155 0 C155.33040283 0.75337646 155.33040283 0.75337646 155.66748047 1.52197266 C160.75204898 12.99035417 166.37351347 23.06359583 174 33 C185.40008502 48.03193362 191.31785172 61.48632093 191.30078125 80.6484375 C191.30506638 81.74104889 191.3093515 82.83366028 191.31376648 83.9593811 C191.31948092 86.2637666 191.32003148 88.56817013 191.31567383 90.87255859 C191.31254011 94.33073241 191.3359193 97.78802698 191.36132812 101.24609375 C191.41701199 120.58877713 189.75135129 138.77045372 183 157 C182.62101562 158.02988037 182.62101562 158.02988037 182.234375 159.08056641 C169.23090739 193.78038347 144.44358562 225.98484241 111 243 C118.22118413 262.49018628 134.45093913 274.40046333 151.76025391 284.32226562 C163.0357643 290.83236379 172.60878888 299.05349804 182 308 C182.78117188 308.71671875 183.56234375 309.4334375 184.3671875 310.171875 C193.32144577 318.64814795 203.15479177 330.57262211 208 342 C206.82903536 345.51289393 206.32136973 345.67661197 203.1875 347.34765625 C202.37240967 347.78303711 201.55731934 348.21841797 200.7175293 348.66699219 C199.82074463 349.12750977 198.92395996 349.58802734 198 350.0625 C197.06518799 350.54493164 196.13037598 351.02736328 195.16723633 351.52441406 C173.45926256 362.48850737 150.43580066 370.39912279 126.625 375.3125 C125.91432373 375.45993652 125.20364746 375.60737305 124.47143555 375.75927734 C108.82891634 378.74463787 93.19330394 379.3748098 77.3125 379.3125 C76.34510895 379.31067719 75.3777179 379.30885437 74.38101196 379.30697632 C60.04809023 379.26154826 46.10226083 378.75266072 32 376 C31.10297363 375.83902832 30.20594727 375.67805664 29.28173828 375.51220703 C0.25089849 370.25910357 -29.08459448 360.00924083 -54 344 C-43.43255967 315.63476542 -16.14596847 295.72767279 8.56787109 280.62915039 C22.74377814 271.92183706 35.30360511 261.08697277 43 246 C43 245.01 43 244.02 43 243 C40.84571459 241.51708819 40.84571459 241.51708819 38 240.125 C1.43185562 219.62271882 -22.08089804 181.75429698 -33.25 142.375 C-37.01893992 128.72085801 -37.37295663 114.80679984 -37.37060547 100.7409668 C-37.37496793 97.83387122 -37.41139437 94.92831231 -37.44921875 92.02148438 C-37.59298821 68.18829107 -33.1453512 51.04190817 -18.56030273 32.09204102 C-10.9694872 22.1745661 -4.78128799 11.55678152 0 0 Z " fill="#EBC09B" transform="translate(179,133)"/>
<path d="M0 0 C9.18816976 4.17107493 13.20782197 14.21558759 17 23 C24.00705515 43.25675943 23.66710156 68.11925553 14.5625 87.625 C12.21262874 91.92584462 9.50578996 96.74710502 5 99 C4.67 124.41 4.34 149.82 4 176 C2.19745889 172.39491779 1.49326201 169.88783203 0.75 166 C-1.70130857 155.13900412 -6.82163556 146.9130621 -13.5703125 138.1875 C-33 112.95578214 -33 112.95578214 -33 103 C-34.68416016 103.39832031 -34.68416016 103.39832031 -36.40234375 103.8046875 C-37.91405527 104.16148898 -39.42577443 104.51825807 -40.9375 104.875 C-42.04061523 105.13603516 -42.04061523 105.13603516 -43.16601562 105.40234375 C-43.90400391 105.57636719 -44.64199219 105.75039062 -45.40234375 105.9296875 C-46.39995728 106.16534424 -46.39995728 106.16534424 -47.41772461 106.40576172 C-48.26987549 106.60186035 -49.12202637 106.79795898 -50 107 C-50.6636557 107.1562233 -51.3273114 107.31244659 -52.01107788 107.47340393 C-70.02331777 111.62120849 -88.41724603 111.34674457 -106.79541016 111.31567383 C-109.75812984 111.31104597 -112.72043866 111.31796467 -115.68310547 111.33618164 C-140.09494022 111.48483546 -164.59786134 110.80071289 -188 103 C-188.33 104.19625 -188.66 105.3925 -189 106.625 C-192.76483404 117.86647628 -199.97109763 127.6061098 -207 137 C-216.69659249 150.25960214 -221.65677167 161.74980676 -224 178 C-224.33 178 -224.66 178 -225 178 C-225.04676275 167.41046442 -225.08208883 156.82095423 -225.10362434 146.23133564 C-225.11397093 141.31181958 -225.12795873 136.39237521 -225.15087891 131.47290039 C-225.17293864 126.70716354 -225.18463678 121.94149473 -225.18975449 117.17571068 C-225.19339185 115.37605915 -225.20049006 113.57641048 -225.21146011 111.77678871 C-225.26846916 102.0180463 -225.00284674 92.37115901 -224.10498047 82.64916992 C-224.0262224 81.78348798 -223.94746433 80.91780603 -223.86631966 80.0258913 C-223.18365887 73.3097026 -221.71039501 67.20800033 -219 61 C-218.690625 60.26910156 -218.38125 59.53820312 -218.0625 58.78515625 C-211.46566522 44.46452741 -199.89457656 35.45177134 -185.328125 30 C-177.25659335 27.39304568 -169.04186698 26.8505229 -160.6015625 26.76171875 C-159.43102074 26.74743584 -159.43102074 26.74743584 -158.23683167 26.73286438 C-155.69951647 26.708377 -153.16241779 26.69583942 -150.625 26.6875 C-149.75050201 26.68355225 -148.87600403 26.67960449 -147.9750061 26.67553711 C-133.74248704 26.64581232 -119.90337787 27.74930415 -105.80078125 29.5637207 C-90.91526205 31.47401726 -76.78861588 32.08754021 -62 29 C-61.03827881 28.80664062 -61.03827881 28.80664062 -60.05712891 28.609375 C-39.33512656 24.38378849 -20.33028914 16.70324263 -4 3 C-2.6722583 1.99258759 -1.34041682 0.990485 0 0 Z " fill="#141821" transform="translate(367,30)"/>
<path d="M0 0 C0.99 0.845625 1.98 1.69125 3 2.5625 C3.97259766 3.39007813 3.97259766 3.39007813 4.96484375 4.234375 C6.24769941 5.34733231 7.51360536 6.48043263 8.75390625 7.640625 C28.62952659 26.01376864 54.79843731 34.27588892 81.578125 33.375 C108.23638848 31.85924941 132.76982417 19.3167426 151 0 C162.05039621 5.55188988 171.0084012 13.61346966 180 22 C180.81339844 22.74765625 181.62679687 23.4953125 182.46484375 24.265625 C191.71560179 33.09257264 201.95595134 45.10365883 207 57 C205.82903536 60.51289393 205.32136973 60.67661197 202.1875 62.34765625 C201.37240967 62.78303711 200.55731934 63.21841797 199.7175293 63.66699219 C198.82074463 64.12750977 197.92395996 64.58802734 197 65.0625 C196.06518799 65.54493164 195.13037598 66.02736328 194.16723633 66.52441406 C172.45926256 77.48850737 149.43580066 85.39912279 125.625 90.3125 C124.91432373 90.45993652 124.20364746 90.60737305 123.47143555 90.75927734 C107.82891634 93.74463787 92.19330394 94.3748098 76.3125 94.3125 C75.34510895 94.31067719 74.3777179 94.30885437 73.38101196 94.30697632 C59.04809023 94.26154826 45.10226083 93.75266072 31 91 C30.10297363 90.83902832 29.20594727 90.67805664 28.28173828 90.51220703 C-0.74910151 85.25910357 -30.08459448 75.00924083 -55 59 C-45.56471322 33.6737039 -21.7685827 14.40177575 0 0 Z " fill="#7D6A91" transform="translate(180,418)"/>
<path d="M0 0 C4.38989365 1.1412297 8.62129473 1.26031424 13.140625 1.23046875 C13.99994629 1.22772949 14.85926758 1.22499023 15.74462891 1.22216797 C26.6961654 1.04965599 37.40131081 -0.82025253 48.17944336 -2.62109375 C56.75525449 -3.9684892 65.09105113 -4.39542301 73.765625 -4.33203125 C75.07136475 -4.32743896 76.37710449 -4.32284668 77.72241211 -4.31811523 C88.99038674 -4.21251949 99.90785415 -3.39965897 110.953125 -1.08203125 C111.00781584 0.93849155 111.04622629 2.95945763 111.078125 4.98046875 C111.10132813 6.10582031 111.12453125 7.23117188 111.1484375 8.390625 C110.93761915 12.19800449 110.01760542 15.25811203 108.953125 18.91796875 C108.63034546 20.7627912 108.33455936 22.61244005 108.05859375 24.46484375 C107.83139648 25.98078125 107.83139648 25.98078125 107.59960938 27.52734375 C107.2960976 29.60413922 107.00166886 31.6822845 106.71679688 33.76171875 C105.25044508 43.35080765 102.7084943 52.80568527 94.62890625 58.84375 C86.29502837 64.18597941 75.54986012 64.28079015 65.953125 64.29296875 C64.93734375 64.31746094 63.9215625 64.34195313 62.875 64.3671875 C52.45744614 64.40725501 44.54832548 61.446584 36.984375 54.2421875 C29.71501714 45.92436456 25.54421334 34.31656557 22.390625 23.85546875 C21.53180788 21.22653412 20.96726883 19.93455117 19.140625 17.79296875 C15.84019451 16.47279655 14.26909105 16.60539886 10.953125 17.91796875 C7.60988268 22.83567165 5.8957581 28.74753792 4.078125 34.35546875 C1.85105727 40.89717041 -0.56057602 46.56371745 -5.046875 51.91796875 C-5.58054687 52.56121094 -6.11421875 53.20445312 -6.6640625 53.8671875 C-10.85392051 58.47216969 -15.27924886 60.7330839 -21.046875 62.91796875 C-22.036875 63.41296875 -22.036875 63.41296875 -23.046875 63.91796875 C-27.22918806 64.16384132 -31.42066033 64.10318607 -35.609375 64.10546875 C-36.76501953 64.11771484 -37.92066406 64.12996094 -39.11132812 64.14257812 C-49.63258341 64.1605019 -57.56060121 62.87301374 -66.609375 57.35546875 C-77.85964649 46.10519726 -77.69615507 26.82356046 -79.046875 11.91796875 C-79.706875 11.91796875 -80.366875 11.91796875 -81.046875 11.91796875 C-81.046875 7.62796875 -81.046875 3.33796875 -81.046875 -1.08203125 C-58.22958676 -8.687794 -22.83175215 -6.28724905 0 0 Z " fill="#EABF9A" transform="translate(241.046875,193.08203125)"/>
<path d="M0 0 C1.21107422 -0.01224609 2.42214844 -0.02449219 3.66992188 -0.03710938 C20.94850917 -0.06517422 20.94850917 -0.06517422 27 4.3125 C31.38257971 10.42155051 32.60014276 16.40808198 32.5 23.75 C32.49387695 24.52432373 32.48775391 25.29864746 32.48144531 26.09643555 C32.23136216 35.50437143 30.88355673 46.21949053 24.0625 53.1875 C21.58984375 54.515625 21.58984375 54.515625 19 55.4375 C17.71416016 55.90929687 17.71416016 55.90929687 16.40234375 56.390625 C10.16063883 58.51634754 4.5124492 58.4862084 -2.0625 58.5625 C-3.26132812 58.59988281 -4.46015625 58.63726562 -5.6953125 58.67578125 C-15.52411588 58.77277602 -21.34460027 56.43315114 -28.6875 50.0625 C-37.75586249 40.34339854 -40.80943838 25.09250194 -40.46875 12.203125 C-39.90959542 9.02910047 -39.56061992 7.95607503 -37.0625 6 C-35.125 5.00390625 -35.125 5.00390625 -32.9375 4.1875 C-32.15375 3.88714844 -31.37 3.58679688 -30.5625 3.27734375 C-20.59916071 -0.06971554 -10.40155849 0.00551807 0 0 Z " fill="#EABF9B" transform="translate(309.9375,193.8125)"/>
<path d="M0 0 C4.38989365 1.1412297 8.62129473 1.26031424 13.140625 1.23046875 C13.99994629 1.22772949 14.85926758 1.22499023 15.74462891 1.22216797 C26.6961654 1.04965599 37.40131081 -0.82025253 48.17944336 -2.62109375 C56.75525449 -3.9684892 65.09105113 -4.39542301 73.765625 -4.33203125 C75.07136475 -4.32743896 76.37710449 -4.32284668 77.72241211 -4.31811523 C88.99038674 -4.21251949 99.90785415 -3.39965897 110.953125 -1.08203125 C111.00781584 0.93849155 111.04622629 2.95945763 111.078125 4.98046875 C111.10132813 6.10582031 111.12453125 7.23117188 111.1484375 8.390625 C110.93761915 12.19800449 110.01760542 15.25811203 108.953125 18.91796875 C108.63034546 20.7627912 108.33455936 22.61244005 108.05859375 24.46484375 C107.83139648 25.98078125 107.83139648 25.98078125 107.59960938 27.52734375 C107.2960976 29.60413922 107.00166886 31.6822845 106.71679688 33.76171875 C105.25044508 43.35080765 102.7084943 52.80568527 94.62890625 58.84375 C86.29502837 64.18597941 75.54986012 64.28079015 65.953125 64.29296875 C64.93734375 64.31746094 63.9215625 64.34195313 62.875 64.3671875 C52.45744614 64.40725501 44.54832548 61.446584 36.984375 54.2421875 C29.71501714 45.92436456 25.54421334 34.31656557 22.390625 23.85546875 C21.53180788 21.22653412 20.96726883 19.93455117 19.140625 17.79296875 C15.84019451 16.47279655 14.26909105 16.60539886 10.953125 17.91796875 C7.60988268 22.83567165 5.8957581 28.74753792 4.078125 34.35546875 C1.85105727 40.89717041 -0.56057602 46.56371745 -5.046875 51.91796875 C-5.58054687 52.56121094 -6.11421875 53.20445312 -6.6640625 53.8671875 C-10.85392051 58.47216969 -15.27924886 60.7330839 -21.046875 62.91796875 C-22.036875 63.41296875 -22.036875 63.41296875 -23.046875 63.91796875 C-27.22918806 64.16384132 -31.42066033 64.10318607 -35.609375 64.10546875 C-36.76501953 64.11771484 -37.92066406 64.12996094 -39.11132812 64.14257812 C-49.63258341 64.1605019 -57.56060121 62.87301374 -66.609375 57.35546875 C-77.85964649 46.10519726 -77.69615507 26.82356046 -79.046875 11.91796875 C-79.706875 11.91796875 -80.366875 11.91796875 -81.046875 11.91796875 C-81.046875 7.62796875 -81.046875 3.33796875 -81.046875 -1.08203125 C-58.22958676 -8.687794 -22.83175215 -6.28724905 0 0 Z M-67.421875 7.73046875 C-73.36241387 19.38306424 -71.60699428 31.46267465 -68.21484375 43.640625 C-66.25699081 49.13439963 -63.9627111 52.71198869 -59.046875 55.91796875 C-51.71314285 59.32677552 -44.45062417 59.4034845 -36.484375 59.35546875 C-34.71416992 59.38543945 -34.71416992 59.38543945 -32.90820312 59.41601562 C-23.61199712 59.4108135 -16.89013268 57.5811407 -10.046875 50.91796875 C-2.69680023 41.57205123 0.62595019 31.64134628 1.953125 19.91796875 C2.06140625 19.06460938 2.1696875 18.21125 2.28125 17.33203125 C2.58968743 13.11204647 2.41634916 11.49699895 -0.296875 8.10546875 C-8.83011111 2.23378961 -19.92254289 0.78468722 -30.0078125 0.6796875 C-31.13191025 0.66757988 -31.13191025 0.66757988 -32.27871704 0.65522766 C-33.85701231 0.64146328 -35.43533638 0.63070732 -37.01367188 0.62280273 C-38.61564967 0.61127187 -40.21758871 0.59080234 -41.81933594 0.5612793 C-56.07518057 -0.01806137 -56.07518057 -0.01806137 -67.421875 7.73046875 Z M32.953125 6.91796875 C32.22222656 7.32660156 31.49132812 7.73523438 30.73828125 8.15625 C28.68893635 9.84402057 28.68893635 9.84402057 28.421875 12.74609375 C28.56104242 27.9849264 31.91974963 42.19626339 42.81640625 53.3125 C50.38227955 58.99727866 56.89851454 59.54169503 66.265625 59.41796875 C67.42513672 59.4334375 68.58464844 59.44890625 69.77929688 59.46484375 C78.76936463 59.42441624 85.91415842 57.49105807 93.890625 53.41796875 C101.9438789 43.65644887 101.9595841 27.94885722 100.953125 15.91796875 C99.82613294 10.54060662 98.22886023 7.10672203 94.203125 3.35546875 C86.49276558 -0.05488253 77.54077831 0.73487746 69.265625 0.73046875 C68.07517578 0.71822266 66.88472656 0.70597656 65.65820312 0.69335938 C54.38251988 0.67496511 42.93325315 1.15941431 32.953125 6.91796875 Z " fill="#23211F" transform="translate(241.046875,193.08203125)"/>
<path d="M0 0 C3.4717518 1.97688503 6.42265483 4.13748253 9.4375 6.75 C26.70244144 20.68490822 48.43851538 25.03159471 70.1015625 22.78173828 C87.67877954 20.20935235 101.76156684 11.32565574 115 0 C118.98712321 1.83246572 122.58084504 4.23855775 126.25 6.625 C127.22453125 7.25535156 127.22453125 7.25535156 128.21875 7.8984375 C129.81368881 8.93045673 131.40700669 9.96498028 133 11 C117.43112152 30.07187614 93.43232493 42.28739029 69 45 C40.29379952 47.34849851 14.56383749 39.20556676 -7.6953125 21 C-10.96733123 18.16055324 -14.02748378 15.14968606 -17 12 C-13.8296865 8.51579408 -10.26911027 6.13496654 -6.25 3.75 C-5.64800781 3.38648438 -5.04601562 3.02296875 -4.42578125 2.6484375 C-2.95361969 1.76046703 -1.4772326 0.87950842 0 0 Z " fill="#DBDEE6" transform="translate(198,407)"/>
<path d="M0 0 C9.9 0 19.8 0 30 0 C28.56966163 4.2910151 27.1890001 7.86006363 25.1796875 11.8359375 C24.64472656 12.89941406 24.10976563 13.96289062 23.55859375 15.05859375 C23.00300781 16.15300781 22.44742187 17.24742187 21.875 18.375 C21.31167969 19.49261719 20.74835938 20.61023438 20.16796875 21.76171875 C18.78225433 24.5096609 17.39283053 27.2556598 16 30 C15.34 30 14.68 30 14 30 C12.00108867 26.05154255 10.00740115 22.10050563 8.01855469 18.14697266 C7.34095653 16.80184612 6.66192541 15.45744044 5.98144531 14.11376953 C5.00470162 12.18448716 4.03310723 10.25268782 3.0625 8.3203125 C2.47597656 7.15773926 1.88945312 5.99516602 1.28515625 4.79736328 C0 2 0 2 0 0 Z " fill="#191B23" transform="translate(241,333)"/>
</svg>
