<?xml version="1.0" encoding="UTF-8"?>
<svg version="1.1" xmlns="http://www.w3.org/2000/svg" width="512" height="512">
<path d="M0 0 C1.45108658 0.00273422 1.45108658 0.00273422 2.93148804 0.00552368 C17.26440977 0.05095174 31.21023917 0.55983928 45.3125 3.3125 C46.65803955 3.55395752 46.65803955 3.55395752 48.03076172 3.80029297 C107.84088904 14.62287989 165.35495829 48.68064457 202.3125 97.3125 C202.72918945 97.85277832 203.14587891 98.39305664 203.57519531 98.94970703 C211.2584873 108.9447116 218.00092968 119.40459036 224.3125 130.3125 C224.70679199 130.98974121 225.10108398 131.66698242 225.50732422 132.36474609 C238.68961173 155.2833756 247.29510918 180.85822563 252.625 206.6875 C252.77243652 207.39817627 252.91987305 208.10885254 253.07177734 208.84106445 C256.05713787 224.48358366 256.6873098 240.11919606 256.625 256 C256.62226578 257.45108658 256.62226578 257.45108658 256.61947632 258.93148804 C256.57404826 273.26440977 256.06516072 287.21023917 253.3125 301.3125 C253.15152832 302.20952637 252.99055664 303.10655273 252.82470703 304.03076172 C242.00212011 363.84088904 207.94435543 421.35495829 159.3125 458.3125 C158.77222168 458.72918945 158.23194336 459.14587891 157.67529297 459.57519531 C147.6802884 467.2584873 137.22040964 474.00092968 126.3125 480.3125 C125.63525879 480.70679199 124.95801758 481.10108398 124.26025391 481.50732422 C98.34126191 496.41535371 68.84898362 505.97401819 39.3125 510.3125 C38.10787109 510.48982666 36.90324219 510.66715332 35.66210938 510.84985352 C24.00482646 512.448825 12.44063902 512.6709053 0.6875 512.625 C-0.76733292 512.62226578 -0.76733292 512.62226578 -2.2515564 512.61947632 C-16.60306055 512.57408309 -30.56692918 512.0687347 -44.6875 509.3125 C-45.58452637 509.15152832 -46.48155273 508.99055664 -47.40576172 508.82470703 C-107.21588904 498.00212011 -164.72995829 463.94435543 -201.6875 415.3125 C-202.10418945 414.77222168 -202.52087891 414.23194336 -202.95019531 413.67529297 C-210.6334873 403.6802884 -217.37592968 393.22040964 -223.6875 382.3125 C-224.08179199 381.63525879 -224.47608398 380.95801758 -224.88232422 380.26025391 C-239.79035371 354.34126191 -249.34901819 324.84898362 -253.6875 295.3125 C-253.86482666 294.10787109 -254.04215332 292.90324219 -254.22485352 291.66210938 C-255.823825 280.00482646 -256.0459053 268.44063902 -256 256.6875 C-255.99817719 255.71761139 -255.99635437 254.74772278 -255.99447632 253.7484436 C-255.94908309 239.39693945 -255.4437347 225.43307082 -252.6875 211.3125 C-252.44604248 209.96696045 -252.44604248 209.96696045 -252.19970703 208.59423828 C-241.37712011 148.78411096 -207.31935543 91.27004171 -158.6875 54.3125 C-158.14722168 53.89581055 -157.60694336 53.47912109 -157.05029297 53.04980469 C-147.0552884 45.3665127 -136.59540964 38.62407032 -125.6875 32.3125 C-125.01025879 31.91820801 -124.33301758 31.52391602 -123.63525391 31.11767578 C-100.7166244 17.93538827 -75.14177437 9.32989082 -49.3125 4 C-48.60182373 3.85256348 -47.89114746 3.70512695 -47.15893555 3.55322266 C-31.51641634 0.56786213 -15.88080394 -0.0623098 0 0 Z " fill="#FB6121" transform="translate(255.6875,-0.3125)"/>
<path d="M0 0 C5.75094329 2.13646492 10.95088764 2.37389498 17.01953125 2.37890625 C18.17291992 2.39727539 18.17291992 2.39727539 19.34960938 2.41601562 C26.70857287 2.43464591 32.85884448 0.78553923 39.70703125 -1.93359375 C48.34926371 -4.8471981 58.69172159 -5.61188048 67.33203125 -2.24609375 C75.74890978 2.37838894 79.35934007 10.32848332 82.20703125 19.19140625 C83.96912702 26.33144993 84.73614434 33.49969644 85.33203125 40.81640625 C85.41839844 41.82058594 85.50476563 42.82476562 85.59375 43.859375 C85.80320408 46.30300591 86.00754882 48.74694466 86.20703125 51.19140625 C86.67826416 50.63130859 87.14949707 50.07121094 87.63500977 49.49414062 C88.25819092 48.76517578 88.88137207 48.03621094 89.5234375 47.28515625 C90.44684937 46.19750977 90.44684937 46.19750977 91.38891602 45.08789062 C93.46743919 42.91977353 95.28548206 41.8996606 98.20703125 41.19140625 C104.90296875 47.04094715 108.67482378 52.13543525 109.62109375 61.125 C110.14710344 71.73766582 108.37564614 80.89924129 101.89453125 89.62890625 C97.99483818 93.34721824 93.77709394 97.19140625 88.20703125 97.19140625 C88.12453125 98.49078125 88.04203125 99.79015625 87.95703125 101.12890625 C86.42105381 116.06786489 82.3439818 139.23300401 71.20703125 150.19140625 C64.00361683 155.46619566 56.19300168 159.19842104 48.20703125 163.19140625 C48.20703125 171.11140625 48.20703125 179.03140625 48.20703125 187.19140625 C51.79578125 188.16078125 55.38453125 189.13015625 59.08203125 190.12890625 C127.46785444 209.05959948 127.46785444 209.05959948 139.42138672 229.24169922 C142.83403295 235.73287736 145.11194038 242.43048332 147.20703125 249.44140625 C147.71641235 251.12592896 147.71641235 251.12592896 148.23608398 252.84448242 C150.46339082 260.34718424 152.48764766 267.88312583 154.26953125 275.50390625 C154.48544922 276.40979492 154.70136719 277.31568359 154.92382812 278.24902344 C156.79868815 286.67945074 156.79868815 286.67945074 155.20703125 290.19140625 C152.86328125 292.11328125 152.86328125 292.11328125 149.70703125 293.94140625 C149.12663086 294.27865723 148.54623047 294.6159082 147.94824219 294.96337891 C146.04444231 296.05793825 144.12636428 297.12436446 142.20703125 298.19140625 C141.58763672 298.54750977 140.96824219 298.90361328 140.33007812 299.27050781 C114.322596 314.21069015 84.8427763 323.83834437 55.20703125 328.19140625 C54.00240234 328.36873291 52.79777344 328.54605957 51.55664062 328.72875977 C39.89935771 330.32773125 28.33517027 330.54981155 16.58203125 330.50390625 C15.12719833 330.50117203 15.12719833 330.50117203 13.64297485 330.49838257 C-0.7085293 330.45298934 -14.67239793 329.94764095 -28.79296875 327.19140625 C-29.68999512 327.03043457 -30.58702148 326.86946289 -31.51123047 326.70361328 C-62.52497083 321.0917058 -91.77258712 309.28442766 -118.79296875 293.19140625 C-118.9977176 287.75552493 -118.28730902 283.06320423 -117 277.79296875 C-116.81209396 276.99974213 -116.62418793 276.2065155 -116.43058777 275.38925171 C-116.03160981 273.71254384 -115.62881105 272.03674106 -115.22241211 270.36181641 C-114.61616169 267.8605236 -114.02287146 265.3564426 -113.43164062 262.8515625 C-111.52402435 254.83472216 -109.5127984 246.84198707 -107.3046875 238.90234375 C-107.12678177 238.22595856 -106.94887604 237.54957336 -106.76557922 236.85269165 C-103.1908203 224.40685933 -92.68606869 217.80719844 -81.94921875 211.76123047 C-66.94774366 203.64825921 -50.82862166 198.39226713 -34.60546875 193.31640625 C-32.77967285 192.7440625 -32.77967285 192.7440625 -30.91699219 192.16015625 C-24.25877801 190.11881791 -17.65903444 188.37137278 -10.79296875 187.19140625 C-9.98099078 179.27580259 -9.16598937 170.82589854 -11.79296875 163.19140625 C-15.5894735 158.92189775 -20.64433824 157.15591905 -25.890625 155.21875 C-32.36879045 152.81754727 -37.04128229 148.94505737 -40.74609375 143.12109375 C-44.6947758 133.82028241 -48.22257693 124.75362867 -49.57421875 114.69140625 C-50.46937185 104.45440122 -50.46937185 104.45440122 -55.05859375 95.7265625 C-57.62980309 94.27470192 -57.62980309 94.27470192 -60.32421875 93.2421875 C-66.09721849 90.78500881 -68.79112561 84.69610895 -71.16796875 79.19140625 C-74.06097167 70.41474339 -74.60773 59.98971334 -70.60546875 51.50390625 C-68.39620527 47.81972603 -66.28326952 44.72187431 -62.79296875 42.19140625 C-59.07051363 42.00528349 -57.89980404 43.09699367 -55.10546875 45.56640625 C-52.79296875 48.19140625 -52.79296875 48.19140625 -50.79296875 51.19140625 C-50.68807129 50.05880371 -50.68807129 50.05880371 -50.58105469 48.90332031 C-50.24954409 45.41446443 -49.89637546 41.92810955 -49.54296875 38.44140625 C-49.43339844 37.25417969 -49.32382813 36.06695312 -49.2109375 34.84375 C-47.78581382 21.11755881 -44.47881434 8.4628444 -33.5390625 -0.58203125 C-23.62544327 -7.54596064 -10.46215743 -3.97856691 0 0 Z " fill="#FEFEFD" transform="translate(239.79296875,181.80859375)"/>
<path d="M0 0 C5.75094329 2.13646492 10.95088764 2.37389498 17.01953125 2.37890625 C18.17291992 2.39727539 18.17291992 2.39727539 19.34960938 2.41601562 C26.70857287 2.43464591 32.85884448 0.78553923 39.70703125 -1.93359375 C48.34926371 -4.8471981 58.69172159 -5.61188048 67.33203125 -2.24609375 C75.74890978 2.37838894 79.35934007 10.32848332 82.20703125 19.19140625 C83.96912702 26.33144993 84.73614434 33.49969644 85.33203125 40.81640625 C85.41839844 41.82058594 85.50476563 42.82476562 85.59375 43.859375 C85.80320408 46.30300591 86.00754882 48.74694466 86.20703125 51.19140625 C86.67826416 50.63130859 87.14949707 50.07121094 87.63500977 49.49414062 C88.25819092 48.76517578 88.88137207 48.03621094 89.5234375 47.28515625 C90.44684937 46.19750977 90.44684937 46.19750977 91.38891602 45.08789062 C93.46743919 42.91977353 95.28548206 41.8996606 98.20703125 41.19140625 C104.90296875 47.04094715 108.67482378 52.13543525 109.62109375 61.125 C110.14710344 71.73766582 108.37564614 80.89924129 101.89453125 89.62890625 C97.99483818 93.34721824 93.77709394 97.19140625 88.20703125 97.19140625 C88.12453125 98.49078125 88.04203125 99.79015625 87.95703125 101.12890625 C86.42105381 116.06786489 82.3439818 139.23300401 71.20703125 150.19140625 C64.00361683 155.46619566 56.19300168 159.19842104 48.20703125 163.19140625 C48.20703125 171.11140625 48.20703125 179.03140625 48.20703125 187.19140625 C52.16703125 188.18140625 56.12703125 189.17140625 60.20703125 190.19140625 C59.54703125 190.52140625 58.88703125 190.85140625 58.20703125 191.19140625 C58.42359375 192.73828125 58.42359375 192.73828125 58.64453125 194.31640625 C58.62971467 202.64332556 52.98859245 211.72932696 47.51953125 217.69140625 C42.75370033 222.02905705 37.07583564 224.64960683 31.20703125 227.19140625 C30.38976562 227.57039062 29.5725 227.949375 28.73046875 228.33984375 C20.33301901 231.17365806 8.89094514 229.67285136 0.8359375 226.15625 C-10.08474994 220.42887429 -17.78821178 211.99490047 -21.79296875 200.19140625 C-22.1208672 197.79462471 -22.34928717 195.42692541 -22.484375 193.01171875 C-22.58621094 192.41101563 -22.68804687 191.8103125 -22.79296875 191.19140625 C-23.45296875 190.86140625 -24.11296875 190.53140625 -24.79296875 190.19140625 C-20.17296875 189.20140625 -15.55296875 188.21140625 -10.79296875 187.19140625 C-9.60784994 175.05491098 -9.60784994 175.05491098 -11.79296875 163.19140625 C-15.5894735 158.92189775 -20.64433824 157.15591905 -25.890625 155.21875 C-32.36879045 152.81754727 -37.04128229 148.94505737 -40.74609375 143.12109375 C-44.6947758 133.82028241 -48.22257693 124.75362867 -49.57421875 114.69140625 C-50.46937185 104.45440122 -50.46937185 104.45440122 -55.05859375 95.7265625 C-57.62980309 94.27470192 -57.62980309 94.27470192 -60.32421875 93.2421875 C-66.09721849 90.78500881 -68.79112561 84.69610895 -71.16796875 79.19140625 C-74.06097167 70.41474339 -74.60773 59.98971334 -70.60546875 51.50390625 C-68.39620527 47.81972603 -66.28326952 44.72187431 -62.79296875 42.19140625 C-59.07051363 42.00528349 -57.89980404 43.09699367 -55.10546875 45.56640625 C-52.79296875 48.19140625 -52.79296875 48.19140625 -50.79296875 51.19140625 C-50.68807129 50.05880371 -50.68807129 50.05880371 -50.58105469 48.90332031 C-50.24954409 45.41446443 -49.89637546 41.92810955 -49.54296875 38.44140625 C-49.37861328 36.66056641 -49.37861328 36.66056641 -49.2109375 34.84375 C-47.78581382 21.11755881 -44.47881434 8.4628444 -33.5390625 -0.58203125 C-23.62544327 -7.54596064 -10.46215743 -3.97856691 0 0 Z " fill="#E3B591" transform="translate(239.79296875,181.80859375)"/>
<path d="M0 0 C6.20018643 1.91042159 12.7526692 2.43160589 19.18359375 3.2890625 C19.18359375 40.9090625 19.18359375 78.5290625 19.18359375 117.2890625 C-4.14973958 127.2890625 -4.14973958 127.2890625 -6.81640625 127.2890625 C-6.81640625 128.2790625 -6.81640625 129.2690625 -6.81640625 130.2890625 C-5.69363281 130.0725 -4.57085937 129.8559375 -3.4140625 129.6328125 C-1.90242234 129.35114042 -0.39069902 129.06991438 1.12109375 128.7890625 C1.85650391 128.64597656 2.59191406 128.50289062 3.34960938 128.35546875 C4.08759766 128.22011719 4.82558594 128.08476562 5.5859375 127.9453125 C6.25101318 127.81962891 6.91608887 127.69394531 7.60131836 127.56445312 C11.44139224 127.1549227 15.32174412 127.2890625 19.18359375 127.2890625 C19.18359375 160.9490625 19.18359375 194.6090625 19.18359375 229.2890625 C6.78591308 228.25592244 -3.29565114 225.77113357 -11.81640625 216.2890625 C-17.33824546 209.14469234 -20.99828557 202.21909896 -21.5078125 193.109375 C-21.60964844 192.50867188 -21.71148437 191.90796875 -21.81640625 191.2890625 C-22.47640625 190.9590625 -23.13640625 190.6290625 -23.81640625 190.2890625 C-19.19640625 189.2990625 -14.57640625 188.3090625 -9.81640625 187.2890625 C-8.63128744 175.15256723 -8.63128744 175.15256723 -10.81640625 163.2890625 C-14.612911 159.019554 -19.66777574 157.2535753 -24.9140625 155.31640625 C-31.39222795 152.91520352 -36.06471979 149.04271362 -39.76953125 143.21875 C-43.7182133 133.91793866 -47.24601443 124.85128492 -48.59765625 114.7890625 C-49.49280935 104.55205747 -49.49280935 104.55205747 -54.08203125 95.82421875 C-56.65324059 94.37235817 -56.65324059 94.37235817 -59.34765625 93.33984375 C-65.12065599 90.88266506 -67.81456311 84.7937652 -70.19140625 79.2890625 C-73.08440917 70.51239964 -73.6311675 60.08736959 -69.62890625 51.6015625 C-67.41964277 47.91738228 -65.30670702 44.81953056 -61.81640625 42.2890625 C-58.09395113 42.10293974 -56.92324154 43.19464992 -54.12890625 45.6640625 C-51.81640625 48.2890625 -51.81640625 48.2890625 -49.81640625 51.2890625 C-49.71150879 50.15645996 -49.71150879 50.15645996 -49.60449219 49.00097656 C-49.27298159 45.51212068 -48.91981296 42.0257658 -48.56640625 38.5390625 C-48.40205078 36.75822266 -48.40205078 36.75822266 -48.234375 34.94140625 C-46.80925132 21.21521506 -43.50225184 8.56050065 -32.5625 -0.484375 C-22.98833581 -7.20985051 -10.05552587 -4.12843919 0 0 Z " fill="#F0C8A4" transform="translate(238.81640625,181.7109375)"/>
<path d="M0 0 C17.97326419 12.96531958 29.00840978 31.05307956 33.1875 52.75 C33.48760777 54.82931811 33.75688357 56.91325064 34 59 C34.2165625 60.77890625 34.2165625 60.77890625 34.4375 62.59375 C35.05645407 71.64595324 35.05645407 71.64595324 32.05859375 75.48828125 C29.625 77.5625 29.625 77.5625 27.1640625 79.25390625 C24.64154554 81.28922228 23.95077326 82.94394308 23 86 C22.67 86 22.34 86 22 86 C21.95512451 85.31075439 21.91024902 84.62150879 21.86401367 83.91137695 C21.09473633 56.2118118 21.09473633 56.2118118 8 32.875 C0.39839837 28.12399898 -8.29258481 27.90804742 -17 29 C-20.77961154 29.90953219 -24.32787567 31.31363938 -27.9140625 32.80859375 C-42.06273159 38.2710546 -58.25545871 35.09798542 -71.8984375 29.89453125 C-78.48489771 27.99490985 -87.11113539 27.66158722 -93.64453125 29.91015625 C-103.37561218 35.69670724 -107.24648199 45.54539428 -110 56 C-110.33939734 58.33504708 -110.62194267 60.67895916 -110.8515625 63.02734375 C-111.04492188 64.95610352 -111.04492188 64.95610352 -111.2421875 66.92382812 C-111.36993193 68.26170536 -111.49753437 69.59959617 -111.625 70.9375 C-111.75982771 72.30279266 -111.89523924 73.66802781 -112.03125 75.03320312 C-112.35990332 78.35494922 -112.68263046 81.67716004 -113 85 C-113.90878906 83.84757812 -113.90878906 83.84757812 -114.8359375 82.671875 C-118.83313954 77.64991957 -118.83313954 77.64991957 -124 74 C-124.25381249 49.69040385 -120.50306454 30.33875214 -103.21948242 12.14550781 C-74.71300228 -16.75942356 -34.6192399 -22.76805124 0 0 Z " fill="#282521" transform="translate(303,150)"/>
<path d="M0 0 C0.97646484 0.40283203 1.95292969 0.80566406 2.95898438 1.22070312 C3.96638672 1.64158203 4.97378906 2.06246094 6.01171875 2.49609375 C7.03845703 2.92083984 8.06519531 3.34558594 9.12304688 3.78320312 C11.65014216 4.82930303 14.17542769 5.87955291 16.69921875 6.93359375 C16.69921875 7.92359375 16.69921875 8.91359375 16.69921875 9.93359375 C11.96387636 10.1157223 7.73377518 9.82053345 3.07421875 8.93359375 C-6.98077597 7.16067277 -16.68817902 7.50056362 -26.6796875 9.49609375 C-29.27293903 9.92894646 -31.67728966 10.00949947 -34.30078125 9.93359375 C-34.30078125 8.94359375 -34.30078125 7.95359375 -34.30078125 6.93359375 C-30.41404147 5.22457206 -26.51515306 3.54524553 -22.61328125 1.87109375 C-21.51048828 1.38576172 -20.40769531 0.90042969 -19.27148438 0.40039062 C-18.20478516 -0.05400391 -17.13808594 -0.50839844 -16.0390625 -0.9765625 C-15.05977783 -1.40074463 -14.08049316 -1.82492676 -13.0715332 -2.26196289 C-8.21203408 -3.67284047 -4.52300364 -1.87797227 0 0 Z " fill="#352F2A" transform="translate(266.30078125,302.06640625)"/>
<path d="M0 0 C0 2.64 0 5.28 0 8 C-8.1349514 10.19017922 -16.53406522 12.2166784 -25 12 C-25 11.01 -25 10.02 -25 9 C-21.3993541 7.49144661 -17.79394041 5.99464176 -14.1875 4.5 C-13.16333984 4.07074219 -12.13917969 3.64148438 -11.08398438 3.19921875 C-10.10107422 2.79316406 -9.11816406 2.38710938 -8.10546875 1.96875 C-7.19949951 1.59169922 -6.29353027 1.21464844 -5.36010742 0.82617188 C-3 0 -3 0 0 0 Z " fill="#2D2925" transform="translate(257,300)"/>
</svg>
